<svg width="20" height="20" viewBox="0 0 20 20" xmlns="http://www.w3.org/2000/svg"><title>practice</title><g fill="none" fill-rule="evenodd"><circle stroke="#FFF" opacity=".35" cx="10" cy="10" r="9.5"/><path d="M12.386 9.379c-1.877-1.66-2.858-4.24.182-5.594 2.763-1.23 3.128 1.446 6.256-.428 0 0-2.647 9.373-6.438 6.022zm.782 1.445s-.495 1.15-1.395 2.18c0 0-1.081-.708-1.994-1.618-.912-.91-1.746-2.224-1.746-2.224.73-.64 1.564-1.255 2.142-1.48 0 0 .386 1.028 1.377 1.991.902.878 1.616 1.15 1.616 1.15zm-9.566 6.7c-1.884-1.767 1.008-5.21 3.788-7.78 0 0 .565 1.053 1.698 2.11 1.132 1.059 2.125 1.686 2.125 1.686-2.86 2.91-6.012 5.482-7.611 3.983z" fill="#FFF"/></g></svg>