<svg width="33" height="33" viewBox="0 0 33 33" xmlns="http://www.w3.org/2000/svg"><title>ico-discount</title><g fill="#D0011B" fill-rule="evenodd"><path d="M16.494 29.274c1.292 0 2.537.41 3.568 1.166.108-.028.216-.056.324-.087a5.95 5.95 0 0 1 2.501-2.775 6.074 6.074 0 0 1 3.677-.757c.08-.078.16-.157.24-.238a5.878 5.878 0 0 1 .764-3.639 5.967 5.967 0 0 1 2.804-2.476l.087-.32a5.886 5.886 0 0 1 0-7.066 15.909 15.909 0 0 0-.087-.32 5.967 5.967 0 0 1-2.804-2.476 5.879 5.879 0 0 1-.765-3.64 10.74 10.74 0 0 0-.24-.237 6.071 6.071 0 0 1-3.675-.757 5.948 5.948 0 0 1-2.502-2.776 15.03 15.03 0 0 0-.324-.086 6.026 6.026 0 0 1-3.568 1.166 6.025 6.025 0 0 1-3.568-1.166c-.108.028-.216.056-.324.086A5.948 5.948 0 0 1 10.1 5.652a6.069 6.069 0 0 1-3.677.757l-.24.237a5.88 5.88 0 0 1-.764 3.64 5.966 5.966 0 0 1-2.804 2.476c-.03.107-.06.213-.087.32a5.887 5.887 0 0 1 0 7.066l.087.32a5.966 5.966 0 0 1 2.804 2.476 5.88 5.88 0 0 1 .765 3.64c.078.08.158.159.24.237a6.059 6.059 0 0 1 3.675.757 5.95 5.95 0 0 1 2.502 2.775c.108.03.216.06.324.087a6.025 6.025 0 0 1 3.568-1.166m-3.26 3.669c-.084 0-.168-.009-.252-.026a16.873 16.873 0 0 1-1.68-.446 1.205 1.205 0 0 1-.783-.786 3.55 3.55 0 0 0-1.631-2.03 3.638 3.638 0 0 0-2.588-.383 1.223 1.223 0 0 1-1.08-.279 16.74 16.74 0 0 1-1.23-1.217 1.191 1.191 0 0 1-.282-1.07 3.514 3.514 0 0 0-.387-2.562 3.572 3.572 0 0 0-2.05-1.614 1.207 1.207 0 0 1-.795-.777c-.18-.55-.331-1.108-.45-1.661a1.192 1.192 0 0 1 .297-1.065c.619-.661.96-1.518.96-2.412 0-.894-.341-1.751-.96-2.413a1.192 1.192 0 0 1-.297-1.064c.119-.553.27-1.112.45-1.662.122-.37.418-.66.795-.776a3.573 3.573 0 0 0 2.05-1.614 3.514 3.514 0 0 0 .387-2.563c-.087-.38.019-.779.283-1.069a16.61 16.61 0 0 1 1.23-1.217 1.223 1.223 0 0 1 1.08-.28c.878.198 1.811.06 2.587-.383a3.55 3.55 0 0 0 1.63-2.029c.117-.373.41-.666.785-.786a16.91 16.91 0 0 1 1.679-.446c.387-.08.786.028 1.075.293a3.598 3.598 0 0 0 4.874 0 1.218 1.218 0 0 1 1.075-.293c.56.118 1.125.268 1.68.446.374.12.667.413.783.786a3.55 3.55 0 0 0 1.63 2.03c.776.443 1.711.58 2.59.383.384-.086.787.018 1.08.28.429.383.842.792 1.228 1.216.264.29.37.689.283 1.069a3.51 3.51 0 0 0 .388 2.563 3.573 3.573 0 0 0 2.05 1.614c.376.116.672.405.794.776.18.55.33 1.108.45 1.662.081.381-.03.778-.297 1.064a3.524 3.524 0 0 0-.96 2.413c0 .894.341 1.751.96 2.412.268.287.378.683.296 1.065-.119.554-.27 1.113-.45 1.661a1.204 1.204 0 0 1-.794.777c-.87.267-1.598.84-2.05 1.614a3.514 3.514 0 0 0-.387 2.563 1.19 1.19 0 0 1-.283 1.069c-.387.424-.8.834-1.23 1.217a1.22 1.22 0 0 1-1.079.28 3.643 3.643 0 0 0-2.588.383 3.55 3.55 0 0 0-1.63 2.029c-.117.373-.41.666-.785.786a16.91 16.91 0 0 1-1.679.446 1.22 1.22 0 0 1-1.075-.294 3.6 3.6 0 0 0-4.874 0c-.226.208-.521.32-.823.32"/><path d="M11.258 11.089c-.985 0-1.786.792-1.786 1.767 0 .975.801 1.768 1.786 1.768.984 0 1.785-.793 1.785-1.768s-.8-1.767-1.785-1.767m0 5.935c-2.321 0-4.21-1.87-4.21-4.168s1.889-4.167 4.21-4.167c2.321 0 4.21 1.87 4.21 4.167 0 2.298-1.889 4.168-4.21 4.168m10.524 1.582c-.984 0-1.785.793-1.785 1.767 0 .975.8 1.768 1.785 1.768.985 0 1.786-.793 1.786-1.768 0-.974-.801-1.767-1.786-1.767m0 5.935c-2.32 0-4.21-1.87-4.21-4.168 0-2.297 1.89-4.167 4.21-4.167 2.322 0 4.21 1.87 4.21 4.167 0 2.298-1.888 4.168-4.21 4.168m-10.525-.001c-.26 0-.52-.081-.741-.25a1.192 1.192 0 0 1-.216-1.684L20.824 9.154a1.22 1.22 0 0 1 1.7-.214c.53.406.627 1.16.217 1.683L12.216 24.076a1.214 1.214 0 0 1-.959.465"/></g></svg>