<svg width="20" height="20" viewBox="0 0 20 20" xmlns="http://www.w3.org/2000/svg"><title>practice-comment</title><g fill="none" fill-rule="evenodd"><circle fill="#FF9000" cx="10" cy="10" r="10"/><path d="M5 7.003A1 1 0 0 1 5.998 6h8.007c.55 0 .995.438.995 1.003v4.994c0 .554-.455 1.003-.999 1.003h-3.936L8.13 15l-1.128-2H6.001A.995.995 0 0 1 5 11.997V7.003zM7 8.5c0 .268.22.5.491.5h5.018a.5.5 0 0 0 0-1H7.491A.5.5 0 0 0 7 8.5zm0 2c0 .268.22.5.491.5h5.018a.5.5 0 0 0 0-1H7.491a.5.5 0 0 0-.491.5z" fill="#FFF"/></g></svg>