<?xml version="1.0" standalone="no"?>
<!DOCTYPE svg PUBLIC "-//W3C//DTD SVG 1.1//EN" "http://www.w3.org/Graphics/SVG/1.1/DTD/svg11.dtd" >
<svg>
<metadata>
Created by FontForge 20090622 at Wed Jun 14 16:16:03 2017
 By deploy user
Copyright (c) 2015 by S-Core Co., Ltd.. All rights reserved.
</metadata>
<defs>
<font id="CoreSansGS65Bold" horiz-adv-x="804" >
  <font-face 
    font-family="Core Sans GS 65 Bold"
    font-weight="600"
    font-stretch="normal"
    units-per-em="2000"
    panose-1="2 15 8 3 3 3 2 2 2 2"
    ascent="1600"
    descent="-400"
    x-height="936"
    cap-height="1400"
    bbox="-838 -586 3274 1920"
    underline-thickness="48"
    underline-position="-366"
    unicode-range="U+0009-U+FB06"
  />
<missing-glyph horiz-adv-x="1020" 
d="M10 0v1400h1000v-1400h-1000zM408 220q0 -40 27.5 -68t66.5 -28q40 0 68 28t28 68t-28 68t-68 28q-39 0 -66.5 -28t-27.5 -68zM682 458l-68 100q-39 -42 -88 -42q-29 0 -47.5 15t-18.5 43q0 56 114 110q134 63 198 134.5t64 181.5q0 116 -92 192t-234 76
q-86 0 -171 -42.5t-145 -115.5l104 -80q37 51 92.5 81.5t117.5 30.5q89 0 140.5 -40.5t51.5 -99.5q0 -65 -52 -112.5t-164 -105.5q-158 -80 -158 -204q0 -86 53.5 -137t146.5 -51t156 66z" />
    <glyph glyph-name="ff" unicode="ff" horiz-adv-x="1432" 
d="M204 936v148q0 191 101 299.5t273 108.5q127 0 216 -50q27 -15 43.5 -42t16.5 -58q0 -46 -32.5 -78t-79.5 -32q-22 0 -56 14q-31 14 -74 14q-66 0 -105 -50t-39 -140v-134h402v188q0 187 92.5 292.5t261.5 105.5q79 0 149.5 -28t118.5 -78q34 -34 34 -84q0 -47 -34 -80.5
t-80 -33.5q-40 0 -76 30q-41 32 -86 32q-116 0 -116 -172v-172h162q51 0 85.5 -35.5t34.5 -86.5t-34.5 -85.5t-85.5 -34.5h-162v-586q0 -54 -39 -93t-93 -39t-93 39t-39 93v586h-402v-586q0 -54 -39 -93t-93 -39t-93 39t-39 93v586h-54q-51 0 -85.5 34.5t-34.5 85.5
t34.5 86.5t85.5 35.5h54z" />
    <glyph glyph-name="fi" unicode="fi" horiz-adv-x="1256" 
d="M1124 814v-706q0 -54 -39 -93t-93 -39t-93 39t-39 93v586h-392v-586q0 -54 -39 -93t-93 -39t-93 39t-39 93v586h-54q-51 0 -85.5 34.5t-34.5 85.5t34.5 86.5t85.5 35.5h52v146q0 202 124.5 321t319.5 119q103 0 196 -38.5t162 -109.5q32 -32 32 -80t-33 -80t-81 -32
q-51 0 -84 36q-67 70 -174 70q-95 0 -145.5 -57.5t-50.5 -158.5v-136h536q51 0 85.5 -35.5t34.5 -86.5z" />
    <glyph glyph-name="fl" unicode="fl" horiz-adv-x="1284" 
d="M890 1416q8 43 44.5 75.5t85.5 32.5q54 0 93 -39t39 -93v-1284q0 -54 -39 -93t-93 -39t-93 39t-39 93v1098q-35 38 -87 61t-111 23q-110 0 -166 -62.5t-56 -173.5v-118h162q51 0 85.5 -35.5t34.5 -86.5t-34.5 -85.5t-85.5 -34.5h-162v-586q0 -54 -39 -93t-93 -39t-93 39
t-39 93v586h-54q-51 0 -85.5 34.5t-34.5 85.5t34.5 86.5t85.5 35.5h54v108q0 222 115.5 350t306.5 128q78 0 150 -30t114 -76z" />
    <glyph glyph-name="ffi" unicode="ffi" horiz-adv-x="1922" 
d="M1790 814v-706q0 -54 -39 -93t-93 -39t-93 39t-39 93v586h-392v-586q0 -54 -39 -93t-93 -39t-93 39t-39 93v586h-402v-586q0 -54 -39 -93t-93 -39t-93 39t-39 93v586h-54q-51 0 -85.5 34.5t-34.5 85.5t34.5 86.5t85.5 35.5h54v148q0 191 101 299.5t273 108.5
q127 0 216 -50q27 -15 43.5 -42t16.5 -58q0 -46 -32.5 -78t-79.5 -32q-22 0 -56 14q-31 14 -74 14q-66 0 -105 -50t-39 -140v-134h400v146q0 202 124.5 321t319.5 119q103 0 196 -38.5t162 -109.5q32 -32 32 -80t-33 -80t-81 -32q-51 0 -84 36q-67 70 -174 70
q-95 0 -145.5 -57.5t-50.5 -158.5v-136h536q51 0 85.5 -35.5t34.5 -86.5z" />
    <glyph glyph-name="ffl" unicode="ffl" horiz-adv-x="1950" 
d="M468 694v-586q0 -54 -39 -93t-93 -39t-93 39t-39 93v586h-54q-51 0 -85.5 34.5t-34.5 85.5t34.5 86.5t85.5 35.5h54v148q0 191 101 299.5t273 108.5q127 0 216 -50q27 -15 43.5 -42t16.5 -58q0 -46 -32.5 -78t-79.5 -32q-22 0 -56 14q-31 14 -74 14q-66 0 -105 -50
t-39 -140v-134h402v108q0 222 115.5 350t306.5 128q78 0 150 -30t114 -76q8 43 44.5 75.5t85.5 32.5q54 0 93 -39t39 -93v-1284q0 -54 -39 -93t-93 -39t-93 39t-39 93v1098q-35 38 -87 61t-111 23q-110 0 -166 -62.5t-56 -173.5v-118h162q51 0 85.5 -35.5t34.5 -86.5
t-34.5 -85.5t-85.5 -34.5h-162v-586q0 -54 -39 -93t-93 -39t-93 39t-39 93v586h-402z" />
    <glyph glyph-name=".notdef" horiz-adv-x="1020" 
d="M10 0v1400h1000v-1400h-1000zM408 220q0 -40 27.5 -68t66.5 -28q40 0 68 28t28 68t-28 68t-68 28q-39 0 -66.5 -28t-27.5 -68zM682 458l-68 100q-39 -42 -88 -42q-29 0 -47.5 15t-18.5 43q0 56 114 110q134 63 198 134.5t64 181.5q0 116 -92 192t-234 76
q-86 0 -171 -42.5t-145 -115.5l104 -80q37 51 92.5 81.5t117.5 30.5q89 0 140.5 -40.5t51.5 -99.5q0 -65 -52 -112.5t-164 -105.5q-158 -80 -158 -204q0 -86 53.5 -137t146.5 -51t156 66z" />
    <glyph glyph-name=".null" horiz-adv-x="0" 
 />
    <glyph glyph-name=".null" horiz-adv-x="0" 
 />
    <glyph glyph-name="nonmarkingreturn" horiz-adv-x="666" 
 />
    <glyph glyph-name="CR" unicode="&#x9;" horiz-adv-x="474" 
 />
    <glyph glyph-name="space" unicode=" " horiz-adv-x="600" 
 />
    <glyph glyph-name="exclam" unicode="!" horiz-adv-x="652" 
d="M326 -24q-71 0 -119.5 44.5t-48.5 111.5t48.5 111.5t119.5 44.5t119.5 -44.5t48.5 -111.5t-48.5 -111.5t-119.5 -44.5zM180 514v764q0 60 43 103t103 43t103 -43t43 -103v-764q0 -60 -43 -103t-103 -43t-103 43t-43 103z" />
    <glyph glyph-name="quotedbl" unicode="&#x22;" horiz-adv-x="1084" 
d="M320 790q-43 0 -72 29t-32 73l-26 407q0 53 38 89t92 36t92 -36t38 -88l-26 -408q-3 -44 -32 -73t-72 -29zM764 790q-43 0 -72 29t-32 73l-26 407q0 53 38 89t92 36t92 -36t38 -88l-26 -408q-3 -44 -32 -73t-72 -29z" />
    <glyph glyph-name="numbersign" unicode="#" horiz-adv-x="1350" 
d="M532 864v-326h286v326h-286zM1160 318h-108v-224q0 -50 -34 -84t-84 -34q-48 0 -82 34.5t-34 83.5v224h-286v-224q0 -50 -34 -84t-84 -34q-48 0 -82 34.5t-34 83.5v224h-108q-45 0 -76.5 31.5t-31.5 76.5t31.5 77.5t76.5 32.5h108v328h-108q-45 0 -76.5 31.5t-31.5 76.5
t31.5 77.5t76.5 32.5h108v224q0 49 34 83.5t82 34.5q50 0 84 -34t34 -84v-224h286v224q0 49 34 83.5t82 34.5q50 0 84 -34t34 -84v-224h108q45 0 76.5 -32.5t31.5 -77.5t-31.5 -76.5t-76.5 -31.5h-108v-328h108q45 0 76.5 -32.5t31.5 -77.5t-31.5 -76.5t-76.5 -31.5z" />
    <glyph glyph-name="dollar" unicode="$" horiz-adv-x="1102" 
d="M68 270q0 54 37 92t91 38t92 -38q115 -118 252 -118q82 0 135 48.5t53 117.5q0 77 -48.5 129t-175.5 104q-180 74 -264 174t-84 249q0 118 70 210t192 128v84q0 46 32 79t78 33t79 -33.5t33 -78.5v-70q143 -23 252 -116q40 -34 40 -96q0 -51 -36.5 -86.5t-87.5 -35.5
q-41 0 -72 22q-75 50 -154 50q-61 0 -97.5 -25.5t-36.5 -74.5q0 -56 45 -95.5t169 -90.5q183 -75 270.5 -189t87.5 -279q0 -157 -90.5 -269.5t-253.5 -144.5v-80q0 -45 -33 -78.5t-79 -33.5t-78 33t-32 79v76q-101 16 -191 65t-154 121q-41 46 -41 100z" />
    <glyph glyph-name="percent" unicode="%" horiz-adv-x="1880" 
d="M126 1090q0 140 100.5 237t239.5 97t239.5 -97t100.5 -237t-100.5 -237t-239.5 -97t-239.5 97t-100.5 237zM1754 310q0 -140 -100.5 -237t-239.5 -97t-239.5 97t-100.5 237t100.5 237t239.5 97t239.5 -97t100.5 -237zM1468 1282l-902 -1270q-26 -36 -72 -36
q-41 0 -68.5 27t-27.5 67q0 28 16 50l902 1270q26 36 72 36q41 0 68.5 -27t27.5 -67q0 -28 -16 -50zM1542 310q0 53 -36.5 90.5t-91.5 37.5t-91.5 -37.5t-36.5 -90.5t36.5 -90.5t91.5 -37.5t91.5 37.5t36.5 90.5zM338 1090q0 -53 36.5 -90.5t91.5 -37.5t91.5 37.5t36.5 90.5
t-36.5 90.5t-91.5 37.5t-91.5 -37.5t-36.5 -90.5z" />
    <glyph glyph-name="ampersand" unicode="&#x26;" horiz-adv-x="1318" 
d="M1096 220l60 -74q30 -37 30 -84q0 -55 -40.5 -92.5t-95.5 -37.5q-62 0 -102 50l-70 88q-172 -94 -334 -94q-210 0 -335 109.5t-125 278.5q0 115 59 214.5t193 197.5q-68 92 -99 167t-31 151q0 145 103 237.5t265 92.5q147 0 254.5 -94t107.5 -238q0 -74 -31 -138
t-80.5 -113t-132.5 -109l248 -312q66 58 98 96q42 48 100 48q52 0 89 -37t37 -89q0 -51 -36 -90q-40 -44 -132 -128zM542 218q84 0 182 52l-242 316q-71 -60 -94.5 -108t-23.5 -106q0 -70 49 -112t129 -42zM472 1088q0 -70 76 -172q67 49 93.5 89t26.5 89q0 41 -26 70.5
t-68 29.5q-48 0 -75 -29.5t-27 -76.5z" />
    <glyph glyph-name="quotesingle" unicode="'" horiz-adv-x="642" 
d="M320 790q-43 0 -72 29t-32 73l-26 407q0 53 38 89t92 36t92 -36t38 -88l-26 -408q-3 -44 -32 -73t-72 -29z" />
    <glyph glyph-name="parenleft" unicode="(" horiz-adv-x="774" 
d="M182 620q0 208 56.5 421t170.5 403q15 25 40.5 40.5t56.5 15.5q48 0 84 -33t36 -81q0 -22 -16 -54q-160 -331 -160 -712t160 -712q16 -32 16 -54q0 -48 -36 -81t-84 -33q-31 0 -56.5 15.5t-40.5 40.5q-114 190 -170.5 403t-56.5 421z" />
    <glyph glyph-name="parenright" unicode=")" horiz-adv-x="774" 
d="M592 620q0 -208 -56.5 -421t-170.5 -403q-15 -25 -40.5 -40.5t-56.5 -15.5q-48 0 -84 33t-36 81q0 22 16 54q160 331 160 712t-160 712q-16 32 -16 54q0 48 36 81t84 33q31 0 56.5 -15.5t40.5 -40.5q114 -190 170.5 -403t56.5 -421z" />
    <glyph glyph-name="asterisk" unicode="*" horiz-adv-x="1166" 
d="M582 514l-106 -202l-24 -34q-35 -49 -99 -49q-40 0 -73 23q-51 37 -51 101q0 39 23 71l24 34l154 152l-212 30l-32 10q-39 12 -64 46.5t-25 75.5q0 18 6 36q13 39 45.5 62.5t71.5 23.5q20 0 38 -6l36 -12l198 -100l-34 220v34q0 51 36.5 87.5t87.5 36.5t87.5 -36.5
t36.5 -87.5v-34l-34 -220l198 100l36 12q18 6 38 6q39 0 71.5 -23.5t44.5 -62.5q6 -18 6 -38q0 -41 -24.5 -74.5t-63.5 -45.5l-32 -10l-212 -30l154 -152l24 -34q23 -32 23 -71q0 -64 -51 -101q-33 -23 -73 -23q-64 0 -99 49l-24 34z" />
    <glyph glyph-name="plus" unicode="+" horiz-adv-x="1252" 
d="M758 776h274q46 0 79 -33t33 -79t-33 -79t-79 -33h-274v-290q0 -54 -39 -93t-93 -39t-93 39t-39 93v290h-274q-46 0 -79 33t-33 79t33 79t79 33h274v290q0 54 39 93t93 39t93 -39t39 -93v-290z" />
    <glyph glyph-name="comma" unicode="," horiz-adv-x="620" 
d="M192 212q12 43 47 70.5t81 27.5q56 0 96 -39.5t40 -94.5q0 -25 -8 -44l-150 -378q-31 -80 -102 -80q-45 0 -76.5 29t-31.5 77q0 10 4 30z" />
    <glyph glyph-name="hyphen" unicode="-" horiz-adv-x="812" 
d="M608 548h-404q-48 0 -82 34t-34 82t34 82t82 34h404q48 0 82 -34t34 -82t-34 -82t-82 -34z" />
    <glyph glyph-name="period" unicode="." horiz-adv-x="620" 
d="M144 144q0 69 49 117.5t117 48.5t117 -48.5t49 -117.5t-49 -117.5t-117 -48.5t-117 48.5t-49 117.5z" />
    <glyph glyph-name="slash" unicode="/" horiz-adv-x="1090" 
d="M70 -44l734 1476q14 29 43.5 46.5t62.5 17.5q51 0 87.5 -34.5t36.5 -85.5q0 -28 -14 -56l-734 -1476q-14 -29 -43.5 -46.5t-62.5 -17.5q-51 0 -87.5 34.5t-36.5 85.5q0 28 14 56z" />
    <glyph glyph-name="zero" unicode="0" horiz-adv-x="1240" 
d="M1110 700q0 -212 -53 -372.5t-165 -256t-272 -95.5t-272 95.5t-165 256t-53 372.5t53 372.5t165 256t272 95.5t272 -95.5t165 -256t53 -372.5zM420 700q0 -222 50.5 -341t149.5 -119t149.5 119t50.5 341t-50.5 341t-149.5 119t-149.5 -119t-50.5 -341z" />
    <glyph glyph-name="one" unicode="1" horiz-adv-x="1240" 
d="M190 1054q0 70 62 106l438 244q28 16 54 16q35 0 58.5 -21t23.5 -57v-1220q0 -60 -43 -103t-103 -43t-103 43t-43 103v910l-160 -86q-29 -16 -62 -16q-51 0 -86.5 36.5t-35.5 87.5z" />
    <glyph glyph-name="two" unicode="2" horiz-adv-x="1240" 
d="M146 1108q0 39 18 72q65 114 178 179t240 65q199 0 323.5 -116.5t124.5 -301.5q0 -178 -156 -386l-276 -364h352q52 0 90 -38t38 -90t-38 -90t-90 -38h-736q-32 0 -53 21t-21 53q0 28 16 50l452 608q72 96 102 155.5t30 116.5q0 67 -42.5 109.5t-113.5 42.5
q-125 0 -190 -102q-45 -72 -120 -72q-55 0 -91.5 35.5t-36.5 90.5z" />
    <glyph glyph-name="three" unicode="3" horiz-adv-x="1240" 
d="M120 252q0 53 40.5 94.5t95.5 41.5q59 0 96 -46q37 -47 92.5 -76.5t113.5 -29.5q92 0 153 57t61 149q0 242 -270 242h-18q-36 0 -62 24t-26 60q0 27 18 56l210 318h-322q-54 0 -91 37t-37 91t37 92t91 38h670q32 0 53 -21t21 -53q0 -28 -16 -50l-292 -426
q152 -49 238 -158.5t86 -265.5q0 -87 -32 -167t-91.5 -143.5t-153 -101.5t-207.5 -38q-128 0 -241 51t-185 141q-32 39 -32 84z" />
    <glyph glyph-name="four" unicode="4" horiz-adv-x="1240" 
d="M980 1306v-790h44q54 0 93 -39t39 -93t-39 -93t-93 -39h-44v-130q0 -60 -43 -103t-103 -43t-103 43t-43 103v130h-570q-31 0 -52.5 21t-21.5 51q0 26 16 48l704 986q44 62 108 62q45 0 76.5 -32.5t31.5 -81.5zM398 514h290v402z" />
    <glyph glyph-name="five" unicode="5" horiz-adv-x="1240" 
d="M132 246q0 53 37 90.5t89 37.5q58 0 106 -52q78 -84 200 -84q96 0 155 60.5t59 153.5q0 106 -72 170t-188 64q-85 0 -170 -44q-24 -12 -48 -12q-28 0 -48.5 19t-20.5 51q0 9 1 14l82 558q9 59 44 93.5t88 34.5h462q54 0 93 -39t39 -93t-39 -93t-93 -39h-326l-40 -244
q10 2 30 2q95 0 183 -30t158.5 -84.5t112.5 -141t42 -190.5q0 -132 -57 -238.5t-169 -170t-262 -63.5q-233 0 -396 160q-52 52 -52 110z" />
    <glyph glyph-name="six" unicode="6" horiz-adv-x="1240" 
d="M1134 450q0 -136 -69.5 -246t-183 -169t-245.5 -59q-100 0 -192.5 35t-162 96.5t-111.5 151.5t-42 193q0 146 114 322l380 592q37 58 112 58q54 0 96 -40t42 -96q0 -33 -22 -70l-208 -324q64 0 131.5 -17.5t132.5 -55t115.5 -89t81.5 -125t31 -157.5zM846 448
q0 92 -63 153t-153 61t-152 -61t-62 -153q0 -93 62 -154.5t152 -61.5t153 61.5t63 154.5z" />
    <glyph glyph-name="seven" unicode="7" horiz-adv-x="1240" 
d="M322 116q0 28 12 58l406 962h-464q-54 0 -93 39t-39 93t39 93t93 39h752q36 0 59 -21t23 -51q0 -23 -14 -60l-498 -1206q-17 -39 -53 -62.5t-81 -23.5q-58 0 -100 41t-42 99z" />
    <glyph glyph-name="eight" unicode="8" horiz-adv-x="1240" 
d="M620 -24q-217 0 -361.5 130.5t-144.5 321.5q0 120 63 214.5t169 147.5q-62 44 -101 113.5t-39 148.5q0 159 117 265.5t297 106.5t297 -106.5t117 -265.5q0 -79 -39 -148.5t-101 -113.5q106 -53 169 -147.5t63 -214.5q0 -191 -144.5 -321.5t-361.5 -130.5zM620 658
q-92 0 -153 -60t-61 -150q0 -88 61.5 -150t152.5 -62t152.5 62t61.5 150q0 90 -61 150t-153 60zM620 888q63 0 105.5 43.5t42.5 104.5t-42 103.5t-106 42.5t-106 -42.5t-42 -103.5t42.5 -104.5t105.5 -43.5z" />
    <glyph glyph-name="nine" unicode="9" horiz-adv-x="1240" 
d="M106 950q0 136 69.5 246t183 169t245.5 59q100 0 192.5 -35t162 -96.5t111.5 -151.5t42 -193q0 -146 -114 -322l-380 -592q-37 -58 -112 -58q-54 0 -96 40t-42 96q0 33 22 70l208 324q-64 0 -131.5 17.5t-132.5 55t-115.5 89t-81.5 125t-31 157.5zM394 952q0 -92 63 -153
t153 -61t152 61t62 153q0 93 -62 154.5t-152 61.5t-153 -61.5t-63 -154.5z" />
    <glyph glyph-name="colon" unicode=":" horiz-adv-x="620" 
d="M144 144q0 69 49 117.5t117 48.5t117 -48.5t49 -117.5t-49 -117.5t-117 -48.5t-117 48.5t-49 117.5zM144 898q0 69 49 117.5t117 48.5t117 -48.5t49 -117.5t-49 -117.5t-117 -48.5t-117 48.5t-49 117.5z" />
    <glyph glyph-name="semicolon" unicode=";" horiz-adv-x="620" 
d="M144 898q0 69 49 117.5t117 48.5t117 -48.5t49 -117.5t-49 -117.5t-117 -48.5t-117 48.5t-49 117.5zM92 -190l100 402q11 43 46.5 70.5t81.5 27.5q56 0 96 -39.5t40 -94.5q0 -25 -8 -44l-150 -378q-31 -80 -102 -80q-45 0 -76.5 29t-31.5 77q0 10 4 30z" />
    <glyph glyph-name="less" unicode="&#x3c;" horiz-adv-x="1252" 
d="M110 664q0 34 38 56l786 440q29 16 62 16q55 0 89.5 -35.5t34.5 -86.5q0 -73 -76 -114l-510 -276l510 -276q76 -41 76 -114q0 -51 -34.5 -86.5t-89.5 -35.5q-33 0 -62 16l-786 440q-38 22 -38 56z" />
    <glyph glyph-name="equal" unicode="=" horiz-adv-x="1252" 
d="M220 1018h812q46 0 79 -33t33 -79t-33 -79t-79 -33h-812q-46 0 -79 33t-33 79t33 79t79 33zM220 534h812q46 0 79 -33t33 -79t-33 -79t-79 -33h-812q-46 0 -79 33t-33 79t33 79t79 33z" />
    <glyph glyph-name="greater" unicode="&#x3e;" horiz-adv-x="1252" 
d="M1142 664q0 -34 -38 -56l-786 -440q-29 -16 -62 -16q-55 0 -89.5 35.5t-34.5 86.5q0 73 76 114l510 276l-510 276q-76 41 -76 114q0 51 34.5 86.5t89.5 35.5q33 0 62 -16l786 -440q38 -22 38 -56z" />
    <glyph glyph-name="question" unicode="?" horiz-adv-x="1030" 
d="M60 1128q0 41 22 76q65 102 181 161t245 59q197 0 321.5 -97t124.5 -243q0 -126 -75 -208.5t-229 -153.5q-81 -38 -116.5 -67t-35.5 -61q0 -58 74 -58q25 0 46 8q24 8 36 8q34 0 58 -24t24 -58q0 -45 -48 -74q-67 -38 -162 -38q-120 0 -195 64.5t-75 161.5q0 84 52.5 156
t153.5 122q107 54 156.5 99.5t49.5 100.5q0 58 -46.5 89t-125.5 31q-124 0 -200 -108q-46 -66 -114 -66q-49 0 -85.5 36t-36.5 84zM340 134q0 67 48.5 112.5t117.5 45.5t117.5 -45.5t48.5 -112.5t-48.5 -112.5t-117.5 -45.5t-117.5 45.5t-48.5 112.5z" />
    <glyph glyph-name="at" unicode="@" horiz-adv-x="1902" 
d="M1130 546q0 89 -60 149.5t-150 60.5t-150 -60.5t-60 -149.5t60 -149.5t150 -60.5t150 60.5t60 149.5zM1144 846q0 46 33 79t79 33t79 -33t33 -79v-438q0 -70 30 -103t78 -33q90 0 144 84.5t54 235.5q0 144 -55.5 274.5t-151 227t-232.5 153.5t-293 57q-146 0 -278.5 -60
t-228.5 -161.5t-152.5 -241.5t-56.5 -293q0 -201 96.5 -373.5t268 -275.5t377.5 -103q112 0 228.5 30.5t207.5 81.5q16 8 34 8q22 0 39 -16t17 -40q0 -36 -32 -54q-228 -130 -494 -130q-146 0 -282 46.5t-243 130t-187 192t-123 238.5t-43 265q0 169 67 329.5t180 280.5
t272 193t333 73q182 0 345 -69t276.5 -183.5t180 -266t66.5 -313.5q0 -203 -106 -330.5t-292 -127.5q-89 0 -157.5 35t-102.5 103q-47 -65 -121 -99.5t-157 -34.5q-163 0 -274.5 118.5t-111.5 289.5t110.5 288.5t273.5 117.5q159 0 272 -116v10z" />
    <glyph glyph-name="A" unicode="A" horiz-adv-x="1332" 
d="M666 1424q63 0 90 -64l496 -1192q10 -27 10 -52q0 -58 -40.5 -99t-97.5 -41q-47 0 -82 26t-52 70l-76 194h-498l-74 -194q-17 -44 -52 -70t-82 -26q-57 0 -97.5 41t-40.5 99q0 25 10 52l496 1192q27 64 90 64zM666 910l-160 -410h318z" />
    <glyph glyph-name="B" unicode="B" horiz-adv-x="1126" 
d="M532 0h-242q-60 0 -103 43t-43 103v1108q0 60 43 103t103 43h214q219 0 344.5 -102.5t125.5 -257.5q0 -98 -48 -174.5t-134 -117.5q121 -38 187.5 -132.5t66.5 -219.5q0 -173 -135 -284.5t-379 -111.5zM436 1150v-288h82q88 0 133 38.5t45 105.5t-45 105.5t-133 38.5h-82
zM436 622v-372h90q109 0 168.5 48.5t59.5 137.5q0 90 -59 138t-169 48h-90z" />
    <glyph glyph-name="C" unicode="C" horiz-adv-x="1452" 
d="M88 700q0 153 60 289t160.5 230.5t235.5 149.5t282 55q153 0 287.5 -51t230.5 -145q40 -40 40 -98q0 -57 -40.5 -96.5t-97.5 -39.5t-100 40q-131 122 -314 122q-189 0 -320.5 -130.5t-131.5 -325.5t131.5 -325.5t320.5 -130.5q183 0 314 122q43 40 100 40t97.5 -39.5
t40.5 -96.5q0 -58 -40 -98q-96 -94 -230.5 -145t-287.5 -51q-147 0 -282 55t-235.5 149.5t-160.5 230.5t-60 289z" />
    <glyph glyph-name="D" unicode="D" horiz-adv-x="1374" 
d="M436 1132v-864h122q195 0 315.5 117t120.5 315t-120.5 315t-315.5 117h-122zM290 1400h262q204 0 370.5 -85.5t265 -246.5t98.5 -368t-98.5 -368t-265 -246.5t-370.5 -85.5h-262q-60 0 -103 43t-43 103v1108q0 60 43 103t103 43z" />
    <glyph glyph-name="E" unicode="E" horiz-adv-x="1006" 
d="M802 0h-512q-60 0 -103 43t-43 103v1108q0 60 43 103t103 43h494q56 0 95 -39t39 -95t-39 -95t-95 -39h-348v-242h302q54 0 93 -39t39 -93t-39 -92t-93 -38h-302v-360h366q56 0 95 -39t39 -95t-39 -95t-95 -39z" />
    <glyph glyph-name="F" unicode="F" horiz-adv-x="952" 
d="M144 122v1132q0 60 43 103t103 43h494q56 0 95 -39t39 -95t-39 -95t-95 -39h-348v-256h348q56 0 95 -39t39 -95t-39 -95t-95 -39h-348v-486q0 -60 -43 -103t-103 -43t-103 43t-43 103z" />
    <glyph glyph-name="G" unicode="G" horiz-adv-x="1582" 
d="M1504 644q0 -193 -87 -346t-241.5 -237.5t-349.5 -84.5q-147 0 -282 55t-235.5 149.5t-160.5 230.5t-60 289t60 288.5t161 230.5t237 150t284 55q159 0 306 -64.5t248 -173.5q44 -47 44 -102q0 -58 -40.5 -98t-97.5 -40q-64 0 -106 48q-65 75 -159 118.5t-195 43.5
q-187 0 -318.5 -131t-131.5 -325q0 -131 63 -237t164.5 -162.5t218.5 -56.5q150 0 250 76.5t130 211.5h-230q-46 0 -79 33t-33 79t33 79t79 33h416q46 0 79 -33t33 -79z" />
    <glyph glyph-name="H" unicode="H" horiz-adv-x="1334" 
d="M144 122v1156q0 60 43 103t103 43t103 -43t43 -103v-392h462v392q0 60 43 103t103 43t103 -43t43 -103v-1156q0 -60 -43 -103t-103 -43t-103 43t-43 103v496h-462v-496q0 -60 -43 -103t-103 -43t-103 43t-43 103z" />
    <glyph glyph-name="I" unicode="I" horiz-adv-x="616" 
d="M162 122v1156q0 60 43 103t103 43t103 -43t43 -103v-1156q0 -60 -43 -103t-103 -43t-103 43t-43 103z" />
    <glyph glyph-name="J" unicode="J" horiz-adv-x="966" 
d="M2 228q0 56 39 95t95 39q60 0 104 -50q59 -68 136 -68q75 0 114.5 56.5t39.5 161.5v816q0 60 43 103t103 43t103 -43t43 -103v-832q0 -226 -117 -348t-315 -122q-101 0 -194 41t-158 117q-36 43 -36 94z" />
    <glyph glyph-name="K" unicode="K" horiz-adv-x="1254" 
d="M436 712l460 646q46 66 116 66q54 0 94 -40t40 -94q0 -45 -28 -82l-364 -492l414 -518q32 -38 32 -86q0 -55 -41 -95.5t-97 -40.5q-68 0 -118 64zM144 122v1156q0 60 43 103t103 43t103 -43t43 -103v-1156q0 -60 -43 -103t-103 -43t-103 43t-43 103z" />
    <glyph glyph-name="L" unicode="L" horiz-adv-x="972" 
d="M820 0h-542q-56 0 -95 39t-39 95v1144q0 60 43 103t103 43t103 -43t43 -103v-1010h384q56 0 95 -39t39 -95t-39 -95t-95 -39z" />
    <glyph glyph-name="M" unicode="M" horiz-adv-x="1930" 
d="M966 -24q-31 0 -54 16t-34 44l-324 800l-194 -754q-12 -48 -51.5 -78t-90.5 -30q-60 0 -102 42t-42 102q0 25 6 46l356 1194q8 29 32 47.5t56 18.5q31 0 54 -17t34 -45l354 -866l354 866q11 28 34 45t54 17q32 0 56 -18.5t32 -47.5l356 -1194q6 -21 6 -46q0 -60 -42 -102
t-102 -42q-51 0 -90.5 30t-51.5 78l-194 754l-324 -800q-11 -28 -34 -44t-54 -16z" />
    <glyph glyph-name="N" unicode="N" horiz-adv-x="1476" 
d="M1170 12l-734 834v-724q0 -60 -43 -103t-103 -43t-103 43t-43 103v1210q0 39 25.5 65.5t62.5 26.5q41 0 74 -36l734 -836v726q0 60 43 103t103 43t103 -43t43 -103v-1210q0 -39 -25.5 -65.5t-62.5 -26.5q-41 0 -74 36z" />
    <glyph glyph-name="O" unicode="O" horiz-adv-x="1664" 
d="M832 -24q-149 0 -285.5 55t-237.5 150t-161 230.5t-60 288.5t60 288.5t161 230.5t237.5 150t285.5 55t285.5 -55t237.5 -150t161 -230.5t60 -288.5t-60 -288.5t-161 -230.5t-237.5 -150t-285.5 -55zM832 244q189 0 320.5 130.5t131.5 325.5t-131.5 325.5t-320.5 130.5
t-320.5 -130.5t-131.5 -325.5t131.5 -325.5t320.5 -130.5z" />
    <glyph glyph-name="P" unicode="P" horiz-adv-x="1094" 
d="M436 1132v-368h82q104 0 164 46t60 138t-60 138t-164 46h-82zM290 1400h230q119 0 217 -35.5t162 -97.5t98.5 -144t34.5 -175t-34.5 -175t-98.5 -144t-162 -97.5t-217 -35.5h-84v-374q0 -60 -43 -103t-103 -43t-103 43t-43 103v1132q0 60 43 103t103 43z" />
    <glyph glyph-name="Q" unicode="Q" horiz-adv-x="1664" 
d="M832 -24q-149 0 -285.5 55t-237.5 150t-161 230.5t-60 288.5t60 288.5t161 230.5t237.5 150t285.5 55t285.5 -55t237.5 -150t161 -230.5t60 -288.5q0 -248 -152 -442l108 -108q38 -38 38 -86t-33.5 -82t-82.5 -34q-46 0 -84 38l-116 116q-189 -126 -422 -126zM832 244
q122 0 226 58l-148 152q-38 38 -38 86t33.5 82t82.5 34q46 0 84 -38l150 -154q62 111 62 236q0 195 -131.5 325.5t-320.5 130.5t-320.5 -130.5t-131.5 -325.5t131.5 -325.5t320.5 -130.5z" />
    <glyph glyph-name="R" unicode="R" horiz-adv-x="1166" 
d="M480 726q0 18 12 31t30 13h8q88 0 145 50.5t57 135.5q0 89 -59.5 141.5t-152.5 52.5h-86v-1028q0 -60 -42 -103t-102 -43t-103 43t-43 103v1132q0 60 43 103t103 43h234q218 0 358 -123t140 -317q0 -215 -210 -338l284 -446q18 -30 18 -68q0 -55 -39 -93.5t-95 -38.5
q-79 0 -122 76l-368 644q-10 20 -10 30z" />
    <glyph glyph-name="S" unicode="S" horiz-adv-x="1108" 
d="M68 270q0 54 37 92t91 38t92 -38q115 -118 252 -118q82 0 135 48.5t53 117.5q0 77 -48.5 129t-175.5 104q-180 74 -264 174t-84 249q0 151 110.5 254.5t287.5 103.5q200 0 338 -122q40 -34 40 -96q0 -51 -36.5 -86.5t-87.5 -35.5q-41 0 -72 22q-75 50 -154 50
q-61 0 -97.5 -25.5t-36.5 -74.5q0 -56 45 -95.5t169 -90.5q183 -75 270.5 -189t87.5 -279q0 -187 -124.5 -306.5t-345.5 -119.5q-128 0 -244.5 52.5t-196.5 142.5q-41 45 -41 99z" />
    <glyph glyph-name="T" unicode="T" horiz-adv-x="1024" 
d="M160 1400h704q56 0 95 -39t39 -95t-39 -95t-95 -39h-206v-1010q0 -60 -43 -103t-103 -43t-103 43t-43 103v1010h-206q-56 0 -95 39t-39 95t39 95t95 39z" />
    <glyph glyph-name="U" unicode="U" horiz-adv-x="1332" 
d="M896 504v774q0 60 43 103t103 43t103 -43t43 -103v-768q0 -124 -43 -226.5t-116 -168.5t-166.5 -102.5t-196.5 -36.5t-196.5 36.5t-166.5 102.5t-116 168.5t-43 226.5v768q0 60 43 103t103 43t103 -43t43 -103v-774q0 -126 62.5 -193t167.5 -67t167.5 67t62.5 193z" />
    <glyph glyph-name="V" unicode="V" horiz-adv-x="1332" 
d="M666 -24q-63 0 -90 64l-496 1192q-10 27 -10 52q0 58 40.5 99t97.5 41q47 0 82 -26t52 -70l324 -838l324 838q17 44 52 70t82 26q57 0 97.5 -41t40.5 -99q0 -25 -10 -52l-496 -1192q-27 -64 -90 -64z" />
    <glyph glyph-name="W" unicode="W" horiz-adv-x="2016" 
d="M1008 1424q31 0 55 -18t35 -48l298 -820l266 782q36 104 138 104q59 0 99.5 -41t40.5 -101q0 -26 -8 -48l-442 -1192q-25 -66 -90 -66q-68 0 -92 68l-300 828l-300 -828q-24 -68 -92 -68q-65 0 -90 66l-442 1192q-8 22 -8 48q0 60 40.5 101t99.5 41q102 0 138 -104
l266 -782l298 820q11 30 35 48t55 18z" />
    <glyph glyph-name="X" unicode="X" horiz-adv-x="1308" 
d="M984 44l-330 450l-330 -450q-49 -68 -122 -68q-58 0 -99 40t-41 96q0 51 28 88l388 532l-344 470q-26 36 -26 82q0 58 41 99t99 41q69 0 112 -56l294 -398l294 398q43 56 112 56q58 0 99 -41t41 -99q0 -46 -26 -82l-344 -470l388 -532q28 -37 28 -88q0 -56 -41 -96
t-99 -40q-73 0 -122 68z" />
    <glyph glyph-name="Y" unicode="Y" horiz-adv-x="1304" 
d="M652 -24q-60 0 -103 43t-43 103v430l-400 644q-28 46 -28 90q0 56 43 97t103 41q40 0 72.5 -23.5t53.5 -60.5l302 -518l302 518q21 37 53.5 60.5t72.5 23.5q60 0 103 -41t43 -97q0 -44 -28 -90l-400 -644v-430q0 -60 -43 -103t-103 -43z" />
    <glyph glyph-name="Z" unicode="Z" horiz-adv-x="1108" 
d="M932 0h-768q-44 0 -73 25.5t-29 62.5q0 33 18 66l526 978h-368q-56 0 -95 39t-39 95t39 95t95 39h682q44 0 71 -22.5t27 -57.5q0 -30 -18 -66l-524 -986h456q56 0 95 -39t39 -95t-39 -95t-95 -39z" />
    <glyph glyph-name="bracketleft" unicode="[" horiz-adv-x="774" 
d="M344 1500h282q46 0 79 -33t33 -79t-33 -79t-79 -33h-134v-1312h134q46 0 79 -33t33 -79t-33 -79t-79 -33h-282q-46 0 -79 33t-33 79v1536q0 46 33 79t79 33z" />
    <glyph glyph-name="backslash" unicode="\" horiz-adv-x="1090" 
d="M286 1432l734 -1476q14 -28 14 -56q0 -51 -36.5 -85.5t-87.5 -34.5q-33 0 -62.5 17.5t-43.5 46.5l-734 1476q-14 28 -14 56q0 51 36.5 85.5t87.5 34.5q33 0 62.5 -17.5t43.5 -46.5z" />
    <glyph glyph-name="bracketright" unicode="]" horiz-adv-x="774" 
d="M148 1500h282q46 0 79 -33t33 -79v-1536q0 -46 -33 -79t-79 -33h-282q-46 0 -79 33t-33 79t33 79t79 33h134v1312h-134q-46 0 -79 33t-33 79t33 79t79 33z" />
    <glyph glyph-name="asciicircum" unicode="^" horiz-adv-x="1268" 
d="M858 758l-224 304l-224 -304q-42 -56 -102 -56q-51 0 -86.5 34.5t-35.5 85.5q0 43 22 72l360 482q30 40 66 40t66 -40l360 -482q22 -29 22 -72q0 -51 -35.5 -85.5t-86.5 -34.5q-60 0 -102 56z" />
    <glyph glyph-name="underscore" unicode="_" horiz-adv-x="1000" 
d="M64 -184h872q36 0 62 -26t26 -62t-26 -62t-62 -26h-872q-36 0 -62 26t-26 62t26 62t62 26z" />
    <glyph glyph-name="grave" unicode="`" horiz-adv-x="824" 
d="M194 1408q0 38 27 65t65 27q35 0 60 -22l244 -214q40 -36 40 -74q0 -36 -28 -64t-66 -28q-33 0 -60 24l-248 214q-34 28 -34 72z" />
    <glyph glyph-name="a" unicode="a" horiz-adv-x="1274" 
d="M872 468q0 111 -77.5 180.5t-188.5 69.5t-188.5 -69.5t-77.5 -180.5t77.5 -180.5t188.5 -69.5t188.5 69.5t77.5 180.5zM878 108v14q-55 -69 -141 -107.5t-189 -38.5q-197 0 -334.5 142t-137.5 350t137.5 350t334.5 142q103 0 189 -38.5t141 -107.5v14q0 54 39 93t93 39
t93 -39t39 -93v-720q0 -54 -39 -93t-93 -39t-93 39t-39 93z" />
    <glyph glyph-name="b" unicode="b" horiz-adv-x="1274" 
d="M402 468q0 -111 77.5 -180.5t188.5 -69.5t188.5 69.5t77.5 180.5t-77.5 180.5t-188.5 69.5t-188.5 -69.5t-77.5 -180.5zM396 122v-14q0 -54 -39 -93t-93 -39t-93 39t-39 93v1284q0 54 39 93t93 39t93 -39t39 -93v-578q55 69 141 107.5t189 38.5q197 0 334.5 -142
t137.5 -350t-137.5 -350t-334.5 -142q-103 0 -189 38.5t-141 107.5z" />
    <glyph glyph-name="c" unicode="c" horiz-adv-x="1024" 
d="M76 468q0 135 69 248.5t186.5 178.5t256.5 65q191 0 332 -116q56 -45 56 -104q0 -51 -36.5 -86.5t-87.5 -35.5q-46 0 -86 34q-78 66 -176 66q-102 0 -175 -71t-73 -179t73 -179t175 -71q98 0 176 66q40 34 86 34q51 0 87.5 -35.5t36.5 -86.5q0 -59 -56 -104
q-141 -116 -332 -116q-139 0 -256.5 65t-186.5 178.5t-69 248.5z" />
    <glyph glyph-name="d" unicode="d" horiz-adv-x="1274" 
d="M872 468q0 111 -77.5 180.5t-188.5 69.5t-188.5 -69.5t-77.5 -180.5t77.5 -180.5t188.5 -69.5t188.5 69.5t77.5 180.5zM878 108v14q-55 -69 -141 -107.5t-189 -38.5q-197 0 -334.5 142t-137.5 350t137.5 350t334.5 142q103 0 189 -38.5t141 -107.5v578q0 54 39 93t93 39
t93 -39t39 -93v-1284q0 -54 -39 -93t-93 -39t-93 39t-39 93z" />
    <glyph glyph-name="e" unicode="e" horiz-adv-x="1160" 
d="M358 580h468q-21 68 -85 107t-151 39q-76 0 -141.5 -40.5t-90.5 -105.5zM984 390h-632q23 -84 91 -129t159 -45q123 0 200 74q49 46 102 46q52 0 88 -36t36 -88q0 -50 -34 -84q-72 -73 -175.5 -112.5t-222.5 -39.5q-108 0 -204 37.5t-165.5 102.5t-110 156.5t-40.5 195.5
q0 207 148.5 349.5t359.5 142.5q203 0 346.5 -134.5t155.5 -333.5v-8q0 -43 -28.5 -68.5t-73.5 -25.5z" />
    <glyph glyph-name="f" unicode="f" horiz-adv-x="766" 
d="M204 936v188q0 187 92.5 292.5t261.5 105.5q79 0 149.5 -28t118.5 -78q34 -34 34 -84q0 -47 -34 -80.5t-80 -33.5q-40 0 -76 30q-41 32 -86 32q-116 0 -116 -172v-172h162q51 0 85.5 -35.5t34.5 -86.5t-34.5 -85.5t-85.5 -34.5h-162v-586q0 -54 -39 -93t-93 -39t-93 39
t-39 93v586h-54q-51 0 -85.5 34.5t-34.5 85.5t34.5 86.5t85.5 35.5h54z" />
    <glyph glyph-name="g" unicode="g" horiz-adv-x="1274" 
d="M162 -314q0 50 33.5 84t82.5 34q48 0 92 -44q97 -94 222 -94q131 0 208.5 82t77.5 256v118q-55 -69 -141 -107.5t-189 -38.5q-197 0 -334.5 142t-137.5 350t137.5 350t334.5 142q103 0 189 -38.5t141 -107.5v14q0 54 39 93t93 39t93 -39t39 -93v-800q0 -126 -27 -226
t-75.5 -168t-117.5 -113t-149 -65t-175 -20q-112 0 -216.5 40.5t-175.5 113.5q-44 44 -44 96zM872 468q0 111 -77.5 180.5t-188.5 69.5t-188.5 -69.5t-77.5 -180.5t77.5 -180.5t188.5 -69.5t188.5 69.5t77.5 180.5z" />
    <glyph glyph-name="h" unicode="h" horiz-adv-x="1120" 
d="M396 1392v-564q103 132 274 132q139 0 232.5 -95.5t93.5 -250.5v-506q0 -54 -39 -93t-93 -39t-93 39t-39 93v444q0 80 -47 129t-121 49t-121 -49t-47 -129v-444q0 -54 -39 -93t-93 -39t-93 39t-39 93v1284q0 54 39 93t93 39t93 -39t39 -93z" />
    <glyph glyph-name="i" unicode="i" horiz-adv-x="548" 
d="M274 1134q-66 0 -114 47t-48 113t48 113t114 47t114 -47t48 -113t-48 -113t-114 -47zM142 108v720q0 54 39 93t93 39t93 -39t39 -93v-720q0 -54 -39 -93t-93 -39t-93 39t-39 93z" />
    <glyph glyph-name="j" unicode="j" horiz-adv-x="566" 
d="M-264 -368q0 48 34 82t82 34q43 0 86 -36q53 -46 104 -46q61 0 93.5 48t32.5 140v974q0 54 39 93t93 39t93 -39t39 -93v-978q0 -195 -99.5 -304.5t-280.5 -109.5q-73 0 -145 26.5t-124 72.5q-47 44 -47 97zM300 1134q-66 0 -114 47t-48 113t48 113t114 47t114 -47
t48 -113t-48 -113t-114 -47z" />
    <glyph glyph-name="k" unicode="k" horiz-adv-x="1092" 
d="M130 108v1284q0 54 39 93t93 39t93 -39t39 -93v-868l386 396q40 40 88 40q51 0 85.5 -34.5t34.5 -85.5q0 -48 -36 -84l-268 -262l308 -312q36 -36 36 -88q0 -51 -35.5 -84.5t-88.5 -33.5q-54 0 -92 42l-418 452v-362q0 -54 -39 -93t-93 -39t-93 39t-39 93z" />
    <glyph glyph-name="l" unicode="l" horiz-adv-x="544" 
d="M140 108v1284q0 54 39 93t93 39t93 -39t39 -93v-1284q0 -54 -39 -93t-93 -39t-93 39t-39 93z" />
    <glyph glyph-name="m" unicode="m" horiz-adv-x="1720" 
d="M1332 108v444q0 80 -47 129t-121 49q-73 0 -120.5 -47t-47.5 -123v-452q0 -54 -39 -93t-93 -39t-93 39t-39 93v444q0 80 -47 129t-121 49t-121 -49t-47 -129v-444q0 -54 -39 -93t-93 -39t-93 39t-39 93v720q0 54 39 93t93 39t93 -39t39 -93q100 132 274 132
q85 0 157.5 -39.5t116.5 -110.5q126 150 326 150q139 0 232.5 -95.5t93.5 -250.5v-506q0 -54 -39 -93t-93 -39t-93 39t-39 93z" />
    <glyph glyph-name="n" unicode="n" horiz-adv-x="1120" 
d="M396 828q103 132 274 132q139 0 232.5 -95.5t93.5 -250.5v-506q0 -54 -39 -93t-93 -39t-93 39t-39 93v444q0 80 -47 129t-121 49t-121 -49t-47 -129v-444q0 -54 -39 -93t-93 -39t-93 39t-39 93v720q0 54 39 93t93 39t93 -39t39 -93z" />
    <glyph glyph-name="o" unicode="o" horiz-adv-x="1188" 
d="M340 468q0 -107 74.5 -178.5t179.5 -71.5t179.5 71.5t74.5 178.5t-74.5 178.5t-179.5 71.5t-179.5 -71.5t-74.5 -178.5zM76 468q0 207 149.5 349.5t368.5 142.5t368.5 -142.5t149.5 -349.5t-149.5 -349.5t-368.5 -142.5t-368.5 142.5t-149.5 349.5z" />
    <glyph glyph-name="p" unicode="p" horiz-adv-x="1274" 
d="M402 468q0 -111 77.5 -180.5t188.5 -69.5t188.5 69.5t77.5 180.5t-77.5 180.5t-188.5 69.5t-188.5 -69.5t-77.5 -180.5zM396 828v-14q55 69 141 107.5t189 38.5q197 0 334.5 -142t137.5 -350t-137.5 -350t-334.5 -142q-103 0 -189 38.5t-141 107.5v-575q0 -54 -39 -93
t-93 -39t-93 39t-39 93v1281q0 54 39 93t93 39t93 -39t39 -93z" />
    <glyph glyph-name="q" unicode="q" horiz-adv-x="1274" 
d="M872 468q0 111 -77.5 180.5t-188.5 69.5t-188.5 -69.5t-77.5 -180.5t77.5 -180.5t188.5 -69.5t188.5 69.5t77.5 180.5zM878 814v14q0 54 39 93t93 39t93 -39t39 -93v-1282q0 -54 -39 -93t-93 -39t-93 39t-39 93v576q-55 -69 -141 -107.5t-189 -38.5q-197 0 -334.5 142
t-137.5 350t137.5 350t334.5 142q103 0 189 -38.5t141 -107.5z" />
    <glyph glyph-name="r" unicode="r" horiz-adv-x="820" 
d="M396 828q45 62 109 97t139 35q22 0 36 -2q53 -8 86.5 -41.5t33.5 -82.5q0 -52 -35 -89t-87 -37q-8 0 -28 4q-30 6 -60 6q-93 0 -143.5 -71t-50.5 -187v-352q0 -54 -39 -93t-93 -39t-93 39t-39 93v720q0 54 39 93t93 39t93 -39t39 -93z" />
    <glyph glyph-name="s" unicode="s" horiz-adv-x="814" 
d="M58 184q0 44 30 75t72 31t82 -40q60 -60 128 -60q50 0 79 24.5t29 65.5q0 45 -28.5 74.5t-101.5 59.5q-236 99 -236 284q0 114 84 188t216 74q137 0 235 -85q41 -34 41 -79q0 -39 -29.5 -67.5t-70.5 -28.5q-32 0 -56 18q-40 30 -82 30q-35 0 -54.5 -14.5t-19.5 -39.5
q0 -31 28 -53.5t104 -55.5q236 -101 236 -301q0 -135 -89 -221.5t-251 -86.5q-90 0 -173 34.5t-144 98.5q-29 32 -29 75z" />
    <glyph glyph-name="t" unicode="t" horiz-adv-x="726" 
d="M468 936h122q51 0 85.5 -35.5t34.5 -86.5t-34.5 -85.5t-85.5 -34.5h-122v-586q0 -54 -39 -93t-93 -39t-93 39t-39 93v586h-54q-51 0 -85.5 34.5t-34.5 85.5t34.5 86.5t85.5 35.5h54v156q0 54 39 93t93 39t93 -39t39 -93v-156z" />
    <glyph glyph-name="u" unicode="u" horiz-adv-x="1128" 
d="M732 108q-103 -132 -274 -132q-139 0 -232.5 95.5t-93.5 250.5v506q0 54 39 93t93 39t93 -39t39 -93v-444q0 -80 47 -129t121 -49t121 49t47 129v444q0 54 39 93t93 39t93 -39t39 -93v-720q0 -54 -39 -93t-93 -39t-93 39t-39 93z" />
    <glyph glyph-name="v" unicode="v" horiz-adv-x="1008" 
d="M504 -24q-59 0 -88 64l-328 744q-10 23 -10 50q0 54 37 90t89 36q42 0 74.5 -24t47.5 -64l178 -466l178 466q15 40 47.5 64t74.5 24q52 0 89 -36t37 -90q0 -27 -10 -50l-328 -744q-29 -64 -88 -64z" />
    <glyph glyph-name="w" unicode="w" horiz-adv-x="1580" 
d="M790 960q60 0 88 -62l214 -494l178 478q13 35 46.5 56.5t71.5 21.5q51 0 87.5 -37t36.5 -91q0 -27 -10 -50l-334 -748q-26 -58 -82 -58q-29 0 -52 16t-34 42l-210 510l-210 -510q-11 -26 -34 -42t-52 -16q-56 0 -82 58l-334 748q-10 23 -10 50q0 54 36.5 91t87.5 37
q38 0 71.5 -21.5t46.5 -56.5l178 -478l214 494q28 62 88 62z" />
    <glyph glyph-name="x" unicode="x" horiz-adv-x="1004" 
d="M502 310l-202 -282q-36 -52 -102 -52q-52 0 -88 36t-36 88q0 43 28 80l224 306l-200 274q-24 34 -24 76q0 51 36 87.5t88 36.5q64 0 104 -56l172 -244l172 244q40 56 104 56q52 0 88 -36.5t36 -87.5q0 -42 -24 -76l-200 -274l224 -306q28 -37 28 -80q0 -52 -36 -88
t-88 -36q-66 0 -102 52z" />
    <glyph glyph-name="y" unicode="y" horiz-adv-x="1052" 
d="M524 342l196 536q14 37 46 59.5t72 22.5q56 0 94 -38t38 -94q0 -22 -6 -40l-490 -1290q-15 -39 -48 -61.5t-78 -22.5q-54 0 -91 37t-37 91q0 27 10 54l168 432l-306 756q-8 19 -8 46q0 54 37 92t89 38q43 0 76 -24.5t48 -65.5z" />
    <glyph glyph-name="z" unicode="z" horiz-adv-x="880" 
d="M720 0h-578q-35 0 -55.5 19.5t-20.5 48.5q0 27 20 60l320 566h-190q-51 0 -85.5 34.5t-34.5 85.5t34.5 86.5t85.5 35.5h498q35 0 55.5 -19.5t20.5 -48.5q0 -27 -20 -60l-326 -566h276q51 0 85.5 -35.5t34.5 -86.5t-34.5 -85.5t-85.5 -34.5z" />
    <glyph glyph-name="braceleft" unicode="{" horiz-adv-x="848" 
d="M128 620q0 38 34 48q88 33 125 97.5t37 160.5v220q0 159 93.5 256.5t246.5 97.5h32q46 0 79 -33t33 -79q0 -47 -25 -77t-73 -37q-126 -19 -126 -190v-150q0 -215 -184 -314q184 -99 184 -314v-150q0 -171 126 -190q48 -7 73 -37t25 -77q0 -46 -33 -79t-79 -33h-32
q-153 0 -246.5 97.5t-93.5 256.5v220q0 96 -37 160.5t-125 97.5q-34 10 -34 48z" />
    <glyph glyph-name="bar" unicode="|" horiz-adv-x="636" 
d="M200 -306v1750q0 50 34 84t84 34t84 -34t34 -84v-1750q0 -50 -34 -84t-84 -34t-84 34t-34 84z" />
    <glyph glyph-name="braceright" unicode="}" horiz-adv-x="848" 
d="M720 620q0 -38 -34 -48q-88 -33 -125 -97.5t-37 -160.5v-220q0 -159 -93.5 -256.5t-246.5 -97.5h-32q-46 0 -79 33t-33 79q0 47 25 77t73 37q126 19 126 190v150q0 215 184 314q-184 99 -184 314v150q0 171 -126 190q-48 7 -73 37t-25 77q0 46 33 79t79 33h32
q153 0 246.5 -97.5t93.5 -256.5v-220q0 -96 37 -160.5t125 -97.5q34 -10 34 -48z" />
    <glyph glyph-name="asciitilde" unicode="~" horiz-adv-x="1252" 
d="M846 458q-130 0 -238 80q-65 49 -98 67.5t-70 18.5q-65 0 -90 -78q-13 -40 -44 -63t-72 -23q-50 0 -84 34t-34 84q0 22 4 38q33 121 107.5 185.5t178.5 64.5q130 0 238 -80q65 -49 98 -67.5t70 -18.5q65 0 90 78q13 40 44 63t72 23q50 0 84 -34t34 -84q0 -22 -4 -38
q-33 -121 -107.5 -185.5t-178.5 -64.5z" />
    <glyph glyph-name="uni00A0" unicode="&#xa0;" horiz-adv-x="600" 
 />
    <glyph glyph-name="exclamdown" unicode="&#xa1;" horiz-adv-x="672" 
d="M356 954q71 0 119.5 -44.5t48.5 -111.5t-48.5 -111.5t-119.5 -44.5t-119.5 44.5t-48.5 111.5t48.5 111.5t119.5 44.5zM502 416v-764q0 -60 -43 -103t-103 -43t-103 43t-43 103v764q0 60 43 103t103 43t103 -43t43 -103z" />
    <glyph glyph-name="cent" unicode="&#xa2;" horiz-adv-x="1024" 
d="M76 466q0 179 113 313t289 167v96q0 39 26.5 66.5t65.5 27.5t66.5 -27.5t27.5 -66.5v-90q78 -10 149 -41.5t121 -76.5q42 -39 42 -90q0 -49 -35 -83.5t-83 -34.5q-46 0 -82 31q-78 67 -180 67q-109 0 -183.5 -74t-74.5 -184t74.5 -184t183.5 -74q102 0 180 67
q36 31 82 31q48 0 83 -34.5t35 -83.5q0 -51 -42 -90q-50 -45 -121 -76.5t-149 -41.5v-90q0 -39 -27.5 -66.5t-66.5 -27.5t-65.5 27.5t-26.5 66.5v96q-176 33 -289 167t-113 313z" />
    <glyph glyph-name="sterling" unicode="&#xa3;" horiz-adv-x="1200" 
d="M116 66q0 31 26 60q138 164 138 358v124h-110q-28 0 -48 20t-20 48t20 48t48 20h110v270q0 179 108 294.5t296 115.5q215 0 354 -154q34 -34 34 -82t-35.5 -83t-84.5 -35q-37 0 -86 38q-57 54 -140 54q-75 0 -115.5 -49.5t-40.5 -132.5v-236h246q28 0 48 -20t20 -48
t-20 -48t-48 -20h-246v-72q0 -165 -56 -274h488q54 0 93 -39t39 -93t-39 -92t-93 -38h-816q-31 0 -50.5 19t-19.5 47z" />
    <glyph glyph-name="currency" unicode="&#xa4;" horiz-adv-x="1432" 
d="M1162 664q0 -111 -52 -206l112 -112q46 -46 46 -96t-35 -85t-85 -35q-52 0 -90 38l-118 118q-103 -60 -222 -60t-222 60l-118 -118q-38 -38 -90 -38q-50 0 -85 35t-35 85t46 96l112 112q-52 95 -52 206t52 206l-112 112q-46 46 -46 96t35 85t85 35q52 0 90 -38l118 -118
q103 60 222 60t222 -60l118 118q38 38 90 38q50 0 85 -35t35 -85t-46 -96l-112 -112q52 -95 52 -206zM506 664q0 -95 59.5 -155.5t152.5 -60.5t152.5 60.5t59.5 155.5t-59.5 155.5t-152.5 60.5t-152.5 -60.5t-59.5 -155.5z" />
    <glyph glyph-name="yen" unicode="&#xa5;" horiz-adv-x="1304" 
d="M650 -24q-60 0 -103 43t-43 103v210h-312q-26 0 -44 17.5t-18 44.5q0 26 18 44t44 18h312v98h-312q-26 0 -44 17.5t-18 44.5q0 26 18 44t44 18h234l-322 518q-28 46 -28 90q0 56 43 97t103 41q40 0 72.5 -23.5t53.5 -60.5l302 -518l302 518q21 37 53.5 60.5t72.5 23.5
q60 0 103 -41t43 -97q0 -44 -28 -90l-322 -518h230q27 0 44.5 -18t17.5 -44q0 -27 -17.5 -44.5t-44.5 -17.5h-308v-98h308q27 0 44.5 -18t17.5 -44q0 -27 -17.5 -44.5t-44.5 -17.5h-308v-210q0 -60 -43 -103t-103 -43z" />
    <glyph glyph-name="brokenbar" unicode="&#xa6;" horiz-adv-x="636" 
d="M436 1296v-440q0 -69 -29 -114.5t-89 -45.5q-48 0 -82 34.5t-34 83.5v438q0 68 27 115t89 47q49 0 83.5 -35t34.5 -83zM436 360v-438q0 -69 -29 -114.5t-89 -45.5q-48 0 -82 34.5t-34 83.5v436q0 68 27 115t89 47q49 0 83.5 -35t34.5 -83z" />
    <glyph glyph-name="section" unicode="&#xa7;" horiz-adv-x="1044" 
d="M232 -20q0 38 26 64t62 26q45 0 70 -28q42 -42 98 -42q42 0 71 26t29 66q0 49 -39 85.5t-131 81.5q-264 127 -264 367q0 90 54 166.5t144 115.5q-140 99 -140 246q0 116 84.5 192t221.5 76q77 0 144 -30t113 -78q31 -33 31 -70q0 -39 -26 -64.5t-64 -25.5t-68 30
q-38 38 -92 38q-41 0 -67.5 -24.5t-26.5 -61.5q0 -46 38 -81.5t128 -78.5q126 -60 195 -153t69 -213q0 -96 -52.5 -172.5t-143.5 -113.5q142 -99 142 -250q0 -116 -87.5 -194t-224.5 -78q-76 0 -145 28t-115 74q-34 34 -34 76zM382 618q0 -61 41.5 -101.5t100.5 -40.5
q58 0 100 41t42 101t-42 101t-100 41q-59 0 -100.5 -40.5t-41.5 -101.5z" />
    <glyph glyph-name="dieresis" unicode="&#xa8;" horiz-adv-x="824" 
d="M216 1170q-52 0 -90 38t-38 90t38 90t90 38t90 -38t38 -90t-38 -90t-90 -38zM608 1170q-52 0 -90 38t-38 90t38 90t90 38t90 -38t38 -90t-38 -90t-90 -38z" />
    <glyph glyph-name="copyright" unicode="&#xa9;" horiz-adv-x="1648" 
d="M98 700q0 197 97 363.5t263.5 263.5t363.5 97t363.5 -97t263.5 -263.5t97 -363.5t-97 -363.5t-263.5 -263.5t-363.5 -97t-363.5 97t-263.5 263.5t-97 363.5zM210 700q0 -169 82 -312t223 -225.5t307 -82.5t307 82.5t223 225.5t82 312t-82 312t-223 225.5t-307 82.5
t-307 -82.5t-223 -225.5t-82 -312zM446 702q0 162 118.5 274t283.5 112q148 0 250 -82q42 -35 42 -82q0 -39 -27.5 -65.5t-66.5 -26.5t-72 30q-47 44 -120 44q-83 0 -139.5 -58t-56.5 -146t56.5 -146t139.5 -58q76 0 120 44q33 30 72 30t66.5 -27.5t27.5 -66.5
q0 -45 -42 -80q-100 -84 -250 -84q-165 0 -283.5 113t-118.5 275z" />
    <glyph glyph-name="ordfeminine" unicode="&#xaa;" horiz-adv-x="906" 
d="M822 1322v-518q0 -42 -30 -72t-72 -30t-72 29t-30 69v4q-39 -47 -99.5 -73.5t-130.5 -26.5q-144 0 -243 104t-99 256q0 150 99 255t243 105q69 0 129.5 -27t100.5 -73v4q2 41 31 69.5t71 28.5t72 -30.5t30 -73.5zM258 1064q0 -72 51 -122t123 -50q71 0 122.5 50.5
t51.5 121.5t-51.5 121.5t-122.5 50.5q-72 0 -123 -50t-51 -122z" />
    <glyph glyph-name="guillemotleft" unicode="&#xab;" horiz-adv-x="1200" 
d="M64 624q0 20 24 36l404 292q25 18 54 18q38 0 64 -26t26 -64q0 -46 -38 -74l-260 -182l260 -182q38 -28 38 -74q0 -38 -26 -64t-64 -26q-29 0 -54 18l-404 292q-24 16 -24 36zM540 624q0 20 24 36l404 292q25 18 54 18q38 0 64 -26t26 -64q0 -46 -38 -74l-260 -182
l260 -182q38 -28 38 -74q0 -38 -26 -64t-64 -26q-29 0 -54 18l-404 292q-24 16 -24 36z" />
    <glyph glyph-name="logicalnot" unicode="&#xac;" horiz-adv-x="1252" 
d="M192 896h816q65 0 94.5 -48.5t29.5 -125.5v-298q0 -52 -39.5 -91t-92.5 -39q-130 0 -130 180v198h-678q-46 0 -78 32.5t-32 79.5t32 79.5t78 32.5z" />
    <glyph glyph-name="uni00AD" unicode="&#xad;" horiz-adv-x="812" 
d="M88 664q0 45 32.5 78.5t77.5 33.5h414q46 0 79 -33.5t33 -78.5q0 -46 -33 -79t-79 -33h-414q-45 0 -77.5 33t-32.5 79z" />
    <glyph glyph-name="registered" unicode="&#xae;" horiz-adv-x="1648" 
d="M100 700q0 197 97 363.5t263.5 263.5t363.5 97t363.5 -97t263.5 -263.5t97 -363.5t-97 -363.5t-263.5 -263.5t-363.5 -97t-363.5 97t-263.5 263.5t-97 363.5zM212 700q0 -169 82 -312t223 -225.5t307 -82.5t307 82.5t223 225.5t82 312t-82 312t-223 225.5t-307 82.5
t-307 -82.5t-223 -225.5t-82 -312zM562 404v580q0 42 30 72t72 30h212q121 0 197.5 -65t76.5 -173q0 -149 -112 -200l156 -202q22 -28 22 -58q0 -36 -25.5 -61t-62.5 -25q-46 0 -72 36l-240 348q-12 15 -12 30q0 16 10 26t28 10q50 0 82 24.5t32 63.5q0 44 -28 69t-84 25
h-78v-530q0 -42 -30 -72t-72 -30t-72 30t-30 72z" />
    <glyph glyph-name="macron" unicode="&#xaf;" horiz-adv-x="1000" 
d="M64 1388h872q36 0 62 -26t26 -62t-26 -62t-62 -26h-872q-36 0 -62 26t-26 62t26 62t62 26z" />
    <glyph glyph-name="degree" unicode="&#xb0;" horiz-adv-x="800" 
d="M680 1150q0 -116 -82 -195t-198 -79t-198 79t-82 195t82 195t198 79t198 -79t82 -195zM284 1150q0 -51 33 -84.5t83 -33.5t83 33.5t33 84.5t-33 84.5t-83 33.5t-83 -33.5t-33 -84.5z" />
    <glyph glyph-name="plusminus" unicode="&#xb1;" horiz-adv-x="1252" 
d="M758 932h274q46 0 79 -33t33 -79t-33 -79t-79 -33h-274v-254q0 -54 -39 -93t-93 -39t-93 39t-39 93v254h-274q-46 0 -79 33t-33 79t33 79t79 33h274v256q0 54 39 93t93 39t93 -39t39 -93v-256zM220 266h812q46 0 79 -33t33 -79t-33 -79t-79 -33h-812q-46 0 -79 33t-33 79
t33 79t79 33z" />
    <glyph glyph-name="twosuperior" unicode="&#xb2;" 
d="M86 530q0 20 12 40l304 400q76 99 76 170q0 44 -28 72t-74 28q-71 0 -117 -76q-27 -44 -79 -44q-36 0 -61 24.5t-25 61.5q0 32 18 56q46 76 118 119t158 43q132 0 213 -79t81 -199q0 -128 -102 -260l-172 -222h222q39 0 65.5 -26t26.5 -64q0 -39 -26.5 -64.5t-65.5 -25.5
h-492q-22 0 -37 13t-15 33z" />
    <glyph glyph-name="threesuperior" unicode="&#xb3;" 
d="M100 1310q0 38 25.5 64t62.5 26h438q24 0 41 -16t17 -40q0 -21 -14 -42l-178 -262q101 -36 153.5 -108t52.5 -172q0 -123 -88 -211.5t-240 -88.5q-177 0 -281 127q-25 32 -25 69q0 39 26 65.5t64 26.5q40 0 72 -36q53 -70 134 -70q55 0 92.5 35.5t37.5 92.5
q0 67 -48.5 106.5t-133.5 39.5h-14q-21 0 -35.5 14.5t-14.5 35.5q0 15 14 36l148 218h-218q-37 0 -62.5 26t-25.5 64z" />
    <glyph glyph-name="acute" unicode="&#xb4;" horiz-adv-x="824" 
d="M630 1408q0 -44 -34 -72l-248 -214q-27 -24 -60 -24q-38 0 -66 28t-28 64q0 38 40 74l244 214q25 22 60 22q38 0 65 -27t27 -65z" />
    <glyph glyph-name="mu" unicode="&#xb5;" horiz-adv-x="1166" 
d="M774 108q-36 -56 -93 -86t-127 -30q-97 0 -164 46v-316q0 -54 -39 -93t-93 -39t-93 39t-39 93v1106q0 54 39 93t93 39t93 -39t39 -93v-442q0 -70 54.5 -109t117.5 -39q86 0 149 41t63 111v438q0 54 40 93t94 39t93 -39t39 -93v-720q0 -54 -39 -93t-93 -39t-94 39t-40 93z
" />
    <glyph glyph-name="paragraph" unicode="&#xb6;" horiz-adv-x="1220" 
d="M1058 1296v-1478q0 -43 -30 -73.5t-72 -30.5q-44 0 -74 30t-30 74v1378h-88v-1378q0 -44 -30 -74t-74 -30q-42 0 -72 30.5t-30 73.5v714h-18q-127 0 -232 50.5t-170.5 151.5t-65.5 234t61.5 232.5t164 149.5t230.5 50h428q42 0 72 -30.5t30 -73.5z" />
    <glyph glyph-name="periodcentered" unicode="&#xb7;" horiz-adv-x="620" 
d="M144 666q0 69 49 117.5t117 48.5t117 -48.5t49 -117.5t-49 -117.5t-117 -48.5t-117 48.5t-49 117.5z" />
    <glyph glyph-name="cedilla" unicode="&#xb8;" horiz-adv-x="824" 
d="M156 -374q0 29 21.5 49.5t50.5 20.5q21 0 38 -10q31 -14 62 -14q38 0 61 18.5t23 47.5q0 75 -126 78q-10 0 -17 6.5t-7 15.5q0 8 4 20l68 146h168l-46 -94q70 -18 109 -66t39 -116q0 -84 -67.5 -144t-184.5 -60q-83 0 -154 34q-42 24 -42 68z" />
    <glyph glyph-name="onesuperior" unicode="&#xb9;" 
d="M128 1178q0 53 56 84l266 148q24 14 46 14q25 0 42.5 -17t17.5 -45v-794q0 -44 -30 -74t-74 -30q-42 0 -73 30.5t-31 73.5v580l-90 -48q-20 -10 -42 -10q-36 0 -62 26t-26 62z" />
    <glyph glyph-name="ordmasculine" unicode="&#xba;" horiz-adv-x="906" 
d="M282 1064q0 -72 49 -122t119 -50q73 0 122.5 50t49.5 122t-49.5 122t-122.5 50q-70 0 -119 -50t-49 -122zM80 1064q0 148 110 254t262 106t262 -106t110 -254t-110 -254t-262 -106t-262 106t-110 254z" />
    <glyph glyph-name="guillemotright" unicode="&#xbb;" horiz-adv-x="1200" 
d="M1136 624q0 -20 -24 -36l-404 -292q-25 -18 -54 -18q-38 0 -64 26t-26 64q0 46 38 74l260 182l-260 182q-38 28 -38 74q0 38 26 64t64 26q29 0 54 -18l404 -292q24 -16 24 -36zM660 624q0 -20 -24 -36l-404 -292q-25 -18 -54 -18q-38 0 -64 26t-26 64q0 46 38 74l260 182
l-260 182q-38 28 -38 74q0 38 26 64t64 26q29 0 54 -18l404 -292q24 -16 24 -36z" />
    <glyph glyph-name="onequarter" unicode="&#xbc;" horiz-adv-x="1948" 
d="M122 1178q0 53 56 84l266 148q25 14 46 14q25 0 42.5 -17t17.5 -45v-794q0 -44 -30 -74t-74 -30q-42 0 -73 30.5t-31 73.5v580l-90 -48q-20 -10 -42 -10q-36 0 -62 26t-26 62zM526 92l688 1282q28 52 74 52q32 0 57 -23t25 -55q0 -21 -10 -38l-690 -1282q-28 -52 -72 -52
q-32 0 -57 23t-25 55q0 21 10 38zM1110 226q0 19 12 34l440 624q43 62 84 62q40 0 58 -30t18 -76v-496h30q36 0 61 -26t25 -62t-25 -61t-61 -25h-30v-80q0 -40 -28.5 -69t-67.5 -29q-40 0 -69 29t-29 69v80h-362q-24 0 -40 16t-16 40zM1360 344h168v246z" />
    <glyph glyph-name="onehalf" unicode="&#xbd;" horiz-adv-x="1948" 
d="M122 1178q0 53 56 84l266 148q25 14 46 14q25 0 42.5 -17t17.5 -45v-794q0 -44 -30 -74t-74 -30q-42 0 -73 30.5t-31 73.5v580l-90 -48q-20 -10 -42 -10q-36 0 -62 26t-26 62zM526 92l688 1282q28 52 74 52q32 0 57 -23t25 -55q0 -21 -10 -38l-690 -1282q-28 -52 -72 -52
q-32 0 -57 23t-25 55q0 21 10 38zM1206 54q0 20 12 40l304 400q76 99 76 170q0 44 -28 72t-74 28q-71 0 -117 -76q-27 -44 -79 -44q-36 0 -61 24.5t-25 61.5q0 32 18 56q46 76 118 119t158 43q132 0 213 -79t81 -199q0 -128 -102 -260l-172 -222h222q39 0 65.5 -26t26.5 -64
q0 -39 -26.5 -64.5t-65.5 -25.5h-492q-22 0 -37 13t-15 33z" />
    <glyph glyph-name="threequarters" unicode="&#xbe;" horiz-adv-x="1952" 
d="M98 1310q0 38 25.5 64t62.5 26h438q24 0 41 -16t17 -40q0 -21 -14 -42l-178 -262q101 -36 153.5 -108t52.5 -172q0 -123 -88 -211.5t-240 -88.5q-177 0 -281 127q-25 32 -25 69q0 39 26 65.5t64 26.5q40 0 72 -36q52 -70 134 -70q55 0 92.5 35.5t37.5 92.5
q0 67 -48.5 106.5t-133.5 39.5h-14q-21 0 -35.5 14.5t-14.5 35.5q0 15 14 36l148 218h-218q-37 0 -62.5 26t-25.5 64zM530 92l688 1282q28 52 74 52q32 0 57 -23t25 -55q0 -21 -10 -38l-690 -1282q-28 -52 -72 -52q-32 0 -57 23t-25 55q0 21 10 38zM1114 222q0 19 12 34
l440 624q43 62 84 62q40 0 58 -30t18 -76v-496h30q36 0 61 -26t25 -62t-25 -61t-61 -25h-30v-80q0 -40 -28.5 -69t-67.5 -29q-40 0 -69 29t-29 69v80h-362q-24 0 -40 16t-16 40zM1364 340h168v246z" />
    <glyph glyph-name="questiondown" unicode="&#xbf;" horiz-adv-x="1030" 
d="M974 -200q0 -41 -22 -76q-65 -102 -181 -161t-245 -59q-197 0 -321.5 97t-124.5 243q0 126 75 208.5t229 153.5q81 38 116.5 67t35.5 61q0 58 -74 58q-25 0 -46 -8q-24 -8 -36 -8q-34 0 -58 24t-24 58q0 45 48 74q67 38 162 38q120 0 195 -64.5t75 -161.5
q0 -84 -52.5 -156t-153.5 -122q-107 -54 -156.5 -99.5t-49.5 -100.5q0 -58 46.5 -89t125.5 -31q124 0 200 108q46 66 114 66q49 0 85.5 -36t36.5 -84zM694 794q0 -67 -48.5 -112.5t-117.5 -45.5t-117.5 45.5t-48.5 112.5t48.5 112.5t117.5 45.5t117.5 -45.5t48.5 -112.5z
" />
    <glyph glyph-name="Agrave" unicode="&#xc0;" horiz-adv-x="1332" 
d="M666 1424q63 0 90 -64l496 -1192q10 -27 10 -52q0 -58 -40.5 -99t-97.5 -41q-47 0 -82 26t-52 70l-76 194h-498l-74 -194q-17 -44 -52 -70t-82 -26q-57 0 -97.5 41t-40.5 99q0 25 10 52l496 1192q27 64 90 64zM666 910l-160 -410h318zM382 1816q0 38 27 65t65 27
q35 0 60 -22l244 -214q40 -36 40 -74q0 -36 -28 -64t-66 -28q-33 0 -60 24l-248 214q-34 28 -34 72z" />
    <glyph glyph-name="Aacute" unicode="&#xc1;" horiz-adv-x="1332" 
d="M666 1424q63 0 90 -64l496 -1192q10 -27 10 -52q0 -58 -40.5 -99t-97.5 -41q-47 0 -82 26t-52 70l-76 194h-498l-74 -194q-17 -44 -52 -70t-82 -26q-57 0 -97.5 41t-40.5 99q0 25 10 52l496 1192q27 64 90 64zM666 910l-160 -410h318zM962 1816q0 -44 -34 -72l-248 -214
q-27 -24 -60 -24q-38 0 -66 28t-28 64q0 38 40 74l244 214q25 22 60 22q38 0 65 -27t27 -65z" />
    <glyph glyph-name="Acircumflex" unicode="&#xc2;" horiz-adv-x="1332" 
d="M666 1424q63 0 90 -64l496 -1192q10 -27 10 -52q0 -58 -40.5 -99t-97.5 -41q-47 0 -82 26t-52 70l-76 194h-498l-74 -194q-17 -44 -52 -70t-82 -26q-57 0 -97.5 41t-40.5 99q0 25 10 52l496 1192q27 64 90 64zM666 910l-160 -410h318zM666 1690l-172 -152
q-29 -26 -68 -26q-35 0 -61.5 26t-26.5 62q0 41 54 90l236 208q18 18 38 18t38 -18l236 -208q54 -49 54 -90q0 -36 -26.5 -62t-61.5 -26q-39 0 -68 26z" />
    <glyph glyph-name="Atilde" unicode="&#xc3;" horiz-adv-x="1332" 
d="M666 1424q63 0 90 -64l496 -1192q10 -27 10 -52q0 -58 -40.5 -99t-97.5 -41q-47 0 -82 26t-52 70l-76 194h-498l-74 -194q-17 -44 -52 -70t-82 -26q-57 0 -97.5 41t-40.5 99q0 25 10 52l496 1192q27 64 90 64zM666 910l-160 -410h318zM796 1562q-81 0 -162 68
q-50 40 -82 40q-34 0 -52 -44q-9 -25 -31 -39.5t-51 -14.5q-36 0 -61 24.5t-25 57.5q0 21 6 36q25 79 77 119.5t121 40.5q81 0 162 -68q50 -40 82 -40q34 0 52 44q9 25 31 39.5t51 14.5q36 0 61 -24.5t25 -57.5q0 -21 -6 -36q-25 -79 -77 -119.5t-121 -40.5z" />
    <glyph glyph-name="Adieresis" unicode="&#xc4;" horiz-adv-x="1332" 
d="M666 1424q63 0 90 -64l496 -1192q10 -27 10 -52q0 -58 -40.5 -99t-97.5 -41q-47 0 -82 26t-52 70l-76 194h-498l-74 -194q-17 -44 -52 -70t-82 -26q-57 0 -97.5 41t-40.5 99q0 25 10 52l496 1192q27 64 90 64zM666 910l-160 -410h318zM470 1578q-52 0 -90 38t-38 90
t38 90t90 38t90 -38t38 -90t-38 -90t-90 -38zM862 1578q-52 0 -90 38t-38 90t38 90t90 38t90 -38t38 -90t-38 -90t-90 -38z" />
    <glyph glyph-name="Aring" unicode="&#xc5;" horiz-adv-x="1332" 
d="M666 1424q63 0 90 -64l496 -1192q10 -27 10 -52q0 -58 -40.5 -99t-97.5 -41q-47 0 -82 26t-52 70l-76 194h-498l-74 -194q-17 -44 -52 -70t-82 -26q-57 0 -97.5 41t-40.5 99q0 25 10 52l496 1192q27 64 90 64zM666 910l-160 -410h318zM666 1622q36 0 60 24.5t24 59.5
t-24 59.5t-60 24.5t-60 -24.5t-24 -59.5t24 -59.5t60 -24.5zM666 1492q-91 0 -155.5 61t-64.5 153t64.5 153t155.5 61t155.5 -61t64.5 -153t-64.5 -153t-155.5 -61z" />
    <glyph glyph-name="AE" unicode="&#xc6;" horiz-adv-x="1726" 
d="M1522 0h-514q-58 0 -100 42t-42 100v126h-388l-106 -188q-55 -98 -148 -98q-55 0 -94.5 37t-39.5 93q0 39 26 84l610 1066q40 71 78 104.5t106 33.5h594q53 0 92.5 -40t39.5 -94q0 -56 -38 -94t-94 -38h-350v-244h306q52 0 91 -38.5t39 -93.5q0 -69 -49 -99.5t-125 -30.5
h-262v-362h368q53 0 92.5 -40t39.5 -94q0 -56 -38 -94t-94 -38zM866 498v450l-256 -450h256z" />
    <glyph glyph-name="Ccedilla" unicode="&#xc7;" horiz-adv-x="1452" 
d="M546 -374q0 29 21.5 49.5t50.5 20.5q21 0 38 -10q31 -14 62 -14q38 0 61 18.5t23 47.5q0 75 -126 78q-10 0 -17 6.5t-7 15.5q0 8 4 20l58 126q-129 19 -243.5 80.5t-199 154t-134 217.5t-49.5 264q0 153 60 289t160.5 230.5t235.5 149.5t282 55q153 0 287.5 -51
t230.5 -145q40 -40 40 -98q0 -57 -40.5 -96.5t-97.5 -39.5t-100 40q-131 122 -314 122q-189 0 -320.5 -130.5t-131.5 -325.5t131.5 -325.5t320.5 -130.5q183 0 314 122q43 40 100 40t97.5 -39.5t40.5 -96.5q0 -58 -40 -98q-88 -87 -208 -136.5t-258 -57.5l-32 -68
q70 -18 109 -66t39 -116q0 -84 -67.5 -144t-184.5 -60q-83 0 -154 34q-42 24 -42 68z" />
    <glyph glyph-name="Egrave" unicode="&#xc8;" horiz-adv-x="1006" 
d="M802 0h-512q-60 0 -103 43t-43 103v1108q0 60 43 103t103 43h494q56 0 95 -39t39 -95t-39 -95t-95 -39h-348v-242h302q54 0 93 -39t39 -93t-39 -92t-93 -38h-302v-360h366q56 0 95 -39t39 -95t-39 -95t-95 -39zM294 1816q0 38 27 65t65 27q35 0 60 -22l244 -214
q40 -36 40 -74q0 -36 -28 -64t-66 -28q-33 0 -60 24l-248 214q-34 28 -34 72z" />
    <glyph glyph-name="Eacute" unicode="&#xc9;" horiz-adv-x="1006" 
d="M802 0h-512q-60 0 -103 43t-43 103v1108q0 60 43 103t103 43h494q56 0 95 -39t39 -95t-39 -95t-95 -39h-348v-242h302q54 0 93 -39t39 -93t-39 -92t-93 -38h-302v-360h366q56 0 95 -39t39 -95t-39 -95t-95 -39zM754 1816q0 -44 -34 -72l-248 -214q-27 -24 -60 -24
q-38 0 -66 28t-28 64q0 38 40 74l244 214q25 22 60 22q38 0 65 -27t27 -65z" />
    <glyph glyph-name="Ecircumflex" unicode="&#xca;" horiz-adv-x="1006" 
d="M802 0h-512q-60 0 -103 43t-43 103v1108q0 60 43 103t103 43h494q56 0 95 -39t39 -95t-39 -95t-95 -39h-348v-242h302q54 0 93 -39t39 -93t-39 -92t-93 -38h-302v-360h366q56 0 95 -39t39 -95t-39 -95t-95 -39zM514 1690l-172 -152q-29 -26 -68 -26q-35 0 -61.5 26
t-26.5 62q0 41 54 90l236 208q18 18 38 18t38 -18l236 -208q54 -49 54 -90q0 -36 -26.5 -62t-61.5 -26q-39 0 -68 26z" />
    <glyph glyph-name="Edieresis" unicode="&#xcb;" horiz-adv-x="1006" 
d="M802 0h-512q-60 0 -103 43t-43 103v1108q0 60 43 103t103 43h494q56 0 95 -39t39 -95t-39 -95t-95 -39h-348v-242h302q54 0 93 -39t39 -93t-39 -92t-93 -38h-302v-360h366q56 0 95 -39t39 -95t-39 -95t-95 -39zM320 1578q-52 0 -90 38t-38 90t38 90t90 38t90 -38t38 -90
t-38 -90t-90 -38zM712 1578q-52 0 -90 38t-38 90t38 90t90 38t90 -38t38 -90t-38 -90t-90 -38z" />
    <glyph glyph-name="Igrave" unicode="&#xcc;" horiz-adv-x="616" 
d="M162 122v1156q0 60 43 103t103 43t103 -43t43 -103v-1156q0 -60 -43 -103t-103 -43t-103 43t-43 103zM14 1816q0 38 27 65t65 27q35 0 60 -22l244 -214q40 -36 40 -74q0 -36 -28 -64t-66 -28q-33 0 -60 24l-248 214q-34 28 -34 72z" />
    <glyph glyph-name="Iacute" unicode="&#xcd;" horiz-adv-x="616" 
d="M162 122v1156q0 60 43 103t103 43t103 -43t43 -103v-1156q0 -60 -43 -103t-103 -43t-103 43t-43 103zM602 1816q0 -44 -34 -72l-248 -214q-27 -24 -60 -24q-38 0 -66 28t-28 64q0 38 40 74l244 214q25 22 60 22q38 0 65 -27t27 -65z" />
    <glyph glyph-name="Icircumflex" unicode="&#xce;" horiz-adv-x="616" 
d="M162 122v1156q0 60 43 103t103 43t103 -43t43 -103v-1156q0 -60 -43 -103t-103 -43t-103 43t-43 103zM308 1690l-172 -152q-29 -26 -68 -26q-35 0 -61.5 26t-26.5 62q0 41 54 90l236 208q18 18 38 18t38 -18l236 -208q54 -49 54 -90q0 -36 -26.5 -62t-61.5 -26
q-39 0 -68 26z" />
    <glyph glyph-name="Idieresis" unicode="&#xcf;" horiz-adv-x="616" 
d="M162 122v1156q0 60 43 103t103 43t103 -43t43 -103v-1156q0 -60 -43 -103t-103 -43t-103 43t-43 103zM112 1578q-52 0 -90 38t-38 90t38 90t90 38t90 -38t38 -90t-38 -90t-90 -38zM504 1578q-52 0 -90 38t-38 90t38 90t90 38t90 -38t38 -90t-38 -90t-90 -38z" />
    <glyph glyph-name="Eth" unicode="&#xd0;" horiz-adv-x="1382" 
d="M298 1400h262q204 0 370.5 -85.5t265 -246.5t98.5 -368t-98.5 -368t-265 -246.5t-370.5 -85.5h-262q-60 0 -103 43t-43 103v464h-62q-36 0 -61 25t-25 61t25 61t61 25h62v472q0 60 43 103t103 43zM444 1132v-350h204q36 0 61 -25t25 -61t-25 -61t-61 -25h-204v-342h122
q195 0 315.5 117t120.5 315t-120.5 315t-315.5 117h-122z" />
    <glyph glyph-name="Ntilde" unicode="&#xd1;" horiz-adv-x="1476" 
d="M1170 12l-734 834v-724q0 -60 -43 -103t-103 -43t-103 43t-43 103v1210q0 39 25.5 65.5t62.5 26.5q41 0 74 -36l734 -836v726q0 60 43 103t103 43t103 -43t43 -103v-1210q0 -39 -25.5 -65.5t-62.5 -26.5q-41 0 -74 36zM868 1562q-81 0 -162 68q-50 40 -82 40
q-34 0 -52 -44q-9 -25 -31 -39.5t-51 -14.5q-36 0 -61 24.5t-25 57.5q0 21 6 36q25 79 77 119.5t121 40.5q81 0 162 -68q50 -40 82 -40q34 0 52 44q9 25 31 39.5t51 14.5q36 0 61 -24.5t25 -57.5q0 -21 -6 -36q-25 -79 -77 -119.5t-121 -40.5z" />
    <glyph glyph-name="Ograve" unicode="&#xd2;" horiz-adv-x="1664" 
d="M832 -24q-149 0 -285.5 55t-237.5 150t-161 230.5t-60 288.5t60 288.5t161 230.5t237.5 150t285.5 55t285.5 -55t237.5 -150t161 -230.5t60 -288.5t-60 -288.5t-161 -230.5t-237.5 -150t-285.5 -55zM832 244q189 0 320.5 130.5t131.5 325.5t-131.5 325.5t-320.5 130.5
t-320.5 -130.5t-131.5 -325.5t131.5 -325.5t320.5 -130.5zM550 1816q0 38 27 65t65 27q35 0 60 -22l244 -214q40 -36 40 -74q0 -36 -28 -64t-66 -28q-33 0 -60 24l-248 214q-34 28 -34 72z" />
    <glyph glyph-name="Oacute" unicode="&#xd3;" horiz-adv-x="1664" 
d="M832 -24q-149 0 -285.5 55t-237.5 150t-161 230.5t-60 288.5t60 288.5t161 230.5t237.5 150t285.5 55t285.5 -55t237.5 -150t161 -230.5t60 -288.5t-60 -288.5t-161 -230.5t-237.5 -150t-285.5 -55zM832 244q189 0 320.5 130.5t131.5 325.5t-131.5 325.5t-320.5 130.5
t-320.5 -130.5t-131.5 -325.5t131.5 -325.5t320.5 -130.5zM1110 1816q0 -44 -34 -72l-248 -214q-27 -24 -60 -24q-38 0 -66 28t-28 64q0 38 40 74l244 214q25 22 60 22q38 0 65 -27t27 -65z" />
    <glyph glyph-name="Ocircumflex" unicode="&#xd4;" horiz-adv-x="1664" 
d="M832 -24q-149 0 -285.5 55t-237.5 150t-161 230.5t-60 288.5t60 288.5t161 230.5t237.5 150t285.5 55t285.5 -55t237.5 -150t161 -230.5t60 -288.5t-60 -288.5t-161 -230.5t-237.5 -150t-285.5 -55zM832 244q189 0 320.5 130.5t131.5 325.5t-131.5 325.5t-320.5 130.5
t-320.5 -130.5t-131.5 -325.5t131.5 -325.5t320.5 -130.5zM832 1690l-172 -152q-29 -26 -68 -26q-35 0 -61.5 26t-26.5 62q0 41 54 90l236 208q18 18 38 18t38 -18l236 -208q54 -49 54 -90q0 -36 -26.5 -62t-61.5 -26q-39 0 -68 26z" />
    <glyph glyph-name="Otilde" unicode="&#xd5;" horiz-adv-x="1664" 
d="M832 -24q-149 0 -285.5 55t-237.5 150t-161 230.5t-60 288.5t60 288.5t161 230.5t237.5 150t285.5 55t285.5 -55t237.5 -150t161 -230.5t60 -288.5t-60 -288.5t-161 -230.5t-237.5 -150t-285.5 -55zM832 244q189 0 320.5 130.5t131.5 325.5t-131.5 325.5t-320.5 130.5
t-320.5 -130.5t-131.5 -325.5t131.5 -325.5t320.5 -130.5zM962 1562q-81 0 -162 68q-50 40 -82 40q-34 0 -52 -44q-9 -25 -31 -39.5t-51 -14.5q-36 0 -61 24.5t-25 57.5q0 21 6 36q25 79 77 119.5t121 40.5q81 0 162 -68q50 -40 82 -40q34 0 52 44q9 25 31 39.5t51 14.5
q36 0 61 -24.5t25 -57.5q0 -21 -6 -36q-25 -79 -77 -119.5t-121 -40.5z" />
    <glyph glyph-name="Odieresis" unicode="&#xd6;" horiz-adv-x="1664" 
d="M832 -24q-149 0 -285.5 55t-237.5 150t-161 230.5t-60 288.5t60 288.5t161 230.5t237.5 150t285.5 55t285.5 -55t237.5 -150t161 -230.5t60 -288.5t-60 -288.5t-161 -230.5t-237.5 -150t-285.5 -55zM832 244q189 0 320.5 130.5t131.5 325.5t-131.5 325.5t-320.5 130.5
t-320.5 -130.5t-131.5 -325.5t131.5 -325.5t320.5 -130.5zM636 1578q-52 0 -90 38t-38 90t38 90t90 38t90 -38t38 -90t-38 -90t-90 -38zM1028 1578q-52 0 -90 38t-38 90t38 90t90 38t90 -38t38 -90t-38 -90t-90 -38z" />
    <glyph glyph-name="multiply" unicode="&#xd7;" horiz-adv-x="1252" 
d="M808 664l204 -204q60 -60 60 -112q0 -53 -39.5 -89.5t-92.5 -36.5q-54 0 -112 58l-202 200l-202 -200q-58 -58 -112 -58q-53 0 -92.5 36.5t-39.5 89.5q0 52 60 112l204 204l-204 204q-60 60 -60 112q0 53 39.5 89.5t92.5 36.5q54 0 112 -58l202 -200l202 200
q58 58 112 58q53 0 92.5 -36.5t39.5 -89.5q0 -52 -60 -112z" />
    <glyph glyph-name="Oslash" unicode="&#xd8;" horiz-adv-x="1666" 
d="M832 -24q-153 0 -298 60l-110 -194q-22 -40 -64 -40q-29 0 -50.5 21t-21.5 51q0 20 12 40l108 188q-148 99 -234 254.5t-86 343.5q0 153 60 288.5t161 230.5t237.5 150t285.5 55q151 0 296 -60l112 196q21 38 64 38q30 0 51 -21t21 -51q0 -16 -12 -40l-108 -190
q148 -99 234 -254.5t86 -341.5q0 -153 -60 -288.5t-161 -230.5t-237.5 -150t-285.5 -55zM832 244q189 0 320.5 130.5t131.5 325.5q0 108 -44.5 200.5t-121.5 155.5l-448 -784q78 -28 162 -28zM380 700q0 -109 43.5 -201t120.5 -155l448 784q-78 28 -160 28
q-189 0 -320.5 -130.5t-131.5 -325.5z" />
    <glyph glyph-name="Ugrave" unicode="&#xd9;" horiz-adv-x="1332" 
d="M896 504v774q0 60 43 103t103 43t103 -43t43 -103v-768q0 -124 -43 -226.5t-116 -168.5t-166.5 -102.5t-196.5 -36.5t-196.5 36.5t-166.5 102.5t-116 168.5t-43 226.5v768q0 60 43 103t103 43t103 -43t43 -103v-774q0 -126 62.5 -193t167.5 -67t167.5 67t62.5 193z
M398 1816q0 38 27 65t65 27q35 0 60 -22l244 -214q40 -36 40 -74q0 -36 -28 -64t-66 -28q-33 0 -60 24l-248 214q-34 28 -34 72z" />
    <glyph glyph-name="Uacute" unicode="&#xda;" horiz-adv-x="1332" 
d="M896 504v774q0 60 43 103t103 43t103 -43t43 -103v-768q0 -124 -43 -226.5t-116 -168.5t-166.5 -102.5t-196.5 -36.5t-196.5 36.5t-166.5 102.5t-116 168.5t-43 226.5v768q0 60 43 103t103 43t103 -43t43 -103v-774q0 -126 62.5 -193t167.5 -67t167.5 67t62.5 193z
M930 1816q0 -44 -34 -72l-248 -214q-27 -24 -60 -24q-38 0 -66 28t-28 64q0 38 40 74l244 214q25 22 60 22q38 0 65 -27t27 -65z" />
    <glyph glyph-name="Ucircumflex" unicode="&#xdb;" horiz-adv-x="1332" 
d="M896 504v774q0 60 43 103t103 43t103 -43t43 -103v-768q0 -124 -43 -226.5t-116 -168.5t-166.5 -102.5t-196.5 -36.5t-196.5 36.5t-166.5 102.5t-116 168.5t-43 226.5v768q0 60 43 103t103 43t103 -43t43 -103v-774q0 -126 62.5 -193t167.5 -67t167.5 67t62.5 193z
M666 1690l-172 -152q-29 -26 -68 -26q-35 0 -61.5 26t-26.5 62q0 41 54 90l236 208q18 18 38 18t38 -18l236 -208q54 -49 54 -90q0 -36 -26.5 -62t-61.5 -26q-39 0 -68 26z" />
    <glyph glyph-name="Udieresis" unicode="&#xdc;" horiz-adv-x="1332" 
d="M896 504v774q0 60 43 103t103 43t103 -43t43 -103v-768q0 -124 -43 -226.5t-116 -168.5t-166.5 -102.5t-196.5 -36.5t-196.5 36.5t-166.5 102.5t-116 168.5t-43 226.5v768q0 60 43 103t103 43t103 -43t43 -103v-774q0 -126 62.5 -193t167.5 -67t167.5 67t62.5 193z
M470 1578q-52 0 -90 38t-38 90t38 90t90 38t90 -38t38 -90t-38 -90t-90 -38zM862 1578q-52 0 -90 38t-38 90t38 90t90 38t90 -38t38 -90t-38 -90t-90 -38z" />
    <glyph glyph-name="Yacute" unicode="&#xdd;" horiz-adv-x="1304" 
d="M652 -24q-60 0 -103 43t-43 103v430l-400 644q-28 46 -28 90q0 56 43 97t103 41q40 0 72.5 -23.5t53.5 -60.5l302 -518l302 518q21 37 53.5 60.5t72.5 23.5q60 0 103 -41t43 -97q0 -44 -28 -90l-400 -644v-430q0 -60 -43 -103t-103 -43zM948 1816q0 -44 -34 -72
l-248 -214q-27 -24 -60 -24q-38 0 -66 28t-28 64q0 38 40 74l244 214q25 22 60 22q38 0 65 -27t27 -65z" />
    <glyph glyph-name="Thorn" unicode="&#xde;" horiz-adv-x="1116" 
d="M142 122v1156q0 60 43 103t103 43t103 -43t43 -103v-112h106q227 0 370.5 -128t143.5 -328t-143.5 -328t-370.5 -128h-106v-132q0 -60 -43 -103t-103 -43t-103 43t-43 103zM434 914v-408h86q111 0 179.5 52.5t68.5 151.5t-68.5 151.5t-179.5 52.5h-86z" />
    <glyph glyph-name="germandbls" unicode="&#xdf;" horiz-adv-x="1174" 
d="M472 110q0 50 33.5 84t82.5 34q14 0 30 -4q14 -4 42 -4q77 0 125.5 52.5t48.5 143.5q0 187 -214 246q-43 12 -70.5 46t-27.5 82q0 44 23.5 76t62.5 48q114 44 114 170q0 74 -39.5 124t-110.5 50q-78 0 -123 -52.5t-45 -145.5v-952q0 -54 -39 -93t-93 -39t-93 39t-39 93
v944q0 204 114.5 326t311.5 122q179 0 298.5 -116.5t119.5 -271.5q0 -103 -49.5 -183t-138.5 -121q140 -55 230 -167.5t90 -256.5q0 -188 -113.5 -298t-292.5 -110q-92 0 -160 23q-35 11 -56.5 41t-21.5 70z" />
    <glyph glyph-name="agrave" unicode="&#xe0;" horiz-adv-x="1274" 
d="M872 468q0 111 -77.5 180.5t-188.5 69.5t-188.5 -69.5t-77.5 -180.5t77.5 -180.5t188.5 -69.5t188.5 69.5t77.5 180.5zM878 108v14q-55 -69 -141 -107.5t-189 -38.5q-197 0 -334.5 142t-137.5 350t137.5 350t334.5 142q103 0 189 -38.5t141 -107.5v14q0 54 39 93t93 39
t93 -39t39 -93v-720q0 -54 -39 -93t-93 -39t-93 39t-39 93zM398 1368q0 38 27 65t65 27q35 0 60 -22l244 -214q40 -36 40 -74q0 -36 -28 -64t-66 -28q-33 0 -60 24l-248 214q-34 28 -34 72z" />
    <glyph glyph-name="aacute" unicode="&#xe1;" horiz-adv-x="1274" 
d="M872 468q0 111 -77.5 180.5t-188.5 69.5t-188.5 -69.5t-77.5 -180.5t77.5 -180.5t188.5 -69.5t188.5 69.5t77.5 180.5zM878 108v14q-55 -69 -141 -107.5t-189 -38.5q-197 0 -334.5 142t-137.5 350t137.5 350t334.5 142q103 0 189 -38.5t141 -107.5v14q0 54 39 93t93 39
t93 -39t39 -93v-720q0 -54 -39 -93t-93 -39t-93 39t-39 93zM854 1368q0 -44 -34 -72l-248 -214q-27 -24 -60 -24q-38 0 -66 28t-28 64q0 38 40 74l244 214q25 22 60 22q38 0 65 -27t27 -65z" />
    <glyph glyph-name="acircumflex" unicode="&#xe2;" horiz-adv-x="1274" 
d="M872 468q0 111 -77.5 180.5t-188.5 69.5t-188.5 -69.5t-77.5 -180.5t77.5 -180.5t188.5 -69.5t188.5 69.5t77.5 180.5zM878 108v14q-55 -69 -141 -107.5t-189 -38.5q-197 0 -334.5 142t-137.5 350t137.5 350t334.5 142q103 0 189 -38.5t141 -107.5v14q0 54 39 93t93 39
t93 -39t39 -93v-720q0 -54 -39 -93t-93 -39t-93 39t-39 93zM614 1242l-172 -152q-29 -26 -68 -26q-35 0 -61.5 26t-26.5 62q0 41 54 90l236 208q18 18 38 18t38 -18l236 -208q54 -49 54 -90q0 -36 -26.5 -62t-61.5 -26q-39 0 -68 26z" />
    <glyph glyph-name="atilde" unicode="&#xe3;" horiz-adv-x="1274" 
d="M872 468q0 111 -77.5 180.5t-188.5 69.5t-188.5 -69.5t-77.5 -180.5t77.5 -180.5t188.5 -69.5t188.5 69.5t77.5 180.5zM878 108v14q-55 -69 -141 -107.5t-189 -38.5q-197 0 -334.5 142t-137.5 350t137.5 350t334.5 142q103 0 189 -38.5t141 -107.5v14q0 54 39 93t93 39
t93 -39t39 -93v-720q0 -54 -39 -93t-93 -39t-93 39t-39 93zM744 1114q-81 0 -162 68q-50 40 -82 40q-34 0 -52 -44q-9 -25 -31 -39.5t-51 -14.5q-36 0 -61 24.5t-25 57.5q0 21 6 36q25 79 77 119.5t121 40.5q81 0 162 -68q50 -40 82 -40q34 0 52 44q9 25 31 39.5t51 14.5
q36 0 61 -24.5t25 -57.5q0 -21 -6 -36q-25 -79 -77 -119.5t-121 -40.5z" />
    <glyph glyph-name="adieresis" unicode="&#xe4;" horiz-adv-x="1274" 
d="M872 468q0 111 -77.5 180.5t-188.5 69.5t-188.5 -69.5t-77.5 -180.5t77.5 -180.5t188.5 -69.5t188.5 69.5t77.5 180.5zM878 108v14q-55 -69 -141 -107.5t-189 -38.5q-197 0 -334.5 142t-137.5 350t137.5 350t334.5 142q103 0 189 -38.5t141 -107.5v14q0 54 39 93t93 39
t93 -39t39 -93v-720q0 -54 -39 -93t-93 -39t-93 39t-39 93zM420 1130q-52 0 -90 38t-38 90t38 90t90 38t90 -38t38 -90t-38 -90t-90 -38zM812 1130q-52 0 -90 38t-38 90t38 90t90 38t90 -38t38 -90t-38 -90t-90 -38z" />
    <glyph glyph-name="aring" unicode="&#xe5;" horiz-adv-x="1274" 
d="M872 468q0 111 -77.5 180.5t-188.5 69.5t-188.5 -69.5t-77.5 -180.5t77.5 -180.5t188.5 -69.5t188.5 69.5t77.5 180.5zM878 108v14q-55 -69 -141 -107.5t-189 -38.5q-197 0 -334.5 142t-137.5 350t137.5 350t334.5 142q103 0 189 -38.5t141 -107.5v14q0 54 39 93t93 39
t93 -39t39 -93v-720q0 -54 -39 -93t-93 -39t-93 39t-39 93zM616 1174q36 0 60 24.5t24 59.5t-24 59.5t-60 24.5t-60 -24.5t-24 -59.5t24 -59.5t60 -24.5zM616 1044q-91 0 -155.5 61t-64.5 153t64.5 153t155.5 61t155.5 -61t64.5 -153t-64.5 -153t-155.5 -61z" />
    <glyph glyph-name="ae" unicode="&#xe6;" horiz-adv-x="1804" 
d="M1240 -24q-208 0 -352 144q-74 -77 -171 -110.5t-251 -33.5q-96 0 -182 37.5t-141 111t-55 165.5q0 137 106.5 225.5t253.5 88.5q170 0 272 -84v14q0 93 -67 141.5t-175 48.5q-97 0 -190 -48q-29 -16 -58 -16q-45 0 -77.5 32.5t-32.5 77.5q0 32 17 59.5t45 42.5
q163 88 334 88q133 0 216 -40t140 -122q67 75 158.5 118.5t197.5 43.5q203 0 346.5 -134.5t155.5 -333.5v-8q0 -43 -28.5 -68.5t-73.5 -25.5h-632q23 -84 91.5 -129t158.5 -45q123 0 200 74q49 46 102 46q52 0 88 -36t36 -88q0 -50 -34 -84q-72 -73 -175.5 -112.5
t-222.5 -39.5zM352 290q0 -50 52.5 -81t131.5 -31t131.5 31.5t52.5 80.5t-52.5 80.5t-131.5 31.5t-131.5 -31.5t-52.5 -80.5zM1002 580h468q-21 68 -85 107t-151 39q-76 0 -141.5 -40.5t-90.5 -105.5z" />
    <glyph glyph-name="ccedilla" unicode="&#xe7;" horiz-adv-x="1024" 
d="M328 -374q0 29 21.5 49.5t50.5 20.5q21 0 38 -10q31 -14 62 -14q38 0 61 18.5t23 47.5q0 75 -126 78q-10 0 -17 6.5t-7 15.5q0 8 4 20l58 126q-181 30 -300.5 166t-119.5 318q0 135 69 248.5t186.5 178.5t256.5 65q191 0 332 -116q56 -45 56 -104q0 -51 -36.5 -86.5
t-87.5 -35.5q-46 0 -86 34q-78 66 -176 66q-102 0 -175 -71t-73 -179t73 -179t175 -71q98 0 176 66q40 34 86 34q51 0 87.5 -35.5t36.5 -86.5q0 -59 -56 -104q-110 -91 -258 -110l-34 -72q70 -18 109 -66t39 -116q0 -84 -67.5 -144t-184.5 -60q-83 0 -154 34q-42 24 -42 68z
" />
    <glyph glyph-name="egrave" unicode="&#xe8;" horiz-adv-x="1160" 
d="M358 580h468q-21 68 -85 107t-151 39q-76 0 -141.5 -40.5t-90.5 -105.5zM984 390h-632q23 -84 91 -129t159 -45q123 0 200 74q49 46 102 46q52 0 88 -36t36 -88q0 -50 -34 -84q-72 -73 -175.5 -112.5t-222.5 -39.5q-108 0 -204 37.5t-165.5 102.5t-110 156.5t-40.5 195.5
q0 207 148.5 349.5t359.5 142.5q203 0 346.5 -134.5t155.5 -333.5v-8q0 -43 -28.5 -68.5t-73.5 -25.5zM338 1368q0 38 27 65t65 27q35 0 60 -22l244 -214q40 -36 40 -74q0 -36 -28 -64t-66 -28q-33 0 -60 24l-248 214q-34 28 -34 72z" />
    <glyph glyph-name="eacute" unicode="&#xe9;" horiz-adv-x="1160" 
d="M358 580h468q-21 68 -85 107t-151 39q-76 0 -141.5 -40.5t-90.5 -105.5zM984 390h-632q23 -84 91 -129t159 -45q123 0 200 74q49 46 102 46q52 0 88 -36t36 -88q0 -50 -34 -84q-72 -73 -175.5 -112.5t-222.5 -39.5q-108 0 -204 37.5t-165.5 102.5t-110 156.5t-40.5 195.5
q0 207 148.5 349.5t359.5 142.5q203 0 346.5 -134.5t155.5 -333.5v-8q0 -43 -28.5 -68.5t-73.5 -25.5zM806 1368q0 -44 -34 -72l-248 -214q-27 -24 -60 -24q-38 0 -66 28t-28 64q0 38 40 74l244 214q25 22 60 22q38 0 65 -27t27 -65z" />
    <glyph glyph-name="ecircumflex" unicode="&#xea;" horiz-adv-x="1160" 
d="M358 580h468q-21 68 -85 107t-151 39q-76 0 -141.5 -40.5t-90.5 -105.5zM984 390h-632q23 -84 91 -129t159 -45q123 0 200 74q49 46 102 46q52 0 88 -36t36 -88q0 -50 -34 -84q-72 -73 -175.5 -112.5t-222.5 -39.5q-108 0 -204 37.5t-165.5 102.5t-110 156.5t-40.5 195.5
q0 207 148.5 349.5t359.5 142.5q203 0 346.5 -134.5t155.5 -333.5v-8q0 -43 -28.5 -68.5t-73.5 -25.5zM572 1242l-172 -152q-29 -26 -68 -26q-35 0 -61.5 26t-26.5 62q0 41 54 90l236 208q18 18 38 18t38 -18l236 -208q54 -49 54 -90q0 -36 -26.5 -62t-61.5 -26
q-39 0 -68 26z" />
    <glyph glyph-name="edieresis" unicode="&#xeb;" horiz-adv-x="1160" 
d="M358 580h468q-21 68 -85 107t-151 39q-76 0 -141.5 -40.5t-90.5 -105.5zM984 390h-632q23 -84 91 -129t159 -45q123 0 200 74q49 46 102 46q52 0 88 -36t36 -88q0 -50 -34 -84q-72 -73 -175.5 -112.5t-222.5 -39.5q-108 0 -204 37.5t-165.5 102.5t-110 156.5t-40.5 195.5
q0 207 148.5 349.5t359.5 142.5q203 0 346.5 -134.5t155.5 -333.5v-8q0 -43 -28.5 -68.5t-73.5 -25.5zM376 1130q-52 0 -90 38t-38 90t38 90t90 38t90 -38t38 -90t-38 -90t-90 -38zM768 1130q-52 0 -90 38t-38 90t38 90t90 38t90 -38t38 -90t-38 -90t-90 -38z" />
    <glyph glyph-name="igrave" unicode="&#xec;" horiz-adv-x="548" 
d="M140 108v720q0 54 39 93t93 39t93 -39t39 -93v-720q0 -54 -39 -93t-93 -39t-93 39t-39 93zM-24 1368q0 38 27 65t65 27q35 0 60 -22l244 -214q40 -36 40 -74q0 -36 -28 -64t-66 -28q-33 0 -60 24l-248 214q-34 28 -34 72z" />
    <glyph glyph-name="iacute" unicode="&#xed;" horiz-adv-x="548" 
d="M140 108v720q0 54 39 93t93 39t93 -39t39 -93v-720q0 -54 -39 -93t-93 -39t-93 39t-39 93zM572 1368q0 -44 -34 -72l-248 -214q-27 -24 -60 -24q-38 0 -66 28t-28 64q0 38 40 74l244 214q25 22 60 22q38 0 65 -27t27 -65z" />
    <glyph glyph-name="icircumflex" unicode="&#xee;" horiz-adv-x="548" 
d="M140 108v720q0 54 39 93t93 39t93 -39t39 -93v-720q0 -54 -39 -93t-93 -39t-93 39t-39 93zM274 1242l-172 -152q-29 -26 -68 -26q-35 0 -61.5 26t-26.5 62q0 41 54 90l236 208q18 18 38 18t38 -18l236 -208q54 -49 54 -90q0 -36 -26.5 -62t-61.5 -26q-39 0 -68 26z" />
    <glyph glyph-name="idieresis" unicode="&#xef;" horiz-adv-x="548" 
d="M140 108v720q0 54 39 93t93 39t93 -39t39 -93v-720q0 -54 -39 -93t-93 -39t-93 39t-39 93zM78 1130q-52 0 -90 38t-38 90t38 90t90 38t90 -38t38 -90t-38 -90t-90 -38zM470 1130q-52 0 -90 38t-38 90t38 90t90 38t90 -38t38 -90t-38 -90t-90 -38z" />
    <glyph glyph-name="eth" unicode="&#xf0;" horiz-adv-x="1186" 
d="M254 1122l122 68q-13 9 -66 38q-76 41 -76 112q0 50 36.5 87t85.5 37q41 0 70 -16q103 -57 194 -120l170 94q13 8 34 8q28 0 48 -20.5t20 -49.5q0 -39 -30 -56l-122 -68q360 -311 360 -736q0 -229 -148 -376.5t-364 -147.5q-138 0 -255.5 64.5t-187 178t-69.5 249.5
q0 100 38.5 191t102.5 156.5t151.5 104t181.5 38.5q64 0 112 -8q-66 80 -158 154l-176 -98q-18 -12 -40 -12q-28 0 -48 20t-20 48q0 40 34 60zM344 470q0 -110 69 -181t175 -71q104 0 174 71.5t70 180.5q0 106 -70 177t-174 71q-106 0 -175 -70.5t-69 -177.5z" />
    <glyph glyph-name="ntilde" unicode="&#xf1;" horiz-adv-x="1120" 
d="M394 828q103 132 274 132q139 0 232.5 -95.5t93.5 -250.5v-506q0 -54 -39 -93t-93 -39t-93 39t-39 93v444q0 80 -47 129t-121 49t-121 -49t-47 -129v-444q0 -54 -39 -93t-93 -39t-93 39t-39 93v720q0 54 39 93t93 39t93 -39t39 -93zM688 1114q-81 0 -162 68
q-50 40 -82 40q-34 0 -52 -44q-9 -25 -31 -39.5t-51 -14.5q-36 0 -61 24.5t-25 57.5q0 21 6 36q25 79 77 119.5t121 40.5q81 0 162 -68q50 -40 82 -40q34 0 52 44q9 25 31 39.5t51 14.5q36 0 61 -24.5t25 -57.5q0 -21 -6 -36q-25 -79 -77 -119.5t-121 -40.5z" />
    <glyph glyph-name="ograve" unicode="&#xf2;" horiz-adv-x="1188" 
d="M340 468q0 -107 74.5 -178.5t179.5 -71.5t179.5 71.5t74.5 178.5t-74.5 178.5t-179.5 71.5t-179.5 -71.5t-74.5 -178.5zM76 468q0 207 149.5 349.5t368.5 142.5t368.5 -142.5t149.5 -349.5t-149.5 -349.5t-368.5 -142.5t-368.5 142.5t-149.5 349.5zM354 1368q0 38 27 65
t65 27q35 0 60 -22l244 -214q40 -36 40 -74q0 -36 -28 -64t-66 -28q-33 0 -60 24l-248 214q-34 28 -34 72z" />
    <glyph glyph-name="oacute" unicode="&#xf3;" horiz-adv-x="1188" 
d="M340 468q0 -107 74.5 -178.5t179.5 -71.5t179.5 71.5t74.5 178.5t-74.5 178.5t-179.5 71.5t-179.5 -71.5t-74.5 -178.5zM76 468q0 207 149.5 349.5t368.5 142.5t368.5 -142.5t149.5 -349.5t-149.5 -349.5t-368.5 -142.5t-368.5 142.5t-149.5 349.5zM850 1368
q0 -44 -34 -72l-248 -214q-27 -24 -60 -24q-38 0 -66 28t-28 64q0 38 40 74l244 214q25 22 60 22q38 0 65 -27t27 -65z" />
    <glyph glyph-name="ocircumflex" unicode="&#xf4;" horiz-adv-x="1188" 
d="M340 468q0 -107 74.5 -178.5t179.5 -71.5t179.5 71.5t74.5 178.5t-74.5 178.5t-179.5 71.5t-179.5 -71.5t-74.5 -178.5zM76 468q0 207 149.5 349.5t368.5 142.5t368.5 -142.5t149.5 -349.5t-149.5 -349.5t-368.5 -142.5t-368.5 142.5t-149.5 349.5zM590 1242l-172 -152
q-29 -26 -68 -26q-35 0 -61.5 26t-26.5 62q0 41 54 90l236 208q18 18 38 18t38 -18l236 -208q54 -49 54 -90q0 -36 -26.5 -62t-61.5 -26q-39 0 -68 26z" />
    <glyph glyph-name="otilde" unicode="&#xf5;" horiz-adv-x="1188" 
d="M340 468q0 -107 74.5 -178.5t179.5 -71.5t179.5 71.5t74.5 178.5t-74.5 178.5t-179.5 71.5t-179.5 -71.5t-74.5 -178.5zM76 468q0 207 149.5 349.5t368.5 142.5t368.5 -142.5t149.5 -349.5t-149.5 -349.5t-368.5 -142.5t-368.5 142.5t-149.5 349.5zM722 1114
q-81 0 -162 68q-50 40 -82 40q-34 0 -52 -44q-9 -25 -31 -39.5t-51 -14.5q-36 0 -61 24.5t-25 57.5q0 21 6 36q25 79 77 119.5t121 40.5q81 0 162 -68q50 -40 82 -40q34 0 52 44q9 25 31 39.5t51 14.5q36 0 61 -24.5t25 -57.5q0 -21 -6 -36q-25 -79 -77 -119.5t-121 -40.5z
" />
    <glyph glyph-name="odieresis" unicode="&#xf6;" horiz-adv-x="1188" 
d="M340 468q0 -107 74.5 -178.5t179.5 -71.5t179.5 71.5t74.5 178.5t-74.5 178.5t-179.5 71.5t-179.5 -71.5t-74.5 -178.5zM76 468q0 207 149.5 349.5t368.5 142.5t368.5 -142.5t149.5 -349.5t-149.5 -349.5t-368.5 -142.5t-368.5 142.5t-149.5 349.5zM396 1130
q-52 0 -90 38t-38 90t38 90t90 38t90 -38t38 -90t-38 -90t-90 -38zM788 1130q-52 0 -90 38t-38 90t38 90t90 38t90 -38t38 -90t-38 -90t-90 -38z" />
    <glyph glyph-name="divide" unicode="&#xf7;" horiz-adv-x="1252" 
d="M474 1064q0 65 43.5 109.5t108.5 44.5t108.5 -44.5t43.5 -109.5q0 -62 -43.5 -106t-108.5 -44t-108.5 44t-43.5 106zM474 264q0 62 43.5 106t108.5 44t108.5 -44t43.5 -106q0 -65 -43.5 -109.5t-108.5 -44.5t-108.5 44.5t-43.5 109.5zM220 776h812q46 0 79 -33t33 -79
t-33 -79t-79 -33h-812q-46 0 -79 33t-33 79t33 79t79 33z" />
    <glyph glyph-name="oslash" unicode="&#xf8;" horiz-adv-x="1188" 
d="M76 468q0 207 149.5 349.5t368.5 142.5q98 0 182 -30l114 198q20 34 60 34q29 0 50.5 -20.5t21.5 -47.5q0 -19 -10 -36l-110 -192q98 -69 154 -172.5t56 -225.5q0 -207 -149.5 -349.5t-368.5 -142.5q-89 0 -182 30l-112 -196q-20 -34 -60 -34q-29 0 -50.5 20.5
t-21.5 47.5q0 19 10 36l108 190q-98 67 -154 171.5t-56 226.5zM340 468q0 -107 72 -176l240 420q-30 6 -58 6q-105 0 -179.5 -71.5t-74.5 -178.5zM848 468q0 104 -72 176l-240 -420q27 -6 58 -6q105 0 179.5 71.5t74.5 178.5z" />
    <glyph glyph-name="ugrave" unicode="&#xf9;" horiz-adv-x="1128" 
d="M732 108q-103 -132 -274 -132q-139 0 -232.5 95.5t-93.5 250.5v506q0 54 39 93t93 39t93 -39t39 -93v-444q0 -80 47 -129t121 -49t121 49t47 129v444q0 54 39 93t93 39t93 -39t39 -93v-720q0 -54 -39 -93t-93 -39t-93 39t-39 93zM314 1368q0 38 27 65t65 27q35 0 60 -22
l244 -214q40 -36 40 -74q0 -36 -28 -64t-66 -28q-33 0 -60 24l-248 214q-34 28 -34 72z" />
    <glyph glyph-name="uacute" unicode="&#xfa;" horiz-adv-x="1128" 
d="M732 108q-103 -132 -274 -132q-139 0 -232.5 95.5t-93.5 250.5v506q0 54 39 93t93 39t93 -39t39 -93v-444q0 -80 47 -129t121 -49t121 49t47 129v444q0 54 39 93t93 39t93 -39t39 -93v-720q0 -54 -39 -93t-93 -39t-93 39t-39 93zM808 1368q0 -44 -34 -72l-248 -214
q-27 -24 -60 -24q-38 0 -66 28t-28 64q0 38 40 74l244 214q25 22 60 22q38 0 65 -27t27 -65z" />
    <glyph glyph-name="ucircumflex" unicode="&#xfb;" horiz-adv-x="1128" 
d="M732 108q-103 -132 -274 -132q-139 0 -232.5 95.5t-93.5 250.5v506q0 54 39 93t93 39t93 -39t39 -93v-444q0 -80 47 -129t121 -49t121 49t47 129v444q0 54 39 93t93 39t93 -39t39 -93v-720q0 -54 -39 -93t-93 -39t-93 39t-39 93zM562 1242l-172 -152q-29 -26 -68 -26
q-35 0 -61.5 26t-26.5 62q0 41 54 90l236 208q18 18 38 18t38 -18l236 -208q54 -49 54 -90q0 -36 -26.5 -62t-61.5 -26q-39 0 -68 26z" />
    <glyph glyph-name="udieresis" unicode="&#xfc;" horiz-adv-x="1128" 
d="M732 108q-103 -132 -274 -132q-139 0 -232.5 95.5t-93.5 250.5v506q0 54 39 93t93 39t93 -39t39 -93v-444q0 -80 47 -129t121 -49t121 49t47 129v444q0 54 39 93t93 39t93 -39t39 -93v-720q0 -54 -39 -93t-93 -39t-93 39t-39 93zM366 1130q-52 0 -90 38t-38 90t38 90
t90 38t90 -38t38 -90t-38 -90t-90 -38zM758 1130q-52 0 -90 38t-38 90t38 90t90 38t90 -38t38 -90t-38 -90t-90 -38z" />
    <glyph glyph-name="yacute" unicode="&#xfd;" horiz-adv-x="1052" 
d="M524 342l196 536q14 37 46 59.5t72 22.5q56 0 94 -38t38 -94q0 -22 -6 -40l-490 -1290q-15 -39 -48 -61.5t-78 -22.5q-54 0 -91 37t-37 91q0 27 10 54l168 432l-306 756q-8 19 -8 46q0 54 37 92t89 38q43 0 76 -24.5t48 -65.5zM770 1368q0 -44 -34 -72l-248 -214
q-27 -24 -60 -24q-38 0 -66 28t-28 64q0 38 40 74l244 214q25 22 60 22q38 0 65 -27t27 -65z" />
    <glyph glyph-name="thorn" unicode="&#xfe;" horiz-adv-x="1274" 
d="M402 468q0 -111 77.5 -180.5t188.5 -69.5t188.5 69.5t77.5 180.5t-77.5 180.5t-188.5 69.5t-188.5 -69.5t-77.5 -180.5zM396 122v-575q0 -54 -39 -93t-93 -39t-93 39t-39 93v1845q0 54 39 93t93 39t93 -39t39 -93v-578q55 69 141 107.5t189 38.5q197 0 334.5 -142
t137.5 -350t-137.5 -350t-334.5 -142q-103 0 -189 38.5t-141 107.5z" />
    <glyph glyph-name="ydieresis" unicode="&#xff;" horiz-adv-x="1052" 
d="M524 342l196 536q14 37 46 59.5t72 22.5q56 0 94 -38t38 -94q0 -22 -6 -40l-490 -1290q-15 -39 -48 -61.5t-78 -22.5q-54 0 -91 37t-37 91q0 27 10 54l168 432l-306 756q-8 19 -8 46q0 54 37 92t89 38q43 0 76 -24.5t48 -65.5zM332 1130q-52 0 -90 38t-38 90t38 90t90 38
t90 -38t38 -90t-38 -90t-90 -38zM724 1130q-52 0 -90 38t-38 90t38 90t90 38t90 -38t38 -90t-38 -90t-90 -38z" />
    <glyph glyph-name="Amacron" unicode="&#x100;" horiz-adv-x="1332" 
d="M666 1424q63 0 90 -64l496 -1192q10 -27 10 -52q0 -58 -40.5 -99t-97.5 -41q-47 0 -82 26t-52 70l-76 194h-498l-74 -194q-17 -44 -52 -70t-82 -26q-57 0 -97.5 41t-40.5 99q0 25 10 52l496 1192q27 64 90 64zM666 910l-160 -410h318zM886 1614h-440q-39 0 -65.5 27.5
t-26.5 66.5t26.5 65.5t65.5 26.5h440q39 0 65.5 -26.5t26.5 -65.5t-26.5 -66.5t-65.5 -27.5z" />
    <glyph glyph-name="amacron" unicode="&#x101;" horiz-adv-x="1274" 
d="M872 468q0 111 -77.5 180.5t-188.5 69.5t-188.5 -69.5t-77.5 -180.5t77.5 -180.5t188.5 -69.5t188.5 69.5t77.5 180.5zM878 108v14q-55 -69 -141 -107.5t-189 -38.5q-197 0 -334.5 142t-137.5 350t137.5 350t334.5 142q103 0 189 -38.5t141 -107.5v14q0 54 39 93t93 39
t93 -39t39 -93v-720q0 -54 -39 -93t-93 -39t-93 39t-39 93zM836 1166h-440q-39 0 -65.5 27.5t-26.5 66.5t26.5 65.5t65.5 26.5h440q39 0 65.5 -26.5t26.5 -65.5t-26.5 -66.5t-65.5 -27.5z" />
    <glyph glyph-name="Abreve" unicode="&#x102;" horiz-adv-x="1332" 
d="M666 1424q63 0 90 -64l496 -1192q10 -27 10 -52q0 -58 -40.5 -99t-97.5 -41q-47 0 -82 26t-52 70l-76 194h-498l-74 -194q-17 -44 -52 -70t-82 -26q-57 0 -97.5 41t-40.5 99q0 25 10 52l496 1192q27 64 90 64zM666 910l-160 -410h318zM666 1544q-94 0 -169 52t-113 144
q-10 23 -10 52q0 38 25.5 64t64.5 26q34 0 59.5 -19.5t36.5 -52.5q12 -37 40 -59.5t66 -22.5t66 22.5t40 59.5q11 33 36.5 52.5t59.5 19.5q39 0 64.5 -26t25.5 -64q0 -29 -10 -52q-38 -92 -113 -144t-169 -52z" />
    <glyph glyph-name="abreve" unicode="&#x103;" horiz-adv-x="1274" 
d="M872 468q0 111 -77.5 180.5t-188.5 69.5t-188.5 -69.5t-77.5 -180.5t77.5 -180.5t188.5 -69.5t188.5 69.5t77.5 180.5zM878 108v14q-55 -69 -141 -107.5t-189 -38.5q-197 0 -334.5 142t-137.5 350t137.5 350t334.5 142q103 0 189 -38.5t141 -107.5v14q0 54 39 93t93 39
t93 -39t39 -93v-720q0 -54 -39 -93t-93 -39t-93 39t-39 93zM614 1096q-94 0 -169 52t-113 144q-10 23 -10 52q0 38 25.5 64t64.5 26q34 0 59.5 -19.5t36.5 -52.5q12 -37 40 -59.5t66 -22.5t66 22.5t40 59.5q11 33 36.5 52.5t59.5 19.5q39 0 64.5 -26t25.5 -64q0 -29 -10 -52
q-38 -92 -113 -144t-169 -52z" />
    <glyph glyph-name="Aogonek" unicode="&#x104;" horiz-adv-x="1332" 
d="M666 1424q63 0 90 -64l496 -1192q10 -27 10 -52q0 -77 -62 -116q-110 -107 -110 -196q0 -40 24 -60t60 -20q18 0 46 4q2 0 4 0.5t4 0.5q28 0 49 -23t21 -52q0 -50 -52 -74q-42 -18 -110 -18q-107 0 -170.5 59.5t-63.5 144.5q0 137 136 238q-30 22 -48 68l-76 194h-498
l-74 -194q-17 -44 -52 -70t-82 -26q-57 0 -97.5 41t-40.5 99q0 25 10 52l496 1192q27 64 90 64zM666 910l-160 -410h318z" />
    <glyph glyph-name="aogonek" unicode="&#x105;" horiz-adv-x="1278" 
d="M878 108v14q-55 -69 -141 -107.5t-189 -38.5q-197 0 -334.5 142t-137.5 350t137.5 350t334.5 142q103 0 189 -38.5t141 -107.5v14q0 54 39 93t93 39t93 -39t39 -93v-720q0 -35 -17.5 -65t-46.5 -47q-106 -103 -106 -192q0 -40 24 -60t60 -20q18 0 46 4q2 0 4 0.5t4 0.5
q28 0 49 -23t21 -52q0 -50 -52 -74q-42 -18 -110 -18q-107 0 -170.5 59.5t-63.5 144.5q0 137 140 242q-46 39 -46 100zM872 468q0 111 -77.5 180.5t-188.5 69.5t-188.5 -69.5t-77.5 -180.5t77.5 -180.5t188.5 -69.5t188.5 69.5t77.5 180.5z" />
    <glyph glyph-name="Cacute" unicode="&#x106;" horiz-adv-x="1452" 
d="M88 700q0 153 60 289t160.5 230.5t235.5 149.5t282 55q153 0 287.5 -51t230.5 -145q40 -40 40 -98q0 -57 -40.5 -96.5t-97.5 -39.5t-100 40q-131 122 -314 122q-189 0 -320.5 -130.5t-131.5 -325.5t131.5 -325.5t320.5 -130.5q183 0 314 122q43 40 100 40t97.5 -39.5
t40.5 -96.5q0 -58 -40 -98q-96 -94 -230.5 -145t-287.5 -51q-147 0 -282 55t-235.5 149.5t-160.5 230.5t-60 289zM1046 1816q0 -44 -34 -72l-248 -214q-27 -24 -60 -24q-38 0 -66 28t-28 64q0 38 40 74l244 214q25 22 60 22q38 0 65 -27t27 -65z" />
    <glyph glyph-name="cacute" unicode="&#x107;" horiz-adv-x="1024" 
d="M76 468q0 135 69 248.5t186.5 178.5t256.5 65q191 0 332 -116q56 -45 56 -104q0 -51 -36.5 -86.5t-87.5 -35.5q-46 0 -86 34q-78 66 -176 66q-102 0 -175 -71t-73 -179t73 -179t175 -71q98 0 176 66q40 34 86 34q51 0 87.5 -35.5t36.5 -86.5q0 -59 -56 -104
q-141 -116 -332 -116q-139 0 -256.5 65t-186.5 178.5t-69 248.5zM784 1368q0 -44 -34 -72l-248 -214q-27 -24 -60 -24q-38 0 -66 28t-28 64q0 38 40 74l244 214q25 22 60 22q38 0 65 -27t27 -65z" />
    <glyph glyph-name="Ccircumflex" unicode="&#x108;" horiz-adv-x="1452" 
d="M88 700q0 153 60 289t160.5 230.5t235.5 149.5t282 55q153 0 287.5 -51t230.5 -145q40 -40 40 -98q0 -57 -40.5 -96.5t-97.5 -39.5t-100 40q-131 122 -314 122q-189 0 -320.5 -130.5t-131.5 -325.5t131.5 -325.5t320.5 -130.5q183 0 314 122q43 40 100 40t97.5 -39.5
t40.5 -96.5q0 -58 -40 -98q-96 -94 -230.5 -145t-287.5 -51q-147 0 -282 55t-235.5 149.5t-160.5 230.5t-60 289zM772 1690l-172 -152q-29 -26 -68 -26q-35 0 -61.5 26t-26.5 62q0 41 54 90l236 208q18 18 38 18t38 -18l236 -208q54 -49 54 -90q0 -36 -26.5 -62t-61.5 -26
q-39 0 -68 26z" />
    <glyph glyph-name="ccircumflex" unicode="&#x109;" horiz-adv-x="1024" 
d="M76 468q0 135 69 248.5t186.5 178.5t256.5 65q191 0 332 -116q56 -45 56 -104q0 -51 -36.5 -86.5t-87.5 -35.5q-46 0 -86 34q-78 66 -176 66q-102 0 -175 -71t-73 -179t73 -179t175 -71q98 0 176 66q40 34 86 34q51 0 87.5 -35.5t36.5 -86.5q0 -59 -56 -104
q-141 -116 -332 -116q-139 0 -256.5 65t-186.5 178.5t-69 248.5zM548 1242l-172 -152q-29 -26 -68 -26q-35 0 -61.5 26t-26.5 62q0 41 54 90l236 208q18 18 38 18t38 -18l236 -208q54 -49 54 -90q0 -36 -26.5 -62t-61.5 -26q-39 0 -68 26z" />
    <glyph glyph-name="Cdotaccent" unicode="&#x10a;" horiz-adv-x="1452" 
d="M88 700q0 153 60 289t160.5 230.5t235.5 149.5t282 55q153 0 287.5 -51t230.5 -145q40 -40 40 -98q0 -57 -40.5 -96.5t-97.5 -39.5t-100 40q-131 122 -314 122q-189 0 -320.5 -130.5t-131.5 -325.5t131.5 -325.5t320.5 -130.5q183 0 314 122q43 40 100 40t97.5 -39.5
t40.5 -96.5q0 -58 -40 -98q-96 -94 -230.5 -145t-287.5 -51q-147 0 -282 55t-235.5 149.5t-160.5 230.5t-60 289zM772 1578q-52 0 -90 38t-38 90t38 90t90 38t90 -38t38 -90t-38 -90t-90 -38z" />
    <glyph glyph-name="cdotaccent" unicode="&#x10b;" horiz-adv-x="1024" 
d="M76 468q0 135 69 248.5t186.5 178.5t256.5 65q191 0 332 -116q56 -45 56 -104q0 -51 -36.5 -86.5t-87.5 -35.5q-46 0 -86 34q-78 66 -176 66q-102 0 -175 -71t-73 -179t73 -179t175 -71q98 0 176 66q40 34 86 34q51 0 87.5 -35.5t36.5 -86.5q0 -59 -56 -104
q-141 -116 -332 -116q-139 0 -256.5 65t-186.5 178.5t-69 248.5zM548 1130q-52 0 -90 38t-38 90t38 90t90 38t90 -38t38 -90t-38 -90t-90 -38z" />
    <glyph glyph-name="Ccaron" unicode="&#x10c;" horiz-adv-x="1452" 
d="M88 700q0 153 60 289t160.5 230.5t235.5 149.5t282 55q153 0 287.5 -51t230.5 -145q40 -40 40 -98q0 -57 -40.5 -96.5t-97.5 -39.5t-100 40q-131 122 -314 122q-189 0 -320.5 -130.5t-131.5 -325.5t131.5 -325.5t320.5 -130.5q183 0 314 122q43 40 100 40t97.5 -39.5
t40.5 -96.5q0 -58 -40 -98q-96 -94 -230.5 -145t-287.5 -51q-147 0 -282 55t-235.5 149.5t-160.5 230.5t-60 289zM600 1870l172 -152l172 152q29 26 68 26q35 0 61.5 -26t26.5 -62q0 -41 -54 -90l-236 -208q-18 -18 -38 -18t-38 18l-236 208q-54 49 -54 90q0 36 26.5 62
t61.5 26q39 0 68 -26z" />
    <glyph glyph-name="ccaron" unicode="&#x10d;" horiz-adv-x="1024" 
d="M76 468q0 135 69 248.5t186.5 178.5t256.5 65q191 0 332 -116q56 -45 56 -104q0 -51 -36.5 -86.5t-87.5 -35.5q-46 0 -86 34q-78 66 -176 66q-102 0 -175 -71t-73 -179t73 -179t175 -71q98 0 176 66q40 34 86 34q51 0 87.5 -35.5t36.5 -86.5q0 -59 -56 -104
q-141 -116 -332 -116q-139 0 -256.5 65t-186.5 178.5t-69 248.5zM376 1422l172 -152l172 152q29 26 68 26q35 0 61.5 -26t26.5 -62q0 -41 -54 -90l-236 -208q-18 -18 -38 -18t-38 18l-236 208q-54 49 -54 90q0 36 26.5 62t61.5 26q39 0 68 -26z" />
    <glyph glyph-name="Dcaron" unicode="&#x10e;" horiz-adv-x="1374" 
d="M436 1132v-864h122q195 0 315.5 117t120.5 315t-120.5 315t-315.5 117h-122zM290 1400h262q204 0 370.5 -85.5t265 -246.5t98.5 -368t-98.5 -368t-265 -246.5t-370.5 -85.5h-262q-60 0 -103 43t-43 103v1108q0 60 43 103t103 43zM394 1870l172 -152l172 152q29 26 68 26
q35 0 61.5 -26t26.5 -62q0 -41 -54 -90l-236 -208q-18 -18 -38 -18t-38 18l-236 208q-54 49 -54 90q0 36 26.5 62t61.5 26q39 0 68 -26z" />
    <glyph glyph-name="dcaron" unicode="&#x10f;" horiz-adv-x="1606" 
d="M872 468q0 111 -77.5 180.5t-188.5 69.5t-188.5 -69.5t-77.5 -180.5t77.5 -180.5t188.5 -69.5t188.5 69.5t77.5 180.5zM878 108v14q-55 -69 -141 -107.5t-189 -38.5q-197 0 -334.5 142t-137.5 350t137.5 350t334.5 142q103 0 189 -38.5t141 -107.5v578q0 54 39 93t93 39
t93 -39t39 -93v-1284q0 -54 -39 -93t-93 -39t-93 39t-39 93zM1246 1070l78 332q9 40 40 65t74 25q50 0 85 -34.5t35 -83.5q0 -23 -10 -46l-128 -308q-10 -25 -33.5 -40.5t-52.5 -15.5q-35 0 -63 24t-28 61q0 11 3 21z" />
    <glyph glyph-name="Dcroat" unicode="&#x110;" horiz-adv-x="1382" 
d="M298 1400h262q204 0 370.5 -85.5t265 -246.5t98.5 -368t-98.5 -368t-265 -246.5t-370.5 -85.5h-262q-60 0 -103 43t-43 103v464h-62q-36 0 -61 25t-25 61t25 61t61 25h62v472q0 60 43 103t103 43zM444 1132v-350h204q36 0 61 -25t25 -61t-25 -61t-61 -25h-204v-342h122
q195 0 315.5 117t120.5 315t-120.5 315t-315.5 117h-122z" />
    <glyph glyph-name="dcroat" unicode="&#x111;" horiz-adv-x="1282" 
d="M878 108v14q-55 -69 -141 -107.5t-189 -38.5q-197 0 -334.5 142t-137.5 350t137.5 350t334.5 142q103 0 189 -38.5t141 -107.5v348h-362q-36 0 -61 25t-25 61t25 61t61 25h362v58q0 54 39 93t93 39t93 -39t39 -93v-58h64q36 0 61 -25t25 -61t-25 -61t-61 -25h-64v-1054
q0 -54 -39 -93t-93 -39t-93 39t-39 93zM872 468q0 111 -77.5 180.5t-188.5 69.5t-188.5 -69.5t-77.5 -180.5t77.5 -180.5t188.5 -69.5t188.5 69.5t77.5 180.5z" />
    <glyph glyph-name="Emacron" unicode="&#x112;" horiz-adv-x="1006" 
d="M802 0h-512q-60 0 -103 43t-43 103v1108q0 60 43 103t103 43h494q56 0 95 -39t39 -95t-39 -95t-95 -39h-348v-242h302q54 0 93 -39t39 -93t-39 -92t-93 -38h-302v-360h366q56 0 95 -39t39 -95t-39 -95t-95 -39zM736 1614h-440q-39 0 -65.5 27.5t-26.5 66.5t26.5 65.5
t65.5 26.5h440q39 0 65.5 -26.5t26.5 -65.5t-26.5 -66.5t-65.5 -27.5z" />
    <glyph glyph-name="emacron" unicode="&#x113;" horiz-adv-x="1160" 
d="M358 580h468q-21 68 -85 107t-151 39q-76 0 -141.5 -40.5t-90.5 -105.5zM984 390h-632q23 -84 91 -129t159 -45q123 0 200 74q49 46 102 46q52 0 88 -36t36 -88q0 -50 -34 -84q-72 -73 -175.5 -112.5t-222.5 -39.5q-108 0 -204 37.5t-165.5 102.5t-110 156.5t-40.5 195.5
q0 207 148.5 349.5t359.5 142.5q203 0 346.5 -134.5t155.5 -333.5v-8q0 -43 -28.5 -68.5t-73.5 -25.5zM792 1166h-440q-39 0 -65.5 27.5t-26.5 66.5t26.5 65.5t65.5 26.5h440q39 0 65.5 -26.5t26.5 -65.5t-26.5 -66.5t-65.5 -27.5z" />
    <glyph glyph-name="Ebreve" unicode="&#x114;" horiz-adv-x="1006" 
d="M802 0h-512q-60 0 -103 43t-43 103v1108q0 60 43 103t103 43h494q56 0 95 -39t39 -95t-39 -95t-95 -39h-348v-242h302q54 0 93 -39t39 -93t-39 -92t-93 -38h-302v-360h366q56 0 95 -39t39 -95t-39 -95t-95 -39zM516 1544q-94 0 -169 52t-113 144q-10 23 -10 52
q0 38 25.5 64t64.5 26q34 0 59.5 -19.5t36.5 -52.5q12 -37 40 -59.5t66 -22.5t66 22.5t40 59.5q11 33 36.5 52.5t59.5 19.5q39 0 64.5 -26t25.5 -64q0 -29 -10 -52q-38 -92 -113 -144t-169 -52z" />
    <glyph glyph-name="ebreve" unicode="&#x115;" horiz-adv-x="1160" 
d="M358 580h468q-21 68 -85 107t-151 39q-76 0 -141.5 -40.5t-90.5 -105.5zM984 390h-632q23 -84 91 -129t159 -45q123 0 200 74q49 46 102 46q52 0 88 -36t36 -88q0 -50 -34 -84q-72 -73 -175.5 -112.5t-222.5 -39.5q-108 0 -204 37.5t-165.5 102.5t-110 156.5t-40.5 195.5
q0 207 148.5 349.5t359.5 142.5q203 0 346.5 -134.5t155.5 -333.5v-8q0 -43 -28.5 -68.5t-73.5 -25.5zM572 1096q-94 0 -169 52t-113 144q-10 23 -10 52q0 38 25.5 64t64.5 26q34 0 59.5 -19.5t36.5 -52.5q12 -37 40 -59.5t66 -22.5t66 22.5t40 59.5q11 33 36.5 52.5
t59.5 19.5q39 0 64.5 -26t25.5 -64q0 -29 -10 -52q-38 -92 -113 -144t-169 -52z" />
    <glyph glyph-name="Edotaccent" unicode="&#x116;" horiz-adv-x="1006" 
d="M802 0h-512q-60 0 -103 43t-43 103v1108q0 60 43 103t103 43h494q56 0 95 -39t39 -95t-39 -95t-95 -39h-348v-242h302q54 0 93 -39t39 -93t-39 -92t-93 -38h-302v-360h366q56 0 95 -39t39 -95t-39 -95t-95 -39zM520 1578q-52 0 -90 38t-38 90t38 90t90 38t90 -38t38 -90
t-38 -90t-90 -38z" />
    <glyph glyph-name="edotaccent" unicode="&#x117;" horiz-adv-x="1160" 
d="M358 580h468q-21 68 -85 107t-151 39q-76 0 -141.5 -40.5t-90.5 -105.5zM984 390h-632q23 -84 91 -129t159 -45q123 0 200 74q49 46 102 46q52 0 88 -36t36 -88q0 -50 -34 -84q-72 -73 -175.5 -112.5t-222.5 -39.5q-108 0 -204 37.5t-165.5 102.5t-110 156.5t-40.5 195.5
q0 207 148.5 349.5t359.5 142.5q203 0 346.5 -134.5t155.5 -333.5v-8q0 -43 -28.5 -68.5t-73.5 -25.5zM572 1130q-52 0 -90 38t-38 90t38 90t90 38t90 -38t38 -90t-38 -90t-90 -38z" />
    <glyph glyph-name="Eogonek" unicode="&#x118;" horiz-adv-x="1006" 
d="M936 134q0 -54 -36.5 -92.5t-89.5 -41.5q-51 -48 -80.5 -100.5t-29.5 -95.5q0 -40 24 -60t60 -20q18 0 46 4q2 0 4 0.5t4 0.5q28 0 49 -23t21 -52q0 -50 -52 -74q-42 -18 -110 -18q-107 0 -170.5 59.5t-63.5 144.5q0 131 130 234h-352q-60 0 -103 43t-43 103v1108
q0 60 43 103t103 43h494q56 0 95 -39t39 -95t-39 -95t-95 -39h-348v-242h302q54 0 93 -39t39 -93t-39 -92t-93 -38h-302v-360h366q56 0 95 -39t39 -95z" />
    <glyph glyph-name="eogonek" unicode="&#x119;" horiz-adv-x="1160" 
d="M984 390h-632q23 -84 91 -129t159 -45q123 0 200 74q49 46 102 46q52 0 88 -36t36 -88q0 -50 -34 -84q-115 -115 -286 -142q-96 -99 -96 -182q0 -40 24 -60t60 -20q18 0 46 4q2 0 4 0.5t4 0.5q28 0 49 -23t21 -52q0 -50 -52 -74q-42 -18 -110 -18q-107 0 -170.5 59.5
t-63.5 144.5q0 117 106 214q-197 21 -325.5 157t-128.5 331q0 207 148.5 349.5t359.5 142.5q203 0 346.5 -134.5t155.5 -333.5v-8q0 -43 -28.5 -68.5t-73.5 -25.5zM358 580h468q-21 68 -85 107t-151 39q-76 0 -141.5 -40.5t-90.5 -105.5z" />
    <glyph glyph-name="Ecaron" unicode="&#x11a;" horiz-adv-x="1006" 
d="M802 0h-512q-60 0 -103 43t-43 103v1108q0 60 43 103t103 43h494q56 0 95 -39t39 -95t-39 -95t-95 -39h-348v-242h302q54 0 93 -39t39 -93t-39 -92t-93 -38h-302v-360h366q56 0 95 -39t39 -95t-39 -95t-95 -39zM342 1870l172 -152l172 152q29 26 68 26q35 0 61.5 -26
t26.5 -62q0 -41 -54 -90l-236 -208q-18 -18 -38 -18t-38 18l-236 208q-54 49 -54 90q0 36 26.5 62t61.5 26q39 0 68 -26z" />
    <glyph glyph-name="ecaron" unicode="&#x11b;" horiz-adv-x="1160" 
d="M358 580h468q-21 68 -85 107t-151 39q-76 0 -141.5 -40.5t-90.5 -105.5zM984 390h-632q23 -84 91 -129t159 -45q123 0 200 74q49 46 102 46q52 0 88 -36t36 -88q0 -50 -34 -84q-72 -73 -175.5 -112.5t-222.5 -39.5q-108 0 -204 37.5t-165.5 102.5t-110 156.5t-40.5 195.5
q0 207 148.5 349.5t359.5 142.5q203 0 346.5 -134.5t155.5 -333.5v-8q0 -43 -28.5 -68.5t-73.5 -25.5zM396 1422l172 -152l172 152q29 26 68 26q35 0 61.5 -26t26.5 -62q0 -41 -54 -90l-236 -208q-18 -18 -38 -18t-38 18l-236 208q-54 49 -54 90q0 36 26.5 62t61.5 26
q39 0 68 -26z" />
    <glyph glyph-name="Gcircumflex" unicode="&#x11c;" horiz-adv-x="1582" 
d="M1504 644q0 -193 -87 -346t-241.5 -237.5t-349.5 -84.5q-147 0 -282 55t-235.5 149.5t-160.5 230.5t-60 289t60 288.5t161 230.5t237 150t284 55q159 0 306 -64.5t248 -173.5q44 -47 44 -102q0 -58 -40.5 -98t-97.5 -40q-64 0 -106 48q-65 75 -159 118.5t-195 43.5
q-187 0 -318.5 -131t-131.5 -325q0 -131 63 -237t164.5 -162.5t218.5 -56.5q150 0 250 76.5t130 211.5h-230q-46 0 -79 33t-33 79t33 79t79 33h416q46 0 79 -33t33 -79zM792 1690l-172 -152q-29 -26 -68 -26q-35 0 -61.5 26t-26.5 62q0 41 54 90l236 208q18 18 38 18t38 -18
l236 -208q54 -49 54 -90q0 -36 -26.5 -62t-61.5 -26q-39 0 -68 26z" />
    <glyph glyph-name="gcircumflex" unicode="&#x11d;" horiz-adv-x="1274" 
d="M162 -314q0 50 33.5 84t82.5 34q48 0 92 -44q97 -94 222 -94q131 0 208.5 82t77.5 256v118q-55 -69 -141 -107.5t-189 -38.5q-197 0 -334.5 142t-137.5 350t137.5 350t334.5 142q103 0 189 -38.5t141 -107.5v14q0 54 39 93t93 39t93 -39t39 -93v-800q0 -126 -27 -226
t-75.5 -168t-117.5 -113t-149 -65t-175 -20q-112 0 -216.5 40.5t-175.5 113.5q-44 44 -44 96zM872 468q0 111 -77.5 180.5t-188.5 69.5t-188.5 -69.5t-77.5 -180.5t77.5 -180.5t188.5 -69.5t188.5 69.5t77.5 180.5zM618 1242l-172 -152q-29 -26 -68 -26q-35 0 -61.5 26
t-26.5 62q0 41 54 90l236 208q18 18 38 18t38 -18l236 -208q54 -49 54 -90q0 -36 -26.5 -62t-61.5 -26q-39 0 -68 26z" />
    <glyph glyph-name="Gbreve" unicode="&#x11e;" horiz-adv-x="1582" 
d="M1504 644q0 -193 -87 -346t-241.5 -237.5t-349.5 -84.5q-147 0 -282 55t-235.5 149.5t-160.5 230.5t-60 289t60 288.5t161 230.5t237 150t284 55q159 0 306 -64.5t248 -173.5q44 -47 44 -102q0 -58 -40.5 -98t-97.5 -40q-64 0 -106 48q-65 75 -159 118.5t-195 43.5
q-187 0 -318.5 -131t-131.5 -325q0 -131 63 -237t164.5 -162.5t218.5 -56.5q150 0 250 76.5t130 211.5h-230q-46 0 -79 33t-33 79t33 79t79 33h416q46 0 79 -33t33 -79zM794 1544q-94 0 -169 52t-113 144q-10 23 -10 52q0 38 25.5 64t64.5 26q34 0 59.5 -19.5t36.5 -52.5
q12 -37 40 -59.5t66 -22.5t66 22.5t40 59.5q11 33 36.5 52.5t59.5 19.5q39 0 64.5 -26t25.5 -64q0 -29 -10 -52q-38 -92 -113 -144t-169 -52z" />
    <glyph glyph-name="gbreve" unicode="&#x11f;" horiz-adv-x="1274" 
d="M162 -314q0 50 33.5 84t82.5 34q48 0 92 -44q97 -94 222 -94q131 0 208.5 82t77.5 256v118q-55 -69 -141 -107.5t-189 -38.5q-197 0 -334.5 142t-137.5 350t137.5 350t334.5 142q103 0 189 -38.5t141 -107.5v14q0 54 39 93t93 39t93 -39t39 -93v-800q0 -126 -27 -226
t-75.5 -168t-117.5 -113t-149 -65t-175 -20q-112 0 -216.5 40.5t-175.5 113.5q-44 44 -44 96zM872 468q0 111 -77.5 180.5t-188.5 69.5t-188.5 -69.5t-77.5 -180.5t77.5 -180.5t188.5 -69.5t188.5 69.5t77.5 180.5zM616 1096q-94 0 -169 52t-113 144q-10 23 -10 52
q0 38 25.5 64t64.5 26q34 0 59.5 -19.5t36.5 -52.5q12 -37 40 -59.5t66 -22.5t66 22.5t40 59.5q11 33 36.5 52.5t59.5 19.5q39 0 64.5 -26t25.5 -64q0 -29 -10 -52q-38 -92 -113 -144t-169 -52z" />
    <glyph glyph-name="Gdotaccent" unicode="&#x120;" horiz-adv-x="1582" 
d="M1504 644q0 -193 -87 -346t-241.5 -237.5t-349.5 -84.5q-147 0 -282 55t-235.5 149.5t-160.5 230.5t-60 289t60 288.5t161 230.5t237 150t284 55q159 0 306 -64.5t248 -173.5q44 -47 44 -102q0 -58 -40.5 -98t-97.5 -40q-64 0 -106 48q-65 75 -159 118.5t-195 43.5
q-187 0 -318.5 -131t-131.5 -325q0 -131 63 -237t164.5 -162.5t218.5 -56.5q150 0 250 76.5t130 211.5h-230q-46 0 -79 33t-33 79t33 79t79 33h416q46 0 79 -33t33 -79zM794 1578q-52 0 -90 38t-38 90t38 90t90 38t90 -38t38 -90t-38 -90t-90 -38z" />
    <glyph glyph-name="gdotaccent" unicode="&#x121;" horiz-adv-x="1274" 
d="M162 -314q0 50 33.5 84t82.5 34q48 0 92 -44q97 -94 222 -94q131 0 208.5 82t77.5 256v118q-55 -69 -141 -107.5t-189 -38.5q-197 0 -334.5 142t-137.5 350t137.5 350t334.5 142q103 0 189 -38.5t141 -107.5v14q0 54 39 93t93 39t93 -39t39 -93v-800q0 -126 -27 -226
t-75.5 -168t-117.5 -113t-149 -65t-175 -20q-112 0 -216.5 40.5t-175.5 113.5q-44 44 -44 96zM872 468q0 111 -77.5 180.5t-188.5 69.5t-188.5 -69.5t-77.5 -180.5t77.5 -180.5t188.5 -69.5t188.5 69.5t77.5 180.5zM610 1130q-52 0 -90 38t-38 90t38 90t90 38t90 -38t38 -90
t-38 -90t-90 -38z" />
    <glyph glyph-name="Gcommaaccent" unicode="&#x122;" horiz-adv-x="1582" 
d="M1504 644q0 -193 -87 -346t-241.5 -237.5t-349.5 -84.5q-147 0 -282 55t-235.5 149.5t-160.5 230.5t-60 289t60 288.5t161 230.5t237 150t284 55q159 0 306 -64.5t248 -173.5q44 -47 44 -102q0 -58 -40.5 -98t-97.5 -40q-64 0 -106 48q-65 75 -159 118.5t-195 43.5
q-187 0 -318.5 -131t-131.5 -325q0 -131 63 -237t164.5 -162.5t218.5 -56.5q150 0 250 76.5t130 211.5h-230q-46 0 -79 33t-33 79t33 79t79 33h416q46 0 79 -33t33 -79zM666 -490q0 12 4 28l58 248q8 35 37 58.5t65 23.5q44 0 75 -31t31 -75q0 -18 -6 -36l-100 -244
q-10 -25 -32 -40.5t-48 -15.5q-33 0 -58.5 24.5t-25.5 59.5z" />
    <glyph glyph-name="gcommaaccent" unicode="&#x123;" horiz-adv-x="1274" 
d="M162 -314q0 50 33.5 84t82.5 34q48 0 92 -44q97 -94 222 -94q131 0 208.5 82t77.5 256v118q-55 -69 -141 -107.5t-189 -38.5q-197 0 -334.5 142t-137.5 350t137.5 350t334.5 142q103 0 189 -38.5t141 -107.5v14q0 54 39 93t93 39t93 -39t39 -93v-800q0 -126 -27 -226
t-75.5 -168t-117.5 -113t-149 -65t-175 -20q-112 0 -216.5 40.5t-175.5 113.5q-44 44 -44 96zM872 468q0 111 -77.5 180.5t-188.5 69.5t-188.5 -69.5t-77.5 -180.5t77.5 -180.5t188.5 -69.5t188.5 69.5t77.5 180.5zM772 1398q0 -12 -4 -28l-58 -248q-8 -35 -37 -58.5
t-65 -23.5q-44 0 -75 31t-31 75q0 18 6 36l100 244q10 25 32 40.5t48 15.5q33 0 58.5 -24.5t25.5 -59.5z" />
    <glyph glyph-name="Hcircumflex" unicode="&#x124;" horiz-adv-x="1334" 
d="M144 122v1156q0 60 43 103t103 43t103 -43t43 -103v-392h462v392q0 60 43 103t103 43t103 -43t43 -103v-1156q0 -60 -43 -103t-103 -43t-103 43t-43 103v496h-462v-496q0 -60 -43 -103t-103 -43t-103 43t-43 103zM666 1690l-172 -152q-29 -26 -68 -26q-35 0 -61.5 26
t-26.5 62q0 41 54 90l236 208q18 18 38 18t38 -18l236 -208q54 -49 54 -90q0 -36 -26.5 -62t-61.5 -26q-39 0 -68 26z" />
    <glyph glyph-name="hcircumflex" unicode="&#x125;" horiz-adv-x="1126" 
d="M402 1392v-564q103 132 274 132q139 0 232.5 -95.5t93.5 -250.5v-506q0 -54 -39 -93t-93 -39t-93 39t-39 93v444q0 80 -47 129t-121 49t-121 -49t-47 -129v-444q0 -54 -39 -93t-93 -39t-93 39t-39 93v1284q0 54 39 93t93 39t93 -39t39 -93zM272 1690l-172 -152
q-29 -26 -68 -26q-35 0 -61.5 26t-26.5 62q0 41 54 90l236 208q18 18 38 18t38 -18l236 -208q54 -49 54 -90q0 -36 -26.5 -62t-61.5 -26q-39 0 -68 26z" />
    <glyph glyph-name="Hbar" unicode="&#x126;" horiz-adv-x="1346" 
d="M1252 1060h-56v-938q0 -60 -43 -103t-103 -43t-103 43t-43 103v496h-462v-496q0 -60 -43 -103t-103 -43t-103 43t-43 103v938h-56q-36 0 -61 25t-25 61t25 62t61 26h56v44q0 60 43 103t103 43t103 -43t43 -103v-44h462v44q0 60 43 103t103 43t103 -43t43 -103v-44h56
q36 0 61 -26t25 -62t-25 -61t-61 -25zM442 886h462v174h-462v-174z" />
    <glyph glyph-name="hbar" unicode="&#x127;" horiz-adv-x="1132" 
d="M640 1164h-232v-336q103 132 274 132q139 0 232.5 -95.5t93.5 -250.5v-506q0 -54 -39 -93t-93 -39t-93 39t-39 93v444q0 80 -47 129t-121 49t-121 -49t-47 -129v-444q0 -54 -39 -93t-93 -39t-93 39t-39 93v1056h-66q-36 0 -61 25t-25 61t25 62t61 26h66v54q0 54 39 93
t93 39t93 -39t39 -93v-54h232q36 0 61 -26t25 -62t-25 -61t-61 -25z" />
    <glyph glyph-name="Itilde" unicode="&#x128;" horiz-adv-x="616" 
d="M162 122v1156q0 60 43 103t103 43t103 -43t43 -103v-1156q0 -60 -43 -103t-103 -43t-103 43t-43 103zM438 1562q-81 0 -162 68q-50 40 -82 40q-34 0 -52 -44q-9 -25 -31 -39.5t-51 -14.5q-36 0 -61 24.5t-25 57.5q0 21 6 36q25 79 77 119.5t121 40.5q81 0 162 -68
q50 -40 82 -40q34 0 52 44q9 25 31 39.5t51 14.5q36 0 61 -24.5t25 -57.5q0 -21 -6 -36q-25 -79 -77 -119.5t-121 -40.5z" />
    <glyph glyph-name="itilde" unicode="&#x129;" horiz-adv-x="548" 
d="M142 108v720q0 54 39 93t93 39t93 -39t39 -93v-720q0 -54 -39 -93t-93 -39t-93 39t-39 93zM404 1114q-81 0 -162 68q-50 40 -82 40q-34 0 -52 -44q-9 -25 -31 -39.5t-51 -14.5q-36 0 -61 24.5t-25 57.5q0 21 6 36q25 79 77 119.5t121 40.5q81 0 162 -68q50 -40 82 -40
q34 0 52 44q9 25 31 39.5t51 14.5q36 0 61 -24.5t25 -57.5q0 -21 -6 -36q-25 -79 -77 -119.5t-121 -40.5z" />
    <glyph glyph-name="Imacron" unicode="&#x12a;" horiz-adv-x="616" 
d="M162 122v1156q0 60 43 103t103 43t103 -43t43 -103v-1156q0 -60 -43 -103t-103 -43t-103 43t-43 103zM528 1614h-440q-39 0 -65.5 27.5t-26.5 66.5t26.5 65.5t65.5 26.5h440q39 0 65.5 -26.5t26.5 -65.5t-26.5 -66.5t-65.5 -27.5z" />
    <glyph glyph-name="imacron" unicode="&#x12b;" horiz-adv-x="548" 
d="M142 108v720q0 54 39 93t93 39t93 -39t39 -93v-720q0 -54 -39 -93t-93 -39t-93 39t-39 93zM494 1166h-440q-39 0 -65.5 27.5t-26.5 66.5t26.5 65.5t65.5 26.5h440q39 0 65.5 -26.5t26.5 -65.5t-26.5 -66.5t-65.5 -27.5z" />
    <glyph glyph-name="Ibreve" unicode="&#x12c;" horiz-adv-x="616" 
d="M162 122v1156q0 60 43 103t103 43t103 -43t43 -103v-1156q0 -60 -43 -103t-103 -43t-103 43t-43 103zM308 1544q-94 0 -169 52t-113 144q-10 23 -10 52q0 38 25.5 64t64.5 26q34 0 59.5 -19.5t36.5 -52.5q12 -37 40 -59.5t66 -22.5t66 22.5t40 59.5q11 33 36.5 52.5
t59.5 19.5q39 0 64.5 -26t25.5 -64q0 -29 -10 -52q-38 -92 -113 -144t-169 -52z" />
    <glyph glyph-name="ibreve" unicode="&#x12d;" horiz-adv-x="548" 
d="M142 108v720q0 54 39 93t93 39t93 -39t39 -93v-720q0 -54 -39 -93t-93 -39t-93 39t-39 93zM274 1096q-94 0 -169 52t-113 144q-10 23 -10 52q0 38 25.5 64t64.5 26q34 0 59.5 -19.5t36.5 -52.5q12 -37 40 -59.5t66 -22.5t66 22.5t40 59.5q11 33 36.5 52.5t59.5 19.5
q39 0 64.5 -26t25.5 -64q0 -29 -10 -52q-38 -92 -113 -144t-169 -52z" />
    <glyph glyph-name="Iogonek" unicode="&#x12e;" horiz-adv-x="616" 
d="M162 122v1156q0 60 43 103t103 43t103 -43t43 -103v-1156q0 -38 -19 -71t-51 -53q-108 -102 -108 -194q0 -40 24 -60t60 -20q18 0 46 4q2 0 4 0.5t4 0.5q28 0 49 -23t21 -52q0 -50 -52 -74q-42 -18 -110 -18q-107 0 -170.5 59.5t-63.5 144.5q0 134 134 236
q-60 47 -60 120z" />
    <glyph glyph-name="iogonek" unicode="&#x12f;" horiz-adv-x="548" 
d="M142 108v720q0 54 39 93t93 39t93 -39t39 -93v-720q0 -35 -17.5 -65t-46.5 -47q-106 -103 -106 -192q0 -40 24 -60t60 -20q18 0 46 4q2 0 4 0.5t4 0.5q28 0 49 -23t21 -52q0 -50 -52 -74q-42 -18 -110 -18q-107 0 -170.5 59.5t-63.5 144.5q0 137 140 242q-46 39 -46 100z
M274 1134q-66 0 -114 47t-48 113t48 113t114 47t114 -47t48 -113t-48 -113t-114 -47z" />
    <glyph glyph-name="Idotaccent" unicode="&#x130;" horiz-adv-x="616" 
d="M162 122v1156q0 60 43 103t103 43t103 -43t43 -103v-1156q0 -60 -43 -103t-103 -43t-103 43t-43 103zM308 1578q-52 0 -90 38t-38 90t38 90t90 38t90 -38t38 -90t-38 -90t-90 -38z" />
    <glyph glyph-name="dotlessi" unicode="&#x131;" horiz-adv-x="548" 
d="M142 108v720q0 54 39 93t93 39t93 -39t39 -93v-720q0 -54 -39 -93t-93 -39t-93 39t-39 93z" />
    <glyph glyph-name="IJ" unicode="&#x132;" horiz-adv-x="1548" 
d="M162 122v1156q0 60 43 103t103 43t103 -43t43 -103v-1156q0 -60 -43 -103t-103 -43t-103 43t-43 103zM580 228q0 56 39 95t95 39q60 0 104 -50q59 -68 136 -68q75 0 114.5 56.5t39.5 161.5v816q0 60 43 103t103 43t103 -43t43 -103v-832q0 -226 -117 -348t-315 -122
q-101 0 -194 41t-158 117q-36 43 -36 94z" />
    <glyph glyph-name="ij" unicode="&#x133;" horiz-adv-x="1102" 
d="M274 1134q-66 0 -114 47t-48 113t48 113t114 47t114 -47t48 -113t-48 -113t-114 -47zM142 108v720q0 54 39 93t93 39t93 -39t39 -93v-720q0 -54 -39 -93t-93 -39t-93 39t-39 93zM272 -368q0 48 34 82t82 34q43 0 86 -36q53 -46 104 -46q61 0 93.5 48t32.5 140v974
q0 54 39 93t93 39t93 -39t39 -93v-978q0 -195 -99.5 -304.5t-280.5 -109.5q-73 0 -145 26.5t-124 72.5q-47 44 -47 97zM836 1134q-66 0 -114 47t-48 113t48 113t114 47t114 -47t48 -113t-48 -113t-114 -47z" />
    <glyph glyph-name="Jcircumflex" unicode="&#x134;" horiz-adv-x="978" 
d="M2 228q0 56 39 95t95 39q60 0 104 -50q59 -68 136 -68q75 0 114.5 56.5t39.5 161.5v816q0 60 43 103t103 43t103 -43t43 -103v-832q0 -226 -117 -348t-315 -122q-101 0 -194 41t-158 117q-36 43 -36 94zM676 1690l-172 -152q-29 -26 -68 -26q-35 0 -61.5 26t-26.5 62
q0 41 54 90l236 208q18 18 38 18t38 -18l236 -208q54 -49 54 -90q0 -36 -26.5 -62t-61.5 -26q-39 0 -68 26z" />
    <glyph glyph-name="jcircumflex" unicode="&#x135;" horiz-adv-x="576" 
d="M-264 -368q0 48 34 82t82 34q43 0 86 -36q53 -46 104 -46q61 0 93.5 48t32.5 140v974q0 54 39 93t93 39t93 -39t39 -93v-978q0 -195 -99.5 -304.5t-280.5 -109.5q-73 0 -145 26.5t-124 72.5q-47 44 -47 97zM304 1242l-172 -152q-29 -26 -68 -26q-35 0 -61.5 26t-26.5 62
q0 41 54 90l236 208q18 18 38 18t38 -18l236 -208q54 -49 54 -90q0 -36 -26.5 -62t-61.5 -26q-39 0 -68 26z" />
    <glyph glyph-name="Kcommaaccent" unicode="&#x136;" horiz-adv-x="1254" 
d="M436 712l460 646q46 66 116 66q54 0 94 -40t40 -94q0 -45 -28 -82l-364 -492l414 -518q32 -38 32 -86q0 -55 -41 -95.5t-97 -40.5q-68 0 -118 64zM144 122v1156q0 60 43 103t103 43t103 -43t43 -103v-1156q0 -60 -43 -103t-103 -43t-103 43t-43 103zM514 -490q0 12 4 28
l58 248q8 35 37 58.5t65 23.5q44 0 75 -31t31 -75q0 -18 -6 -36l-100 -244q-10 -25 -32 -40.5t-48 -15.5q-33 0 -58.5 24.5t-25.5 59.5z" />
    <glyph glyph-name="kcommaaccent" unicode="&#x137;" horiz-adv-x="1092" 
d="M130 108v1284q0 54 39 93t93 39t93 -39t39 -93v-868l386 396q40 40 88 40q51 0 85.5 -34.5t34.5 -85.5q0 -48 -36 -84l-268 -262l308 -312q36 -36 36 -88q0 -51 -35.5 -84.5t-88.5 -33.5q-54 0 -92 42l-418 452v-362q0 -54 -39 -93t-93 -39t-93 39t-39 93zM406 -490
q0 12 4 28l58 248q8 35 37 58.5t65 23.5q44 0 75 -31t31 -75q0 -18 -6 -36l-100 -244q-10 -25 -32 -40.5t-48 -15.5q-33 0 -58.5 24.5t-25.5 59.5z" />
    <glyph glyph-name="kgreenlandic" unicode="&#x138;" horiz-adv-x="1092" 
d="M130 108v720q0 54 39 93t93 39t93 -39t39 -93v-304l386 396q40 40 88 40q51 0 85.5 -34.5t34.5 -85.5q0 -48 -36 -84l-268 -262l308 -312q36 -36 36 -88q0 -51 -35.5 -84.5t-88.5 -33.5q-54 0 -92 42l-418 452v-362q0 -54 -39 -93t-93 -39t-93 39t-39 93z" />
    <glyph glyph-name="Lacute" unicode="&#x139;" horiz-adv-x="972" 
d="M820 0h-542q-56 0 -95 39t-39 95v1144q0 60 43 103t103 43t103 -43t43 -103v-1010h384q56 0 95 -39t39 -95t-39 -95t-95 -39zM582 1816q0 -44 -34 -72l-248 -214q-27 -24 -60 -24q-38 0 -66 28t-28 64q0 38 40 74l244 214q25 22 60 22q38 0 65 -27t27 -65z" />
    <glyph glyph-name="lacute" unicode="&#x13a;" horiz-adv-x="552" 
d="M140 104v1234q0 52 39 89.5t93 37.5t93 -37.5t39 -89.5v-1234q0 -52 -39 -89.5t-93 -37.5t-93 37.5t-39 89.5zM574 1816q0 -44 -34 -72l-248 -214q-27 -24 -60 -24q-38 0 -66 28t-28 64q0 38 40 74l244 214q25 22 60 22q38 0 65 -27t27 -65z" />
    <glyph glyph-name="Lcommaaccent" unicode="&#x13b;" horiz-adv-x="972" 
d="M820 0h-542q-56 0 -95 39t-39 95v1144q0 60 43 103t103 43t103 -43t43 -103v-1010h384q56 0 95 -39t39 -95t-39 -95t-95 -39zM376 -490q0 12 4 28l58 248q8 35 37 58.5t65 23.5q44 0 75 -31t31 -75q0 -18 -6 -36l-100 -244q-10 -25 -32 -40.5t-48 -15.5q-33 0 -58.5 24.5
t-25.5 59.5z" />
    <glyph glyph-name="lcommaaccent" unicode="&#x13c;" horiz-adv-x="548" 
d="M144 108v1284q0 54 39 93t93 39t93 -39t39 -93v-1284q0 -54 -39 -93t-93 -39t-93 39t-39 93zM96 -490q0 12 4 28l58 248q8 35 37 58.5t65 23.5q44 0 75 -31t31 -75q0 -18 -6 -36l-100 -244q-10 -25 -32 -40.5t-48 -15.5q-33 0 -58.5 24.5t-25.5 59.5z" />
    <glyph glyph-name="Lcaron" unicode="&#x13d;" horiz-adv-x="988" 
d="M820 0h-542q-56 0 -95 39t-39 95v1144q0 60 43 103t103 43t103 -43t43 -103v-1010h384q56 0 95 -39t39 -95t-39 -95t-95 -39zM628 1070l78 332q9 40 40 65t74 25q50 0 85 -34.5t35 -83.5q0 -23 -10 -46l-128 -308q-10 -25 -33.5 -40.5t-52.5 -15.5q-35 0 -63 24t-28 61
q0 11 3 21z" />
    <glyph glyph-name="lcaron" unicode="&#x13e;" horiz-adv-x="862" 
d="M140 108v1284q0 54 39 93t93 39t93 -39t39 -93v-1284q0 -54 -39 -93t-93 -39t-93 39t-39 93zM502 1070l78 332q9 40 40 65t74 25q50 0 85 -34.5t35 -83.5q0 -23 -10 -46l-128 -308q-10 -25 -33.5 -40.5t-52.5 -15.5q-35 0 -63 24t-28 61q0 11 3 21z" />
    <glyph glyph-name="Ldot" unicode="&#x13f;" horiz-adv-x="972" 
d="M820 0h-542q-56 0 -95 39t-39 95v1144q0 60 43 103t103 43t103 -43t43 -103v-1010h384q56 0 95 -39t39 -95t-39 -95t-95 -39zM732 630q-52 0 -90 38t-38 90t38 90t90 38t90 -38t38 -90t-38 -90t-90 -38z" />
    <glyph glyph-name="ldot" unicode="&#x140;" horiz-adv-x="894" 
d="M140 108v1284q0 54 39 93t93 39t93 -39t39 -93v-1284q0 -54 -39 -93t-93 -39t-93 39t-39 93zM728 630q-52 0 -90 38t-38 90t38 90t90 38t90 -38t38 -90t-38 -90t-90 -38z" />
    <glyph glyph-name="Lslash" unicode="&#x141;" horiz-adv-x="980" 
d="M24 570l128 82v626q0 60 43 103t103 43t103 -43t43 -103v-440l332 214q22 14 42 14q30 0 51 -20.5t21 -49.5q0 -36 -42 -64l-404 -260v-404h384q56 0 95 -39t39 -95t-39 -95t-95 -39h-542q-56 0 -95 39t-39 95v352l-44 -28q-29 -18 -46 -18q-30 0 -51 20.5t-21 49.5
q0 38 34 60z" />
    <glyph glyph-name="lslash" unicode="&#x142;" horiz-adv-x="784" 
d="M260 108v498l-170 -108q-29 -18 -46 -18q-30 0 -51 20.5t-21 49.5q0 38 34 60l254 164v618q0 54 39 93t93 39t93 -39t39 -93v-448l174 112q22 14 42 14q30 0 51 -20.5t21 -49.5q0 -36 -42 -64l-246 -160v-668q0 -54 -39 -93t-93 -39t-93 39t-39 93z" />
    <glyph glyph-name="Nacute" unicode="&#x143;" horiz-adv-x="1476" 
d="M1170 12l-734 834v-724q0 -60 -43 -103t-103 -43t-103 43t-43 103v1210q0 39 25.5 65.5t62.5 26.5q41 0 74 -36l734 -836v726q0 60 43 103t103 43t103 -43t43 -103v-1210q0 -39 -25.5 -65.5t-62.5 -26.5q-41 0 -74 36zM960 1816q0 -44 -34 -72l-248 -214q-27 -24 -60 -24
q-38 0 -66 28t-28 64q0 38 40 74l244 214q25 22 60 22q38 0 65 -27t27 -65z" />
    <glyph glyph-name="nacute" unicode="&#x144;" horiz-adv-x="1120" 
d="M396 828q103 132 274 132q139 0 232.5 -95.5t93.5 -250.5v-506q0 -54 -39 -93t-93 -39t-93 39t-39 93v444q0 80 -47 129t-121 49t-121 -49t-47 -129v-444q0 -54 -39 -93t-93 -39t-93 39t-39 93v720q0 54 39 93t93 39t93 -39t39 -93zM808 1368q0 -44 -34 -72l-248 -214
q-27 -24 -60 -24q-38 0 -66 28t-28 64q0 38 40 74l244 214q25 22 60 22q38 0 65 -27t27 -65z" />
    <glyph glyph-name="Ncommaaccent" unicode="&#x145;" horiz-adv-x="1476" 
d="M1170 12l-734 834v-724q0 -60 -43 -103t-103 -43t-103 43t-43 103v1210q0 39 25.5 65.5t62.5 26.5q41 0 74 -36l734 -836v726q0 60 43 103t103 43t103 -43t43 -103v-1210q0 -39 -25.5 -65.5t-62.5 -26.5q-41 0 -74 36zM632 -490q0 12 4 28l58 248q8 35 37 58.5t65 23.5
q44 0 75 -31t31 -75q0 -18 -6 -36l-100 -244q-10 -25 -32 -40.5t-48 -15.5q-33 0 -58.5 24.5t-25.5 59.5z" />
    <glyph glyph-name="ncommaaccent" unicode="&#x146;" horiz-adv-x="1120" 
d="M396 828q103 132 274 132q139 0 232.5 -95.5t93.5 -250.5v-506q0 -54 -39 -93t-93 -39t-93 39t-39 93v444q0 80 -47 129t-121 49t-121 -49t-47 -129v-444q0 -54 -39 -93t-93 -39t-93 39t-39 93v720q0 54 39 93t93 39t93 -39t39 -93zM410 -490q0 12 4 28l58 248
q8 35 37 58.5t65 23.5q44 0 75 -31t31 -75q0 -18 -6 -36l-100 -244q-10 -25 -32 -40.5t-48 -15.5q-33 0 -58.5 24.5t-25.5 59.5z" />
    <glyph glyph-name="Ncaron" unicode="&#x147;" horiz-adv-x="1476" 
d="M1170 12l-734 834v-724q0 -60 -43 -103t-103 -43t-103 43t-43 103v1210q0 39 25.5 65.5t62.5 26.5q41 0 74 -36l734 -836v726q0 60 43 103t103 43t103 -43t43 -103v-1210q0 -39 -25.5 -65.5t-62.5 -26.5q-41 0 -74 36zM566 1870l172 -152l172 152q29 26 68 26
q35 0 61.5 -26t26.5 -62q0 -41 -54 -90l-236 -208q-18 -18 -38 -18t-38 18l-236 208q-54 49 -54 90q0 36 26.5 62t61.5 26q39 0 68 -26z" />
    <glyph glyph-name="ncaron" unicode="&#x148;" horiz-adv-x="1120" 
d="M396 828q103 132 274 132q139 0 232.5 -95.5t93.5 -250.5v-506q0 -54 -39 -93t-93 -39t-93 39t-39 93v444q0 80 -47 129t-121 49t-121 -49t-47 -129v-444q0 -54 -39 -93t-93 -39t-93 39t-39 93v720q0 54 39 93t93 39t93 -39t39 -93zM374 1422l172 -152l172 152
q29 26 68 26q35 0 61.5 -26t26.5 -62q0 -41 -54 -90l-236 -208q-18 -18 -38 -18t-38 18l-236 208q-54 49 -54 90q0 36 26.5 62t61.5 26q39 0 68 -26z" />
    <glyph glyph-name="napostrophe" unicode="&#x149;" horiz-adv-x="1320" 
d="M596 828q103 132 274 132q139 0 232.5 -95.5t93.5 -250.5v-506q0 -54 -39 -93t-93 -39t-93 39t-39 93v444q0 80 -47 129t-121 49t-121 -49t-47 -129v-444q0 -54 -39 -93t-93 -39t-93 39t-39 93v720q0 54 39 93t93 39t93 -39t39 -93zM50 1070l78 332q9 40 40 65t74 25
q50 0 85 -34.5t35 -83.5q0 -23 -10 -46l-128 -308q-10 -25 -33.5 -40.5t-52.5 -15.5q-35 0 -63 24t-28 61q0 11 3 21z" />
    <glyph glyph-name="Eng" unicode="&#x14a;" horiz-adv-x="1474" 
d="M678 -384q0 48 33.5 82t82.5 34q26 0 66 -24q36 -24 76 -24q54 0 79 38.5t25 121.5v156l-604 798v-678q0 -60 -43 -102t-103 -42t-102 42t-42 102v1216q0 38 23 63t57 25q44 0 82 -50l732 -966v870q0 60 43 103t103 43t102 -43t42 -103v-1440q0 -192 -90.5 -297
t-263.5 -105q-64 0 -129 17.5t-117 60.5t-52 102z" />
    <glyph glyph-name="eng" unicode="&#x14b;" horiz-adv-x="1122" 
d="M734 -178l-2 730q0 80 -47 129t-121 49t-121 -49t-47 -129v-444q0 -54 -39 -93t-93 -39t-93 39t-39 93v720q0 54 39 93t93 39t93 -39t39 -93q103 132 274 132q139 0 232.5 -95.5t93.5 -250.5v-774q0 -194 -85 -299t-253 -105q-140 0 -240 88q-38 35 -38 84
q0 45 31.5 76.5t76.5 31.5q41 0 70 -26q34 -28 76 -28q100 0 100 160z" />
    <glyph glyph-name="Omacron" unicode="&#x14c;" horiz-adv-x="1664" 
d="M832 -24q-149 0 -285.5 55t-237.5 150t-161 230.5t-60 288.5t60 288.5t161 230.5t237.5 150t285.5 55t285.5 -55t237.5 -150t161 -230.5t60 -288.5t-60 -288.5t-161 -230.5t-237.5 -150t-285.5 -55zM832 244q189 0 320.5 130.5t131.5 325.5t-131.5 325.5t-320.5 130.5
t-320.5 -130.5t-131.5 -325.5t131.5 -325.5t320.5 -130.5zM1052 1614h-440q-39 0 -65.5 27.5t-26.5 66.5t26.5 65.5t65.5 26.5h440q39 0 65.5 -26.5t26.5 -65.5t-26.5 -66.5t-65.5 -27.5z" />
    <glyph glyph-name="omacron" unicode="&#x14d;" horiz-adv-x="1188" 
d="M340 468q0 -107 74.5 -178.5t179.5 -71.5t179.5 71.5t74.5 178.5t-74.5 178.5t-179.5 71.5t-179.5 -71.5t-74.5 -178.5zM76 468q0 207 149.5 349.5t368.5 142.5t368.5 -142.5t149.5 -349.5t-149.5 -349.5t-368.5 -142.5t-368.5 142.5t-149.5 349.5zM814 1166h-440
q-39 0 -65.5 27.5t-26.5 66.5t26.5 65.5t65.5 26.5h440q39 0 65.5 -26.5t26.5 -65.5t-26.5 -66.5t-65.5 -27.5z" />
    <glyph glyph-name="Obreve" unicode="&#x14e;" horiz-adv-x="1664" 
d="M832 -24q-149 0 -285.5 55t-237.5 150t-161 230.5t-60 288.5t60 288.5t161 230.5t237.5 150t285.5 55t285.5 -55t237.5 -150t161 -230.5t60 -288.5t-60 -288.5t-161 -230.5t-237.5 -150t-285.5 -55zM832 244q189 0 320.5 130.5t131.5 325.5t-131.5 325.5t-320.5 130.5
t-320.5 -130.5t-131.5 -325.5t131.5 -325.5t320.5 -130.5zM832 1544q-94 0 -169 52t-113 144q-10 23 -10 52q0 38 25.5 64t64.5 26q34 0 59.5 -19.5t36.5 -52.5q12 -37 40 -59.5t66 -22.5t66 22.5t40 59.5q11 33 36.5 52.5t59.5 19.5q39 0 64.5 -26t25.5 -64q0 -29 -10 -52
q-38 -92 -113 -144t-169 -52z" />
    <glyph glyph-name="obreve" unicode="&#x14f;" horiz-adv-x="1188" 
d="M340 468q0 -107 74.5 -178.5t179.5 -71.5t179.5 71.5t74.5 178.5t-74.5 178.5t-179.5 71.5t-179.5 -71.5t-74.5 -178.5zM76 468q0 207 149.5 349.5t368.5 142.5t368.5 -142.5t149.5 -349.5t-149.5 -349.5t-368.5 -142.5t-368.5 142.5t-149.5 349.5zM592 1096
q-94 0 -169 52t-113 144q-10 23 -10 52q0 38 25.5 64t64.5 26q34 0 59.5 -19.5t36.5 -52.5q12 -37 40 -59.5t66 -22.5t66 22.5t40 59.5q11 33 36.5 52.5t59.5 19.5q39 0 64.5 -26t25.5 -64q0 -29 -10 -52q-38 -92 -113 -144t-169 -52z" />
    <glyph glyph-name="Ohungarumlaut" unicode="&#x150;" horiz-adv-x="1664" 
d="M832 -24q-149 0 -285.5 55t-237.5 150t-161 230.5t-60 288.5t60 288.5t161 230.5t237.5 150t285.5 55t285.5 -55t237.5 -150t161 -230.5t60 -288.5t-60 -288.5t-161 -230.5t-237.5 -150t-285.5 -55zM832 244q189 0 320.5 130.5t131.5 325.5t-131.5 325.5t-320.5 130.5
t-320.5 -130.5t-131.5 -325.5t131.5 -325.5t320.5 -130.5zM892 1816q0 -44 -34 -72l-248 -214q-27 -24 -60 -24q-38 0 -66 28t-28 64q0 38 40 74l244 214q25 22 60 22q38 0 65 -27t27 -65zM1288 1816q0 -44 -34 -72l-248 -214q-27 -24 -60 -24q-38 0 -66 28t-28 64
q0 38 40 74l244 214q25 22 60 22q38 0 65 -27t27 -65z" />
    <glyph glyph-name="ohungarumlaut" unicode="&#x151;" horiz-adv-x="1188" 
d="M340 468q0 -107 74.5 -178.5t179.5 -71.5t179.5 71.5t74.5 178.5t-74.5 178.5t-179.5 71.5t-179.5 -71.5t-74.5 -178.5zM76 468q0 207 149.5 349.5t368.5 142.5t368.5 -142.5t149.5 -349.5t-149.5 -349.5t-368.5 -142.5t-368.5 142.5t-149.5 349.5zM660 1368
q0 -44 -34 -72l-248 -214q-27 -24 -60 -24q-38 0 -66 28t-28 64q0 38 40 74l244 214q25 22 60 22q38 0 65 -27t27 -65zM1056 1368q0 -44 -34 -72l-248 -214q-27 -24 -60 -24q-38 0 -66 28t-28 64q0 38 40 74l244 214q25 22 60 22q38 0 65 -27t27 -65z" />
    <glyph glyph-name="OE" unicode="&#x152;" horiz-adv-x="1690" 
d="M380 700q0 -197 129 -317.5t321 -122.5v880q-192 -2 -321 -122.5t-129 -317.5zM1486 0h-656q-151 0 -286.5 51t-236 141t-160 222t-59.5 286t59.5 286t160 222t236 141t286.5 51h638q56 0 95 -39t39 -95q0 -55 -39 -93.5t-95 -38.5h-348v-244h302q54 0 93 -39t39 -93
t-39 -92t-93 -38h-302v-362h366q56 0 95 -38.5t39 -93.5q0 -56 -39 -95t-95 -39z" />
    <glyph glyph-name="oe" unicode="&#x153;" horiz-adv-x="1916" 
d="M1350 -24q-224 0 -372 170q-72 -80 -172.5 -125t-213.5 -45q-219 0 -368.5 142.5t-149.5 349.5t149.5 349.5t368.5 142.5q113 0 213 -45.5t173 -124.5q65 79 158.5 124.5t201.5 45.5q203 0 346.5 -134.5t155.5 -333.5v-8q0 -43 -28.5 -68.5t-73.5 -25.5h-632
q23 -84 91.5 -129t158.5 -45q123 0 200 74q49 46 102 46q52 0 88 -36t36 -88q0 -50 -34 -84q-72 -73 -175.5 -112.5t-222.5 -39.5zM1112 580h468q-21 68 -85 107t-151 39q-76 0 -141.5 -40.5t-90.5 -105.5zM338 468q0 -107 74.5 -178.5t179.5 -71.5t179.5 71.5t74.5 178.5
t-74.5 178.5t-179.5 71.5t-179.5 -71.5t-74.5 -178.5z" />
    <glyph glyph-name="Racute" unicode="&#x154;" horiz-adv-x="1172" 
d="M480 726q0 18 12 31t30 13h8q88 0 145 50.5t57 135.5q0 89 -59.5 141.5t-152.5 52.5h-86v-1028q0 -60 -42 -103t-102 -43t-103 43t-43 103v1132q0 60 43 103t103 43h234q218 0 358 -123t140 -317q0 -215 -210 -338l284 -446q18 -30 18 -68q0 -55 -39 -93.5t-95 -38.5
q-79 0 -122 76l-368 644q-10 20 -10 30zM766 1816q0 -44 -34 -72l-248 -214q-27 -24 -60 -24q-38 0 -66 28t-28 64q0 38 40 74l244 214q25 22 60 22q38 0 65 -27t27 -65z" />
    <glyph glyph-name="racute" unicode="&#x155;" horiz-adv-x="818" 
d="M394 828q45 62 109 97t139 35q22 0 36 -2q53 -8 86.5 -41.5t33.5 -82.5q0 -52 -35 -89t-87 -37q-8 0 -28 4q-30 6 -60 6q-93 0 -143.5 -71t-50.5 -187v-352q0 -54 -39 -93t-93 -39t-93 39t-39 93v720q0 54 39 93t93 39t93 -39t39 -93zM662 1368q0 -44 -34 -72l-248 -214
q-27 -24 -60 -24q-38 0 -66 28t-28 64q0 38 40 74l244 214q25 22 60 22q38 0 65 -27t27 -65z" />
    <glyph glyph-name="Rcommaaccent" unicode="&#x156;" horiz-adv-x="1172" 
d="M480 726q0 18 12 31t30 13h8q88 0 145 50.5t57 135.5q0 89 -59.5 141.5t-152.5 52.5h-86v-1028q0 -60 -42 -103t-102 -43t-103 43t-43 103v1132q0 60 43 103t103 43h234q218 0 358 -123t140 -317q0 -215 -210 -338l284 -446q18 -30 18 -68q0 -55 -39 -93.5t-95 -38.5
q-79 0 -122 76l-368 644q-10 20 -10 30zM466 -490q0 12 4 28l58 248q8 35 37 58.5t65 23.5q44 0 75 -31t31 -75q0 -18 -6 -36l-100 -244q-10 -25 -32 -40.5t-48 -15.5q-33 0 -58.5 24.5t-25.5 59.5z" />
    <glyph glyph-name="rcommaaccent" unicode="&#x157;" horiz-adv-x="822" 
d="M398 828q45 62 109 97t139 35q22 0 36 -2q53 -8 86.5 -41.5t33.5 -82.5q0 -52 -35 -89t-87 -37q-8 0 -28 4q-30 6 -60 6q-93 0 -143.5 -71t-50.5 -187v-352q0 -54 -39 -93t-93 -39t-93 39t-39 93v720q0 54 39 93t93 39t93 -39t39 -93zM96 -490q0 12 4 28l58 248
q8 35 37 58.5t65 23.5q44 0 75 -31t31 -75q0 -18 -6 -36l-100 -244q-10 -25 -32 -40.5t-48 -15.5q-33 0 -58.5 24.5t-25.5 59.5z" />
    <glyph glyph-name="Rcaron" unicode="&#x158;" horiz-adv-x="1172" 
d="M480 726q0 18 12 31t30 13h8q88 0 145 50.5t57 135.5q0 89 -59.5 141.5t-152.5 52.5h-86v-1028q0 -60 -42 -103t-102 -43t-103 43t-43 103v1132q0 60 43 103t103 43h234q218 0 358 -123t140 -317q0 -215 -210 -338l284 -446q18 -30 18 -68q0 -55 -39 -93.5t-95 -38.5
q-79 0 -122 76l-368 644q-10 20 -10 30zM342 1870l172 -152l172 152q29 26 68 26q35 0 61.5 -26t26.5 -62q0 -41 -54 -90l-236 -208q-18 -18 -38 -18t-38 18l-236 208q-54 49 -54 90q0 36 26.5 62t61.5 26q39 0 68 -26z" />
    <glyph glyph-name="rcaron" unicode="&#x159;" horiz-adv-x="820" 
d="M396 828q45 62 109 97t139 35q22 0 36 -2q53 -8 86.5 -41.5t33.5 -82.5q0 -52 -35 -89t-87 -37q-8 0 -28 4q-30 6 -60 6q-93 0 -143.5 -71t-50.5 -187v-352q0 -54 -39 -93t-93 -39t-93 39t-39 93v720q0 54 39 93t93 39t93 -39t39 -93zM262 1422l172 -152l172 152
q29 26 68 26q35 0 61.5 -26t26.5 -62q0 -41 -54 -90l-236 -208q-18 -18 -38 -18t-38 18l-236 208q-54 49 -54 90q0 36 26.5 62t61.5 26q39 0 68 -26z" />
    <glyph glyph-name="Sacute" unicode="&#x15a;" horiz-adv-x="1104" 
d="M68 270q0 54 37 92t91 38t92 -38q115 -118 252 -118q82 0 135 48.5t53 117.5q0 77 -48.5 129t-175.5 104q-180 74 -264 174t-84 249q0 151 110.5 254.5t287.5 103.5q200 0 338 -122q40 -34 40 -96q0 -51 -36.5 -86.5t-87.5 -35.5q-41 0 -72 22q-75 50 -154 50
q-61 0 -97.5 -25.5t-36.5 -74.5q0 -56 45 -95.5t169 -90.5q183 -75 270.5 -189t87.5 -279q0 -187 -124.5 -306.5t-345.5 -119.5q-128 0 -244.5 52.5t-196.5 142.5q-41 45 -41 99zM774 1816q0 -44 -34 -72l-248 -214q-27 -24 -60 -24q-38 0 -66 28t-28 64q0 38 40 74l244 214
q25 22 60 22q38 0 65 -27t27 -65z" />
    <glyph glyph-name="sacute" unicode="&#x15b;" horiz-adv-x="814" 
d="M58 184q0 44 30 75t72 31t82 -40q60 -60 128 -60q50 0 79 24.5t29 65.5q0 45 -28.5 74.5t-101.5 59.5q-236 99 -236 284q0 114 84 188t216 74q137 0 235 -85q41 -34 41 -79q0 -39 -29.5 -67.5t-70.5 -28.5q-32 0 -56 18q-40 30 -82 30q-35 0 -54.5 -14.5t-19.5 -39.5
q0 -31 28 -53.5t104 -55.5q236 -101 236 -301q0 -135 -89 -221.5t-251 -86.5q-90 0 -173 34.5t-144 98.5q-29 32 -29 75zM642 1368q0 -44 -34 -72l-248 -214q-27 -24 -60 -24q-38 0 -66 28t-28 64q0 38 40 74l244 214q25 22 60 22q38 0 65 -27t27 -65z" />
    <glyph glyph-name="Scircumflex" unicode="&#x15c;" horiz-adv-x="1104" 
d="M68 270q0 54 37 92t91 38t92 -38q115 -118 252 -118q82 0 135 48.5t53 117.5q0 77 -48.5 129t-175.5 104q-180 74 -264 174t-84 249q0 151 110.5 254.5t287.5 103.5q200 0 338 -122q40 -34 40 -96q0 -51 -36.5 -86.5t-87.5 -35.5q-41 0 -72 22q-75 50 -154 50
q-61 0 -97.5 -25.5t-36.5 -74.5q0 -56 45 -95.5t169 -90.5q183 -75 270.5 -189t87.5 -279q0 -187 -124.5 -306.5t-345.5 -119.5q-128 0 -244.5 52.5t-196.5 142.5q-41 45 -41 99zM526 1690l-172 -152q-29 -26 -68 -26q-35 0 -61.5 26t-26.5 62q0 41 54 90l236 208
q18 18 38 18t38 -18l236 -208q54 -49 54 -90q0 -36 -26.5 -62t-61.5 -26q-39 0 -68 26z" />
    <glyph glyph-name="scircumflex" unicode="&#x15d;" horiz-adv-x="814" 
d="M58 184q0 44 30 75t72 31t82 -40q60 -60 128 -60q50 0 79 24.5t29 65.5q0 45 -28.5 74.5t-101.5 59.5q-236 99 -236 284q0 114 84 188t216 74q137 0 235 -85q41 -34 41 -79q0 -39 -29.5 -67.5t-70.5 -28.5q-32 0 -56 18q-40 30 -82 30q-35 0 -54.5 -14.5t-19.5 -39.5
q0 -31 28 -53.5t104 -55.5q236 -101 236 -301q0 -135 -89 -221.5t-251 -86.5q-90 0 -173 34.5t-144 98.5q-29 32 -29 75zM398 1242l-172 -152q-29 -26 -68 -26q-35 0 -61.5 26t-26.5 62q0 41 54 90l236 208q18 18 38 18t38 -18l236 -208q54 -49 54 -90q0 -36 -26.5 -62
t-61.5 -26q-39 0 -68 26z" />
    <glyph glyph-name="Scedilla" unicode="&#x15e;" horiz-adv-x="1104" 
d="M328 -374q0 29 21.5 49.5t50.5 20.5q21 0 38 -10q31 -14 62 -14q38 0 61 18.5t23 47.5q0 75 -126 78q-10 0 -17 6.5t-7 15.5q0 8 4 20l56 120q-113 10 -214 61t-172 131q-40 47 -40 100q0 54 37 92t91 38t92 -38q115 -118 252 -118q82 0 135 48.5t53 117.5
q0 77 -48.5 129t-175.5 104q-180 74 -264 174t-84 249q0 151 110.5 254.5t287.5 103.5q200 0 338 -122q40 -34 40 -96q0 -51 -36.5 -86.5t-87.5 -35.5q-41 0 -72 22q-75 50 -154 50q-61 0 -97.5 -25.5t-36.5 -74.5q0 -56 45 -95.5t169 -90.5q183 -75 270.5 -189t87.5 -279
q0 -160 -93.5 -273.5t-262.5 -142.5l-36 -76q70 -18 109 -66t39 -116q0 -84 -67.5 -144t-184.5 -60q-83 0 -154 34q-42 24 -42 68z" />
    <glyph glyph-name="scedilla" unicode="&#x15f;" horiz-adv-x="814" 
d="M168 -374q0 29 21.5 49.5t50.5 20.5q21 0 38 -10q31 -14 62 -14q38 0 61 18.5t23 47.5q0 75 -126 78q-10 0 -17 6.5t-7 15.5q0 8 4 20l56 124q-148 23 -247 127q-29 32 -29 75q0 44 30 75t72 31t82 -40q60 -60 128 -60q50 0 79 24.5t29 65.5q0 45 -28.5 74.5t-101.5 59.5
q-236 99 -236 284q0 114 84 188t216 74q137 0 235 -85q41 -34 41 -79q0 -39 -29.5 -67.5t-70.5 -28.5q-32 0 -56 18q-40 30 -82 30q-35 0 -54.5 -14.5t-19.5 -39.5q0 -31 28 -53.5t104 -55.5q236 -101 236 -301q0 -111 -62 -191t-176 -105l-38 -78q70 -18 109 -66t39 -116
q0 -84 -67.5 -144t-184.5 -60q-83 0 -154 34q-42 24 -42 68z" />
    <glyph glyph-name="Scaron" unicode="&#x160;" horiz-adv-x="1104" 
d="M68 270q0 54 37 92t91 38t92 -38q115 -118 252 -118q82 0 135 48.5t53 117.5q0 77 -48.5 129t-175.5 104q-180 74 -264 174t-84 249q0 151 110.5 254.5t287.5 103.5q200 0 338 -122q40 -34 40 -96q0 -51 -36.5 -86.5t-87.5 -35.5q-41 0 -72 22q-75 50 -154 50
q-61 0 -97.5 -25.5t-36.5 -74.5q0 -56 45 -95.5t169 -90.5q183 -75 270.5 -189t87.5 -279q0 -187 -124.5 -306.5t-345.5 -119.5q-128 0 -244.5 52.5t-196.5 142.5q-41 45 -41 99zM354 1870l172 -152l172 152q29 26 68 26q35 0 61.5 -26t26.5 -62q0 -41 -54 -90l-236 -208
q-18 -18 -38 -18t-38 18l-236 208q-54 49 -54 90q0 36 26.5 62t61.5 26q39 0 68 -26z" />
    <glyph glyph-name="scaron" unicode="&#x161;" horiz-adv-x="814" 
d="M58 184q0 44 30 75t72 31t82 -40q60 -60 128 -60q50 0 79 24.5t29 65.5q0 45 -28.5 74.5t-101.5 59.5q-236 99 -236 284q0 114 84 188t216 74q137 0 235 -85q41 -34 41 -79q0 -39 -29.5 -67.5t-70.5 -28.5q-32 0 -56 18q-40 30 -82 30q-35 0 -54.5 -14.5t-19.5 -39.5
q0 -31 28 -53.5t104 -55.5q236 -101 236 -301q0 -135 -89 -221.5t-251 -86.5q-90 0 -173 34.5t-144 98.5q-29 32 -29 75zM226 1422l172 -152l172 152q29 26 68 26q35 0 61.5 -26t26.5 -62q0 -41 -54 -90l-236 -208q-18 -18 -38 -18t-38 18l-236 208q-54 49 -54 90
q0 36 26.5 62t61.5 26q39 0 68 -26z" />
    <glyph glyph-name="Tcommaaccent" unicode="&#x162;" horiz-adv-x="1024" 
d="M250 -374q0 29 21.5 49.5t50.5 20.5q21 0 38 -10q31 -14 62 -14q38 0 61 18.5t23 47.5q0 75 -126 78q-10 0 -17 6.5t-7 15.5q0 8 4 20l68 144q-62 46 -62 120v1010h-206q-56 0 -95 39t-39 95t39 95t95 39h704q56 0 95 -39t39 -95t-39 -95t-95 -39h-206v-1010
q0 -76 -64 -120l-44 -92q70 -18 109 -66t39 -116q0 -84 -67.5 -144t-184.5 -60q-83 0 -154 34q-42 24 -42 68z" />
    <glyph glyph-name="tcommaaccent" unicode="&#x163;" horiz-adv-x="726" 
d="M78 -374q0 29 21.5 49.5t50.5 20.5q21 0 38 -10q31 -14 62 -14q38 0 61 18.5t23 47.5q0 75 -126 78q-10 0 -17 6.5t-7 15.5q0 8 4 20l68 144q-52 39 -52 106v586h-54q-51 0 -85.5 34.5t-34.5 85.5t34.5 86.5t85.5 35.5h54v156q0 54 39 93t93 39t93 -39t39 -93v-156h122
q51 0 85.5 -35.5t34.5 -86.5t-34.5 -85.5t-85.5 -34.5h-122v-586q0 -54 -40 -94l-50 -104q70 -18 109 -66t39 -116q0 -84 -67.5 -144t-184.5 -60q-90 0 -154 34q-42 22 -42 68z" />
    <glyph glyph-name="Tcaron" unicode="&#x164;" horiz-adv-x="1024" 
d="M160 1400h704q56 0 95 -39t39 -95t-39 -95t-95 -39h-206v-1010q0 -60 -43 -103t-103 -43t-103 43t-43 103v1010h-206q-56 0 -95 39t-39 95t39 95t95 39zM340 1870l172 -152l172 152q29 26 68 26q35 0 61.5 -26t26.5 -62q0 -41 -54 -90l-236 -208q-18 -18 -38 -18t-38 18
l-236 208q-54 49 -54 90q0 36 26.5 62t61.5 26q39 0 68 -26z" />
    <glyph glyph-name="tcaron" unicode="&#x165;" horiz-adv-x="1096" 
d="M468 936h122q51 0 85.5 -35.5t34.5 -86.5t-34.5 -85.5t-85.5 -34.5h-122v-586q0 -54 -39 -93t-93 -39t-93 39t-39 93v586h-54q-51 0 -85.5 34.5t-34.5 85.5t34.5 86.5t85.5 35.5h54v156q0 54 39 93t93 39t93 -39t39 -93v-156zM736 1070l78 332q9 40 40 65t74 25
q50 0 85 -34.5t35 -83.5q0 -23 -10 -46l-128 -308q-10 -25 -33.5 -40.5t-52.5 -15.5q-35 0 -63 24t-28 61q0 11 3 21z" />
    <glyph glyph-name="Tbar" unicode="&#x166;" horiz-adv-x="1024" 
d="M212 768h154v364h-206q-56 0 -95 39t-39 95t39 95t95 39h704q56 0 95 -39t39 -95t-39 -95t-95 -39h-206v-364h154q36 0 61 -26t25 -62t-25 -61t-61 -25h-154v-472q0 -60 -43 -103t-103 -43t-103 43t-43 103v472h-154q-36 0 -61 25t-25 61t25 62t61 26z" />
    <glyph glyph-name="tbar" unicode="&#x167;" horiz-adv-x="726" 
d="M144 546h60v148h-54q-51 0 -85.5 34.5t-34.5 85.5t34.5 86.5t85.5 35.5h54v156q0 54 39 93t93 39t93 -39t39 -93v-156h122q51 0 85.5 -35.5t34.5 -86.5t-34.5 -85.5t-85.5 -34.5h-122v-148h114q36 0 61 -26t25 -62t-25 -61t-61 -25h-114v-264q0 -54 -39 -93t-93 -39
t-93 39t-39 93v264h-60q-36 0 -61 25t-25 61t25 62t61 26z" />
    <glyph glyph-name="Utilde" unicode="&#x168;" horiz-adv-x="1332" 
d="M896 504v774q0 60 43 103t103 43t103 -43t43 -103v-768q0 -124 -43 -226.5t-116 -168.5t-166.5 -102.5t-196.5 -36.5t-196.5 36.5t-166.5 102.5t-116 168.5t-43 226.5v768q0 60 43 103t103 43t103 -43t43 -103v-774q0 -126 62.5 -193t167.5 -67t167.5 67t62.5 193z
M796 1562q-81 0 -162 68q-50 40 -82 40q-34 0 -52 -44q-9 -25 -31 -39.5t-51 -14.5q-36 0 -61 24.5t-25 57.5q0 21 6 36q25 79 77 119.5t121 40.5q81 0 162 -68q50 -40 82 -40q34 0 52 44q9 25 31 39.5t51 14.5q36 0 61 -24.5t25 -57.5q0 -21 -6 -36q-25 -79 -77 -119.5
t-121 -40.5z" />
    <glyph glyph-name="utilde" unicode="&#x169;" horiz-adv-x="1128" 
d="M732 108q-103 -132 -274 -132q-139 0 -232.5 95.5t-93.5 250.5v506q0 54 39 93t93 39t93 -39t39 -93v-444q0 -80 47 -129t121 -49t121 49t47 129v444q0 54 39 93t93 39t93 -39t39 -93v-720q0 -54 -39 -93t-93 -39t-93 39t-39 93zM692 1114q-81 0 -162 68q-50 40 -82 40
q-34 0 -52 -44q-9 -25 -31 -39.5t-51 -14.5q-36 0 -61 24.5t-25 57.5q0 21 6 36q25 79 77 119.5t121 40.5q81 0 162 -68q50 -40 82 -40q34 0 52 44q9 25 31 39.5t51 14.5q36 0 61 -24.5t25 -57.5q0 -21 -6 -36q-25 -79 -77 -119.5t-121 -40.5z" />
    <glyph glyph-name="Umacron" unicode="&#x16a;" horiz-adv-x="1332" 
d="M896 504v774q0 60 43 103t103 43t103 -43t43 -103v-768q0 -124 -43 -226.5t-116 -168.5t-166.5 -102.5t-196.5 -36.5t-196.5 36.5t-166.5 102.5t-116 168.5t-43 226.5v768q0 60 43 103t103 43t103 -43t43 -103v-774q0 -126 62.5 -193t167.5 -67t167.5 67t62.5 193z
M886 1614h-440q-39 0 -65.5 27.5t-26.5 66.5t26.5 65.5t65.5 26.5h440q39 0 65.5 -26.5t26.5 -65.5t-26.5 -66.5t-65.5 -27.5z" />
    <glyph glyph-name="umacron" unicode="&#x16b;" horiz-adv-x="1128" 
d="M732 108q-103 -132 -274 -132q-139 0 -232.5 95.5t-93.5 250.5v506q0 54 39 93t93 39t93 -39t39 -93v-444q0 -80 47 -129t121 -49t121 49t47 129v444q0 54 39 93t93 39t93 -39t39 -93v-720q0 -54 -39 -93t-93 -39t-93 39t-39 93zM782 1166h-440q-39 0 -65.5 27.5
t-26.5 66.5t26.5 65.5t65.5 26.5h440q39 0 65.5 -26.5t26.5 -65.5t-26.5 -66.5t-65.5 -27.5z" />
    <glyph glyph-name="Ubreve" unicode="&#x16c;" horiz-adv-x="1332" 
d="M896 504v774q0 60 43 103t103 43t103 -43t43 -103v-768q0 -124 -43 -226.5t-116 -168.5t-166.5 -102.5t-196.5 -36.5t-196.5 36.5t-166.5 102.5t-116 168.5t-43 226.5v768q0 60 43 103t103 43t103 -43t43 -103v-774q0 -126 62.5 -193t167.5 -67t167.5 67t62.5 193z
M666 1546q-94 0 -169 52t-113 144q-10 23 -10 52q0 38 25.5 64t64.5 26q34 0 59.5 -19.5t36.5 -52.5q12 -37 40 -59.5t66 -22.5t66 22.5t40 59.5q11 33 36.5 52.5t59.5 19.5q39 0 64.5 -26t25.5 -64q0 -29 -10 -52q-38 -92 -113 -144t-169 -52z" />
    <glyph glyph-name="ubreve" unicode="&#x16d;" horiz-adv-x="1128" 
d="M732 108q-103 -132 -274 -132q-139 0 -232.5 95.5t-93.5 250.5v506q0 54 39 93t93 39t93 -39t39 -93v-444q0 -80 47 -129t121 -49t121 49t47 129v444q0 54 39 93t93 39t93 -39t39 -93v-720q0 -54 -39 -93t-93 -39t-93 39t-39 93zM562 1096q-94 0 -169 52t-113 144
q-10 23 -10 52q0 38 25.5 64t64.5 26q34 0 59.5 -19.5t36.5 -52.5q12 -37 40 -59.5t66 -22.5t66 22.5t40 59.5q11 33 36.5 52.5t59.5 19.5q39 0 64.5 -26t25.5 -64q0 -29 -10 -52q-38 -92 -113 -144t-169 -52z" />
    <glyph glyph-name="Uring" unicode="&#x16e;" horiz-adv-x="1332" 
d="M896 504v774q0 60 43 103t103 43t103 -43t43 -103v-768q0 -124 -43 -226.5t-116 -168.5t-166.5 -102.5t-196.5 -36.5t-196.5 36.5t-166.5 102.5t-116 168.5t-43 226.5v768q0 60 43 103t103 43t103 -43t43 -103v-774q0 -126 62.5 -193t167.5 -67t167.5 67t62.5 193z
M666 1622q36 0 60 24.5t24 59.5t-24 59.5t-60 24.5t-60 -24.5t-24 -59.5t24 -59.5t60 -24.5zM666 1492q-91 0 -155.5 61t-64.5 153t64.5 153t155.5 61t155.5 -61t64.5 -153t-64.5 -153t-155.5 -61z" />
    <glyph glyph-name="uring" unicode="&#x16f;" horiz-adv-x="1128" 
d="M732 108q-103 -132 -274 -132q-139 0 -232.5 95.5t-93.5 250.5v506q0 54 39 93t93 39t93 -39t39 -93v-444q0 -80 47 -129t121 -49t121 49t47 129v444q0 54 39 93t93 39t93 -39t39 -93v-720q0 -54 -39 -93t-93 -39t-93 39t-39 93zM562 1172q36 0 60 24.5t24 59.5t-24 59.5
t-60 24.5t-60 -24.5t-24 -59.5t24 -59.5t60 -24.5zM562 1042q-91 0 -155.5 61t-64.5 153t64.5 153t155.5 61t155.5 -61t64.5 -153t-64.5 -153t-155.5 -61z" />
    <glyph glyph-name="Uhungarumlaut" unicode="&#x170;" horiz-adv-x="1332" 
d="M896 504v774q0 60 43 103t103 43t103 -43t43 -103v-768q0 -124 -43 -226.5t-116 -168.5t-166.5 -102.5t-196.5 -36.5t-196.5 36.5t-166.5 102.5t-116 168.5t-43 226.5v768q0 60 43 103t103 43t103 -43t43 -103v-774q0 -126 62.5 -193t167.5 -67t167.5 67t62.5 193z
M738 1816q0 -44 -34 -72l-248 -214q-27 -24 -60 -24q-38 0 -66 28t-28 64q0 38 40 74l244 214q25 22 60 22q38 0 65 -27t27 -65zM1134 1816q0 -44 -34 -72l-248 -214q-27 -24 -60 -24q-38 0 -66 28t-28 64q0 38 40 74l244 214q25 22 60 22q38 0 65 -27t27 -65z" />
    <glyph glyph-name="uhungarumlaut" unicode="&#x171;" horiz-adv-x="1130" 
d="M732 108q-103 -132 -274 -132q-139 0 -232.5 95.5t-93.5 250.5v506q0 54 39 93t93 39t93 -39t39 -93v-444q0 -80 47 -129t121 -49t121 49t47 129v444q0 54 39 93t93 39t93 -39t39 -93v-720q0 -54 -39 -93t-93 -39t-93 39t-39 93zM616 1368q0 -44 -34 -72l-248 -214
q-27 -24 -60 -24q-38 0 -66 28t-28 64q0 38 40 74l244 214q25 22 60 22q38 0 65 -27t27 -65zM1012 1368q0 -44 -34 -72l-248 -214q-27 -24 -60 -24q-38 0 -66 28t-28 64q0 38 40 74l244 214q25 22 60 22q38 0 65 -27t27 -65z" />
    <glyph glyph-name="Uogonek" unicode="&#x172;" horiz-adv-x="1332" 
d="M896 504v774q0 60 43 103t103 43t103 -43t43 -103v-768q0 -200 -105 -335t-271 -179q-106 -103 -106 -192q0 -40 24 -60t60 -20q18 0 46 4q2 0 4 0.5t4 0.5q28 0 49 -23t21 -52q0 -50 -52 -74q-42 -18 -110 -18q-107 0 -170.5 59.5t-63.5 144.5q0 117 104 212
q-97 8 -183 47t-152 105t-104.5 164.5t-38.5 215.5v768q0 60 43 103t103 43t103 -43t43 -103v-774q0 -126 62.5 -193t167.5 -67t167.5 67t62.5 193z" />
    <glyph glyph-name="uogonek" unicode="&#x173;" horiz-adv-x="1132" 
d="M732 108q-103 -132 -274 -132q-139 0 -232.5 95.5t-93.5 250.5v506q0 54 39 93t93 39t93 -39t39 -93v-444q0 -80 47 -129t121 -49t121 49t47 129v444q0 54 39 93t93 39t93 -39t39 -93v-720q0 -35 -17.5 -65t-46.5 -47q-106 -103 -106 -192q0 -40 24 -60t60 -20q18 0 46 4
q2 0 4 0.5t4 0.5q28 0 49 -23t21 -52q0 -50 -52 -74q-42 -18 -110 -18q-107 0 -170.5 59.5t-63.5 144.5q0 137 140 242q-46 39 -46 100z" />
    <glyph glyph-name="Wcircumflex" unicode="&#x174;" horiz-adv-x="2016" 
d="M1008 1424q31 0 55 -18t35 -48l298 -820l266 782q36 104 138 104q59 0 99.5 -41t40.5 -101q0 -26 -8 -48l-442 -1192q-25 -66 -90 -66q-68 0 -92 68l-300 828l-300 -828q-24 -68 -92 -68q-65 0 -90 66l-442 1192q-8 22 -8 48q0 60 40.5 101t99.5 41q102 0 138 -104
l266 -782l298 820q11 30 35 48t55 18zM1008 1690l-172 -152q-29 -26 -68 -26q-35 0 -61.5 26t-26.5 62q0 41 54 90l236 208q18 18 38 18t38 -18l236 -208q54 -49 54 -90q0 -36 -26.5 -62t-61.5 -26q-39 0 -68 26z" />
    <glyph glyph-name="wcircumflex" unicode="&#x175;" horiz-adv-x="1580" 
d="M790 960q60 0 88 -62l214 -494l178 478q13 35 46.5 56.5t71.5 21.5q51 0 87.5 -37t36.5 -91q0 -27 -10 -50l-334 -748q-26 -58 -82 -58q-29 0 -52 16t-34 42l-210 510l-210 -510q-11 -26 -34 -42t-52 -16q-56 0 -82 58l-334 748q-10 23 -10 50q0 54 36.5 91t87.5 37
q38 0 71.5 -21.5t46.5 -56.5l178 -478l214 494q28 62 88 62zM790 1242l-172 -152q-29 -26 -68 -26q-35 0 -61.5 26t-26.5 62q0 41 54 90l236 208q18 18 38 18t38 -18l236 -208q54 -49 54 -90q0 -36 -26.5 -62t-61.5 -26q-39 0 -68 26z" />
    <glyph glyph-name="Ycircumflex" unicode="&#x176;" horiz-adv-x="1304" 
d="M652 -24q-60 0 -103 43t-43 103v430l-400 644q-28 46 -28 90q0 56 43 97t103 41q40 0 72.5 -23.5t53.5 -60.5l302 -518l302 518q21 37 53.5 60.5t72.5 23.5q60 0 103 -41t43 -97q0 -44 -28 -90l-400 -644v-430q0 -60 -43 -103t-103 -43zM652 1690l-172 -152
q-29 -26 -68 -26q-35 0 -61.5 26t-26.5 62q0 41 54 90l236 208q18 18 38 18t38 -18l236 -208q54 -49 54 -90q0 -36 -26.5 -62t-61.5 -26q-39 0 -68 26z" />
    <glyph glyph-name="ycircumflex" unicode="&#x177;" horiz-adv-x="1052" 
d="M524 342l196 536q14 37 46 59.5t72 22.5q56 0 94 -38t38 -94q0 -22 -6 -40l-490 -1290q-15 -39 -48 -61.5t-78 -22.5q-54 0 -91 37t-37 91q0 27 10 54l168 432l-306 756q-8 19 -8 46q0 54 37 92t89 38q43 0 76 -24.5t48 -65.5zM526 1242l-172 -152q-29 -26 -68 -26
q-35 0 -61.5 26t-26.5 62q0 41 54 90l236 208q18 18 38 18t38 -18l236 -208q54 -49 54 -90q0 -36 -26.5 -62t-61.5 -26q-39 0 -68 26z" />
    <glyph glyph-name="Ydieresis" unicode="&#x178;" horiz-adv-x="1304" 
d="M652 -24q-60 0 -103 43t-43 103v430l-400 644q-28 46 -28 90q0 56 43 97t103 41q40 0 72.5 -23.5t53.5 -60.5l302 -518l302 518q21 37 53.5 60.5t72.5 23.5q60 0 103 -41t43 -97q0 -44 -28 -90l-400 -644v-430q0 -60 -43 -103t-103 -43zM454 1578q-52 0 -90 38t-38 90
t38 90t90 38t90 -38t38 -90t-38 -90t-90 -38zM846 1578q-52 0 -90 38t-38 90t38 90t90 38t90 -38t38 -90t-38 -90t-90 -38z" />
    <glyph glyph-name="Zacute" unicode="&#x179;" horiz-adv-x="1108" 
d="M932 0h-768q-44 0 -73 25.5t-29 62.5q0 33 18 66l526 978h-368q-56 0 -95 39t-39 95t39 95t95 39h682q44 0 71 -22.5t27 -57.5q0 -30 -18 -66l-524 -986h456q56 0 95 -39t39 -95t-39 -95t-95 -39zM802 1816q0 -44 -34 -72l-248 -214q-27 -24 -60 -24q-38 0 -66 28t-28 64
q0 38 40 74l244 214q25 22 60 22q38 0 65 -27t27 -65z" />
    <glyph glyph-name="zacute" unicode="&#x17a;" horiz-adv-x="880" 
d="M720 0h-578q-35 0 -55.5 19.5t-20.5 48.5q0 27 20 60l320 566h-190q-51 0 -85.5 34.5t-34.5 85.5t34.5 86.5t85.5 35.5h498q35 0 55.5 -19.5t20.5 -48.5q0 -27 -20 -60l-326 -566h276q51 0 85.5 -35.5t34.5 -86.5t-34.5 -85.5t-85.5 -34.5zM678 1368q0 -44 -34 -72
l-248 -214q-27 -24 -60 -24q-38 0 -66 28t-28 64q0 38 40 74l244 214q25 22 60 22q38 0 65 -27t27 -65z" />
    <glyph glyph-name="Zdotaccent" unicode="&#x17b;" horiz-adv-x="1108" 
d="M932 0h-768q-44 0 -73 25.5t-29 62.5q0 33 18 66l526 978h-368q-56 0 -95 39t-39 95t39 95t95 39h682q44 0 71 -22.5t27 -57.5q0 -30 -18 -66l-524 -986h456q56 0 95 -39t39 -95t-39 -95t-95 -39zM554 1578q-52 0 -90 38t-38 90t38 90t90 38t90 -38t38 -90t-38 -90
t-90 -38z" />
    <glyph glyph-name="zdotaccent" unicode="&#x17c;" horiz-adv-x="880" 
d="M720 0h-578q-35 0 -55.5 19.5t-20.5 48.5q0 27 20 60l320 566h-190q-51 0 -85.5 34.5t-34.5 85.5t34.5 86.5t85.5 35.5h498q35 0 55.5 -19.5t20.5 -48.5q0 -27 -20 -60l-326 -566h276q51 0 85.5 -35.5t34.5 -86.5t-34.5 -85.5t-85.5 -34.5zM450 1130q-52 0 -90 38t-38 90
t38 90t90 38t90 -38t38 -90t-38 -90t-90 -38z" />
    <glyph glyph-name="Zcaron" unicode="&#x17d;" horiz-adv-x="1108" 
d="M932 0h-768q-44 0 -73 25.5t-29 62.5q0 33 18 66l526 978h-368q-56 0 -95 39t-39 95t39 95t95 39h682q44 0 71 -22.5t27 -57.5q0 -30 -18 -66l-524 -986h456q56 0 95 -39t39 -95t-39 -95t-95 -39zM380 1870l172 -152l172 152q29 26 68 26q35 0 61.5 -26t26.5 -62
q0 -41 -54 -90l-236 -208q-18 -18 -38 -18t-38 18l-236 208q-54 49 -54 90q0 36 26.5 62t61.5 26q39 0 68 -26z" />
    <glyph glyph-name="zcaron" unicode="&#x17e;" horiz-adv-x="880" 
d="M720 0h-578q-35 0 -55.5 19.5t-20.5 48.5q0 27 20 60l320 566h-190q-51 0 -85.5 34.5t-34.5 85.5t34.5 86.5t85.5 35.5h498q35 0 55.5 -19.5t20.5 -48.5q0 -27 -20 -60l-326 -566h276q51 0 85.5 -35.5t34.5 -86.5t-34.5 -85.5t-85.5 -34.5zM278 1422l172 -152l172 152
q29 26 68 26q35 0 61.5 -26t26.5 -62q0 -41 -54 -90l-236 -208q-18 -18 -38 -18t-38 18l-236 208q-54 49 -54 90q0 36 26.5 62t61.5 26q39 0 68 -26z" />
    <glyph glyph-name="longs" unicode="&#x17f;" horiz-adv-x="766" 
d="M204 936v188q0 187 92.5 292.5t261.5 105.5q79 0 149.5 -28t118.5 -78q34 -34 34 -84q0 -47 -34 -80.5t-80 -33.5q-40 0 -76 30q-41 32 -86 32q-116 0 -116 -172v-1000q0 -54 -39 -93t-93 -39t-93 39t-39 93v586h-54q-51 0 -85.5 34.5t-34.5 85.5t34.5 86.5t85.5 35.5h54
z" />
    <glyph glyph-name="florin" unicode="&#x192;" horiz-adv-x="778" 
d="M480 694v-860q0 -187 -92.5 -292.5t-261.5 -105.5q-79 0 -149.5 28t-118.5 78q-34 34 -34 84q0 47 34 80.5t80 33.5q40 0 76 -30q41 -32 86 -32q116 0 116 172v844h-54q-51 0 -85.5 34.5t-34.5 85.5t34.5 86.5t85.5 35.5h54v188q0 187 92.5 292.5t261.5 105.5
q79 0 149.5 -28t118.5 -78q34 -34 34 -84q0 -47 -34 -80.5t-80 -33.5q-40 0 -76 30q-41 32 -86 32q-116 0 -116 -172v-172h162q51 0 85.5 -35.5t34.5 -86.5t-34.5 -85.5t-85.5 -34.5h-162z" />
    <glyph glyph-name="Ohorn" unicode="&#x1a0;" horiz-adv-x="1664" 
d="M832 -24q-149 0 -285.5 55t-237.5 150t-161 230.5t-60 288.5t60 288.5t161 230.5t237.5 150t285.5 55q272 0 478 -168q54 48 54 120q0 59 -30 116q-14 28 -14 56q0 40 28.5 67t69.5 27q32 0 57 -18t37 -48q26 -64 26 -142t-35 -147.5t-101 -118.5q174 -200 174 -468
q0 -153 -60 -288.5t-161 -230.5t-237.5 -150t-285.5 -55zM832 244q189 0 320.5 130.5t131.5 325.5t-131.5 325.5t-320.5 130.5t-320.5 -130.5t-131.5 -325.5t131.5 -325.5t320.5 -130.5z" />
    <glyph glyph-name="ohorn" unicode="&#x1a1;" horiz-adv-x="1192" 
d="M1170 1032q0 -82 -40 -154.5t-114 -121.5q96 -128 96 -288q0 -207 -149.5 -349.5t-368.5 -142.5t-368.5 142.5t-149.5 349.5t149.5 349.5t368.5 142.5q193 0 338 -116q62 47 62 130q0 59 -30 116q-14 28 -14 56q0 40 28.5 67t69.5 27q32 0 57 -18t37 -48q28 -68 28 -142z
M340 468q0 -107 74.5 -178.5t179.5 -71.5t179.5 71.5t74.5 178.5t-74.5 178.5t-179.5 71.5t-179.5 -71.5t-74.5 -178.5z" />
    <glyph glyph-name="Uhorn" unicode="&#x1af;" horiz-adv-x="1342" 
d="M1398 1560q0 -97 -54.5 -179t-155.5 -129v-742q0 -124 -43 -226.5t-116 -168.5t-166.5 -102.5t-196.5 -36.5t-196.5 36.5t-166.5 102.5t-116 168.5t-43 226.5v768q0 60 43 103t103 43t103 -43t43 -103v-774q0 -126 62.5 -193t167.5 -67t167.5 67t62.5 193v774
q0 60 43 103t103 43q68 0 114 -56q68 55 68 134q0 59 -30 116q-14 28 -14 56q0 40 28.5 67t69.5 27q32 0 57 -18t37 -48q26 -64 26 -142z" />
    <glyph glyph-name="uhorn" unicode="&#x1b0;" horiz-adv-x="1192" 
d="M732 108q-103 -132 -274 -132q-139 0 -232.5 95.5t-93.5 250.5v506q0 54 39 93t93 39t93 -39t39 -93v-444q0 -80 47 -129t121 -49t121 49t47 129v444q0 54 39 93t93 39q62 0 102 -50q82 56 82 142q0 59 -30 116q-14 28 -14 56q0 40 28.5 67t69.5 27q32 0 57 -18t37 -48
q26 -64 26 -142q0 -102 -58 -186t-168 -128v-688q0 -54 -39 -93t-93 -39t-93 39t-39 93z" />
    <glyph glyph-name="Scommaaccent" unicode="&#x218;" horiz-adv-x="1104" 
d="M68 270q0 54 37 92t91 38t92 -38q115 -118 252 -118q82 0 135 48.5t53 117.5q0 77 -48.5 129t-175.5 104q-180 74 -264 174t-84 249q0 151 110.5 254.5t287.5 103.5q200 0 338 -122q40 -34 40 -96q0 -51 -36.5 -86.5t-87.5 -35.5q-41 0 -72 22q-75 50 -154 50
q-61 0 -97.5 -25.5t-36.5 -74.5q0 -56 45 -95.5t169 -90.5q183 -75 270.5 -189t87.5 -279q0 -187 -124.5 -306.5t-345.5 -119.5q-128 0 -244.5 52.5t-196.5 142.5q-41 45 -41 99zM406 -490q0 12 4 28l58 248q8 35 37 58.5t65 23.5q44 0 75 -31t31 -75q0 -18 -6 -36
l-100 -244q-10 -25 -32 -40.5t-48 -15.5q-33 0 -58.5 24.5t-25.5 59.5z" />
    <glyph glyph-name="scommaaccent" unicode="&#x219;" horiz-adv-x="814" 
d="M58 184q0 44 30 75t72 31t82 -40q60 -60 128 -60q50 0 79 24.5t29 65.5q0 45 -28.5 74.5t-101.5 59.5q-236 99 -236 284q0 114 84 188t216 74q137 0 235 -85q41 -34 41 -79q0 -39 -29.5 -67.5t-70.5 -28.5q-32 0 -56 18q-40 30 -82 30q-35 0 -54.5 -14.5t-19.5 -39.5
q0 -31 28 -53.5t104 -55.5q236 -101 236 -301q0 -135 -89 -221.5t-251 -86.5q-90 0 -173 34.5t-144 98.5q-29 32 -29 75zM258 -490q0 12 4 28l58 248q8 35 37 58.5t65 23.5q44 0 75 -31t31 -75q0 -18 -6 -36l-100 -244q-10 -25 -32 -40.5t-48 -15.5q-33 0 -58.5 24.5
t-25.5 59.5z" />
    <glyph glyph-name="uni021A" unicode="&#x21a;" horiz-adv-x="1024" 
d="M160 1400h704q56 0 95 -39t39 -95t-39 -95t-95 -39h-206v-1010q0 -60 -43 -103t-103 -43t-103 43t-43 103v1010h-206q-56 0 -95 39t-39 95t39 95t95 39zM336 -490q0 12 4 28l58 248q8 35 37 58.5t65 23.5q44 0 75 -31t31 -75q0 -18 -6 -36l-100 -244q-10 -25 -32 -40.5
t-48 -15.5q-33 0 -58.5 24.5t-25.5 59.5z" />
    <glyph glyph-name="uni021B" unicode="&#x21b;" horiz-adv-x="726" 
d="M468 936h122q51 0 85.5 -35.5t34.5 -86.5t-34.5 -85.5t-85.5 -34.5h-122v-586q0 -54 -39 -93t-93 -39t-93 39t-39 93v586h-54q-51 0 -85.5 34.5t-34.5 85.5t34.5 86.5t85.5 35.5h54v156q0 54 39 93t93 39t93 -39t39 -93v-156zM166 -490q0 12 4 28l58 248q8 35 37 58.5
t65 23.5q44 0 75 -31t31 -75q0 -18 -6 -36l-100 -244q-10 -25 -32 -40.5t-48 -15.5q-33 0 -58.5 24.5t-25.5 59.5z" />
    <glyph glyph-name="uni0237" unicode="&#x237;" horiz-adv-x="564" 
d="M-264 -368q0 48 34 82t82 34q43 0 86 -36q53 -46 104 -46q61 0 93.5 48t32.5 140v974q0 54 39 93t93 39t93 -39t39 -93v-978q0 -195 -99.5 -304.5t-280.5 -109.5q-73 0 -145 26.5t-124 72.5q-47 44 -47 97z" />
    <glyph glyph-name="apostrophe" unicode="&#x2bc;" horiz-adv-x="824" 
d="M242 1086l78 332q9 40 40 65t74 25q50 0 85 -34.5t35 -83.5q0 -23 -10 -46l-128 -308q-10 -25 -33.5 -40.5t-52.5 -15.5q-35 0 -63 24t-28 61q0 11 3 21z" />
    <glyph glyph-name="circumflex" unicode="&#x2c6;" horiz-adv-x="824" 
d="M412 1282l-172 -152q-29 -26 -68 -26q-35 0 -61.5 26t-26.5 62q0 41 54 90l236 208q18 18 38 18t38 -18l236 -208q54 -49 54 -90q0 -36 -26.5 -62t-61.5 -26q-39 0 -68 26z" />
    <glyph glyph-name="caron" unicode="&#x2c7;" horiz-adv-x="824" 
d="M240 1462l172 -152l172 152q29 26 68 26q35 0 61.5 -26t26.5 -62q0 -41 -54 -90l-236 -208q-18 -18 -38 -18t-38 18l-236 208q-54 49 -54 90q0 36 26.5 62t61.5 26q39 0 68 -26z" />
    <glyph glyph-name="uni02C9" unicode="&#x2c9;" horiz-adv-x="824" 
d="M632 1206h-440q-39 0 -65.5 27.5t-26.5 66.5t26.5 65.5t65.5 26.5h440q39 0 65.5 -26.5t26.5 -65.5t-26.5 -66.5t-65.5 -27.5z" />
    <glyph glyph-name="breve" unicode="&#x2d8;" horiz-adv-x="824" 
d="M412 1116q-94 0 -169 52t-113 144q-10 23 -10 52q0 38 25.5 64t64.5 26q34 0 59.5 -19.5t36.5 -52.5q12 -37 40 -59.5t66 -22.5t66 22.5t40 59.5q11 33 36.5 52.5t59.5 19.5q39 0 64.5 -26t25.5 -64q0 -29 -10 -52q-38 -92 -113 -144t-169 -52z" />
    <glyph glyph-name="dotaccent" unicode="&#x2d9;" horiz-adv-x="824" 
d="M412 1170q-52 0 -90 38t-38 90t38 90t90 38t90 -38t38 -90t-38 -90t-90 -38z" />
    <glyph glyph-name="ring" unicode="&#x2da;" horiz-adv-x="824" 
d="M412 1214q36 0 60 24.5t24 59.5t-24 59.5t-60 24.5t-60 -24.5t-24 -59.5t24 -59.5t60 -24.5zM412 1084q-91 0 -155.5 61t-64.5 153t64.5 153t155.5 61t155.5 -61t64.5 -153t-64.5 -153t-155.5 -61z" />
    <glyph glyph-name="ogonek" unicode="&#x2db;" horiz-adv-x="824" 
d="M392 20h164q-62 -53 -98 -110.5t-36 -105.5q0 -40 24 -60t60 -20q18 0 46 4q2 0 4 0.5t4 0.5q28 0 49 -23t21 -52q0 -50 -52 -74q-42 -18 -110 -18q-107 0 -170.5 59.5t-63.5 144.5q0 68 39.5 134t118.5 120z" />
    <glyph glyph-name="tilde" unicode="&#x2dc;" horiz-adv-x="824" 
d="M542 1156q-81 0 -162 68q-50 40 -82 40q-34 0 -52 -44q-9 -25 -31 -39.5t-51 -14.5q-36 0 -61 24.5t-25 57.5q0 21 6 36q25 79 77 119.5t121 40.5q81 0 162 -68q50 -40 82 -40q34 0 52 44q9 25 31 39.5t51 14.5q36 0 61 -24.5t25 -57.5q0 -21 -6 -36q-25 -79 -77 -119.5
t-121 -40.5z" />
    <glyph glyph-name="hungarumlaut" unicode="&#x2dd;" horiz-adv-x="824" 
d="M432 1408q0 -44 -34 -72l-248 -214q-27 -24 -60 -24q-38 0 -66 28t-28 64q0 38 40 74l244 214q25 22 60 22q38 0 65 -27t27 -65zM828 1408q0 -44 -34 -72l-248 -214q-27 -24 -60 -24q-38 0 -66 28t-28 64q0 38 40 74l244 214q25 22 60 22q38 0 65 -27t27 -65z" />
    <glyph glyph-name="gravecomb" unicode="&#x300;" horiz-adv-x="0" 
d="M-774 1408q0 38 27 65t65 27q35 0 60 -22l244 -214q40 -36 40 -74q0 -36 -28 -64t-66 -28q-33 0 -60 24l-248 214q-34 28 -34 72z" />
    <glyph glyph-name="acutecomb" unicode="&#x301;" horiz-adv-x="0" 
d="M-230 1408q0 -44 -34 -72l-248 -214q-27 -24 -60 -24q-38 0 -66 28t-28 64q0 38 40 74l244 214q25 22 60 22q38 0 65 -27t27 -65z" />
    <glyph glyph-name="uni0302" unicode="&#x302;" horiz-adv-x="0" 
d="M-506 1282l-172 -152q-29 -26 -68 -26q-35 0 -61.5 26t-26.5 62q0 41 54 90l236 208q18 18 38 18t38 -18l236 -208q54 -49 54 -90q0 -36 -26.5 -62t-61.5 -26q-39 0 -68 26z" />
    <glyph glyph-name="tildecomb" unicode="&#x303;" horiz-adv-x="0" 
d="M-374 1156q-81 0 -162 68q-50 40 -82 40q-34 0 -52 -44q-9 -25 -31 -39.5t-51 -14.5q-36 0 -61 24.5t-25 57.5q0 21 6 36q25 79 77 119.5t121 40.5q81 0 162 -68q50 -40 82 -40q34 0 52 44q9 25 31 39.5t51 14.5q36 0 61 -24.5t25 -57.5q0 -21 -6 -36q-25 -79 -77 -119.5
t-121 -40.5z" />
    <glyph glyph-name="uni0304" unicode="&#x304;" horiz-adv-x="0" 
d="M-278 1206h-440q-39 0 -65.5 27.5t-26.5 66.5t26.5 65.5t65.5 26.5h440q39 0 65.5 -26.5t26.5 -65.5t-26.5 -66.5t-65.5 -27.5z" />
    <glyph glyph-name="uni0306" unicode="&#x306;" horiz-adv-x="0" 
d="M-504 1116q-94 0 -169 52t-113 144q-10 23 -10 52q0 38 25.5 64t64.5 26q34 0 59.5 -19.5t36.5 -52.5q12 -37 40 -59.5t66 -22.5t66 22.5t40 59.5q11 33 36.5 52.5t59.5 19.5q39 0 64.5 -26t25.5 -64q0 -29 -10 -52q-38 -92 -113 -144t-169 -52z" />
    <glyph glyph-name="uni0307" unicode="&#x307;" horiz-adv-x="0" 
d="M-498 1170q-52 0 -90 38t-38 90t38 90t90 38t90 -38t38 -90t-38 -90t-90 -38z" />
    <glyph glyph-name="uni0308" unicode="&#x308;" horiz-adv-x="0" 
d="M-700 1170q-52 0 -90 38t-38 90t38 90t90 38t90 -38t38 -90t-38 -90t-90 -38zM-308 1170q-52 0 -90 38t-38 90t38 90t90 38t90 -38t38 -90t-38 -90t-90 -38z" />
    <glyph glyph-name="hookabovecomb" unicode="&#x309;" horiz-adv-x="0" 
d="M-700 1386q0 23 18 44q28 34 73 53t95 19q75 0 124.5 -46.5t49.5 -113.5q0 -52 -27 -88.5t-73 -55.5v-18q0 -33 -23 -55.5t-55 -22.5q-33 0 -55.5 22.5t-22.5 55.5v32q0 34 32 44q64 20 64 62q0 44 -44 44q-27 0 -50 -20q-18 -18 -44 -18t-44 18t-18 44z" />
    <glyph glyph-name="uni030A" unicode="&#x30a;" horiz-adv-x="0" 
d="M-502 1214q36 0 60 24.5t24 59.5t-24 59.5t-60 24.5t-60 -24.5t-24 -59.5t24 -59.5t60 -24.5zM-502 1084q-91 0 -155.5 61t-64.5 153t64.5 153t155.5 61t155.5 -61t64.5 -153t-64.5 -153t-155.5 -61z" />
    <glyph glyph-name="uni030C" unicode="&#x30c;" horiz-adv-x="0" 
d="M-678 1462l172 -152l172 152q29 26 68 26q35 0 61.5 -26t26.5 -62q0 -41 -54 -90l-236 -208q-18 -18 -38 -18t-38 18l-236 208q-54 49 -54 90q0 36 26.5 62t61.5 26q39 0 68 -26z" />
    <glyph glyph-name="dotbelowcomb" unicode="&#x323;" horiz-adv-x="0" 
d="M-502 -578q-52 0 -90 38t-38 90t38 90t90 38t90 -38t38 -90t-38 -90t-90 -38z" />
    <glyph glyph-name="uni03A9" unicode="&#x3a9;" horiz-adv-x="1632" 
d="M816 1424q205 0 371 -86.5t258.5 -235t92.5 -326.5q0 -327 -300 -524h198q52 0 89 -37t37 -89t-37 -89t-89 -37h-372q-51 0 -88.5 36.5t-37.5 87.5v44q0 78 72 132q236 173 236 430q0 183 -125.5 306.5t-304.5 123.5t-304.5 -123.5t-125.5 -306.5q0 -257 236 -430
q72 -54 72 -132v-44q0 -51 -37.5 -87.5t-88.5 -36.5h-372q-52 0 -89 37t-37 89t37 89t89 37h198q-300 197 -300 524q0 178 92.5 326.5t258.5 235t371 86.5z" />
    <glyph glyph-name="pi" unicode="&#x3c0;" horiz-adv-x="1280" 
d="M150 936h958q51 0 85.5 -35.5t34.5 -86.5t-34.5 -85.5t-85.5 -34.5h-148v-348q0 -64 20.5 -101t61.5 -37q28 0 56 14q25 14 50 14q45 0 76.5 -32t31.5 -78q0 -62 -48 -94q-83 -56 -198 -56q-146 0 -228 101t-82 247v370h-158q0 -183 -28.5 -331t-95.5 -299
q-17 -38 -51 -62t-77 -24q-53 0 -90.5 35.5t-37.5 90.5q0 30 12 54q59 135 83.5 261t24.5 275h-132q-51 0 -85.5 34.5t-34.5 85.5t34.5 86.5t85.5 35.5z" />
    <glyph glyph-name="uni0400" unicode="&#x400;" horiz-adv-x="1006" 
d="M802 0h-512q-60 0 -103 43t-43 103v1108q0 60 43 103t103 43h494q56 0 95 -39t39 -95t-39 -95t-95 -39h-348v-242h302q54 0 93 -39t39 -93t-39 -92t-93 -38h-302v-360h366q56 0 95 -39t39 -95t-39 -95t-95 -39zM294 1816q0 38 27 65t65 27q35 0 60 -22l244 -214
q40 -36 40 -74q0 -36 -28 -64t-66 -28q-33 0 -60 24l-248 214q-34 28 -34 72z" />
    <glyph glyph-name="afii10023" unicode="&#x401;" horiz-adv-x="1006" 
d="M802 0h-512q-60 0 -103 43t-43 103v1108q0 60 43 103t103 43h494q56 0 95 -39t39 -95t-39 -95t-95 -39h-348v-242h302q54 0 93 -39t39 -93t-39 -92t-93 -38h-302v-360h366q56 0 95 -39t39 -95t-39 -95t-95 -39zM320 1578q-52 0 -90 38t-38 90t38 90t90 38t90 -38t38 -90
t-38 -90t-90 -38zM712 1578q-52 0 -90 38t-38 90t38 90t90 38t90 -38t38 -90t-38 -90t-90 -38z" />
    <glyph glyph-name="afii10051" unicode="&#x402;" horiz-adv-x="1312" 
d="M150 1400h670q56 0 95 -39t39 -95t-39 -95t-95 -39h-214v-334q105 68 248 68q112 0 205 -50t151 -151t58 -235q0 -80 -25 -152.5t-66.5 -125t-94 -91t-109 -58t-109.5 -19.5q-60 0 -100 39t-40 95q0 45 27.5 80t72.5 50q65 22 108.5 72.5t43.5 111.5q0 81 -54 127.5
t-140 46.5q-107 0 -176 -52v-432q0 -60 -43 -103t-103 -43t-103 43t-43 103v1010h-164q-56 0 -95 39t-39 95t39 95t95 39z" />
    <glyph glyph-name="afii10052" unicode="&#x403;" horiz-adv-x="914" 
d="M436 146v986h318q56 0 95 38.5t39 95.5q0 56 -39 95t-95 39h-464q-60 0 -103 -43t-43 -103v-1108q0 -60 43 -103t103 -43t103 43t43 103zM744 1816q0 -44 -34 -72l-248 -214q-27 -24 -60 -24q-38 0 -66 28t-28 64q0 38 40 74l244 214q25 22 60 22q38 0 65 -27t27 -65z
" />
    <glyph glyph-name="afii10053" unicode="&#x404;" horiz-adv-x="1452" 
d="M956 566h-558q42 -145 161 -233.5t273 -88.5q183 0 314 122q43 40 100 40t97.5 -39.5t40.5 -96.5q0 -58 -40 -98q-96 -94 -230.5 -145t-287.5 -51q-147 0 -282 55t-235.5 149.5t-160.5 230.5t-60 289t60 289t160.5 230.5t235.5 149.5t282 55q153 0 287.5 -51t230.5 -145
q40 -40 40 -98q0 -57 -40.5 -96.5t-97.5 -39.5t-100 40q-131 122 -314 122q-154 0 -273 -88.5t-161 -233.5h558q56 0 95 -39t39 -95t-39 -95t-95 -39z" />
    <glyph glyph-name="afii10054" unicode="&#x405;" horiz-adv-x="1108" 
d="M68 270q0 54 37 92t91 38t92 -38q115 -118 252 -118q82 0 135 48.5t53 117.5q0 77 -48.5 129t-175.5 104q-180 74 -264 174t-84 249q0 151 110.5 254.5t287.5 103.5q200 0 338 -122q40 -34 40 -96q0 -51 -36.5 -86.5t-87.5 -35.5q-41 0 -72 22q-75 50 -154 50
q-61 0 -97.5 -25.5t-36.5 -74.5q0 -56 45 -95.5t169 -90.5q183 -75 270.5 -189t87.5 -279q0 -187 -124.5 -306.5t-345.5 -119.5q-128 0 -244.5 52.5t-196.5 142.5q-41 45 -41 99z" />
    <glyph glyph-name="afii10055" unicode="&#x406;" horiz-adv-x="616" 
d="M162 122v1156q0 60 43 103t103 43t103 -43t43 -103v-1156q0 -60 -43 -103t-103 -43t-103 43t-43 103z" />
    <glyph glyph-name="afii10056" unicode="&#x407;" horiz-adv-x="616" 
d="M162 122v1156q0 60 43 103t103 43t103 -43t43 -103v-1156q0 -60 -43 -103t-103 -43t-103 43t-43 103zM112 1578q-52 0 -90 38t-38 90t38 90t90 38t90 -38t38 -90t-38 -90t-90 -38zM504 1578q-52 0 -90 38t-38 90t38 90t90 38t90 -38t38 -90t-38 -90t-90 -38z" />
    <glyph glyph-name="afii10057" unicode="&#x408;" horiz-adv-x="966" 
d="M2 228q0 56 39 95t95 39q60 0 104 -50q59 -68 136 -68q75 0 114.5 56.5t39.5 161.5v816q0 60 43 103t103 43t103 -43t43 -103v-832q0 -226 -117 -348t-315 -122q-101 0 -194 41t-158 117q-36 43 -36 94z" />
    <glyph glyph-name="afii10058" unicode="&#x409;" horiz-adv-x="1868" 
d="M58 116q0 47 26 82q167 218 192 532l40 528q5 61 46 101.5t100 40.5h620q60 0 103 -43t43 -103v-350h84q119 0 217 -35.5t162 -97.5t98.5 -144t34.5 -175t-34.5 -175t-98.5 -144t-162 -97.5t-217 -35.5h-230q-60 0 -103 43t-43 103v986h-332l-30 -386q-36 -470 -256 -716
q-48 -54 -120 -54q-58 0 -99 41t-41 99zM1228 636v-368h82q104 0 164 46t60 138t-60 138t-164 46h-82z" />
    <glyph glyph-name="afii10059" unicode="&#x40a;" horiz-adv-x="1810" 
d="M1254 0h-230q-60 0 -103 43t-43 103v474h-442v-498q0 -60 -43 -103t-103 -43t-103 43t-43 103v1156q0 60 43 103t103 43t103 -43t43 -103v-390h442v390q0 60 43 103t103 43t103 -43t43 -103v-374h84q119 0 217 -35.5t162 -97.5t98.5 -144t34.5 -175t-34.5 -175
t-98.5 -144t-162 -97.5t-217 -35.5zM1170 636v-368h82q104 0 164 46t60 138t-60 138t-164 46h-82z" />
    <glyph glyph-name="afii10060" unicode="&#x40b;" horiz-adv-x="1318" 
d="M948 122v286q0 97 -47.5 146.5t-134.5 49.5q-93 0 -160 -48v-434q0 -60 -43 -103t-103 -43t-103 43t-43 103v1010h-164q-56 0 -95 39t-39 95t39 95t95 39h670q56 0 95 -39t39 -95t-39 -95t-95 -39h-214v-334q100 68 246 68q177 0 282.5 -113.5t105.5 -314.5v-316
q0 -60 -43 -103t-103 -43t-103 43t-43 103z" />
    <glyph glyph-name="afii10061" unicode="&#x40c;" horiz-adv-x="1254" 
d="M436 712l460 646q46 66 116 66q54 0 94 -40t40 -94q0 -45 -28 -82l-364 -492l414 -518q32 -38 32 -86q0 -55 -41 -95.5t-97 -40.5q-68 0 -118 64zM144 122v1156q0 60 43 103t103 43t103 -43t43 -103v-1156q0 -60 -43 -103t-103 -43t-103 43t-43 103zM870 1816
q0 -44 -34 -72l-248 -214q-27 -24 -60 -24q-38 0 -66 28t-28 64q0 38 40 74l244 214q25 22 60 22q38 0 65 -27t27 -65z" />
    <glyph glyph-name="uni040D" unicode="&#x40d;" horiz-adv-x="1476" 
d="M306 12l734 834v-724q0 -60 43 -103t103 -43t103 43t43 103v1210q0 39 -25.5 65.5t-62.5 26.5q-41 0 -74 -36l-734 -836v726q0 60 -43 103t-103 43t-103 -43t-43 -103v-1210q0 -39 25.5 -65.5t62.5 -26.5q41 0 74 36zM514 1816q0 38 27 65t65 27q35 0 60 -22l244 -214
q40 -36 40 -74q0 -36 -28 -64t-66 -28q-33 0 -60 24l-248 214q-34 28 -34 72z" />
    <glyph glyph-name="afii10062" unicode="&#x40e;" horiz-adv-x="1296" 
d="M78 1280q0 60 41 102t99 42q82 0 126 -76l314 -550l310 554q19 33 51 52.5t71 19.5q60 0 102 -42t42 -102q0 -38 -24 -80l-638 -1146q-42 -78 -130 -78q-58 0 -99 41t-41 99q0 39 18 72l186 324l-404 688q-24 39 -24 80zM650 1544q-94 0 -169 52t-113 144q-10 23 -10 52
q0 38 25.5 64t64.5 26q34 0 59.5 -19.5t36.5 -52.5q12 -37 40 -59.5t66 -22.5t66 22.5t40 59.5q11 33 36.5 52.5t59.5 19.5q39 0 64.5 -26t25.5 -64q0 -29 -10 -52q-38 -92 -113 -144t-169 -52z" />
    <glyph glyph-name="afii10145" unicode="&#x40f;" horiz-adv-x="1332" 
d="M520 -130v130h-230q-60 0 -103 43t-43 103v1132q0 60 43 103t103 43t103 -43t43 -103v-1010h460v1010q0 60 43 103t103 43t103 -43t43 -103v-1132q0 -60 -43 -103t-103 -43h-230v-130q0 -60 -43 -103t-103 -43t-103 43t-43 103z" />
    <glyph glyph-name="afii10017" unicode="&#x410;" horiz-adv-x="1332" 
d="M666 1424q63 0 90 -64l496 -1192q10 -27 10 -52q0 -58 -40.5 -99t-97.5 -41q-47 0 -82 26t-52 70l-76 194h-498l-74 -194q-17 -44 -52 -70t-82 -26q-57 0 -97.5 41t-40.5 99q0 25 10 52l496 1192q27 64 90 64zM666 910l-160 -410h318z" />
    <glyph glyph-name="afii10018" unicode="&#x411;" horiz-adv-x="1090" 
d="M436 636v-368h82q104 0 164 46t60 138t-60 138t-164 46h-82zM814 1132h-378v-228h84q119 0 217 -35.5t162 -97.5t98.5 -144t34.5 -175t-34.5 -175t-98.5 -144t-162 -97.5t-217 -35.5h-230q-60 0 -103 43t-43 103v1108q0 60 43 103t103 43h524q56 0 95 -39t39 -95
q0 -57 -39 -95.5t-95 -38.5z" />
    <glyph glyph-name="afii10019" unicode="&#x412;" horiz-adv-x="1126" 
d="M532 0h-242q-60 0 -103 43t-43 103v1108q0 60 43 103t103 43h214q219 0 344.5 -102.5t125.5 -257.5q0 -98 -48 -174.5t-134 -117.5q121 -38 187.5 -132.5t66.5 -219.5q0 -173 -135 -284.5t-379 -111.5zM436 1150v-288h82q88 0 133 38.5t45 105.5t-45 105.5t-133 38.5h-82
zM436 622v-372h90q109 0 168.5 48.5t59.5 137.5q0 90 -59 138t-169 48h-90z" />
    <glyph glyph-name="afii10020" unicode="&#x413;" horiz-adv-x="914" 
d="M436 1132v-986q0 -60 -43 -103t-103 -43t-103 43t-43 103v1108q0 60 43 103t103 43h464q56 0 95 -39t39 -95q0 -57 -39 -95.5t-95 -38.5h-318z" />
    <glyph glyph-name="afii10021" unicode="&#x414;" horiz-adv-x="1310" 
d="M426 268h412v864h-258q-9 -500 -154 -864zM304 1254q0 60 43 103t103 43h534q60 0 103 -43t43 -103v-986q54 -6 90 -47t36 -97v-254q0 -60 -43 -103t-103 -43t-103 43t-43 103v130h-652v-130q0 -60 -43 -103t-103 -43t-103 43t-43 103v258q0 49 29 87.5t75 52.5
q180 412 180 986z" />
    <glyph glyph-name="afii10022" unicode="&#x415;" horiz-adv-x="1006" 
d="M802 0h-512q-60 0 -103 43t-43 103v1108q0 60 43 103t103 43h494q56 0 95 -39t39 -95t-39 -95t-95 -39h-348v-242h302q54 0 93 -39t39 -93t-39 -92t-93 -38h-302v-360h366q56 0 95 -39t39 -95t-39 -95t-95 -39z" />
    <glyph glyph-name="afii10024" unicode="&#x416;" horiz-adv-x="1864" 
d="M54 116q0 45 32 90l378 510l-338 496q-22 31 -22 74q0 57 40.5 97.5t97.5 40.5q75 0 116 -62l428 -650l-476 -676q-43 -60 -116 -60q-58 0 -99 41t-41 99zM932 -24q-60 0 -103 43t-43 103v1156q0 60 43 103t103 43t103 -43t43 -103v-1156q0 -60 -43 -103t-103 -43z
M1810 116q0 -58 -41 -99t-99 -41q-73 0 -116 60l-476 676l428 650q41 62 116 62q57 0 97.5 -40.5t40.5 -97.5q0 -43 -22 -74l-338 -496l378 -510q32 -45 32 -90z" />
    <glyph glyph-name="afii10025" unicode="&#x417;" horiz-adv-x="1112" 
d="M122 1138q0 44 26 80q72 98 172.5 152t217.5 54q177 0 289.5 -102t112.5 -250q0 -87 -41 -158.5t-113 -115.5q114 -51 180 -148t66 -228q0 -189 -139.5 -317.5t-356.5 -128.5q-255 0 -430 192q-40 43 -40 98q0 57 40 97.5t96 40.5q69 0 114 -58q81 -102 210 -102
q95 0 154.5 54.5t59.5 139.5q0 92 -61 142t-167 50h-24q-56 0 -95 39t-39 95q0 55 39 93.5t95 40.5q73 2 117.5 37.5t44.5 94.5q0 55 -40 90.5t-106 35.5q-85 0 -146 -82q-46 -60 -112 -60q-51 0 -87.5 36.5t-36.5 87.5z" />
    <glyph glyph-name="afii10026" unicode="&#x418;" horiz-adv-x="1476" 
d="M1040 846l-734 -834q-33 -36 -74 -36q-37 0 -62.5 26.5t-25.5 65.5v1210q0 60 43 103t103 43t103 -43t43 -103v-726l734 836q33 36 74 36q37 0 62.5 -26.5t25.5 -65.5v-1210q0 -60 -43 -103t-103 -43t-103 43t-43 103v724z" />
    <glyph glyph-name="afii10027" unicode="&#x419;" horiz-adv-x="1476" 
d="M1040 846l-734 -834q-33 -36 -74 -36q-37 0 -62.5 26.5t-25.5 65.5v1210q0 60 43 103t103 43t103 -43t43 -103v-726l734 836q33 36 74 36q37 0 62.5 -26.5t25.5 -65.5v-1210q0 -60 -43 -103t-103 -43t-103 43t-43 103v724zM738 1544q-94 0 -169 52t-113 144
q-10 23 -10 52q0 38 25.5 64t64.5 26q34 0 59.5 -19.5t36.5 -52.5q12 -37 40 -59.5t66 -22.5t66 22.5t40 59.5q11 33 36.5 52.5t59.5 19.5q39 0 64.5 -26t25.5 -64q0 -29 -10 -52q-38 -92 -113 -144t-169 -52z" />
    <glyph glyph-name="afii10028" unicode="&#x41a;" horiz-adv-x="1254" 
d="M436 712l460 646q46 66 116 66q54 0 94 -40t40 -94q0 -45 -28 -82l-364 -492l414 -518q32 -38 32 -86q0 -55 -41 -95.5t-97 -40.5q-68 0 -118 64zM144 122v1156q0 60 43 103t103 43t103 -43t43 -103v-1156q0 -60 -43 -103t-103 -43t-103 43t-43 103z" />
    <glyph glyph-name="afii10029" unicode="&#x41b;" horiz-adv-x="1420" 
d="M462 1400h668q60 0 103 -43t43 -103v-1132q0 -60 -43 -103t-103 -43t-103 43t-43 103v1010h-380l-30 -386q-36 -470 -256 -716q-48 -54 -120 -54q-58 0 -99 41t-41 99q0 47 26 82q167 218 192 532l40 528q5 61 46 101.5t100 40.5z" />
    <glyph glyph-name="afii10030" unicode="&#x41c;" horiz-adv-x="1930" 
d="M966 -24q-31 0 -54 16t-34 44l-324 800l-194 -754q-12 -48 -51.5 -78t-90.5 -30q-60 0 -102 42t-42 102q0 25 6 46l356 1194q8 29 32 47.5t56 18.5q31 0 54 -17t34 -45l354 -866l354 866q11 28 34 45t54 17q32 0 56 -18.5t32 -47.5l356 -1194q6 -21 6 -46q0 -60 -42 -102
t-102 -42q-51 0 -90.5 30t-51.5 78l-194 754l-324 -800q-11 -28 -34 -44t-54 -16z" />
    <glyph glyph-name="afii10031" unicode="&#x41d;" horiz-adv-x="1334" 
d="M144 122v1156q0 60 43 103t103 43t103 -43t43 -103v-392h462v392q0 60 43 103t103 43t103 -43t43 -103v-1156q0 -60 -43 -103t-103 -43t-103 43t-43 103v496h-462v-496q0 -60 -43 -103t-103 -43t-103 43t-43 103z" />
    <glyph glyph-name="afii10032" unicode="&#x41e;" horiz-adv-x="1664" 
d="M832 -24q-149 0 -285.5 55t-237.5 150t-161 230.5t-60 288.5t60 288.5t161 230.5t237.5 150t285.5 55t285.5 -55t237.5 -150t161 -230.5t60 -288.5t-60 -288.5t-161 -230.5t-237.5 -150t-285.5 -55zM832 244q189 0 320.5 130.5t131.5 325.5t-131.5 325.5t-320.5 130.5
t-320.5 -130.5t-131.5 -325.5t131.5 -325.5t320.5 -130.5z" />
    <glyph glyph-name="afii10033" unicode="&#x41f;" horiz-adv-x="1334" 
d="M898 122v1010h-462v-1010q0 -60 -43 -103t-103 -43t-103 43t-43 103v1132q0 60 43 103t103 43h754q60 0 103 -43t43 -103v-1132q0 -60 -43 -103t-103 -43t-103 43t-43 103z" />
    <glyph glyph-name="afii10034" unicode="&#x420;" horiz-adv-x="1094" 
d="M436 1132v-368h82q104 0 164 46t60 138t-60 138t-164 46h-82zM290 1400h230q119 0 217 -35.5t162 -97.5t98.5 -144t34.5 -175t-34.5 -175t-98.5 -144t-162 -97.5t-217 -35.5h-84v-374q0 -60 -43 -103t-103 -43t-103 43t-43 103v1132q0 60 43 103t103 43z" />
    <glyph glyph-name="afii10035" unicode="&#x421;" horiz-adv-x="1452" 
d="M88 700q0 153 60 289t160.5 230.5t235.5 149.5t282 55q153 0 287.5 -51t230.5 -145q40 -40 40 -98q0 -57 -40.5 -96.5t-97.5 -39.5t-100 40q-131 122 -314 122q-189 0 -320.5 -130.5t-131.5 -325.5t131.5 -325.5t320.5 -130.5q183 0 314 122q43 40 100 40t97.5 -39.5
t40.5 -96.5q0 -58 -40 -98q-96 -94 -230.5 -145t-287.5 -51q-147 0 -282 55t-235.5 149.5t-160.5 230.5t-60 289z" />
    <glyph glyph-name="afii10036" unicode="&#x422;" horiz-adv-x="1024" 
d="M160 1400h704q56 0 95 -39t39 -95t-39 -95t-95 -39h-206v-1010q0 -60 -43 -103t-103 -43t-103 43t-43 103v1010h-206q-56 0 -95 39t-39 95t39 95t95 39z" />
    <glyph glyph-name="afii10037" unicode="&#x423;" horiz-adv-x="1296" 
d="M78 1280q0 60 41 102t99 42q82 0 126 -76l314 -550l310 554q19 33 51 52.5t71 19.5q60 0 102 -42t42 -102q0 -38 -24 -80l-638 -1146q-42 -78 -130 -78q-58 0 -99 41t-41 99q0 39 18 72l186 324l-404 688q-24 39 -24 80z" />
    <glyph glyph-name="afii10038" unicode="&#x424;" horiz-adv-x="1772" 
d="M740 426v548h-58q-141 0 -229.5 -75.5t-88.5 -198.5t88.5 -198.5t229.5 -75.5h58zM1032 974v-548h58q141 0 229.5 75.5t88.5 198.5t-88.5 198.5t-229.5 75.5h-58zM740 104v56h-58q-172 0 -310.5 66.5t-219 190t-80.5 283.5t80.5 283.5t219 190t310.5 66.5h58v38
q0 60 43 103t103 43t103 -43t43 -103v-38h58q172 0 310.5 -66.5t219 -190t80.5 -283.5t-80.5 -283.5t-219 -190t-310.5 -66.5h-58v-56q0 -60 -43 -103t-103 -43t-103 43t-43 103z" />
    <glyph glyph-name="afii10039" unicode="&#x425;" horiz-adv-x="1308" 
d="M984 44l-330 450l-330 -450q-49 -68 -122 -68q-58 0 -99 40t-41 96q0 51 28 88l388 532l-344 470q-26 36 -26 82q0 58 41 99t99 41q69 0 112 -56l294 -398l294 398q43 56 112 56q58 0 99 -41t41 -99q0 -46 -26 -82l-344 -470l388 -532q28 -37 28 -88q0 -56 -41 -96
t-99 -40q-73 0 -122 68z" />
    <glyph glyph-name="afii10040" unicode="&#x426;" horiz-adv-x="1370" 
d="M1024 -130v130h-734q-60 0 -103 43t-43 103v1108q0 60 43 103t103 43t103 -43t43 -103v-986h462v986q0 60 43 103t103 43t103 -43t43 -103v-988q53 -8 89.5 -49t36.5 -95v-252q0 -60 -43 -103t-103 -43t-103 43t-43 103z" />
    <glyph glyph-name="afii10041" unicode="&#x427;" horiz-adv-x="1200" 
d="M118 960v318q0 60 43 103t103 43t103 -43t43 -103v-240q0 -238 200 -238q97 0 154 36v442q0 60 43 103t103 43t103 -43t43 -103v-1156q0 -60 -43 -103t-103 -43t-103 43t-43 103v472q-95 -62 -240 -62q-174 0 -290 113.5t-116 314.5z" />
    <glyph glyph-name="afii10042" unicode="&#x428;" horiz-adv-x="1916" 
d="M1626 0h-1336q-60 0 -103 43t-43 103v1108q0 60 43 103t103 43t103 -43t43 -103v-986h376v986q0 60 43 103t103 43t103 -43t43 -103v-986h376v986q0 60 43 103t103 43t103 -43t43 -103v-1108q0 -60 -43 -103t-103 -43z" />
    <glyph glyph-name="afii10043" unicode="&#x429;" horiz-adv-x="1952" 
d="M1480 268v986q0 60 43 103t103 43t103 -43t43 -103v-988q53 -8 89.5 -49t36.5 -95v-252q0 -60 -43 -103t-103 -43t-103 43t-43 103v130h-1316q-60 0 -103 43t-43 103v1108q0 60 43 103t103 43t103 -43t43 -103v-986h376v986q0 60 43 103t103 43t103 -43t43 -103v-986h376
z" />
    <glyph glyph-name="afii10044" unicode="&#x42a;" horiz-adv-x="1254" 
d="M614 636v-368h82q104 0 164 46t60 138t-60 138t-164 46h-82zM322 1132h-176q-56 0 -95 39t-39 95t39 95t95 39h322q60 0 103 -43t43 -103v-350h84q119 0 217 -35.5t162 -97.5t98.5 -144t34.5 -175t-34.5 -175t-98.5 -144t-162 -97.5t-217 -35.5h-230q-60 0 -103 43
t-43 103v986z" />
    <glyph glyph-name="afii10045" unicode="&#x42b;" horiz-adv-x="1632" 
d="M436 636v-368h82q104 0 164 46t60 138t-60 138t-164 46h-82zM520 0h-230q-60 0 -103 43t-43 103v1132q0 60 43 103t103 43t103 -43t43 -103v-374h84q119 0 217 -35.5t162 -97.5t98.5 -144t34.5 -175t-34.5 -175t-98.5 -144t-162 -97.5t-217 -35.5zM1196 122v1156
q0 60 43 103t103 43t103 -43t43 -103v-1156q0 -60 -43 -103t-103 -43t-103 43t-43 103z" />
    <glyph glyph-name="afii10046" unicode="&#x42c;" horiz-adv-x="1076" 
d="M436 636v-368h82q104 0 164 46t60 138t-60 138t-164 46h-82zM520 0h-230q-60 0 -103 43t-43 103v1132q0 60 43 103t103 43t103 -43t43 -103v-374h84q119 0 217 -35.5t162 -97.5t98.5 -144t34.5 -175t-34.5 -175t-98.5 -144t-162 -97.5t-217 -35.5z" />
    <glyph glyph-name="afii10047" unicode="&#x42d;" horiz-adv-x="1452" 
d="M1054 566h-558q-56 0 -95 39t-39 95t39 95t95 39h558q-42 145 -161 233.5t-273 88.5q-183 0 -314 -122q-43 -40 -100 -40t-97.5 39.5t-40.5 96.5q0 58 40 98q96 94 230.5 145t287.5 51q147 0 282 -55t235.5 -149.5t160.5 -230.5t60 -289t-60 -289t-160.5 -230.5
t-235.5 -149.5t-282 -55q-153 0 -287.5 51t-230.5 145q-40 40 -40 98q0 57 40.5 96.5t97.5 39.5t100 -40q131 -122 314 -122q154 0 273 88.5t161 233.5z" />
    <glyph glyph-name="afii10048" unicode="&#x42e;" horiz-adv-x="2180" 
d="M144 122v1156q0 60 43 103t103 43t103 -43t43 -103v-444h180q48 258 255 424t477 166q149 0 285.5 -55t237.5 -150t161 -230.5t60 -288.5t-60 -288.5t-161 -230.5t-237.5 -150t-285.5 -55q-270 0 -477 166t-255 424h-180v-444q0 -60 -43 -103t-103 -43t-103 43t-43 103z
M1348 244q189 0 320.5 130.5t131.5 325.5t-131.5 325.5t-320.5 130.5t-320.5 -130.5t-131.5 -325.5t131.5 -325.5t320.5 -130.5z" />
    <glyph glyph-name="afii10049" unicode="&#x42f;" horiz-adv-x="1166" 
d="M686 726q0 -10 -10 -30l-368 -644q-43 -76 -122 -76q-56 0 -95 38.5t-39 93.5q0 38 18 68l284 446q-210 123 -210 338q0 194 140 317t358 123h234q60 0 103 -43t43 -103v-1132q0 -60 -43 -103t-103 -43t-102 43t-42 103v1028h-86q-93 0 -152.5 -52.5t-59.5 -141.5
q0 -85 57 -135.5t145 -50.5h8q18 0 30 -13t12 -31z" />
    <glyph glyph-name="afii10065" unicode="&#x430;" horiz-adv-x="1274" 
d="M872 468q0 111 -77.5 180.5t-188.5 69.5t-188.5 -69.5t-77.5 -180.5t77.5 -180.5t188.5 -69.5t188.5 69.5t77.5 180.5zM878 108v14q-55 -69 -141 -107.5t-189 -38.5q-197 0 -334.5 142t-137.5 350t137.5 350t334.5 142q103 0 189 -38.5t141 -107.5v14q0 54 39 93t93 39
t93 -39t39 -93v-720q0 -54 -39 -93t-93 -39t-93 39t-39 93z" />
    <glyph glyph-name="afii10066" unicode="&#x431;" horiz-adv-x="1210" 
d="M394 848q46 44 117.5 72t154.5 28q130 0 237.5 -64.5t169 -175t61.5 -240.5q0 -208 -148 -350t-370 -142q-114 0 -210 39.5t-167 113.5t-111 187.5t-40 255.5q0 427 167.5 642t552.5 272q20 4 30 4q54 0 91 -37t37 -91q0 -48 -30.5 -83t-77.5 -42q-231 -32 -336.5 -128
t-127.5 -261zM362 468q0 -107 74.5 -178.5t179.5 -71.5t179.5 71.5t74.5 178.5t-74.5 178.5t-179.5 71.5t-179.5 -71.5t-74.5 -178.5z" />
    <glyph glyph-name="afii10067" unicode="&#x432;" horiz-adv-x="978" 
d="M396 216h152q50 0 79 20.5t29 61.5t-29 61.5t-79 20.5h-152v-164zM594 652q0 68 -90 68h-108v-136h108q90 0 90 68zM252 936h278q147 0 231.5 -72t84.5 -168q0 -124 -108 -184q82 -26 132 -87.5t50 -146.5q0 -125 -93 -201.5t-249 -76.5h-314q-54 0 -93 39t-39 93v684
q0 50 35 85t85 35z" />
    <glyph glyph-name="afii10068" unicode="&#x433;" horiz-adv-x="802" 
d="M396 696v-588q0 -54 -39 -93t-93 -39t-93 39t-39 93v708q0 50 35 85t85 35h400q50 0 85 -35t35 -85t-35 -85t-85 -35h-256z" />
    <glyph glyph-name="afii10069" unicode="&#x434;" horiz-adv-x="1082" 
d="M396 228h268v478h-156q-15 -253 -112 -478zM254 804q2 54 40 93t92 39h410q54 0 93 -39t39 -93v-576q46 -10 76 -46.5t30 -81.5v-204q0 -54 -39 -93t-93 -39t-93 39t-39 93v104h-480v-104q0 -54 -39 -93t-93 -39t-93 39t-39 93v212q0 39 23.5 72t62.5 48q130 262 142 576
z" />
    <glyph glyph-name="afii10070" unicode="&#x435;" horiz-adv-x="1160" 
d="M358 580h468q-21 68 -85 107t-151 39q-76 0 -141.5 -40.5t-90.5 -105.5zM984 390h-632q23 -84 91 -129t159 -45q123 0 200 74q49 46 102 46q52 0 88 -36t36 -88q0 -50 -34 -84q-72 -73 -175.5 -112.5t-222.5 -39.5q-108 0 -204 37.5t-165.5 102.5t-110 156.5t-40.5 195.5
q0 207 148.5 349.5t359.5 142.5q203 0 346.5 -134.5t155.5 -333.5v-8q0 -43 -28.5 -68.5t-73.5 -25.5z" />
    <glyph glyph-name="afii10072" unicode="&#x436;" horiz-adv-x="1596" 
d="M798 -24q-54 0 -93 39t-39 93v346l-384 -432q-39 -46 -98 -46q-50 0 -85 35t-35 85q0 49 32 84l298 316l-258 262q-32 32 -32 82t34.5 85t83.5 35q53 0 94 -44l350 -374v286q0 54 39 93t93 39t93 -39t39 -93v-286l350 374q41 44 94 44q49 0 83.5 -35t34.5 -85t-32 -82
l-258 -262l298 -316q32 -35 32 -84q0 -50 -35 -85t-85 -35q-59 0 -98 46l-384 432v-346q0 -54 -39 -93t-93 -39z" />
    <glyph glyph-name="afii10073" unicode="&#x437;" horiz-adv-x="868" 
d="M48 192q0 51 35.5 87.5t84.5 36.5q52 0 92 -40q75 -72 162 -72q57 0 90.5 22.5t33.5 63.5q0 48 -37 74t-107 26h-34q-45 0 -77.5 32.5t-32.5 77.5t32.5 77.5t77.5 32.5h24q53 0 80.5 17.5t27.5 48.5t-26.5 48.5t-71.5 17.5q-68 0 -124 -50q-40 -34 -82 -34q-44 0 -74 30
t-30 74q0 46 34 80q121 118 306 118q147 0 234.5 -74t87.5 -172q0 -117 -100 -186q75 -39 115.5 -104.5t40.5 -149.5q0 -124 -104.5 -211t-279.5 -87q-189 0 -328 118q-50 41 -50 98z" />
    <glyph glyph-name="afii10074" unicode="&#x438;" horiz-adv-x="1154" 
d="M130 828q0 54 39 93t93 39t93 -39t39 -93v-392l516 506q21 18 46 18q28 0 48 -20t20 -48v-784q0 -54 -39 -93t-93 -39t-93 39t-39 93v392l-516 -506q-21 -18 -46 -18q-28 0 -48 20t-20 48v784z" />
    <glyph glyph-name="afii10075" unicode="&#x439;" horiz-adv-x="1154" 
d="M130 828q0 54 39 93t93 39t93 -39t39 -93v-392l516 506q21 18 46 18q28 0 48 -20t20 -48v-784q0 -54 -39 -93t-93 -39t-93 39t-39 93v392l-516 -506q-21 -18 -46 -18q-28 0 -48 20t-20 48v784zM576 1096q-94 0 -169 52t-113 144q-10 23 -10 52q0 38 25.5 64t64.5 26
q34 0 59.5 -19.5t36.5 -52.5q12 -37 40 -59.5t66 -22.5t66 22.5t40 59.5q11 33 36.5 52.5t59.5 19.5q39 0 64.5 -26t25.5 -64q0 -29 -10 -52q-38 -92 -113 -144t-169 -52z" />
    <glyph glyph-name="afii10076" unicode="&#x43a;" horiz-adv-x="1092" 
d="M130 108v720q0 54 39 93t93 39t93 -39t39 -93v-304l386 396q40 40 88 40q51 0 85.5 -34.5t34.5 -85.5q0 -48 -36 -84l-268 -262l308 -312q36 -36 36 -88q0 -51 -35.5 -84.5t-88.5 -33.5q-54 0 -92 42l-418 452v-362q0 -54 -39 -93t-93 -39t-93 39t-39 93z" />
    <glyph glyph-name="afii10077" unicode="&#x43b;" horiz-adv-x="1164" 
d="M68 102q0 42 22 70q94 116 106 240l38 392q5 55 42 93.5t90 38.5h534q54 0 93 -39t39 -93v-696q0 -54 -39 -93t-93 -39t-93 39t-39 93v588h-268l-30 -296q-23 -239 -178 -384q-43 -40 -98 -40q-51 0 -88.5 37.5t-37.5 88.5z" />
    <glyph glyph-name="afii10078" unicode="&#x43c;" horiz-adv-x="1440" 
d="M1084 918l278 -752q16 -40 16 -62q0 -52 -38 -90t-90 -38q-40 0 -74 24t-48 62l-134 374l-216 -424q-20 -36 -58 -36t-58 36l-216 424l-134 -374q-14 -38 -48 -62t-74 -24q-52 0 -90 38t-38 90q0 22 16 62l278 752q16 42 56 42q37 0 54 -34l254 -502l254 502q17 34 54 34
q40 0 56 -42z" />
    <glyph glyph-name="afii10079" unicode="&#x43d;" horiz-adv-x="1120" 
d="M130 108v720q0 54 39 93t93 39t93 -39t39 -93v-206h332v206q0 54 39 93t93 39t93 -39t39 -93v-720q0 -54 -39 -93t-93 -39t-93 39t-39 93v274h-332v-274q0 -54 -39 -93t-93 -39t-93 39t-39 93z" />
    <glyph glyph-name="afii10080" unicode="&#x43e;" horiz-adv-x="1188" 
d="M340 468q0 -107 74.5 -178.5t179.5 -71.5t179.5 71.5t74.5 178.5t-74.5 178.5t-179.5 71.5t-179.5 -71.5t-74.5 -178.5zM76 468q0 207 149.5 349.5t368.5 142.5t368.5 -142.5t149.5 -349.5t-149.5 -349.5t-368.5 -142.5t-368.5 142.5t-149.5 349.5z" />
    <glyph glyph-name="afii10081" unicode="&#x43f;" horiz-adv-x="1120" 
d="M262 936h596q54 0 93 -39t39 -93v-696q0 -54 -39 -93t-93 -39t-93 39t-39 93v588h-332v-588q0 -54 -39 -93t-93 -39t-93 39t-39 93v696q0 54 39 93t93 39z" />
    <glyph glyph-name="afii10082" unicode="&#x440;" horiz-adv-x="1274" 
d="M402 468q0 -111 77.5 -180.5t188.5 -69.5t188.5 69.5t77.5 180.5t-77.5 180.5t-188.5 69.5t-188.5 -69.5t-77.5 -180.5zM396 828v-14q55 69 141 107.5t189 38.5q197 0 334.5 -142t137.5 -350t-137.5 -350t-334.5 -142q-103 0 -189 38.5t-141 107.5v-575q0 -54 -39 -93
t-93 -39t-93 39t-39 93v1281q0 54 39 93t93 39t93 -39t39 -93z" />
    <glyph glyph-name="afii10083" unicode="&#x441;" horiz-adv-x="1024" 
d="M76 468q0 135 69 248.5t186.5 178.5t256.5 65q191 0 332 -116q56 -45 56 -104q0 -51 -36.5 -86.5t-87.5 -35.5q-46 0 -86 34q-78 66 -176 66q-102 0 -175 -71t-73 -179t73 -179t175 -71q98 0 176 66q40 34 86 34q51 0 87.5 -35.5t36.5 -86.5q0 -59 -56 -104
q-141 -116 -332 -116q-139 0 -256.5 65t-186.5 178.5t-69 248.5z" />
    <glyph glyph-name="afii10084" unicode="&#x442;" horiz-adv-x="900" 
d="M318 696h-168q-50 0 -85 35t-35 85t35 85t85 35h600q50 0 85 -35t35 -85t-35 -85t-85 -35h-168v-588q0 -54 -39 -93t-93 -39t-93 39t-39 93v588z" />
    <glyph glyph-name="afii10085" unicode="&#x443;" horiz-adv-x="1052" 
d="M524 342l196 536q14 37 46 59.5t72 22.5q56 0 94 -38t38 -94q0 -22 -6 -40l-490 -1290q-15 -39 -48 -61.5t-78 -22.5q-54 0 -91 37t-37 91q0 27 10 54l168 432l-306 756q-8 19 -8 46q0 54 37 92t89 38q43 0 76 -24.5t48 -65.5z" />
    <glyph glyph-name="afii10086" unicode="&#x444;" horiz-adv-x="2020" 
d="M1148 468q0 -111 77.5 -180.5t188.5 -69.5t188.5 69.5t77.5 180.5t-77.5 180.5t-188.5 69.5t-188.5 -69.5t-77.5 -180.5zM872 468q0 111 -77.5 180.5t-188.5 69.5t-188.5 -69.5t-77.5 -180.5t77.5 -180.5t188.5 -69.5t188.5 69.5t77.5 180.5zM1142 1392v-578
q55 69 141 107.5t189 38.5q197 0 334.5 -142t137.5 -350t-137.5 -350t-334.5 -142q-103 0 -189 38.5t-141 107.5v-576q0 -54 -39 -93t-93 -39t-93 39t-39 93v576q-55 -69 -141 -107.5t-189 -38.5q-197 0 -334.5 142t-137.5 350t137.5 350t334.5 142q103 0 189 -38.5
t141 -107.5v578q0 54 39 93t93 39t93 -39t39 -93z" />
    <glyph glyph-name="afii10087" unicode="&#x445;" horiz-adv-x="1004" 
d="M502 310l-202 -282q-36 -52 -102 -52q-52 0 -88 36t-36 88q0 43 28 80l224 306l-200 274q-24 34 -24 76q0 51 36 87.5t88 36.5q64 0 104 -56l172 -244l172 244q40 56 104 56q52 0 88 -36.5t36 -87.5q0 -42 -24 -76l-200 -274l224 -306q28 -37 28 -80q0 -52 -36 -88
t-88 -36q-66 0 -102 52z" />
    <glyph glyph-name="afii10088" unicode="&#x446;" horiz-adv-x="1144" 
d="M832 -104v104h-570q-54 0 -93 39t-39 93v696q0 54 39 93t93 39t93 -39t39 -93v-588h332v588q0 54 39 93t93 39t93 -39t39 -93v-612q43 -8 74.5 -44t31.5 -84v-192q0 -54 -39 -93t-93 -39t-93 39t-39 93z" />
    <glyph glyph-name="afii10089" unicode="&#x447;" horiz-adv-x="1078" 
d="M682 108v188q-78 -50 -208 -50q-72 0 -137.5 25t-116.5 72.5t-81.5 123t-30.5 169.5v192q0 54 39 93t93 39t93 -39t39 -93v-128q0 -110 44.5 -162t133.5 -52q79 0 132 28v314q0 54 39 93t93 39t93 -39t39 -93v-720q0 -54 -39 -93t-93 -39t-93 39t-39 93z" />
    <glyph glyph-name="afii10090" unicode="&#x448;" horiz-adv-x="1620" 
d="M1226 240v588q0 54 39 93t93 39t93 -39t39 -93v-696q0 -54 -39 -93t-93 -39h-1096q-54 0 -93 39t-39 93v696q0 54 39 93t93 39t93 -39t39 -93v-588h284v588q0 54 39 93t93 39t93 -39t39 -93v-588h284z" />
    <glyph glyph-name="afii10091" unicode="&#x449;" horiz-adv-x="1644" 
d="M1332 0h-1070q-54 0 -93 39t-39 93v696q0 54 39 93t93 39t93 -39t39 -93v-588h284v588q0 54 39 93t93 39t93 -39t39 -93v-588h284v588q0 54 39 93t93 39t93 -39t39 -93v-612q43 -8 74.5 -44t31.5 -84v-192q0 -54 -39 -93t-93 -39t-93 39t-39 93v104z" />
    <glyph glyph-name="afii10092" unicode="&#x44a;" horiz-adv-x="1108" 
d="M536 220h122q71 0 107.5 31.5t36.5 84.5q0 54 -36.5 86t-107.5 32h-122v-234zM142 936h262q54 0 93 -39t39 -93v-130h138q179 0 285.5 -95t106.5 -243q0 -147 -108.5 -241.5t-283.5 -94.5h-270q-54 0 -93 39t-39 93v564h-130q-50 0 -85 35t-35 85t35 85t85 35z" />
    <glyph glyph-name="afii10093" unicode="&#x44b;" horiz-adv-x="1446" 
d="M396 220h122q71 0 107.5 31.5t36.5 84.5q0 54 -36.5 86t-107.5 32h-122v-234zM396 828v-154h138q179 0 285.5 -95t106.5 -243q0 -147 -108.5 -241.5t-283.5 -94.5h-270q-54 0 -93 39t-39 93v696q0 54 39 93t93 39t93 -39t39 -93zM1050 108v720q0 54 39 93t93 39t93 -39
t39 -93v-720q0 -54 -39 -93t-93 -39t-93 39t-39 93z" />
    <glyph glyph-name="afii10094" unicode="&#x44c;" horiz-adv-x="968" 
d="M396 220h122q71 0 107.5 31.5t36.5 84.5q0 54 -36.5 86t-107.5 32h-122v-234zM396 828v-154h138q179 0 285.5 -95t106.5 -243q0 -147 -108.5 -241.5t-283.5 -94.5h-270q-54 0 -93 39t-39 93v696q0 54 39 93t93 39t93 -39t39 -93z" />
    <glyph glyph-name="afii10095" unicode="&#x44d;" horiz-adv-x="1024" 
d="M656 352h-278q-48 0 -82 34t-34 82t34 82t82 34h278q-32 62 -91 98t-131 36q-98 0 -176 -66q-40 -34 -86 -34q-51 0 -87.5 35.5t-36.5 86.5q0 59 56 104q141 116 332 116q139 0 256.5 -65t186.5 -178.5t69 -248.5t-69 -248.5t-186.5 -178.5t-256.5 -65q-191 0 -332 116
q-56 45 -56 104q0 51 36.5 86.5t87.5 35.5q46 0 86 -34q78 -66 176 -66q72 0 131 36t91 98z" />
    <glyph glyph-name="afii10096" unicode="&#x44e;" horiz-adv-x="1600" 
d="M132 108v720q0 54 39 93t93 39t93 -39t39 -93v-252h104q38 168 178 276t328 108q219 0 368.5 -142.5t149.5 -349.5t-149.5 -349.5t-368.5 -142.5q-182 0 -320 101.5t-182 262.5h-108v-232q0 -54 -39 -93t-93 -39t-93 39t-39 93zM752 468q0 -107 74.5 -178.5t179.5 -71.5
t179.5 71.5t74.5 178.5t-74.5 178.5t-179.5 71.5t-179.5 -71.5t-74.5 -178.5z" />
    <glyph glyph-name="afii10097" unicode="&#x44f;" horiz-adv-x="990" 
d="M84 94q0 37 22 68l146 212q-134 90 -134 244q0 146 107 232t265 86h236q54 0 93 -39t39 -93v-696q0 -54 -39 -93t-93 -39t-93 39t-39 93v592h-106q-49 0 -77.5 -26.5t-28.5 -67.5t28.5 -67.5t77.5 -26.5h50q17 0 28.5 -11t11.5 -27t-12 -34l-260 -400q-42 -64 -104 -64
q-50 0 -84 34t-34 84z" />
    <glyph glyph-name="uni0450" unicode="&#x450;" horiz-adv-x="1160" 
d="M358 580h468q-21 68 -85 107t-151 39q-76 0 -141.5 -40.5t-90.5 -105.5zM984 390h-632q23 -84 91 -129t159 -45q123 0 200 74q49 46 102 46q52 0 88 -36t36 -88q0 -50 -34 -84q-72 -73 -175.5 -112.5t-222.5 -39.5q-108 0 -204 37.5t-165.5 102.5t-110 156.5t-40.5 195.5
q0 207 148.5 349.5t359.5 142.5q203 0 346.5 -134.5t155.5 -333.5v-8q0 -43 -28.5 -68.5t-73.5 -25.5zM338 1368q0 38 27 65t65 27q35 0 60 -22l244 -214q40 -36 40 -74q0 -36 -28 -64t-66 -28q-33 0 -60 24l-248 214q-34 28 -34 72z" />
    <glyph glyph-name="afii10071" unicode="&#x451;" horiz-adv-x="1160" 
d="M358 580h468q-21 68 -85 107t-151 39q-76 0 -141.5 -40.5t-90.5 -105.5zM984 390h-632q23 -84 91 -129t159 -45q123 0 200 74q49 46 102 46q52 0 88 -36t36 -88q0 -50 -34 -84q-72 -73 -175.5 -112.5t-222.5 -39.5q-108 0 -204 37.5t-165.5 102.5t-110 156.5t-40.5 195.5
q0 207 148.5 349.5t359.5 142.5q203 0 346.5 -134.5t155.5 -333.5v-8q0 -43 -28.5 -68.5t-73.5 -25.5zM376 1130q-52 0 -90 38t-38 90t38 90t90 38t90 -38t38 -90t-38 -90t-90 -38zM768 1130q-52 0 -90 38t-38 90t38 90t90 38t90 -38t38 -90t-38 -90t-90 -38z" />
    <glyph glyph-name="afii10099" unicode="&#x452;" horiz-adv-x="1132" 
d="M744 -160v712q0 80 -47 129t-121 49t-121 -49t-47 -129v-444q0 -54 -39 -93t-93 -39t-93 39t-39 93v1056h-66q-36 0 -61 25t-25 61t25 62t61 26h66v54q0 54 39 93t93 39t93 -39t39 -93v-54h232q36 0 61 -26t25 -62t-25 -61t-61 -25h-232v-336q103 132 274 132
q139 0 232.5 -95.5t93.5 -250.5v-774q0 -194 -85 -299t-253 -105q-140 0 -240 88q-38 35 -38 84q0 45 31.5 76.5t76.5 31.5q41 0 70 -26q34 -28 76 -28q52 0 75 42t23 136z" />
    <glyph glyph-name="afii10100" unicode="&#x453;" horiz-adv-x="802" 
d="M396 108v588h256q50 0 85 35t35 85t-35 85t-85 35h-400q-50 0 -85 -35t-35 -85v-708q0 -54 39 -93t93 -39t93 39t39 93zM672 1408q0 -44 -34 -72l-248 -214q-27 -24 -60 -24q-38 0 -66 28t-28 64q0 38 40 74l244 214q25 22 60 22q38 0 65 -27t27 -65z" />
    <glyph glyph-name="afii10101" unicode="&#x454;" horiz-adv-x="1024" 
d="M646 352h-278q32 -62 91 -98t131 -36q98 0 176 66q40 34 86 34q51 0 87.5 -35.5t36.5 -86.5q0 -59 -56 -104q-141 -116 -332 -116q-139 0 -256.5 65t-186.5 178.5t-69 248.5t69 248.5t186.5 178.5t256.5 65q191 0 332 -116q56 -45 56 -104q0 -51 -36.5 -86.5t-87.5 -35.5
q-46 0 -86 34q-78 66 -176 66q-72 0 -131 -36t-91 -98h278q48 0 82 -34t34 -82t-34 -82t-82 -34z" />
    <glyph glyph-name="afii10102" unicode="&#x455;" horiz-adv-x="814" 
d="M58 184q0 44 30 75t72 31t82 -40q60 -60 128 -60q50 0 79 24.5t29 65.5q0 45 -28.5 74.5t-101.5 59.5q-236 99 -236 284q0 114 84 188t216 74q137 0 235 -85q41 -34 41 -79q0 -39 -29.5 -67.5t-70.5 -28.5q-32 0 -56 18q-40 30 -82 30q-35 0 -54.5 -14.5t-19.5 -39.5
q0 -31 28 -53.5t104 -55.5q236 -101 236 -301q0 -135 -89 -221.5t-251 -86.5q-90 0 -173 34.5t-144 98.5q-29 32 -29 75z" />
    <glyph glyph-name="afii10103" unicode="&#x456;" horiz-adv-x="548" 
d="M274 1134q-66 0 -114 47t-48 113t48 113t114 47t114 -47t48 -113t-48 -113t-114 -47zM142 108v720q0 54 39 93t93 39t93 -39t39 -93v-720q0 -54 -39 -93t-93 -39t-93 39t-39 93z" />
    <glyph glyph-name="afii10104" unicode="&#x457;" horiz-adv-x="548" 
d="M142 108v720q0 54 39 93t93 39t93 -39t39 -93v-720q0 -54 -39 -93t-93 -39t-93 39t-39 93zM78 1130q-52 0 -90 38t-38 90t38 90t90 38t90 -38t38 -90t-38 -90t-90 -38zM470 1130q-52 0 -90 38t-38 90t38 90t90 38t90 -38t38 -90t-38 -90t-90 -38z" />
    <glyph glyph-name="afii10105" unicode="&#x458;" horiz-adv-x="566" 
d="M-264 -368q0 48 34 82t82 34q43 0 86 -36q53 -46 104 -46q61 0 93.5 48t32.5 140v974q0 54 39 93t93 39t93 -39t39 -93v-978q0 -195 -99.5 -304.5t-280.5 -109.5q-73 0 -145 26.5t-124 72.5q-47 44 -47 97zM300 1134q-66 0 -114 47t-48 113t48 113t114 47t114 -47
t48 -113t-48 -113t-114 -47z" />
    <glyph glyph-name="afii10106" unicode="&#x459;" horiz-adv-x="1584" 
d="M1012 220h122q71 0 107.5 31.5t36.5 84.5q0 54 -36.5 86t-107.5 32h-122v-234zM748 132v564h-248l-30 -296q-23 -239 -178 -384q-43 -40 -98 -40q-51 0 -88.5 37.5t-37.5 88.5q0 42 22 70q94 116 106 240l38 392q5 55 42 93.5t90 38.5h514q54 0 93 -39t39 -93v-130h138
q179 0 285.5 -95t106.5 -243q0 -147 -108.5 -241.5t-283.5 -94.5h-270q-54 0 -93 39t-39 93z" />
    <glyph glyph-name="afii10107" unicode="&#x45a;" horiz-adv-x="1542" 
d="M130 108v720q0 54 39 93t93 39t93 -39t39 -93v-206h312v206q0 54 39 93t93 39t93 -39t39 -93v-154h138q179 0 285.5 -95t106.5 -243q0 -147 -108.5 -241.5t-283.5 -94.5h-270q-54 0 -93 39t-39 93v250h-312v-274q0 -54 -39 -93t-93 -39t-93 39t-39 93zM970 220h122
q71 0 107.5 31.5t36.5 84.5q0 54 -36.5 86t-107.5 32h-122v-234z" />
    <glyph glyph-name="afii10108" unicode="&#x45b;" horiz-adv-x="1132" 
d="M640 1164h-232v-336q103 132 274 132q139 0 232.5 -95.5t93.5 -250.5v-506q0 -54 -39 -93t-93 -39t-93 39t-39 93v444q0 80 -47 129t-121 49t-121 -49t-47 -129v-444q0 -54 -39 -93t-93 -39t-93 39t-39 93v1056h-66q-36 0 -61 25t-25 61t25 62t61 26h66v54q0 54 39 93
t93 39t93 -39t39 -93v-54h232q36 0 61 -26t25 -62t-25 -61t-61 -25z" />
    <glyph glyph-name="afii10109" unicode="&#x45c;" horiz-adv-x="1092" 
d="M130 108v720q0 54 39 93t93 39t93 -39t39 -93v-304l386 396q40 40 88 40q51 0 85.5 -34.5t34.5 -85.5q0 -48 -36 -84l-268 -262l308 -312q36 -36 36 -88q0 -51 -35.5 -84.5t-88.5 -33.5q-54 0 -92 42l-418 452v-362q0 -54 -39 -93t-93 -39t-93 39t-39 93zM790 1408
q0 -44 -34 -72l-248 -214q-27 -24 -60 -24q-38 0 -66 28t-28 64q0 38 40 74l244 214q25 22 60 22q38 0 65 -27t27 -65z" />
    <glyph glyph-name="uni045D" unicode="&#x45d;" horiz-adv-x="1154" 
d="M130 828q0 54 39 93t93 39t93 -39t39 -93v-392l516 506q21 18 46 18q28 0 48 -20t20 -48v-784q0 -54 -39 -93t-93 -39t-93 39t-39 93v392l-516 -506q-21 -18 -46 -18q-28 0 -48 20t-20 48v784zM358 1408q0 38 27 65t65 27q35 0 60 -22l244 -214q40 -36 40 -74
q0 -36 -28 -64t-66 -28q-33 0 -60 24l-248 214q-34 28 -34 72z" />
    <glyph glyph-name="afii10110" unicode="&#x45e;" horiz-adv-x="1052" 
d="M524 342l196 536q14 37 46 59.5t72 22.5q56 0 94 -38t38 -94q0 -22 -6 -40l-490 -1290q-15 -39 -48 -61.5t-78 -22.5q-54 0 -91 37t-37 91q0 27 10 54l168 432l-306 756q-8 19 -8 46q0 54 37 92t89 38q43 0 76 -24.5t48 -65.5zM522 1116q-94 0 -169 52t-113 144
q-10 23 -10 52q0 38 25.5 64t64.5 26q34 0 59.5 -19.5t36.5 -52.5q12 -37 40 -59.5t66 -22.5t66 22.5t40 59.5q11 33 36.5 52.5t59.5 19.5q39 0 64.5 -26t25.5 -64q0 -29 -10 -52q-38 -92 -113 -144t-169 -52z" />
    <glyph glyph-name="afii10193" unicode="&#x45f;" horiz-adv-x="1120" 
d="M428 0h-166q-54 0 -93 39t-39 93v696q0 54 39 93t93 39t93 -39t39 -93v-588h332v588q0 54 39 93t93 39t93 -39t39 -93v-696q0 -54 -39 -93t-93 -39h-166v-104q0 -54 -39 -93t-93 -39t-93 39t-39 93v104z" />
    <glyph glyph-name="afii10050" unicode="&#x490;" horiz-adv-x="914" 
d="M864 1556v-290q0 -57 -39 -95.5t-95 -38.5h-294v-986q0 -60 -43 -103t-103 -43t-103 43t-43 103v1108q0 60 43 103t103 43h294v156q0 58 41 99t99 41t99 -41t41 -99z" />
    <glyph glyph-name="afii10098" unicode="&#x491;" horiz-adv-x="802" 
d="M494 936v128q0 53 37 90.5t89 37.5t90 -38t38 -90v-248q0 -50 -35 -85t-85 -35h-232v-588q0 -54 -39 -93t-93 -39t-93 39t-39 93v708q0 50 35 85t85 35h242z" />
    <glyph glyph-name="Wgrave" unicode="&#x1e80;" horiz-adv-x="2016" 
d="M1008 1424q31 0 55 -18t35 -48l298 -820l266 782q36 104 138 104q59 0 99.5 -41t40.5 -101q0 -26 -8 -48l-442 -1192q-25 -66 -90 -66q-68 0 -92 68l-300 828l-300 -828q-24 -68 -92 -68q-65 0 -90 66l-442 1192q-8 22 -8 48q0 60 40.5 101t99.5 41q102 0 138 -104
l266 -782l298 820q11 30 35 48t55 18zM684 1816q0 38 27 65t65 27q35 0 60 -22l244 -214q40 -36 40 -74q0 -36 -28 -64t-66 -28q-33 0 -60 24l-248 214q-34 28 -34 72z" />
    <glyph glyph-name="wgrave" unicode="&#x1e81;" horiz-adv-x="1580" 
d="M790 960q60 0 88 -62l214 -494l178 478q13 35 46.5 56.5t71.5 21.5q51 0 87.5 -37t36.5 -91q0 -27 -10 -50l-334 -748q-26 -58 -82 -58q-29 0 -52 16t-34 42l-210 510l-210 -510q-11 -26 -34 -42t-52 -16q-56 0 -82 58l-334 748q-10 23 -10 50q0 54 36.5 91t87.5 37
q38 0 71.5 -21.5t46.5 -56.5l178 -478l214 494q28 62 88 62zM466 1368q0 38 27 65t65 27q35 0 60 -22l244 -214q40 -36 40 -74q0 -36 -28 -64t-66 -28q-33 0 -60 24l-248 214q-34 28 -34 72z" />
    <glyph glyph-name="Wacute" unicode="&#x1e82;" horiz-adv-x="2016" 
d="M1008 1424q31 0 55 -18t35 -48l298 -820l266 782q36 104 138 104q59 0 99.5 -41t40.5 -101q0 -26 -8 -48l-442 -1192q-25 -66 -90 -66q-68 0 -92 68l-300 828l-300 -828q-24 -68 -92 -68q-65 0 -90 66l-442 1192q-8 22 -8 48q0 60 40.5 101t99.5 41q102 0 138 -104
l266 -782l298 820q11 30 35 48t55 18zM1332 1816q0 -44 -34 -72l-248 -214q-27 -24 -60 -24q-38 0 -66 28t-28 64q0 38 40 74l244 214q25 22 60 22q38 0 65 -27t27 -65z" />
    <glyph glyph-name="wacute" unicode="&#x1e83;" horiz-adv-x="1580" 
d="M790 960q60 0 88 -62l214 -494l178 478q13 35 46.5 56.5t71.5 21.5q51 0 87.5 -37t36.5 -91q0 -27 -10 -50l-334 -748q-26 -58 -82 -58q-29 0 -52 16t-34 42l-210 510l-210 -510q-11 -26 -34 -42t-52 -16q-56 0 -82 58l-334 748q-10 23 -10 50q0 54 36.5 91t87.5 37
q38 0 71.5 -21.5t46.5 -56.5l178 -478l214 494q28 62 88 62zM1110 1368q0 -44 -34 -72l-248 -214q-27 -24 -60 -24q-38 0 -66 28t-28 64q0 38 40 74l244 214q25 22 60 22q38 0 65 -27t27 -65z" />
    <glyph glyph-name="Wdieresis" unicode="&#x1e84;" horiz-adv-x="2016" 
d="M1008 1424q31 0 55 -18t35 -48l298 -820l266 782q36 104 138 104q59 0 99.5 -41t40.5 -101q0 -26 -8 -48l-442 -1192q-25 -66 -90 -66q-68 0 -92 68l-300 828l-300 -828q-24 -68 -92 -68q-65 0 -90 66l-442 1192q-8 22 -8 48q0 60 40.5 101t99.5 41q102 0 138 -104
l266 -782l298 820q11 30 35 48t55 18zM812 1578q-52 0 -90 38t-38 90t38 90t90 38t90 -38t38 -90t-38 -90t-90 -38zM1204 1578q-52 0 -90 38t-38 90t38 90t90 38t90 -38t38 -90t-38 -90t-90 -38z" />
    <glyph glyph-name="wdieresis" unicode="&#x1e85;" horiz-adv-x="1580" 
d="M790 960q60 0 88 -62l214 -494l178 478q13 35 46.5 56.5t71.5 21.5q51 0 87.5 -37t36.5 -91q0 -27 -10 -50l-334 -748q-26 -58 -82 -58q-29 0 -52 16t-34 42l-210 510l-210 -510q-11 -26 -34 -42t-52 -16q-56 0 -82 58l-334 748q-10 23 -10 50q0 54 36.5 91t87.5 37
q38 0 71.5 -21.5t46.5 -56.5l178 -478l214 494q28 62 88 62zM594 1130q-52 0 -90 38t-38 90t38 90t90 38t90 -38t38 -90t-38 -90t-90 -38zM986 1130q-52 0 -90 38t-38 90t38 90t90 38t90 -38t38 -90t-38 -90t-90 -38z" />
    <glyph glyph-name="uni1E9E" unicode="&#x1e9e;" horiz-adv-x="1236" 
d="M480 118q0 51 36.5 87.5t87.5 36.5q12 0 32 -4q32 -8 56 -8q82 0 132 44t50 126q0 84 -57 142t-169 79q-45 8 -74.5 43.5t-29.5 83.5q0 42 23 75t61 47q110 42 110 150q0 60 -42.5 98t-107.5 38q-80 0 -125 -55t-45 -145v-834q0 -60 -43 -103t-103 -43t-103 43t-43 103
v858q0 197 128 320.5t334 123.5q195 0 318.5 -103.5t123.5 -258.5q0 -100 -55 -175t-153 -115q155 -32 249.5 -134.5t94.5 -249.5q0 -182 -116.5 -297t-315.5 -115q-95 0 -170 24q-37 12 -60.5 44.5t-23.5 73.5z" />
    <glyph glyph-name="Ygrave" unicode="&#x1ef2;" horiz-adv-x="1304" 
d="M652 -24q-60 0 -103 43t-43 103v430l-400 644q-28 46 -28 90q0 56 43 97t103 41q40 0 72.5 -23.5t53.5 -60.5l302 -518l302 518q21 37 53.5 60.5t72.5 23.5q60 0 103 -41t43 -97q0 -44 -28 -90l-400 -644v-430q0 -60 -43 -103t-103 -43zM368 1816q0 38 27 65t65 27
q35 0 60 -22l244 -214q40 -36 40 -74q0 -36 -28 -64t-66 -28q-33 0 -60 24l-248 214q-34 28 -34 72z" />
    <glyph glyph-name="ygrave" unicode="&#x1ef3;" horiz-adv-x="1052" 
d="M524 342l196 536q14 37 46 59.5t72 22.5q56 0 94 -38t38 -94q0 -22 -6 -40l-490 -1290q-15 -39 -48 -61.5t-78 -22.5q-54 0 -91 37t-37 91q0 27 10 54l168 432l-306 756q-8 19 -8 46q0 54 37 92t89 38q43 0 76 -24.5t48 -65.5zM284 1368q0 38 27 65t65 27q35 0 60 -22
l244 -214q40 -36 40 -74q0 -36 -28 -64t-66 -28q-33 0 -60 24l-248 214q-34 28 -34 72z" />
    <glyph glyph-name="thinspace" unicode="&#x2009;" horiz-adv-x="0" 
 />
    <glyph glyph-name="figuredash" unicode="&#x2012;" horiz-adv-x="1252" 
d="M220 776h812q46 0 79 -33t33 -79t-33 -79t-79 -33h-812q-46 0 -79 33t-33 79t33 79t79 33z" />
    <glyph glyph-name="endash" unicode="&#x2013;" horiz-adv-x="1000" 
d="M88 776h824q46 0 79 -33t33 -79t-33 -79t-79 -33h-824q-46 0 -79 33t-33 79t33 79t79 33z" />
    <glyph glyph-name="emdash" unicode="&#x2014;" horiz-adv-x="2000" 
d="M88 776h1824q46 0 79 -33t33 -79t-33 -79t-79 -33h-1824q-46 0 -79 33t-33 79t33 79t79 33z" />
    <glyph glyph-name="uni2015" unicode="&#x2015;" horiz-adv-x="2000" 
d="M288 776h1424q46 0 79 -33t33 -79t-33 -79t-79 -33h-1424q-46 0 -79 33t-33 79t33 79t79 33z" />
    <glyph glyph-name="quoteleft" unicode="&#x2018;" horiz-adv-x="620" 
d="M440 1052q-12 -43 -47 -70.5t-81 -27.5q-56 0 -96 39.5t-40 94.5q0 25 8 44l150 378q31 80 102 80q45 0 76.5 -29t31.5 -77q0 -10 -4 -30z" />
    <glyph glyph-name="quoteright" unicode="&#x2019;" horiz-adv-x="620" 
d="M192 1488q12 43 47 70.5t81 27.5q56 0 96 -39.5t40 -94.5q0 -25 -8 -44l-150 -378q-31 -80 -102 -80q-45 0 -76.5 29t-31.5 77q0 10 4 30z" />
    <glyph glyph-name="quotesinglbase" unicode="&#x201a;" horiz-adv-x="620" 
d="M192 212q12 43 47 70.5t81 27.5q56 0 96 -39.5t40 -94.5q0 -25 -8 -44l-150 -378q-31 -80 -102 -80q-45 0 -76.5 29t-31.5 77q0 10 4 30z" />
    <glyph glyph-name="quotedblleft" unicode="&#x201c;" horiz-adv-x="1068" 
d="M440 1052q-12 -43 -47 -70.5t-81 -27.5q-56 0 -96 39.5t-40 94.5q0 25 8 44l150 378q31 80 102 80q45 0 76.5 -29t31.5 -77q0 -10 -4 -30zM888 1052q-12 -43 -47 -70.5t-81 -27.5q-56 0 -96 39.5t-40 94.5q0 25 8 44l150 378q31 80 102 80q45 0 76.5 -29t31.5 -77
q0 -10 -4 -30z" />
    <glyph glyph-name="quotedblright" unicode="&#x201d;" horiz-adv-x="1066" 
d="M192 1490q12 43 47 70.5t81 27.5q56 0 96 -39.5t40 -94.5q0 -25 -8 -44l-150 -378q-31 -80 -102 -80q-45 0 -76.5 29t-31.5 77q0 10 4 30zM638 1490q12 43 47 70.5t81 27.5q56 0 96 -39.5t40 -94.5q0 -25 -8 -44l-150 -378q-31 -80 -102 -80q-45 0 -76.5 29t-31.5 77
q0 10 4 30z" />
    <glyph glyph-name="quotedblbase" unicode="&#x201e;" horiz-adv-x="1066" 
d="M192 212q12 43 47 70.5t81 27.5q56 0 96 -39.5t40 -94.5q0 -25 -8 -44l-150 -378q-31 -80 -102 -80q-45 0 -76.5 29t-31.5 77q0 10 4 30zM638 212q12 43 47 70.5t81 27.5q56 0 96 -39.5t40 -94.5q0 -25 -8 -44l-150 -378q-31 -80 -102 -80q-45 0 -76.5 29t-31.5 77
q0 10 4 30z" />
    <glyph glyph-name="dagger" unicode="&#x2020;" horiz-adv-x="1186" 
d="M470 -162v1122h-248q-42 0 -71 29t-29 71q0 41 29 70.5t71 29.5h248v236q0 48 37 86t87 38q51 0 87.5 -36.5t36.5 -87.5v-236h248q40 0 70 -30t30 -70q0 -42 -29.5 -71t-70.5 -29h-248v-1122q0 -51 -36.5 -87.5t-87.5 -36.5q-50 0 -87 38t-37 86z" />
    <glyph glyph-name="daggerdbl" unicode="&#x2021;" horiz-adv-x="1186" 
d="M470 274v686h-248q-42 0 -71 29t-29 71q0 41 29 70.5t71 29.5h248v236q0 48 37 86t87 38q51 0 87.5 -36.5t36.5 -87.5v-236h248q40 0 70 -30t30 -70q0 -42 -29.5 -71t-70.5 -29h-248v-686h248q41 0 70.5 -29t29.5 -71q0 -40 -30 -70t-70 -30h-248v-236q0 -51 -36.5 -87.5
t-87.5 -36.5q-50 0 -87 38t-37 86v236h-248q-42 0 -71 29.5t-29 70.5q0 42 29 71t71 29h248z" />
    <glyph glyph-name="bullet" unicode="&#x2022;" horiz-adv-x="928" 
d="M464 382q-116 0 -199 83t-83 199t83 199t199 83t199 -83t83 -199t-83 -199t-199 -83z" />
    <glyph glyph-name="onedotenleader" unicode="&#x2024;" horiz-adv-x="620" 
d="M144 144q0 69 49 117.5t117 48.5t117 -48.5t49 -117.5t-49 -117.5t-117 -48.5t-117 48.5t-49 117.5z" />
    <glyph glyph-name="twodotenleader" unicode="&#x2025;" horiz-adv-x="1240" 
d="M144 144q0 69 49 117.5t117 48.5t117 -48.5t49 -117.5t-49 -117.5t-117 -48.5t-117 48.5t-49 117.5zM764 144q0 69 49 117.5t117 48.5t117 -48.5t49 -117.5t-49 -117.5t-117 -48.5t-117 48.5t-49 117.5z" />
    <glyph glyph-name="ellipsis" unicode="&#x2026;" horiz-adv-x="1860" 
d="M144 144q0 69 49 117.5t117 48.5t117 -48.5t49 -117.5t-49 -117.5t-117 -48.5t-117 48.5t-49 117.5zM1384 144q0 69 49 117.5t117 48.5t117 -48.5t49 -117.5t-49 -117.5t-117 -48.5t-117 48.5t-49 117.5zM764 144q0 69 49 117.5t117 48.5t117 -48.5t49 -117.5t-49 -117.5
t-117 -48.5t-117 48.5t-49 117.5z" />
    <glyph glyph-name="perthousand" unicode="&#x2030;" horiz-adv-x="2630" 
d="M126 1090q0 140 100.5 237t239.5 97t239.5 -97t100.5 -237t-100.5 -237t-239.5 -97t-239.5 97t-100.5 237zM1734 310q0 -140 -100.5 -237t-239.5 -97t-239.5 97t-100.5 237t100.5 237t239.5 97t239.5 -97t100.5 -237zM1458 1282l-902 -1270q-26 -36 -72 -36
q-41 0 -68.5 27t-27.5 67q0 28 16 50l902 1270q26 36 72 36q41 0 68.5 -27t27.5 -67q0 -28 -16 -50zM1522 310q0 53 -36.5 90.5t-91.5 37.5t-91.5 -37.5t-36.5 -90.5t36.5 -90.5t91.5 -37.5t91.5 37.5t36.5 90.5zM338 1090q0 -53 36.5 -90.5t91.5 -37.5t91.5 37.5t36.5 90.5
t-36.5 90.5t-91.5 37.5t-91.5 -37.5t-36.5 -90.5zM2504 310q0 -140 -100.5 -237t-239.5 -97t-239.5 97t-100.5 237t100.5 237t239.5 97t239.5 -97t100.5 -237zM2292 310q0 53 -36.5 90.5t-91.5 37.5t-91.5 -37.5t-36.5 -90.5t36.5 -90.5t91.5 -37.5t91.5 37.5t36.5 90.5z
" />
    <glyph glyph-name="uni2031" unicode="&#x2031;" horiz-adv-x="3400" 
d="M126 1090q0 140 100.5 237t239.5 97t239.5 -97t100.5 -237t-100.5 -237t-239.5 -97t-239.5 97t-100.5 237zM1734 310q0 -140 -100.5 -237t-239.5 -97t-239.5 97t-100.5 237t100.5 237t239.5 97t239.5 -97t100.5 -237zM1458 1282l-902 -1270q-26 -36 -72 -36
q-41 0 -68.5 27t-27.5 67q0 28 16 50l902 1270q26 36 72 36q41 0 68.5 -27t27.5 -67q0 -28 -16 -50zM1522 310q0 53 -36.5 90.5t-91.5 37.5t-91.5 -37.5t-36.5 -90.5t36.5 -90.5t91.5 -37.5t91.5 37.5t36.5 90.5zM338 1090q0 -53 36.5 -90.5t91.5 -37.5t91.5 37.5t36.5 90.5
t-36.5 90.5t-91.5 37.5t-91.5 -37.5t-36.5 -90.5zM2504 310q0 -140 -100.5 -237t-239.5 -97t-239.5 97t-100.5 237t100.5 237t239.5 97t239.5 -97t100.5 -237zM2292 310q0 53 -36.5 90.5t-91.5 37.5t-91.5 -37.5t-36.5 -90.5t36.5 -90.5t91.5 -37.5t91.5 37.5t36.5 90.5z
M3274 310q0 -140 -100.5 -237t-239.5 -97t-239.5 97t-100.5 237t100.5 237t239.5 97t239.5 -97t100.5 -237zM3062 310q0 53 -36.5 90.5t-91.5 37.5t-91.5 -37.5t-36.5 -90.5t36.5 -90.5t91.5 -37.5t91.5 37.5t36.5 90.5z" />
    <glyph glyph-name="guilsinglleft" unicode="&#x2039;" horiz-adv-x="722" 
d="M64 624q0 20 24 36l404 292q25 18 54 18q38 0 64 -26t26 -64q0 -46 -38 -74l-260 -182l260 -182q38 -28 38 -74q0 -38 -26 -64t-64 -26q-29 0 -54 18l-404 292q-24 16 -24 36z" />
    <glyph glyph-name="guilsinglright" unicode="&#x203a;" horiz-adv-x="722" 
d="M658 624q0 -20 -24 -36l-404 -292q-25 -18 -54 -18q-38 0 -64 26t-26 64q0 46 38 74l260 182l-260 182q-38 28 -38 74q0 38 26 64t64 26q29 0 54 -18l404 -292q24 -16 24 -36z" />
    <glyph glyph-name="uni203E" unicode="&#x203e;" horiz-adv-x="1000" 
d="M64 1388h872q36 0 62 -26t26 -62t-26 -62t-62 -26h-872q-36 0 -62 26t-26 62t26 62t62 26z" />
    <glyph glyph-name="fraction" unicode="&#x2044;" horiz-adv-x="834" 
d="M0 92l688 1282q28 52 74 52q32 0 57 -23t25 -55q0 -21 -10 -38l-690 -1282q-28 -52 -72 -52q-32 0 -57 23t-25 55q0 21 10 38z" />
    <glyph glyph-name="zerosuperior" unicode="&#x2070;" 
d="M282 942q0 -298 120 -298t120 298t-120 298t-120 -298zM76 942q0 213 85 347.5t241 134.5t241 -134.5t85 -347.5t-85 -347.5t-241 -134.5t-241 134.5t-85 347.5z" />
    <glyph glyph-name="uni2071" unicode="&#x2071;" 
d="M296 568v436q0 43 31 73.5t73 30.5q44 0 74 -30t30 -74v-436q0 -42 -30.5 -73t-73.5 -31q-42 0 -73 31t-31 73zM276 1298q0 51 36.5 88.5t87.5 37.5t87.5 -37.5t36.5 -88.5t-36.5 -86.5t-87.5 -35.5t-87.5 35.5t-36.5 86.5z" />
    <glyph glyph-name="foursuperior" unicode="&#x2074;" 
d="M32 698q0 19 12 34l440 624q43 62 84 62q40 0 58 -30t18 -76v-496h30q36 0 61 -26t25 -62t-25 -61t-61 -25h-30v-80q0 -40 -28.5 -69t-67.5 -29q-40 0 -69 29t-29 69v80h-362q-24 0 -40 16t-16 40zM282 816h168v246z" />
    <glyph glyph-name="fivesuperior" unicode="&#x2075;" 
d="M396 1222l-22 -144q14 2 34 2q128 0 213 -83t85 -223q0 -131 -88 -222.5t-240 -91.5q-174 0 -278 130q-26 36 -26 64q0 38 27 64t65 26q43 0 79 -44q47 -58 113 -58q61 0 101.5 40t40.5 100q0 62 -43.5 102t-108.5 40q-56 0 -112 -28q-13 -8 -34 -8q-25 0 -39 14.5
t-14 37.5q0 8 1 12l56 372q5 35 28.5 55.5t57.5 20.5h316q38 0 64 -26t26 -64q0 -37 -26 -62.5t-64 -25.5h-212z" />
    <glyph glyph-name="sixsuperior" unicode="&#x2076;" 
d="M132 968l252 406q32 50 84 50q41 0 71.5 -27t30.5 -67q0 -33 -22 -70l-112 -182q55 -4 107 -24.5t96.5 -56t71.5 -92.5t27 -127q0 -138 -96.5 -228t-231.5 -90q-139 0 -236.5 91.5t-97.5 230.5q0 97 56 186zM276 778q0 -56 37.5 -94t92.5 -38q56 0 94 38t38 94t-38.5 95
t-93.5 39t-92.5 -39t-37.5 -95z" />
    <glyph glyph-name="sevensuperior" unicode="&#x2077;" 
d="M206 560q0 23 12 50l250 604h-294q-39 0 -65.5 26t-26.5 64q0 39 26.5 67.5t65.5 28.5h504q25 0 40.5 -13.5t15.5 -36.5q0 -17 -10 -44l-320 -778q-12 -31 -38 -49.5t-60 -18.5q-42 0 -71 29t-29 71z" />
    <glyph glyph-name="eightsuperior" unicode="&#x2078;" 
d="M402 644q55 0 93.5 39.5t38.5 94.5q0 56 -38 94t-94 38t-94 -38t-38 -94q0 -55 38.5 -94.5t93.5 -39.5zM402 1066q40 0 67 28t27 68t-27 68t-67 28t-67 -28t-27 -68t27 -68t67 -28zM402 460q-142 0 -238 89t-96 217q0 74 36 136t100 100q-35 30 -56.5 74.5t-21.5 93.5
q0 107 77.5 180.5t198.5 73.5t198.5 -73.5t77.5 -180.5q0 -49 -21.5 -93.5t-56.5 -74.5q64 -38 100 -100t36 -136q0 -128 -96 -217t-238 -89z" />
    <glyph glyph-name="ninesuperior" unicode="&#x2079;" 
d="M672 916l-252 -406q-32 -50 -84 -50q-41 0 -71.5 27t-30.5 67q0 33 22 70l112 182q-55 4 -107 24.5t-96.5 56t-71.5 92.5t-27 127q0 138 96.5 228t231.5 90q139 0 236.5 -91.5t97.5 -230.5q0 -97 -56 -186zM528 1106q0 56 -37.5 94t-92.5 38q-56 0 -94 -38t-38 -94
t38.5 -95t93.5 -39t92.5 39t37.5 95z" />
    <glyph glyph-name="uni207A" unicode="&#x207a;" 
d="M768 942q0 -37 -26 -63.5t-62 -26.5h-180v-172q0 -40 -29 -69t-69 -29q-42 0 -70 28.5t-28 69.5v172h-182q-36 0 -62 26.5t-26 63.5q0 36 26 62t62 26h182v170q0 41 28 69.5t70 28.5q40 0 69 -29t29 -69v-170h180q36 0 62 -26t26 -62z" />
    <glyph glyph-name="uni207B" unicode="&#x207b;" 
d="M768 942q0 -37 -26 -63.5t-62 -26.5h-558q-36 0 -62 26.5t-26 63.5q0 36 26 62t62 26h558q36 0 62 -26t26 -62z" />
    <glyph glyph-name="uni207C" unicode="&#x207c;" 
d="M684 996h-564q-34 0 -59 25t-25 59t25 59t59 25h564q34 0 59 -25t25 -59t-25 -59t-59 -25zM120 888h564q34 0 59 -25t25 -59t-25 -59t-59 -25h-564q-34 0 -59 25t-25 59t25 59t59 25z" />
    <glyph glyph-name="uni207D" unicode="&#x207d;" 
d="M236 938q0 270 144 526q28 50 78 50q38 0 64 -25.5t26 -62.5q0 -16 -14 -48q-98 -208 -98 -440t98 -440q14 -32 14 -48q0 -37 -26 -62.5t-64 -25.5q-50 0 -78 50q-144 256 -144 526z" />
    <glyph glyph-name="uni207E" unicode="&#x207e;" 
d="M568 938q0 -270 -144 -526q-28 -50 -78 -50q-38 0 -64 25.5t-26 62.5q0 16 14 48q98 208 98 440t-98 440q-14 32 -14 48q0 37 26 62.5t64 25.5q50 0 78 -50q144 -256 144 -526z" />
    <glyph glyph-name="uni207F" unicode="&#x207f;" 
d="M198 1142q40 0 69 -26t35 -64q24 38 72 62t104 24q104 0 171 -64t67 -172v-344q0 -43 -30 -72.5t-74 -29.5t-73 29t-29 73v292q0 50 -29.5 80t-74.5 30t-74.5 -30t-29.5 -80v-292q0 -43 -30 -72.5t-74 -29.5t-73 29t-29 73v482q0 44 29 73t73 29z" />
    <glyph glyph-name="zeroinferior" unicode="&#x2080;" 
d="M282 216q0 -298 120 -298t120 298t-120 298t-120 -298zM76 216q0 213 85 347.5t241 134.5t241 -134.5t85 -347.5t-85 -347.5t-241 -134.5t-241 134.5t-85 347.5z" />
    <glyph glyph-name="oneinferior" unicode="&#x2081;" 
d="M128 452q0 53 56 84l266 148q25 14 46 14q25 0 42.5 -17t17.5 -45v-794q0 -44 -30 -74t-74 -30q-42 0 -73 30.5t-31 73.5v580l-90 -48q-20 -10 -42 -10q-36 0 -62 26t-26 62z" />
    <glyph glyph-name="twoinferior" unicode="&#x2082;" 
d="M86 -196q0 20 12 40l304 400q76 99 76 170q0 44 -28 72t-74 28q-71 0 -117 -76q-27 -44 -79 -44q-36 0 -61 24.5t-25 61.5q0 32 18 56q46 76 118 119t158 43q132 0 213 -79t81 -199q0 -128 -102 -260l-172 -222h222q39 0 65.5 -26t26.5 -64q0 -39 -26.5 -64.5
t-65.5 -25.5h-492q-22 0 -37 13t-15 33z" />
    <glyph glyph-name="threeinferior" unicode="&#x2083;" 
d="M100 584q0 38 25.5 64t62.5 26h438q24 0 41 -16t17 -40q0 -21 -14 -42l-178 -262q101 -36 153.5 -108t52.5 -172q0 -123 -88 -211.5t-240 -88.5q-177 0 -281 127q-25 32 -25 69q0 39 26 65.5t64 26.5q40 0 72 -36q52 -70 134 -70q55 0 92.5 35.5t37.5 92.5
q0 67 -48.5 106.5t-133.5 39.5h-14q-21 0 -35.5 14.5t-14.5 35.5q0 15 14 36l148 218h-218q-37 0 -62.5 26t-25.5 64z" />
    </font>
</defs>
</svg>
