<svg width="101" height="19" viewBox="0 0 101 19" xmlns="http://www.w3.org/2000/svg"><!--Generator: Sketch 44.1 (41455) - http://www.bohemiancoding.com/sketch--><title>creatives</title><g fill="#000" fill-rule="evenodd"><path d="M38.8 9.41c0 .06.033.117.087.143.42.147.864.213 1.308.195.327.019.652-.061.935-.229.435-.292.762-.944.762-1.862 0-1.511-.828-2.421-2.156-2.421a3.852 3.852 0 0 0-.828.072c-.06.02-.1.078-.1.144v3.957H38.8zm-.998-1.055c0-1.888 0-2.226-.024-2.616a.599.599 0 0 0-.512-.67l-.027-.003a2.343 2.343 0 0 0-.413-.038.087.087 0 0 1-.1-.072c0-.072.062-.097.199-.097.559 0 1.345.038 1.407.038.137 0 1.085-.038 1.47-.038a3.92 3.92 0 0 1 2.28.533c.525.38.843.99.862 1.647 0 .897-.385 1.79-1.507 2.794 1.022 1.27 3.125 3.703 3.85 4.452a2.6 2.6 0 0 0 1.519.872c.16.026.322.039.484.039a.104.104 0 0 1 .112.071c0 .072-.075.097-.298.097h-.895a2.602 2.602 0 0 1-1.328-.24c-.534-.28-2.231-2.227-2.94-3.137-.52-.665-1.109-1.477-1.357-1.79a.208.208 0 0 0-.161-.073L38.89 10.1a.079.079 0 0 0-.088.07.077.077 0 0 0 .001.027v.288c0 1.16 0 2.117.062 2.625.038.35.112.618.485.664.173.026.447.047.558.047.112 0 .1.038.1.072 0 .034-.062.097-.199.097-.687 0-1.47-.038-1.532-.038-.062 0-.798.038-1.171.038-.137 0-.199-.025-.199-.097 0-.072.025-.072.1-.072.125-.004.25-.02.372-.047.249-.05.31-.313.36-.664.062-.508.062-1.465.062-2.625V8.355zM47.691 8.355c0-1.888 0-2.226-.025-2.616a.598.598 0 0 0-.534-.673c-.119-.02-.24-.033-.36-.038-.087 0-.161-.025-.161-.072 0-.046.062-.097.199-.097.285 0 .62 0 1.407.038h2.852c.192.002.385-.022.571-.072a.312.312 0 0 1 .137-.05c.037 0 .05.05.05.11a5.06 5.06 0 0 0-.1.566c0 .182-.025.424-.05.724a.2.2 0 0 1-.099.208c-.074 0-.1-.06-.1-.157a1.19 1.19 0 0 0-.061-.398c-.087-.28-.348-.398-.899-.448-.21-.026-1.568-.039-1.705-.039-.05 0-.074.039-.074.123v3.34c0 .085 0 .123.074.123.161 0 1.693 0 1.979-.026.226.02.45-.054.62-.207a.253.253 0 0 1 .15-.123c.037 0 .062.025.062.097 0 .072-.062.28-.1.678-.037.398-.02.63-.045.8-.025.169-.037.182-.087.182-.05 0-.087-.098-.087-.182a1.067 1.067 0 0 0-.05-.339c-.05-.182-.198-.351-.645-.398-.336-.038-1.57-.06-1.78-.06a.079.079 0 0 0-.087.086v3.12c.025.494.099.761.414.884.336.095.686.132 1.034.11a4.24 4.24 0 0 0 1.122-.11c.414-.123.534-.377.634-.898.024-.13.05-.182.111-.182.062 0 .075.098.075.182-.034.394-.088.785-.162 1.173-.087.313-.186.313-.67.313-.923 0-1.333-.025-1.817-.038-.485-.013-1.085-.034-1.57-.034-.297 0-.595.047-.922.038-.137 0-.199-.025-.199-.097a.144.144 0 0 1 .157-.072c.096-.004.192-.017.286-.038.26-.06.414-.229.447-1.139 0-.474.025-1.088.025-2.167V8.364l-.017-.009zM59.087 10.002c.062 0 .062-.038.05-.085L57.952 6.65c-.064-.181-.126-.181-.187 0L56.67 9.917c-.024.06 0 .085.038.085h2.38zm-2.517.423a.13.13 0 0 0-.124.097l-.75 2.142a2.496 2.496 0 0 0-.173.813c.036.219.23.372.447.351h.112c.124 0 .161.026.161.072 0 .047-.112.097-.223.097-.294-.003-.791-.042-.932-.042-.14 0-.828.039-1.407.039-.162 0-.236-.026-.236-.098 0-.072.062-.072.174-.072.1-.003.199-.012.298-.025.571-.072.828-.534 1.047-1.14l2.827-7.512c.15-.398.199-.474.273-.474.075 0 .125.059.274.423.186.461 2.144 5.456 2.897 7.297.447 1.08.828 1.27 1.072 1.342.158.048.32.072.485.072.074 0 .136 0 .136.072s-.112.098-.248.098c-.137 0-1.097 0-1.954-.026-.236 0-.373 0-.373-.085a.092.092 0 0 1 .087-.084c.075-.026.15-.132.075-.326l-1.16-2.963a.108.108 0 0 0-.11-.072H56.57v.004zM66.997 10.484c0 1.16 0 2.117.062 2.625.037.35.112.618.484.664.174.026.448.047.56.047.111 0 .099.038.099.072 0 .034-.062.097-.2.097-.686 0-1.469-.038-1.53-.038-.063 0-.828.038-1.222.038-.136 0-.198-.025-.198-.097 0-.072.024-.072.099-.072.125-.004.25-.02.372-.047.249-.05.31-.313.36-.664.063-.508.063-1.465.063-2.625V5.367c-.609 0-1.242 0-1.842.025-.774 0-1.072.098-1.271.386a2.114 2.114 0 0 0-.211.376.139.139 0 0 1-.124.123c-.038 0-.062-.038-.062-.11 0-.072.248-1.16.273-1.27a.428.428 0 0 1 .124-.228c.176.07.36.118.546.143.36.039.828.06.985.06h4.67c.296.006.592-.014.885-.06.187-.025.298-.059.348-.059.05 0 .062.072.062.144 0 .364-.037 1.198-.037 1.333 0 .136-.037.157-.087.157-.05 0-.074-.03-.074-.199v-.131c-.038-.364-.336-.643-1.532-.665-.522 0-1.047 0-1.569-.025v5.117h-.033zM73.442 8.355c0-1.888 0-2.226-.025-2.616-.025-.39-.149-.618-.414-.677a1.663 1.663 0 0 0-.385-.047.087.087 0 0 1-.099-.071c0-.072.062-.098.199-.098.414 0 1.196.038 1.242.038.045 0 .827-.038 1.22-.038.137 0 .2.026.2.098a.087.087 0 0 1-.1.071 1.915 1.915 0 0 0-.31.039c-.336.059-.435.266-.46.69-.025.423-.025.723-.025 2.615v2.117c0 1.16 0 2.116.062 2.624.038.351.112.618.485.665.174.025.434.046.509.046.074 0 .149.038.149.072 0 .034-.05.098-.186.098-.688 0-1.482-.039-1.544-.039-.063 0-.828.039-1.222.039-.136 0-.198-.026-.198-.098 0-.072.025-.072.136-.072a1.73 1.73 0 0 0 .323-.038c.249-.046.323-.326.373-.677.062-.508.062-1.465.062-2.624V8.355h.008zM78.356 5.998c-.274-.678-.46-.813-.899-.932a1.987 1.987 0 0 0-.472-.046.083.083 0 0 1-.099-.085c0-.072.124-.085.323-.085.596 0 1.27.039 1.42.039.149 0 .658-.039 1.134-.039.223 0 .335.026.335.085 0 .06-.037.085-.124.085a1.482 1.482 0 0 0-.472.06.241.241 0 0 0-.161.24c.052.268.135.528.248.775l2.546 6.425c.724-1.62 2.392-5.845 2.665-6.717.059-.148.097-.303.112-.461a.298.298 0 0 0-.161-.28 1.627 1.627 0 0 0-.472-.046c-.075 0-.137 0-.137-.072s.075-.098.274-.098c.496 0 1.071.038 1.22.038.075 0 .61-.038.973-.038.137 0 .212.026.212.085 0 .06-.05.085-.15.085a1.163 1.163 0 0 0-.596.143c-.161.11-.347.314-.683 1.14-.136.338-.761 1.79-1.394 3.28-.762 1.764-1.321 3.073-1.607 3.665-.347.724-.413.919-.521.919-.108 0-.212-.17-.447-.75l-3.067-7.415zM89.172 8.355c0-1.888 0-2.226-.026-2.616a.598.598 0 0 0-.512-.67l-.038-.003c-.119-.02-.24-.033-.36-.038-.087 0-.161-.025-.161-.072 0-.046.062-.097.198-.097.286 0 .621 0 1.407.038h2.853c.192.002.385-.022.571-.072a.312.312 0 0 1 .137-.05c.037 0 .05.05.05.11a5.256 5.256 0 0 0-.1.566c0 .182-.025.424-.05.724a.2.2 0 0 1-.1.208c-.074 0-.098-.06-.098-.157a1.19 1.19 0 0 0-.062-.398c-.087-.28-.348-.398-.899-.448-.21-.026-1.569-.039-1.705-.039-.05 0-.075.039-.075.123v3.34c0 .085 0 .123.075.123.161 0 1.693 0 1.978-.026.226.02.45-.054.621-.207a.253.253 0 0 1 .15-.123c.036 0 .061.025.061.097 0 .072-.062.28-.099.678-.037.398-.037.652-.05.82-.012.17-.037.183-.086.183-.05 0-.087-.098-.087-.195a1.055 1.055 0 0 0-.05-.339c-.05-.182-.199-.35-.646-.397-.336-.038-1.569-.06-1.78-.06a.08.08 0 0 0-.087.085V12.554c.025.495.1.762.414.885.34.09.69.121 1.04.093a4.24 4.24 0 0 0 1.121-.11c.414-.123.534-.377.633-.898.025-.13.05-.182.112-.182s.074.098.074.182c-.033.394-.087.785-.16 1.173-.088.313-.187.313-.671.313-.923 0-1.333-.025-1.818-.038a64.393 64.393 0 0 0-1.568-.017c-.298 0-.596.047-.923.038-.137 0-.2-.025-.2-.097a.144.144 0 0 1 .137-.072 1.62 1.62 0 0 0 .286-.038c.26-.06.414-.229.447-1.139 0-.474.025-1.088.025-2.167V8.364l.02-.009zM96.209 13.955c-.178-.076-.195-.122-.207-.449-.03-.605 0-1.092 0-1.27 0-.177.029-.194.09-.198.063-.004.088.034.096.127.003.15.023.299.058.444.227.885 1.068 1.18 1.9 1.139 1.196-.06 1.738-.923 1.701-1.693-.037-.77-.414-1.3-1.536-2.117l-.58-.423c-1.37-.986-1.705-1.718-1.742-2.54-.062-1.295.89-2.226 2.484-2.306.388-.025.78-.004 1.163.063.144.028.291.04.439.038.099 0 .124 0 .128.08.004.081-.029.462 0 1.27 0 .195 0 .28-.074.284-.075.004-.092-.055-.108-.153a2.065 2.065 0 0 0-.19-.596c-.083-.131-.443-.623-1.586-.563-.857.042-1.507.597-1.461 1.477.033.69.377 1.109 1.614 1.955l.36.25c1.524 1.05 1.909 1.782 1.954 2.748.03.806-.33 1.576-.96 2.06-.557.389-1.214.6-1.888.606a3.88 3.88 0 0 1-1.655-.233M31.502 4.681c.605-.002 1.208.047 1.805.144.472.085.86.123 1.32.182a.113.113 0 0 1 .112.131c0 .098-.037.241-.062.677-.025.436-.025 1.067-.037 1.245-.013.178-.037.254-.112.254-.074 0-.1-.085-.1-.254a1.743 1.743 0 0 0-.504-1.27c-.435-.364-1.412-.643-2.509-.643M31.929 13.506c.935 0 1.655-.11 2.169-.605.234-.293.392-.643.46-1.016.024-.13.049-.182.123-.182.075 0 .087.085.087.182a12.26 12.26 0 0 1-.273 1.55.42.42 0 0 1-.323.35 7.563 7.563 0 0 1-2.483.356"/><path d="M34.338 12.872c-.78.5-1.703.712-2.616.6a3.733 3.733 0 0 1-1.743-.66 4.114 4.114 0 0 1-1.656-2.42 3.58 3.58 0 0 1-.09-.496 1.494 1.494 0 0 1-.022-.254V9.13c.003-.086.012-.17.03-.254l.033-.233.05-.258a4.13 4.13 0 0 1 1.655-2.438 3.673 3.673 0 0 1 1.76-.656 3.548 3.548 0 0 1 1.705.215c.322.121.628.283.91.483v-.588a4.324 4.324 0 0 0-.724-.386 5.085 5.085 0 0 0-.91-.279 5.167 5.167 0 0 0-1.02-.085c-.75.009-1.488.2-2.152.56-.363.189-.7.425-1.005.702-.305.29-.573.616-.8.973-.233.369-.41.771-.525 1.194a7.264 7.264 0 0 0-.083.322l-.054.347c-.018.105-.029.21-.033.317v.652c.003.111.014.221.033.33.026.22.07.436.133.648.114.422.29.825.521 1.194.224.36.49.692.795.986.3.278.634.516.994.707.666.362 1.41.552 2.165.554.66.005 1.313-.14 1.912-.423.259-.116.505-.258.737-.423v-.424.005zM6.846 18.998c-2.19-.547-4.09-1.791-5.338-3.733-.91-1.393-1.396-3.003-1.493-4.678-.114-1.942.438-3.833 1.38-5.493.632-1.111 1.54-2.023 2.53-2.787C5.872.781 8.533.151 10.935.532c2.044.315 3.844 1.228 5.354 2.671 1.59 1.527 2.595 3.684 2.823 5.89a9.514 9.514 0 0 1-.6 4.513c-.91 2.323-2.791 4.264-5.128 5.094-.357.132-.714.216-1.07.315 1.67-.88 3.098-2.074 4.04-3.766a8.74 8.74 0 0 0 1.022-5.608c-.39-2.555-2.045-4.978-4.381-6.073-.633-.298-1.282-.547-1.98-.663-.503-.084-.99-.117-1.492-.133h.048c-1.995.016-3.975.796-5.419 2.223-2.434 2.39-3.115 6.14-1.817 9.308a8.942 8.942 0 0 0 2.06 3.02c.73.696 1.574 1.21 2.45 1.675"/></g></svg>