<svg width="16" height="15" viewBox="0 0 16 15" xmlns="http://www.w3.org/2000/svg"><!--Generator: Sketch 44.1 (41455) - http://www.bohemiancoding.com/sketch--><title>ico-draw</title><path d="M9.386 6.379c-1.877-1.66-2.858-4.24.182-5.594 2.763-1.23 3.128 1.446 6.256-.428 0 0-2.647 9.373-6.438 6.022zm.782 1.445s-.495 1.15-1.395 2.18c0 0-1.081-.708-1.994-1.618-.912-.91-1.746-2.224-1.746-2.224.73-.64 1.564-1.255 2.142-1.48 0 0 .386 1.028 1.377 1.991.902.878 1.616 1.15 1.616 1.15zm-9.566 6.7c-1.884-1.767 1.008-5.21 3.788-7.78 0 0 .565 1.053 1.698 2.11C7.22 9.914 8.213 10.54 8.213 10.54 5.353 13.45 2.2 16.022.602 14.523z" fill="#FFF" fill-rule="evenodd"/></svg>