<svg width="40" height="40" viewBox="0 0 40 40" xmlns="http://www.w3.org/2000/svg"><!--Generator: Sketch 44.1 (41455) - http://www.bohemiancoding.com/sketch--><title>ico-message</title><g fill="none" fill-rule="evenodd"><circle fill="#FF9000" cx="20" cy="20" r="20"/><path d="M10 13.007A1 1 0 0 1 10.994 12h18.011A1 1 0 0 1 30 13.007v11.986C30 25.55 29.55 26 29 26h-8.87l-3.87 4.001L14.005 26H11c-.552 0-1-.45-1-1.007V13.007zM14 17c0 .556.449 1 1.002 1h9.996a.999.999 0 1 0 0-2h-9.996c-.546 0-1.002.448-1.002 1zm0 4c0 .556.449 1 1.002 1h9.996a.999.999 0 1 0 0-2h-9.996c-.546 0-1.002.448-1.002 1z" fill="#FFF"/></g></svg>