<svg width="19" height="15" viewBox="0 0 19 15" xmlns="http://www.w3.org/2000/svg"><!--Generator: Sketch 44.1 (41455) - http://www.bohemiancoding.com/sketch--><title>ico-comment</title><path d="M13.098 6.495a.548.548 0 0 0 .55-.544c0-.3-.246-.544-.55-.544a.548.548 0 0 0-.551.544c0 .3.247.544.55.544m0-1.674a1.14 1.14 0 0 1 1.146 1.13c0 .623-.514 1.13-1.145 1.13a1.138 1.138 0 0 1-1.145-1.13c0-.623.513-1.13 1.145-1.13M9.803 6.495a.549.549 0 0 0 .552-.544c0-.3-.248-.544-.552-.544a.548.548 0 0 0-.55.544c0 .3.246.544.55.544m0-1.674a1.14 1.14 0 0 1 1.146 1.13c0 .623-.514 1.13-1.146 1.13a1.138 1.138 0 0 1-1.145-1.13c0-.623.514-1.13 1.145-1.13M6.508 6.495a.549.549 0 0 0 .551-.544c0-.3-.247-.544-.551-.544a.548.548 0 0 0-.551.544c0 .3.247.544.55.544m0-1.674a1.14 1.14 0 0 1 1.147 1.13c0 .623-.514 1.13-1.146 1.13-.63 0-1.145-.507-1.145-1.13 0-.623.514-1.13 1.145-1.13m-.346 6.147c.17-.003.35-.004.544-.004l1.21.003c4.348 0 8.927-.381 9.933-3.214.648-1.824.542-3.354-.315-4.548-1.215-1.689-3.89-2.62-7.535-2.62-.35 0-.713.01-1.079.028-3.135.15-5.322.924-6.503 2.303-.84.983-1.17 2.285-.977 3.868.389 3.202-.055 5.518-.443 6.805 1.293-1.085 3.409-2.599 5.165-2.621m-6.13 3.508c.015-.028 1.4-2.84.818-7.622-.213-1.752.162-3.205 1.114-4.316C3.254 1.03 5.586.185 8.89.027 9.264.009 9.635 0 9.994 0c3.846 0 6.695 1.018 8.024 2.866.975 1.357 1.107 3.067.391 5.08-1.129 3.18-5.938 3.608-10.493 3.608l-1.21-.003c-.19 0-.369 0-.536.003-2.32.03-5.63 3.23-5.664 3.262a.297.297 0 0 1-.383.028.288.288 0 0 1-.091-.368" fill="#9B00D2" fill-rule="evenodd"/></svg>