<?xml version="1.0" encoding="UTF-8"?>
<svg width="101px" height="19px" viewBox="0 0 101 19" version="1.1" xmlns="http://www.w3.org/2000/svg" xmlns:xlink="http://www.w3.org/1999/xlink">
    <!-- Generator: Sketch 44.1 (41455) - http://www.bohemiancoding.com/sketch -->
    <title>creatives</title>
    <desc>Created with Sketch.</desc>
    <defs></defs>
    <g id="Symbols" stroke="none" stroke-width="1" fill="none" fill-rule="evenodd">
        <g id="bottom" transform="translate(-1190.000000, -26.000000)" fill="#000000">
            <g id="creatives" transform="translate(1190.000000, 26.000000)">
                <path d="M38.8000193,9.40926984 C38.7991914,9.4706455 38.833134,9.52651852 38.8869455,9.55318519 C39.3075029,9.70006349 39.7508266,9.76609524 40.1949783,9.74789418 C40.5219865,9.76651852 40.846925,9.6869418 41.1304701,9.51932275 C41.5651012,9.22725926 41.8921094,8.57540741 41.8921094,7.65688889 C41.8921094,6.14577778 41.0642406,5.23572487 39.7355111,5.23572487 C39.4577611,5.22979894 39.1800111,5.25392593 38.9076422,5.30768254 C38.8472078,5.328 38.8070561,5.3864127 38.808298,5.45159788 L38.808298,9.40926984 L38.8000193,9.40926984 Z M37.8024373,8.35530159 C37.8024373,6.4674709 37.8024373,6.12884656 37.7776012,5.73942857 C37.8173389,5.40969312 37.5884332,5.1095873 37.2663922,5.06895238 C37.2572857,5.06810582 37.2481791,5.06683598 37.2394865,5.0664127 C37.1028881,5.04143915 36.9642201,5.02874074 36.825552,5.02831746 C36.7787775,5.03593651 36.7344865,5.0037672 36.7262078,4.95635979 C36.7262078,4.88440212 36.788298,4.85900529 36.9248963,4.85900529 C37.4837078,4.85900529 38.2701832,4.89710053 38.3322734,4.89710053 C38.4688717,4.89710053 39.4167816,4.85900529 39.8017406,4.85900529 C40.5969086,4.79974603 41.3912488,4.98556614 42.0825193,5.39233862 C42.6065602,5.77244444 42.9252898,6.38196825 42.9435029,7.03889947 C42.9435029,7.93625397 42.5585439,8.82937566 41.4367816,9.83255026 C42.4591996,11.1023915 44.5619865,13.536254 45.2863717,14.2854603 C45.6804373,14.7451429 46.2164824,15.0528677 46.8055111,15.157418 C46.9657037,15.1828148 47.127552,15.1955132 47.2898143,15.1955132 C47.3390725,15.1887407 47.3858471,15.2192169 47.4015766,15.2674709 C47.4015766,15.3394286 47.3270684,15.3644021 47.1035439,15.3644021 L46.2094455,15.3644021 C45.7532898,15.4024974 45.2958922,15.3195344 44.880716,15.1235556 C44.3467406,14.8441905 42.6496094,12.8971005 41.9417816,11.9870476 C41.4202242,11.3224974 40.8324373,10.5097989 40.5840766,10.1961481 C40.5430971,10.149164 40.4843184,10.1229206 40.4226422,10.1241905 L38.8910848,10.0992169 C38.8480357,10.093291 38.8087119,10.1241905 38.8029168,10.1686349 C38.801675,10.1775238 38.8020889,10.1872593 38.8041586,10.1961481 L38.8041586,10.4844021 C38.8041586,11.6437672 38.8041586,12.6008042 38.8662488,13.1087407 C38.9035029,13.4596402 38.9780111,13.7267302 39.350552,13.773291 C39.5244045,13.7986878 39.7976012,13.8198519 39.9093635,13.8198519 C40.0211258,13.8198519 40.0087078,13.8579471 40.0087078,13.8918095 C40.0087078,13.925672 39.9466176,13.9887407 39.8100193,13.9887407 C39.1228881,13.9887407 38.340552,13.9506455 38.2784619,13.9506455 C38.2163717,13.9506455 37.4795684,13.9887407 37.1070275,13.9887407 C36.9704291,13.9887407 36.9083389,13.9637672 36.9083389,13.8918095 C36.9083389,13.8198519 36.933175,13.8198519 37.0076832,13.8198519 C37.1331053,13.8160423 37.2576996,13.800381 37.3802242,13.773291 C37.6285848,13.7220741 37.690675,13.4596402 37.7403471,13.1087407 C37.8024373,12.6008042 37.8024373,11.6437672 37.8024373,10.4844021 L37.8024373,8.368 L37.8024373,8.35530159 Z" id="Fill-1"></path>
                <path d="M47.6912893,8.3551746 C47.6912893,6.46734392 47.6912893,6.12871958 47.6664533,5.73930159 C47.7066049,5.40998942 47.4776992,5.1098836 47.1556582,5.0688254 C47.1477934,5.06755556 47.1399287,5.06670899 47.1324779,5.06628571 C47.0132648,5.04639153 46.8928098,5.03326984 46.7723549,5.02819048 C46.6854287,5.02819048 46.6109205,5.00279365 46.6109205,4.9562328 C46.6109205,4.90967196 46.6730107,4.85887831 46.809609,4.85887831 C47.0952238,4.85887831 47.4305107,4.85887831 48.2169861,4.89697354 L51.0689943,4.89697354 C51.2614738,4.89866667 51.4535393,4.87453968 51.6402238,4.82501587 C51.6812033,4.79750265 51.7279779,4.78014815 51.7768221,4.77422222 C51.8140762,4.77422222 51.8264943,4.82501587 51.8264943,4.88427513 C51.7826172,5.07136508 51.7495025,5.26057143 51.72715,5.4514709 C51.72715,5.63348148 51.7023139,5.87475132 51.6774779,6.17528042 C51.6911377,6.25908995 51.6509861,6.34247619 51.5781336,6.38268783 C51.5036254,6.38268783 51.4787893,6.32342857 51.4787893,6.22607407 C51.480859,6.09062434 51.4597484,5.95602116 51.4166992,5.82819048 C51.329773,5.5488254 51.0689943,5.43030688 50.5184615,5.37951323 C50.3073549,5.3541164 48.94965,5.34141799 48.8130516,5.34141799 C48.7633795,5.34141799 48.7385434,5.37951323 48.7385434,5.46416931 L48.7385434,8.80385185 C48.7385434,8.88850794 48.7385434,8.92660317 48.8130516,8.92660317 C48.9744861,8.92660317 50.5060434,8.92660317 50.7916582,8.90120635 C51.0176664,8.92194709 51.2420189,8.84702646 51.4125598,8.69379894 C51.4444328,8.63453968 51.4978303,8.59051852 51.5615762,8.57104762 C51.5988303,8.57104762 51.6236664,8.59644444 51.6236664,8.66840212 C51.6236664,8.74035979 51.5615762,8.9477672 51.5243221,9.34565079 C51.487068,9.74353439 51.5036254,9.97633862 51.4787893,10.1456508 C51.4539533,10.314963 51.4415352,10.3276614 51.3918631,10.3276614 C51.342191,10.3276614 51.3049369,10.2303069 51.3049369,10.1456508 C51.3065926,10.0309418 51.2900352,9.9162328 51.2552648,9.80702646 C51.2055926,9.62501587 51.0565762,9.4557037 50.609527,9.40914286 C50.2742402,9.37104762 49.0407156,9.3498836 48.829609,9.3498836 C48.7865598,9.34522751 48.74765,9.37697354 48.7430967,9.42141799 C48.7426828,9.42565079 48.7422689,9.43030688 48.7426828,9.43453968 L48.7426828,10.4842751 L48.7426828,12.5541164 C48.7675189,13.0493545 48.842027,13.3160212 49.1566172,13.4387725 C49.4931459,13.5335873 49.8429205,13.570836 50.1914533,13.5488254 C50.5685475,13.5623704 50.9456418,13.5251217 51.3132156,13.4387725 C51.72715,13.3160212 51.847191,13.0620529 51.9465352,12.541418 C51.9713713,12.4102011 51.9962074,12.3594074 52.0582975,12.3594074 C52.1203877,12.3594074 52.1328057,12.4567619 52.1328057,12.541418 C52.0988631,12.9346455 52.0450516,13.3261799 51.9713713,13.7139048 C51.8844451,14.0271323 51.7851008,14.0271323 51.3007975,14.0271323 C50.3777238,14.0271323 49.9679287,14.0017354 49.4836254,13.989037 C48.9993221,13.9763386 48.3991172,13.9551746 47.9148139,13.9551746 C47.6167811,13.9551746 47.3187484,14.0017354 46.9917402,13.9932698 C46.8551418,13.9932698 46.7930516,13.967873 46.7930516,13.8959153 C46.8240967,13.8391958 46.8882566,13.8099894 46.9503467,13.8239577 C47.0463795,13.8197249 47.1419984,13.8070265 47.2359615,13.7858624 C47.4967402,13.7266032 47.6498959,13.557291 47.6830107,12.6472381 C47.6830107,12.173164 47.7078467,11.5594074 47.7078467,10.4800423 L47.7078467,8.36364021 L47.6912893,8.3551746 Z" id="Fill-3"></path>
                <path d="M59.0868213,10.0016085 C59.1489115,10.0016085 59.1489115,9.96351323 59.1364934,9.91737566 L57.952641,6.64965079 C57.889309,6.46891005 57.8272189,6.46891005 57.7663705,6.64965079 L56.6694443,9.91737566 C56.6446082,9.97621164 56.6694443,10.0016085 56.7066984,10.0016085 L59.0868213,10.0016085 Z M56.5701,10.4248889 C56.5117352,10.4248889 56.4608213,10.4651005 56.4459197,10.5222434 L55.6966984,12.6640423 C55.5940426,12.9226667 55.53485,13.1977989 55.5228459,13.4767407 C55.5588582,13.696 55.7538213,13.8492275 55.9698951,13.8280635 L56.0816574,13.8280635 C56.2058377,13.8280635 56.2430918,13.8538836 56.2430918,13.9000212 C56.2430918,13.946582 56.1313295,13.9973757 56.0195672,13.9973757 C55.7256738,13.9935661 55.2289525,13.9554709 55.0882148,13.9554709 C54.947477,13.9554709 54.2603459,13.9935661 53.6808377,13.9935661 C53.5194033,13.9935661 53.4448951,13.967746 53.4448951,13.8957884 C53.4448951,13.8238307 53.5069852,13.8238307 53.6187475,13.8238307 C53.7185057,13.8208677 53.81785,13.8124021 53.9167803,13.7988571 C54.4880098,13.7268995 54.7446492,13.2651005 54.9640344,12.6598095 L57.7912066,5.14658201 C57.940223,4.74869841 57.9898951,4.67250794 58.0644033,4.67250794 C58.1389115,4.67250794 58.1885836,4.7317672 58.3376,5.09578836 C58.5238705,5.55716402 60.4817803,10.5522963 61.235141,12.3931429 C61.6821902,13.4725079 62.0630098,13.6629841 62.3072311,13.7349418 C62.4645262,13.7827725 62.6276164,13.8068995 62.7915344,13.8068995 C62.8660426,13.8068995 62.9281328,13.8068995 62.9281328,13.8788571 C62.9281328,13.9508148 62.8163705,13.9766349 62.6797721,13.9766349 C62.5431738,13.9766349 61.5828459,13.9766349 60.7260016,13.9508148 C60.490059,13.9508148 60.3534607,13.9508148 60.3534607,13.8661587 C60.3576,13.8200212 60.3948541,13.783619 60.4403869,13.7819259 C60.5148951,13.7561058 60.5894033,13.6502857 60.5148951,13.4555767 L59.3558787,10.4926138 C59.3389074,10.4456296 59.2933746,10.416 59.2441164,10.4206561 L56.5701,10.4206561 L56.5701,10.4248889 Z" id="Fill-5"></path>
                <path d="M66.9970668,10.4844021 C66.9970668,11.6437672 66.9970668,12.6008042 67.059157,13.1087407 C67.0964111,13.4596402 67.1709193,13.7267302 67.5434602,13.773291 C67.7173127,13.7986878 67.9905094,13.8198519 68.1022717,13.8198519 C68.214034,13.8198519 68.201616,13.8579471 68.201616,13.8918095 C68.201616,13.925672 68.1395258,13.9887407 68.0029275,13.9887407 C67.3157963,13.9887407 66.5334602,13.9506455 66.4713701,13.9506455 C66.4092799,13.9506455 65.6435012,13.9887407 65.2502635,13.9887407 C65.1136652,13.9887407 65.051575,13.9637672 65.051575,13.8918095 C65.051575,13.8198519 65.0764111,13.8198519 65.1509193,13.8198519 C65.2763414,13.8160423 65.4013496,13.8008042 65.5234602,13.773291 C65.7718209,13.7220741 65.8339111,13.4596402 65.8835832,13.1087407 C65.9456734,12.6008042 65.9456734,11.6437672 65.9456734,10.4844021 L65.9456734,5.3669418 C65.3371898,5.3669418 64.7038701,5.3669418 64.1036652,5.39233862 C63.3296078,5.39233862 63.031575,5.48969312 62.8328865,5.77752381 C62.7500996,5.89519577 62.6793168,6.02133333 62.6217799,6.15424339 C62.6143291,6.21985185 62.5621734,6.27106878 62.4975996,6.27699471 C62.4603455,6.27699471 62.4355094,6.23889947 62.4355094,6.1669418 C62.4355094,6.09498413 62.6838701,5.00715344 62.7087061,4.89710053 C62.7256775,4.80948148 62.7691406,4.7290582 62.8328865,4.6685291 C63.0088086,4.73837037 63.1921816,4.78662434 63.3792799,4.81244444 C63.7394029,4.85053968 64.2071488,4.8717037 64.3644439,4.8717037 L69.0336242,4.8717037 C69.3300012,4.87762963 69.6263783,4.85773545 69.9194439,4.81244444 C70.1057143,4.78704762 70.2174766,4.75318519 70.2671488,4.75318519 C70.3168209,4.75318519 70.3292389,4.82514286 70.3292389,4.89710053 C70.3292389,5.26112169 70.2919848,6.09498413 70.2919848,6.23043386 C70.2919848,6.3658836 70.2547307,6.38704762 70.2050586,6.38704762 C70.1553865,6.38704762 70.1305504,6.35741799 70.1305504,6.18810582 L70.1305504,6.05688889 C70.0932963,5.69286772 69.7952635,5.41350265 68.598993,5.39233862 C68.0774357,5.39233862 67.5517389,5.39233862 67.0301816,5.3669418 L67.0301816,10.4844021 L66.9970668,10.4844021 Z" id="Fill-7"></path>
                <path d="M73.44215,8.3551746 C73.44215,6.46734392 73.44215,6.12871958 73.4173139,5.73930159 C73.3924779,5.3498836 73.2682975,5.12131217 73.0033795,5.06205291 C72.8771295,5.03157672 72.747982,5.01591534 72.6184205,5.01549206 C72.5716459,5.02311111 72.5273549,4.99136508 72.5190762,4.94353439 C72.5190762,4.87157672 72.5811664,4.84617989 72.7177648,4.84617989 C73.1316992,4.84617989 73.9140352,4.88427513 73.959568,4.88427513 C74.0051008,4.88427513 74.7874369,4.84617989 75.1806746,4.84617989 C75.317273,4.84617989 75.3793631,4.87157672 75.3793631,4.94353439 C75.3710844,4.99136508 75.3267934,5.02311111 75.2800189,5.01549206 C75.1757074,5.01972487 75.0718098,5.03242328 74.969568,5.0535873 C74.6342811,5.11284656 74.5349369,5.32025397 74.5101008,5.74353439 C74.4852648,6.16681481 74.4852648,6.46734392 74.4852648,8.35940741 L74.4852648,10.4758095 C74.4852648,11.6355979 74.4852648,12.5922116 74.5473549,13.1001481 C74.584609,13.4514709 74.6591172,13.7181376 75.0316582,13.7646984 C75.2055107,13.7900952 75.4662893,13.8112593 75.5407975,13.8112593 C75.6153057,13.8112593 75.6898139,13.8493545 75.6898139,13.8832169 C75.6898139,13.9170794 75.6401418,13.9805714 75.5035434,13.9805714 C74.8164123,13.9805714 74.0216582,13.9424762 73.959568,13.9424762 C73.8974779,13.9424762 73.1316992,13.9805714 72.7384615,13.9805714 C72.6018631,13.9805714 72.539773,13.9551746 72.539773,13.8832169 C72.539773,13.8112593 72.564609,13.8112593 72.6763713,13.8112593 C72.7848221,13.8087196 72.892859,13.7960212 72.9992402,13.773164 C73.2476008,13.7266032 73.322109,13.4472381 73.3717811,13.0959153 C73.4338713,12.5879788 73.4338713,11.6313651 73.4338713,10.4715767 L73.4338713,8.3551746 L73.44215,8.3551746 Z" id="Fill-9"></path>
                <path d="M78.355593,5.9975873 C78.0823963,5.32033862 77.8961258,5.18488889 77.4573553,5.06637037 C77.3025439,5.03208466 77.144007,5.01642328 76.9854701,5.01980952 C76.9407652,5.02912169 76.8968881,4.99949206 76.8877816,4.95377778 C76.8865398,4.94785185 76.8857119,4.94107937 76.8861258,4.93515344 C76.8861258,4.86319577 77.0103061,4.85049735 77.2089947,4.85049735 C77.8050602,4.85049735 78.4797734,4.88859259 78.6287898,4.88859259 C78.7778061,4.88859259 79.2869455,4.85049735 79.7625561,4.85049735 C79.9860807,4.85049735 80.098257,4.87589418 80.098257,4.93515344 C80.098257,4.9944127 80.0610029,5.01980952 79.9740766,5.01980952 C79.814298,5.0138836 79.6553471,5.03420106 79.5021914,5.07906878 C79.4011914,5.1133545 79.3353758,5.21197884 79.340757,5.32033862 C79.3929127,5.58785185 79.4761135,5.84774603 79.5887037,6.0949418 L82.1348143,12.5203386 C82.8591996,10.8991746 84.5273553,6.67483598 84.8001381,5.80287831 C84.8589168,5.65515344 84.8969988,5.49980952 84.9123143,5.34150265 C84.9176955,5.22383069 84.8539496,5.11420106 84.7508799,5.06213757 C84.5964824,5.02361905 84.4375316,5.00795767 84.2789947,5.01557672 C84.2044865,5.01557672 84.1419824,5.01557672 84.1419824,4.94361905 C84.1419824,4.87166138 84.2169045,4.84626455 84.415593,4.84626455 C84.9123143,4.84626455 85.4872693,4.88435979 85.6366996,4.88435979 C85.7112078,4.88435979 86.2451832,4.84626455 86.6090316,4.84626455 C86.7460439,4.84626455 86.820552,4.87166138 86.820552,4.93092063 C86.820552,4.99017989 86.7708799,5.01557672 86.6715357,5.01557672 C86.4637406,5.00922751 86.2584291,5.05875132 86.0750561,5.15949206 C85.9140357,5.26954497 85.7277652,5.47271958 85.3924783,6.2981164 C85.2558799,6.63674074 84.6308389,8.08859259 83.9975193,9.57853968 C83.2358799,11.3431958 82.6766545,12.6515556 82.3914537,13.2441481 C82.0437488,13.9679577 81.9775193,14.1626667 81.8698963,14.1626667 C81.7618594,14.1626667 81.6583758,13.9933545 81.4228471,13.4134603 L78.355593,5.9975873 Z" id="Fill-11"></path>
                <path d="M89.1716582,8.3551746 C89.1716582,6.46734392 89.1716582,6.12871958 89.1464082,5.73930159 C89.1861459,5.40998942 88.9568262,5.1098836 88.6343713,5.06967196 C88.6219533,5.06797884 88.6091213,5.06713228 88.5962893,5.06628571 C88.4770762,5.04639153 88.3566213,5.03326984 88.2361664,5.02819048 C88.1492402,5.02819048 88.074732,5.00279365 88.074732,4.9562328 C88.074732,4.90967196 88.1368221,4.85887831 88.2734205,4.85887831 C88.5590352,4.85887831 88.8943221,4.85887831 89.6803836,4.89697354 L92.5328057,4.89697354 C92.7252852,4.89866667 92.9177648,4.87453968 93.1040352,4.82501587 C93.1450148,4.79750265 93.1917893,4.78014815 93.2406336,4.77422222 C93.2778877,4.77422222 93.2903057,4.82501587 93.2903057,4.88427513 C93.2468426,5.07136508 93.2137279,5.26057143 93.1909615,5.4514709 C93.1909615,5.63348148 93.1657115,5.87475132 93.1412893,6.17528042 C93.1549492,6.25908995 93.1147975,6.34247619 93.0419451,6.38268783 C92.9674369,6.38268783 92.9426008,6.32342857 92.9426008,6.22607407 C92.9446705,6.09062434 92.9235598,5.95602116 92.8805107,5.82819048 C92.7935844,5.5488254 92.5328057,5.43030688 91.982273,5.37951323 C91.7711664,5.3541164 90.4134615,5.34141799 90.2768631,5.34141799 C90.227191,5.34141799 90.2023549,5.37951323 90.2023549,5.46416931 L90.2023549,8.80385185 C90.2023549,8.88850794 90.2023549,8.92660317 90.2768631,8.92660317 C90.4382975,8.92660317 91.9698549,8.92660317 92.2554697,8.90120635 C92.4814779,8.92194709 92.7058303,8.84702646 92.8763713,8.69379894 C92.9082443,8.63453968 92.9616418,8.59051852 93.0253877,8.57104762 C93.0622279,8.57104762 93.0874779,8.59644444 93.0874779,8.66840212 C93.0874779,8.74035979 93.0253877,8.9477672 92.9881336,9.34565079 C92.9508795,9.74353439 92.9508795,9.99750265 92.9384615,10.1668148 C92.9260434,10.336127 92.9012074,10.3488254 92.8515352,10.3488254 C92.8018631,10.3488254 92.764609,10.2514709 92.764609,10.1541164 C92.7666787,10.0394074 92.7497074,9.92469841 92.7149369,9.81549206 C92.6648508,9.63348148 92.5162484,9.46416931 92.0691992,9.41760847 C91.7334984,9.37951323 90.5003877,9.35834921 90.2892811,9.35834921 C90.246232,9.35369312 90.2073221,9.38543915 90.2023549,9.4298836 C90.201941,9.4341164 90.201941,9.43877249 90.2023549,9.44300529 L90.2023549,10.4842751 L90.2023549,12.5541164 C90.227191,13.0493545 90.3012852,13.3160212 90.6162893,13.4387725 C90.9553016,13.5285079 91.306318,13.560254 91.6552648,13.5318942 C92.032359,13.5454392 92.4090393,13.5081905 92.777027,13.4218413 C93.1909615,13.2990899 93.3110025,13.0451217 93.4103467,12.5244868 C93.4351828,12.3932698 93.4600189,12.3424762 93.522109,12.3424762 C93.5841992,12.3424762 93.5962033,12.4398307 93.5962033,12.5244868 C93.5626746,12.9177143 93.509277,13.3092487 93.4351828,13.6969735 C93.3482566,14.0102011 93.2489123,14.0102011 92.764609,14.0102011 C91.8415352,14.0102011 91.4317402,13.9848042 90.9474369,13.9721058 C90.4631336,13.9594074 89.867068,13.9551746 89.3786254,13.9551746 C89.0805926,13.9551746 88.7825598,14.0017354 88.4555516,13.9932698 C88.3185393,13.9932698 88.2568631,13.967873 88.2568631,13.8959153 C88.2850107,13.8472381 88.3379943,13.8193016 88.3934615,13.8239577 C88.4899082,13.8197249 88.5851131,13.8070265 88.6790762,13.7858624 C88.939441,13.7266032 89.0930107,13.557291 89.1261254,12.6472381 C89.1261254,12.173164 89.1509615,11.5594074 89.1509615,10.4800423 L89.1509615,8.36364021 L89.1716582,8.3551746 Z" id="Fill-13"></path>
                <path d="M96.2085434,13.9553862 C96.0305516,13.8787725 96.0139943,13.8326349 96.0015762,13.5062857 C95.9726008,12.901418 96.0015762,12.4142222 96.0015762,12.2364444 C96.0015762,12.0590899 96.0305516,12.0417354 96.0926418,12.0379259 C96.154732,12.0336931 96.179568,12.0717884 96.1878467,12.1649101 C96.1911582,12.3147513 96.2106131,12.463746 96.2457975,12.6089312 C96.4734615,13.4935873 97.3137484,13.7898836 98.1457566,13.7479788 C99.342027,13.6882963 99.8842811,12.8248042 99.847027,12.0548571 C99.809773,11.2840635 99.4330926,10.754963 98.3113303,9.93845503 L97.7318221,9.5151746 C96.3616992,8.52893122 96.0264123,7.79665608 95.9891582,6.97549206 C95.927068,5.68025397 96.8791172,4.74903704 98.4727648,4.66861376 C98.8614492,4.64364021 99.2522033,4.66522751 99.6359205,4.73168254 C99.7803836,4.76004233 99.9273303,4.77274074 100.074691,4.76977778 C100.174035,4.76977778 100.198871,4.76977778 100.202597,4.85062434 C100.20715,4.93104762 100.174035,5.312 100.202597,6.12046561 C100.202597,6.3151746 100.202597,6.39940741 100.128502,6.40406349 C100.053994,6.40787302 100.037437,6.34861376 100.02088,6.25125926 C99.9877648,6.04385185 99.9240189,5.84237037 99.8304697,5.65485714 C99.7476828,5.52364021 99.3875598,5.03221164 98.2451008,5.09189418 C97.3882566,5.13422222 96.7383795,5.68871958 96.7839123,6.56871958 C96.817027,7.25908995 97.1605926,7.67771429 98.3982566,8.52427513 L98.7583795,8.77443386 C100.281658,9.82374603 100.666617,10.5564444 100.71215,11.5215238 C100.741539,12.327873 100.382658,13.0982434 99.7518221,13.5824762 C99.1950803,13.9710476 98.5381664,14.1818413 97.8642811,14.1881905 C97.3025721,14.2317884 96.7379656,14.1526349 96.2085434,13.9553862" id="Fill-15"></path>
                <path d="M31.5021898,4.6810582 C32.106534,4.67936508 32.7100504,4.72761905 33.3069439,4.82497354 C33.7788291,4.90962963 34.1679275,4.94772487 34.6273947,5.00698413 C34.6890709,5.00656085 34.7395709,5.05693122 34.7403988,5.12 C34.7403988,5.12634921 34.7399848,5.13227513 34.739157,5.13820106 C34.739157,5.23555556 34.7019029,5.3794709 34.6770668,5.81544974 C34.6522307,6.25142857 34.6522307,6.8821164 34.6398127,7.05989418 C34.6273947,7.23767196 34.6025586,7.31386243 34.5280504,7.31386243 C34.4535422,7.31386243 34.4287061,7.22920635 34.4287061,7.05989418 C34.4394684,6.5837037 34.2565094,6.12359788 33.9237061,5.79005291 C33.489075,5.42603175 32.5121898,5.14666667 31.4152635,5.14666667" id="Fill-17"></path>
                <path d="M31.9286664,13.5064974 C32.8641582,13.5064974 33.5844041,13.3964444 34.0976828,12.9012063 C34.3319697,12.607873 34.4900926,12.2582434 34.55715,11.8853333 C34.5819861,11.7541164 34.6068221,11.7033228 34.6813303,11.7033228 C34.7558385,11.7033228 34.7682566,11.7879788 34.7682566,11.8853333 C34.7103057,12.4072381 34.6192402,12.9249101 34.4950598,13.4345397 C34.4693959,13.6089312 34.3410762,13.749037 34.172191,13.7858624 C33.3687443,14.0419471 32.5296992,14.1621587 31.6885844,14.141418" id="Fill-19"></path>
                <path d="M34.337682,12.8715767 C33.5586574,13.3718942 32.6351697,13.5839577 31.7216164,13.4726349 C31.0961615,13.4040635 30.4971984,13.1771852 29.9789525,12.8123175 C29.1531533,12.2430053 28.5628828,11.3803598 28.3232148,10.3911534 C28.2814074,10.2286138 28.2507762,10.0631111 28.2321492,9.89591534 C28.2180754,9.81168254 28.2110385,9.72702646 28.2114525,9.64194709 L28.2114525,9.39644444 L28.2114525,9.12977778 C28.2139361,9.04427513 28.2234566,8.95961905 28.2404279,8.87580952 L28.2735426,8.64300529 L28.3232148,8.38480423 C28.5603992,7.39009524 29.1506697,6.52152381 29.9789525,5.94670899 C30.5013377,5.57845503 31.1065098,5.35242328 31.7381738,5.29062434 C32.3151984,5.22162963 32.9005016,5.2957037 33.4435836,5.50649735 C33.7660385,5.62713228 34.0719361,5.78924868 34.3542393,5.98903704 L34.3542393,5.40067725 C34.1253336,5.24956614 33.882768,5.12046561 33.6298541,5.01549206 C33.3355467,4.89401058 33.030477,4.80046561 32.7191984,4.73612698 C32.3830836,4.67432804 32.0424156,4.64596825 31.7009197,4.6514709 C30.9500426,4.65993651 30.2124115,4.85125926 29.5484607,5.21020106 C29.1854402,5.39983069 28.8476697,5.63602116 28.5426,5.91284656 C28.2379443,6.20237037 27.9697148,6.52914286 27.7437066,6.88639153 C27.5102475,7.2546455 27.3330836,7.65718519 27.2180098,8.08004233 C27.1890344,8.18586243 27.160059,8.29168254 27.135223,8.40173545 L27.0814115,8.7488254 C27.0631984,8.85379894 27.0520221,8.95961905 27.0482967,9.06628571 L27.0482967,9.35834921 L27.0482967,9.5530582 L27.0482967,9.71813757 C27.0511943,9.82903704 27.0623705,9.93908995 27.0814115,10.0482963 C27.1074893,10.2679788 27.1517803,10.4842751 27.2138705,10.6959153 C27.3281164,11.1179259 27.5040385,11.5208889 27.7354279,11.8895661 C27.9589525,12.2506243 28.2259402,12.5820529 28.530182,12.8758095 C28.8302844,13.1539048 29.1643295,13.3917884 29.5236246,13.5826878 C30.190473,13.9450159 30.9334852,14.1350688 31.6885016,14.1371852 C32.348727,14.1422646 33.0019156,13.9975026 33.6008787,13.7139048 C33.8595877,13.5979259 34.1062926,13.456127 34.337682,13.2906243 L34.337682,12.8673439 L34.337682,12.8715767 Z" id="Fill-21"></path>
                <g id="Group-25" transform="translate(0.000000, 0.390730)">
                    <path d="M6.84560615,18.6076614 C4.65506516,18.0603598 2.75676189,16.8159153 1.50750779,14.8747513 C0.598921721,13.4808889 0.112134836,11.8715767 0.0148602459,10.1958095 C-0.0989717213,8.2546455 0.452802869,6.36300529 1.39408975,4.70374603 C2.02658156,3.59221164 2.93516762,2.68004233 3.92488484,1.91644444 C5.87203238,0.390095238 8.5332168,-0.240169312 10.9344504,0.141206349 C12.9788725,0.456550265 14.7794873,1.36914286 16.2886922,2.8125291 C17.8786143,4.33887831 18.884475,6.49591534 19.111725,8.70247619 C19.2739873,10.2288254 19.0794381,11.7886138 18.5115201,13.2154921 C17.602934,15.538455 15.7207742,17.479619 13.3841143,18.3092487 C13.0273029,18.4417354 12.6704914,18.5251217 12.313266,18.6241693 C13.9847332,17.7450159 15.412393,16.5505185 16.3536799,14.8582434 C17.3111102,13.1659683 17.6679217,11.1913651 17.375684,9.25020106 C16.9865857,6.69485714 15.3312619,4.27242328 12.995016,3.17739683 C12.3621102,2.87898413 11.7130611,2.63009524 11.0155816,2.5141164 C10.5122373,2.43073016 10.0258643,2.39771429 9.52293402,2.38120635 L9.57136434,2.38120635 C7.57578648,2.39771429 5.59635205,3.17739683 4.15213484,4.60427513 C1.71820041,6.99369312 1.03686434,10.7435344 2.3349627,13.9122116 C2.80560615,15.0571852 3.5192291,16.0857566 4.39552828,16.9318942 C5.12570861,17.6286138 5.96930697,18.1428995 6.84560615,18.6076614" id="Fill-23"></path>
                </g>
            </g>
        </g>
    </g>
</svg>