<?xml version="1.0" encoding="UTF-8"?>
<svg width="40px" height="40px" viewBox="0 0 40 40" version="1.1" xmlns="http://www.w3.org/2000/svg" xmlns:xlink="http://www.w3.org/1999/xlink">
    <!-- Generator: Sketch 44.1 (41455) - http://www.bohemiancoding.com/sketch -->
    <title>ico-message</title>
    <desc>Created with Sketch.</desc>
    <defs></defs>
    <g id="cab" stroke="none" stroke-width="1" fill="none" fill-rule="evenodd">
        <g id="activity" transform="translate(-466.000000, -309.000000)">
            <g id="icn_practice/message" transform="translate(466.000000, 309.000000)">
                <circle id="Oval-4" fill="#FF9000" cx="20" cy="20" r="20"></circle>
                <path d="M10,13.0068455 C10,12.4507801 10.4451738,12 10.9939057,12 L28.0092049,12 L29.0046024,12 C29.5543453,12 30,12.4499488 30,13.0068455 L30,24.9931545 C30,25.5492199 29.5502307,26 28.9992319,26 L20.1293729,26 L16.2608902,30.001066 L14.0040234,26 L11.0000556,26 C10.4477401,26 10,25.5500512 10,24.9931545 L10,13.0068455 Z M14,17 C14,17.5561352 14.4488226,18 15.0024733,18 L24.9975267,18 C25.544239,18 26,17.5522847 26,17 C26,16.4438648 25.5511774,16 24.9975267,16 L15.0024733,16 C14.455761,16 14,16.4477153 14,17 Z M14,21 C14,21.5561352 14.4488226,22 15.0024733,22 L24.9975267,22 C25.544239,22 26,21.5522847 26,21 C26,20.4438648 25.5511774,20 24.9975267,20 L15.0024733,20 C14.455761,20 14,20.4477153 14,21 Z" id="message" fill="#FFFFFF"></path>
            </g>
        </g>
    </g>
</svg>