<?xml version="1.0" encoding="UTF-8"?>
<svg width="19px" height="15px" viewBox="0 0 19 15" version="1.1" xmlns="http://www.w3.org/2000/svg" xmlns:xlink="http://www.w3.org/1999/xlink">
    <!-- Generator: Sketch 44.1 (41455) - http://www.bohemiancoding.com/sketch -->
    <title>ico-comment</title>
    <desc>Created with Sketch.</desc>
    <defs></defs>
    <g id="Symbols" stroke="none" stroke-width="1" fill="none" fill-rule="evenodd">
        <g id="icn_comment" transform="translate(-1.000000, -3.000000)" fill="#9B00D2">
            <g id="ico-comment" transform="translate(1.000000, 3.000000)">
                <path d="M5.76529667,6.4950625 C5.46129667,6.4950625 5.21429667,6.2506875 5.21429667,5.9506875 C5.21429667,5.6506875 5.46129667,5.4069375 5.76529667,5.4069375 C6.06866333,5.4069375 6.31629667,5.6506875 6.31629667,5.9506875 C6.31629667,6.2506875 6.06866333,6.4950625 5.76529667,6.4950625 M5.76529667,4.8206875 C5.13386333,4.8206875 4.62023,5.3281875 4.62023,5.9506875 C4.62023,6.5744375 5.13386333,7.0806875 5.76529667,7.0806875 C6.39673,7.0806875 6.91036333,6.5744375 6.91036333,5.9506875 C6.91036333,5.3281875 6.39673,4.8206875 5.76529667,4.8206875 M9.05989667,6.4950625 C8.75589667,6.4950625 8.50826333,6.2506875 8.50826333,5.9506875 C8.50826333,5.6506875 8.75589667,5.4069375 9.05989667,5.4069375 C9.36389667,5.4069375 9.61089667,5.6506875 9.61089667,5.9506875 C9.61089667,6.2506875 9.36389667,6.4950625 9.05989667,6.4950625 M9.05989667,4.8206875 C8.42846333,4.8206875 7.91419667,5.3281875 7.91419667,5.9506875 C7.91419667,6.5744375 8.42846333,7.0806875 9.05989667,7.0806875 C9.69133,7.0806875 10.2049633,6.5744375 10.2049633,5.9506875 C10.2049633,5.3281875 9.69133,4.8206875 9.05989667,4.8206875 M12.35513,6.4950625 C12.05113,6.4950625 11.8034967,6.2506875 11.8034967,5.9506875 C11.8034967,5.6506875 12.05113,5.4069375 12.35513,5.4069375 C12.6584967,5.4069375 12.90613,5.6506875 12.90613,5.9506875 C12.90613,6.2506875 12.6584967,6.4950625 12.35513,6.4950625 M12.35513,4.8206875 C11.7230633,4.8206875 11.20943,5.3281875 11.20943,5.9506875 C11.20943,6.5744375 11.7230633,7.0806875 12.35513,7.0806875 C12.98593,7.0806875 13.5001967,6.5744375 13.5001967,5.9506875 C13.5001967,5.3281875 12.98593,4.8206875 12.35513,4.8206875 M12.70093,10.9675625 C12.53183,10.9650625 12.3500633,10.9644375 12.1568967,10.9644375 L10.9465967,10.9669375 C6.59939667,10.9669375 2.01976333,10.5856875 1.01403,7.7531875 C0.36613,5.9288125 0.471896667,4.3988125 1.32943,3.2050625 C2.54353,1.5163125 5.21873,0.5856875 8.86356333,0.5856875 C9.21443,0.5856875 9.57733,0.5950625 9.94276333,0.6125625 C13.0777633,0.7625625 15.2652967,1.5369375 16.44583,2.9156875 C17.2862633,3.8988125 17.6155967,5.2006875 17.4230633,6.7844375 C17.0341967,9.9863125 17.47753,12.3019375 17.8657633,13.5888125 C16.57313,12.5044375 14.4571633,10.9900625 12.70093,10.9675625 M18.8309633,14.4763125 C18.8163967,14.4481875 17.4312967,11.6356875 18.01333,6.8544375 C18.22613,5.1019375 17.8511967,3.6494375 16.8992967,2.5375625 C15.6085633,1.0300625 13.2772633,0.1850625 9.97189667,0.0269375 C9.59886333,0.0088125 9.22773,6.25e-05 8.86926333,6.25e-05 C5.02303,6.25e-05 2.17366333,1.0175625 0.84493,2.8663125 C-0.130403333,4.2231875 -0.262136667,5.9331875 0.45353,7.9469375 C1.58276333,11.1250625 6.39166333,11.5538125 10.94723,11.5538125 L12.1568967,11.5506875 C12.34753,11.5506875 12.5254967,11.5513125 12.6926967,11.5538125 C15.0125967,11.5844375 18.3236633,14.7844375 18.35723,14.8163125 C18.4135967,14.8706875 18.4870633,14.9000625 18.5655967,14.9000625 C18.62893,14.9000625 18.6890967,14.8813125 18.7397633,14.8444375 C18.85883,14.7594375 18.89683,14.6044375 18.8309633,14.4763125" id="Fill-1" transform="translate(9.431496, 7.450063) scale(-1, 1) translate(-9.431496, -7.450063) "></path>
            </g>
        </g>
    </g>
</svg>