<?xml version="1.0" encoding="UTF-8"?>
<svg width="33px" height="33px" viewBox="0 0 33 33" version="1.1" xmlns="http://www.w3.org/2000/svg" xmlns:xlink="http://www.w3.org/1999/xlink">
    <!-- Generator: Sketch 44.1 (41455) - http://www.bohemiancoding.com/sketch -->
    <title>ico-discount</title>
    <desc>Created with Sketch.</desc>
    <defs></defs>
    <g id="cab" stroke="none" stroke-width="1" fill="none" fill-rule="evenodd">
        <g id="activity" transform="translate(-468.000000, -504.000000)" fill="#D0011B">
            <g id="ico-discount" transform="translate(468.000000, 504.000000)">
                <g id="Group">
                    <path d="M16.4938921,29.2736889 C17.7861026,29.2736889 19.03055,29.6837604 20.0622342,30.4397133 C20.1702079,30.4122033 20.2781816,30.383547 20.3861553,30.3534579 C20.8979447,29.1885797 21.7686816,28.2174181 22.8874974,27.5775231 C23.9953132,26.9453654 25.2909974,26.6780022 26.5635237,26.8209971 C26.6445763,26.7427654 26.7244711,26.6636741 26.8034974,26.5834365 C26.65905,25.3219866 26.9227605,24.0507936 27.5682868,22.9440877 C28.2138132,21.8365222 29.1951289,20.9748276 30.3718395,20.4678978 C30.4022342,20.3612964 30.4308921,20.2544084 30.4589711,20.1475205 C29.6953395,19.1259238 29.2813921,17.8942765 29.2813921,16.6147732 C29.2813921,15.3355564 29.6953395,14.1036225 30.4589711,13.0823124 C30.4308921,12.9754244 30.4022342,12.8685365 30.3718395,12.7619351 C29.1951289,12.2550053 28.2138132,11.3933107 27.5682868,10.2857451 C26.9227605,9.17875269 26.65905,7.90784627 26.8034974,6.64639642 C26.7244711,6.56615881 26.6445763,6.48706745 26.5635237,6.40883578 C25.2921553,6.55183067 23.9947342,6.28446749 22.8877868,5.65202319 C21.7686816,5.01241481 20.8979447,4.04125318 20.3861553,2.87637502 C20.2781816,2.84628592 20.1702079,2.81762963 20.0622342,2.79011959 C19.03055,3.5460725 17.7861026,3.956144 16.4938921,3.956144 C15.2019711,3.956144 13.9572342,3.5460725 12.9258395,2.79011959 C12.8175763,2.81762963 12.7096026,2.84628592 12.6016289,2.87637502 C12.0898395,4.04125318 11.2193921,5.01241481 10.1005763,5.65202319 C8.99276053,6.28504062 7.69505,6.55211723 6.42426053,6.40883578 C6.34349737,6.48706745 6.26331316,6.56615881 6.18457632,6.64639642 C6.32873421,7.90784627 6.06531316,9.17875269 5.41978684,10.2857451 C4.77426053,11.3930242 3.79323421,12.2550053 2.61565526,12.7619351 C2.58555,12.8685365 2.55660263,12.9754244 2.52910263,13.0823124 C3.29244474,14.1036225 3.70668158,15.3355564 3.70668158,16.6147732 C3.70668158,17.8942765 3.29244474,19.1262103 2.52910263,20.1475205 C2.55660263,20.2544084 2.58555,20.3612964 2.61565526,20.4678978 C3.79323421,20.9748276 4.77426053,21.8368087 5.41978684,22.9440877 C6.06531316,24.0507936 6.32873421,25.3219866 6.18457632,26.5834365 C6.26331316,26.6636741 6.34349737,26.7427654 6.42426053,26.8209971 C7.69649737,26.6765694 8.99305,26.9447923 10.1002868,27.5775231 C11.2193921,28.2174181 12.0898395,29.1885797 12.6016289,30.3534579 C12.7096026,30.383547 12.8175763,30.4122033 12.9258395,30.4397133 C13.9572342,29.6837604 15.2019711,29.2736889 16.4938921,29.2736889 M13.23355,32.9428402 C13.1498921,32.9428402 13.0656553,32.9342433 12.9817079,32.9167629 C12.4218658,32.7989856 11.8568132,32.6491132 11.3027605,32.4711576 C10.9276026,32.3508012 10.6352342,32.0576474 10.5185763,31.6845425 C10.2493658,30.8237076 9.67041842,30.1030019 8.88797105,29.6556772 C8.11247105,29.2123644 7.17805,29.0748142 6.30007632,29.2722561 C5.91478684,29.3573653 5.51241842,29.2544892 5.22033947,28.9931438 C4.79278684,28.611442 4.37855,28.2019437 3.99065526,27.7755381 C3.72665526,27.485823 3.62099737,27.087214 3.70812895,26.7069451 C3.90931316,25.8280567 3.77152368,24.9176464 3.32052368,24.1442131 C2.86923421,23.3699202 2.14120789,22.7967944 1.27076053,22.5300044 C0.893865789,22.414233 0.597734211,22.1245179 0.476155263,21.7534189 C0.296681579,21.2035047 0.144997368,20.6447071 0.0263131579,20.0916407 C-0.0553184211,19.7102255 0.0552605263,19.3136225 0.323023684,19.0273461 C0.941628947,18.365959 1.28262895,17.5088494 1.28262895,16.6147732 C1.28262895,15.7209835 0.941628947,14.8638739 0.323023684,14.2024867 C0.0552605263,13.9162104 -0.0553184211,13.5193208 0.0263131579,13.1379056 C0.144997368,12.5851258 0.296681579,12.0263281 0.476155263,11.476414 C0.597734211,11.105315 0.893865789,10.8155999 1.27076053,10.6998285 C2.14120789,10.4330385 2.86923421,9.85962612 3.32052368,9.08561975 C3.77152368,8.31218651 3.90931316,7.4017762 3.70812895,6.52288782 C3.62099737,6.14261886 3.72665526,5.74400988 3.99065526,5.45400823 C4.37855,5.02788921 4.79278684,4.61839084 5.22033947,4.23668907 C5.51328684,3.97534371 5.91623421,3.87189451 6.30007632,3.95757681 C7.17862895,4.15501864 8.11247105,4.01746846 8.88826053,3.57415566 C9.67041842,3.12683099 10.2493658,2.40612532 10.5185763,1.54529039 C10.6352342,1.17218551 10.9276026,0.879031669 11.3027605,0.758675255 C11.8568132,0.580719699 12.4218658,0.430847307 12.9817079,0.313069959 C13.3690237,0.232832349 13.7682079,0.341439685 14.0573921,0.606223797 C14.7254974,1.21889526 15.5910237,1.55617978 16.4938921,1.55617978 C17.39705,1.55617978 18.2622868,1.21889526 18.9306816,0.606223797 C19.2195763,0.341153122 19.6193395,0.231686098 20.0060763,0.313069959 C20.5662079,0.430847307 21.1312605,0.580719699 21.6853132,0.758675255 C22.0601816,0.879031669 22.35255,1.17218551 22.4694974,1.54529039 C22.7384184,2.40612532 23.3176553,3.12683099 24.0998132,3.57415566 C24.8753132,4.01775502 25.8103132,4.15501864 26.6885763,3.95757681 C27.0729974,3.87160794 27.4759447,3.97591684 27.7686026,4.23726219 C28.1976026,4.62068334 28.6109711,5.03018171 28.9974184,5.45400823 C29.2614184,5.74400988 29.3667868,6.14261886 29.2796553,6.52288782 C29.0787605,7.4017762 29.2162605,8.31218651 29.66755,9.08561975 C30.1188395,9.85962612 30.8468658,10.4330385 31.7173132,10.6998285 C32.0939184,10.8155999 32.39005,11.1050284 32.5116289,11.476414 C32.6911026,12.0251819 32.8424974,12.5839795 32.9614711,13.1379056 C33.0431026,13.5193208 32.9325237,13.9162104 32.66505,14.2024867 C32.0464447,14.8638739 31.7054447,15.7209835 31.7054447,16.6147732 C31.7054447,17.5088494 32.0464447,18.365959 32.66505,19.0273461 C32.9325237,19.3136225 33.0431026,19.7102255 32.9614711,20.0916407 C32.8424974,20.6458534 32.6911026,21.204651 32.5116289,21.7534189 C32.39005,22.1248044 32.0939184,22.414233 31.7173132,22.5300044 C30.8468658,22.7967944 30.1188395,23.3699202 29.66755,24.1442131 C29.2162605,24.9176464 29.0787605,25.8280567 29.2796553,26.7069451 C29.3667868,27.087214 29.2614184,27.485823 28.9974184,27.7755381 C28.6103921,28.1999377 28.1967342,28.6097227 27.7677342,28.9928573 C27.4756553,29.2544892 27.0724184,29.3585115 26.6882868,29.2722561 C25.8100237,29.0753874 24.8758921,29.2123644 24.0995237,29.6556772 C23.3176553,30.1030019 22.7384184,30.8237076 22.4694974,31.6845425 C22.35255,32.0576474 22.0601816,32.3508012 21.6853132,32.4711576 C21.1312605,32.6491132 20.5662079,32.7989856 20.0060763,32.9167629 C19.6204974,32.9978602 19.2201553,32.8883932 18.9306816,32.6233225 C18.2622868,32.0109376 17.39705,31.6736531 16.4938921,31.6736531 C15.5910237,31.6736531 14.7254974,32.0109376 14.0573921,32.6233225 C13.8310237,32.8310806 13.5357605,32.9428402 13.23355,32.9428402" id="Fill-1"></path>
                    <path d="M11.2579211,11.0885511 C10.2734211,11.0885511 9.47244737,11.8814706 9.47244737,12.856071 C9.47244737,13.8306714 10.2734211,14.6235909 11.2579211,14.6235909 C12.2424211,14.6235909 13.0433947,13.8306714 13.0433947,12.856071 C13.0433947,11.8814706 12.2424211,11.0885511 11.2579211,11.0885511 M11.2579211,17.0235551 C8.93663158,17.0235551 7.04810526,15.1540188 7.04810526,12.856071 C7.04810526,10.5584097 8.93663158,8.68887343 11.2579211,8.68887343 C13.5792105,8.68887343 15.4674474,10.5584097 15.4674474,12.856071 C15.4674474,15.1540188 13.5792105,17.0235551 11.2579211,17.0235551" id="Fill-8"></path>
                    <path d="M21.7824316,18.6059268 C20.7979316,18.6059268 19.9972474,19.3991328 19.9972474,20.3734467 C19.9972474,21.3483336 20.7979316,22.1412531 21.7824316,22.1412531 C22.7669316,22.1412531 23.5679053,21.3483336 23.5679053,20.3734467 C23.5679053,19.3991328 22.7669316,18.6059268 21.7824316,18.6059268 M21.7824316,24.5409308 C19.4611421,24.5409308 17.5729053,22.6713945 17.5729053,20.3734467 C17.5729053,18.0757854 19.4611421,16.2062491 21.7824316,16.2062491 C24.1037211,16.2062491 25.9922474,18.0757854 25.9922474,20.3734467 C25.9922474,22.6713945 24.1037211,24.5409308 21.7824316,24.5409308" id="Fill-10"></path>
                    <path d="M11.2570816,24.5409308 C10.9977132,24.5409308 10.7363184,24.4589738 10.5157395,24.2896151 C9.98629211,23.8841287 9.88960789,23.1301817 10.2995026,22.6063447 L20.8241868,9.15393635 C21.2346605,8.63067251 21.9959763,8.53438738 22.5245553,8.94016043 C23.0540026,9.34593348 23.1506868,10.0995939 22.7405026,10.6234309 L12.2161079,24.0758392 C11.9772921,24.3810287 11.6192132,24.5409308 11.2570816,24.5409308" id="Fill-12"></path>
                </g>
            </g>
        </g>
    </g>
</svg>