<?xml version="1.0" encoding="UTF-8"?>
<svg width="5px" height="21px" viewBox="0 0 5 21" version="1.1" xmlns="http://www.w3.org/2000/svg" xmlns:xlink="http://www.w3.org/1999/xlink">
    <!-- Generator: Sketch 44.1 (41455) - http://www.bohemiancoding.com/sketch -->
    <title>!</title>
    <desc>Created with Sketch.</desc>
    <defs></defs>
    <g id="cab" stroke="none" stroke-width="1" fill="none" fill-rule="evenodd">
        <g id="cab_locked" transform="translate(-687.000000, -259.000000)" fill="#000000">
            <g id="Group" transform="translate(431.000000, 97.000000)">
                <g id="warn" transform="translate(242.000000, 156.000000)">
                    <path d="M16.3259669,26.047619 C17.6274007,26.047619 18.6519337,25.1338464 18.6519337,23.8877927 C18.6519337,22.641739 17.6274007,21.7279663 16.3259669,21.7279663 C15.024533,21.7279663 14,22.641739 14,23.8877927 C14,25.1338464 15.024533,26.047619 16.3259669,26.047619 Z M14.3045909,18.5989871 C14.3045909,19.7065904 15.2183636,20.6203631 16.3259669,20.6203631 C17.4335701,20.6203631 18.3473428,19.7065904 18.3473428,18.5989871 L18.3473428,8.02137595 C18.3473428,6.91377269 17.4335701,6 16.3259669,6 C15.2183636,6 14.3045909,6.91377269 14.3045909,8.02137595 L14.3045909,18.5989871 Z" id="!"></path>
                </g>
            </g>
        </g>
    </g>
</svg>