<?xml version="1.0" standalone="no"?>
<!DOCTYPE svg PUBLIC "-//W3C//DTD SVG 1.1//EN" "http://www.w3.org/Graphics/SVG/1.1/DTD/svg11.dtd" >
<svg>
<metadata>
Created by FontForge 20090622 at Wed Jun 14 20:03:27 2017
 By deploy user
Copyright (c) 2015 by S-Core Co., Ltd.. All rights reserved.
</metadata>
<defs>
<font id="CoreSansGS75ExtraBold" horiz-adv-x="816" >
  <font-face 
    font-family="Core Sans GS 75 ExtraBold"
    font-weight="700"
    font-stretch="normal"
    units-per-em="2000"
    panose-1="2 15 8 3 3 3 2 2 2 4"
    ascent="1600"
    descent="-400"
    x-height="936"
    cap-height="1400"
    bbox="-848 -588 3310 1924"
    underline-thickness="48"
    underline-position="-366"
    unicode-range="U+0009-U+FB06"
  />
<missing-glyph horiz-adv-x="1020" 
d="M10 0v1400h1000v-1400h-1000zM212 1104q0 -26 18.5 -45t45.5 -19q31 0 48 20q23 28 74.5 55t109.5 27q90 0 141 -40.5t51 -99.5q0 -66 -52 -113.5t-164 -104.5q-158 -82 -158 -204q0 -86 53 -137t147 -51q64 0 122 36q26 16 26 50q0 26 -18 44t-44 18q-19 0 -32 -8
q-28 -16 -54 -16q-29 0 -47.5 15t-18.5 43q0 56 114 110q134 64 198 135t64 181q0 116 -92 192t-234 76q-155 0 -280 -118q-18 -18 -18 -46zM408 220q0 -41 27 -68.5t67 -27.5t68 28t28 68t-28 68t-68 28t-67 -27.5t-27 -68.5z" />
    <glyph glyph-name="ff" unicode="ff" horiz-adv-x="1520" 
d="M202 936v150q0 189 100.5 297.5t275.5 108.5q157 0 252 -72q25 -18 40.5 -49t15.5 -63q0 -55 -36.5 -93.5t-89.5 -38.5q-35 0 -84 20q-35 14 -62 14q-96 0 -96 -132v-142h386v180q0 189 100.5 297.5t275.5 108.5q77 0 150.5 -24.5t125.5 -69.5t52 -108q0 -56 -37.5 -94
t-92.5 -38q-44 0 -86 28q-34 24 -76 24q-96 0 -96 -132v-172h144q52 0 89 -37t37 -89t-37 -89t-89 -37h-144v-550q0 -66 -46 -112t-112 -46t-112 46t-46 112v550h-386v-550q0 -66 -46 -112t-112 -46t-112 46t-46 112v550h-44q-52 0 -89 37t-37 89t37 89t89 37h44z" />
    <glyph glyph-name="fi" unicode="fi" horiz-adv-x="1328" 
d="M202 936v124q0 142 64 248t173.5 160t248.5 54q223 0 376 -136q46 -40 46 -102q0 -55 -40 -94.5t-96 -39.5q-48 0 -88 30q-79 60 -172 60q-96 0 -146 -53t-50 -143v-108h534q66 0 112 -46t46 -112v-644q0 -66 -46 -112t-112 -46t-112 46t-46 112v550h-376v-550
q0 -66 -46 -112t-112 -46t-112 46t-46 112v550h-44q-52 0 -89 37t-37 89t37 89t89 37h44z" />
    <glyph glyph-name="fl" unicode="fl" horiz-adv-x="1362" 
d="M518 1032v-96h144q52 0 89 -37t37 -89t-37 -89t-89 -37h-144v-550q0 -66 -46 -112t-112 -46t-112 46t-46 112v550h-44q-52 0 -89 37t-37 89t37 89t89 37h44v102q0 226 116.5 355t309.5 129q85 0 166.5 -31.5t137.5 -84.5q15 50 54.5 84t99.5 34q66 0 112 -46t46 -112
v-1232q0 -66 -46 -112t-112 -46t-112 46t-46 112v1030q-33 40 -86 63t-112 23q-98 0 -155 -59t-57 -159z" />
    <glyph glyph-name="ffi" unicode="ffi" horiz-adv-x="2030" 
d="M904 936v124q0 142 64 248t173.5 160t248.5 54q223 0 376 -136q46 -40 46 -102q0 -55 -40 -94.5t-96 -39.5q-48 0 -88 30q-79 60 -172 60q-96 0 -146 -53t-50 -143v-108h534q66 0 112 -46t46 -112v-644q0 -66 -46 -112t-112 -46t-112 46t-46 112v550h-376v-550
q0 -66 -46 -112t-112 -46t-112 46t-46 112v550h-386v-550q0 -66 -46 -112t-112 -46t-112 46t-46 112v550h-44q-52 0 -89 37t-37 89t37 89t89 37h44v150q0 189 100.5 297.5t275.5 108.5q157 0 252 -72q25 -18 40.5 -49t15.5 -63q0 -55 -36.5 -93.5t-89.5 -38.5q-35 0 -84 20
q-35 14 -62 14q-96 0 -96 -132v-142h386z" />
    <glyph glyph-name="ffl" unicode="ffl" horiz-adv-x="2064" 
d="M1220 1032v-96h144q52 0 89 -37t37 -89t-37 -89t-89 -37h-144v-550q0 -66 -46 -112t-112 -46t-112 46t-46 112v550h-386v-550q0 -66 -46 -112t-112 -46t-112 46t-46 112v550h-44q-52 0 -89 37t-37 89t37 89t89 37h44v150q0 189 100.5 297.5t275.5 108.5q157 0 252 -72
q25 -18 40.5 -49t15.5 -63q0 -55 -36.5 -93.5t-89.5 -38.5q-35 0 -84 20q-35 14 -62 14q-96 0 -96 -132v-142h386v102q0 226 116.5 355t309.5 129q85 0 166.5 -31.5t137.5 -84.5q15 50 54.5 84t99.5 34q66 0 112 -46t46 -112v-1232q0 -66 -46 -112t-112 -46t-112 46t-46 112
v1030q-33 40 -86 63t-112 23q-98 0 -155 -59t-57 -159z" />
    <glyph glyph-name=".notdef" horiz-adv-x="1020" 
d="M10 0v1400h1000v-1400h-1000zM212 1104q0 -26 18.5 -45t45.5 -19q31 0 48 20q23 28 74.5 55t109.5 27q90 0 141 -40.5t51 -99.5q0 -66 -52 -113.5t-164 -104.5q-158 -82 -158 -204q0 -86 53 -137t147 -51q64 0 122 36q26 16 26 50q0 26 -18 44t-44 18q-19 0 -32 -8
q-28 -16 -54 -16q-29 0 -47.5 15t-18.5 43q0 56 114 110q134 64 198 135t64 181q0 116 -92 192t-234 76q-155 0 -280 -118q-18 -18 -18 -46zM408 220q0 -41 27 -68.5t67 -27.5t68 28t28 68t-28 68t-68 28t-67 -27.5t-27 -68.5z" />
    <glyph glyph-name=".null" horiz-adv-x="0" 
 />
    <glyph glyph-name=".null" horiz-adv-x="0" 
 />
    <glyph glyph-name="nonmarkingreturn" horiz-adv-x="666" 
 />
    <glyph glyph-name="CR" unicode="&#x9;" horiz-adv-x="474" 
 />
    <glyph glyph-name="space" unicode=" " horiz-adv-x="600" 
 />
    <glyph glyph-name="exclam" unicode="!" horiz-adv-x="680" 
d="M532 150q0 -75 -55.5 -124.5t-136.5 -49.5t-136.5 49.5t-55.5 124.5t55.5 124.5t136.5 49.5t136.5 -49.5t55.5 -124.5zM514 1250v-678q0 -72 -51 -123t-123 -51t-123 51t-51 123v678q0 72 51 123t123 51t123 -51t51 -123z" />
    <glyph glyph-name="quotedbl" unicode="&#x22;" horiz-adv-x="1142" 
d="M336 768q-51 0 -84.5 33t-37.5 89l-28 386v9q0 58 45 98.5t105 40.5t105 -40.5t45 -98.5v-9l-28 -386q-4 -56 -37.5 -89t-84.5 -33zM806 768q-51 0 -84.5 33t-37.5 89l-28 386v9q0 58 45 98.5t105 40.5t105 -40.5t45 -98.5v-9l-28 -386q-4 -56 -37.5 -89t-84.5 -33z" />
    <glyph glyph-name="numbersign" unicode="#" horiz-adv-x="1356" 
d="M556 844v-282h244v282h-244zM1156 306h-84v-194q0 -57 -39.5 -96.5t-96.5 -39.5t-96.5 39.5t-39.5 96.5v194h-244v-194q0 -57 -39.5 -96.5t-96.5 -39.5t-96.5 39.5t-39.5 96.5v194h-84q-52 0 -90 38t-38 90t38 90t90 38h84v282h-84q-52 0 -90 38t-38 90t38 90t90 38h84
v188q0 57 39.5 96.5t96.5 39.5t96.5 -39.5t39.5 -96.5v-188h244v188q0 57 39.5 96.5t96.5 39.5t96.5 -39.5t39.5 -96.5v-188h84q52 0 90 -38t38 -90t-38 -90t-90 -38h-84v-282h84q52 0 90 -38t38 -90t-38 -90t-90 -38z" />
    <glyph glyph-name="dollar" unicode="$" horiz-adv-x="1116" 
d="M88 234q0 65 44.5 110.5t107.5 45.5q46 0 100 -36q96 -64 196 -64q75 0 119.5 35.5t44.5 92.5q0 63 -40 105t-146 83q-195 76 -282.5 181t-87.5 263q0 123 73 218t199 134v78q0 53 37 90.5t91 37.5q52 0 89 -37.5t37 -90.5v-66q96 -18 186 -66q37 -20 58.5 -54.5
t21.5 -75.5q0 -60 -43 -102t-103 -42q-41 0 -82 24q-52 28 -100 28q-116 0 -116 -86q0 -45 43 -80.5t163 -83.5q176 -71 263 -185.5t87 -280.5q0 -163 -89.5 -274.5t-254.5 -145.5v-70q0 -53 -37 -90.5t-89 -37.5q-54 0 -91 37.5t-37 90.5v66q-163 27 -298 124
q-64 45 -64 124z" />
    <glyph glyph-name="percent" unicode="%" horiz-adv-x="1882" 
d="M804 1086q0 -142 -101.5 -240t-242.5 -98t-242.5 98t-101.5 240t101.5 240t242.5 98t242.5 -98t101.5 -240zM1078 314q0 142 101.5 240t242.5 98t242.5 -98t101.5 -240t-101.5 -240t-242.5 -98t-242.5 98t-101.5 240zM1310 314q0 -46 32.5 -79t79.5 -33t79.5 33t32.5 79
t-32.5 79t-79.5 33t-79.5 -33t-32.5 -79zM572 1086q0 46 -32.5 79t-79.5 33t-79.5 -33t-32.5 -79t32.5 -79t79.5 -33t79.5 33t32.5 79zM410 128l894 1254q29 42 80 42q39 0 70.5 -29.5t31.5 -70.5q0 -30 -16 -52l-894 -1254q-29 -42 -80 -42q-39 0 -70.5 29.5t-31.5 70.5
q0 30 16 52z" />
    <glyph glyph-name="ampersand" unicode="&#x26;" horiz-adv-x="1346" 
d="M1154 184q34 -48 34 -104q0 -62 -46.5 -104t-111.5 -42q-76 0 -126 70l-36 52q-145 -80 -306 -80q-219 0 -350.5 112t-131.5 286q0 118 56.5 215t183.5 187q-69 97 -96.5 168t-27.5 146q0 149 107.5 241.5t274.5 92.5q157 0 269.5 -94t112.5 -240q0 -109 -61.5 -195.5
t-172.5 -164.5l218 -282l80 90q42 48 110 48q62 0 105 -43t43 -105q0 -57 -38 -98q-67 -70 -120 -118zM578 248q67 0 120 28l-218 288q-46 -42 -59 -82t-13 -98q0 -64 47 -100t123 -36zM496 1090q0 -60 68 -154q96 76 96 160q0 30 -22 57t-58 27q-40 0 -62 -27t-22 -63z" />
    <glyph glyph-name="quotesingle" unicode="'" horiz-adv-x="672" 
d="M336 768q-51 0 -84.5 33t-37.5 89l-28 386v9q0 58 45 98.5t105 40.5t105 -40.5t45 -98.5v-9l-28 -386q-4 -56 -37.5 -89t-84.5 -33z" />
    <glyph glyph-name="parenleft" unicode="(" horiz-adv-x="796" 
d="M166 620q0 203 54.5 412t164.5 400q18 31 49 49.5t68 18.5q52 0 96 -36.5t44 -87.5q0 -36 -14 -68q-150 -326 -150 -688t150 -688q14 -32 14 -68q0 -51 -44 -87.5t-96 -36.5q-37 0 -68 18.5t-49 49.5q-110 191 -164.5 400t-54.5 412z" />
    <glyph glyph-name="parenright" unicode=")" horiz-adv-x="796" 
d="M630 620q0 -203 -54.5 -412t-164.5 -400q-18 -31 -49 -49.5t-68 -18.5q-52 0 -96 36.5t-44 87.5q0 36 14 68q150 326 150 688t-150 688q-14 32 -14 68q0 51 44 87.5t96 36.5q37 0 68 -18.5t49 -49.5q110 -191 164.5 -400t54.5 -412z" />
    <glyph glyph-name="asterisk" unicode="*" horiz-adv-x="1200" 
d="M500 780l-36 204q-4 20 -4 42q0 54 41 94t99 40t100 -40t42 -94q0 -6 -6 -42l-36 -204l182 96q17 10 38 18t41 8q42 0 79.5 -28t51.5 -72q7 -21 7 -44q0 -42 -24.5 -77t-64.5 -51q-18 -7 -44 -10l-204 -22l150 -140q8 -8 28 -32q25 -31 25 -76q0 -74 -59 -116
q-39 -27 -82 -27q-67 0 -108 53q-12 15 -24 38l-92 186l-92 -186q-12 -23 -24 -38q-41 -53 -108 -53q-43 0 -82 27q-59 42 -59 116q0 45 25 76q20 24 28 32l150 140l-204 22q-26 3 -44 10q-40 16 -64.5 51t-24.5 77q0 23 7 44q14 44 51.5 72t79.5 28q20 0 41 -8t38 -18z" />
    <glyph glyph-name="plus" unicode="+" horiz-adv-x="1260" 
d="M1026 534h-242v-258q0 -64 -45 -109t-109 -45t-109 45t-45 109v258h-242q-54 0 -92 38t-38 92t38 92t92 38h242v258q0 64 45 109t109 45t109 -45t45 -109v-258h242q54 0 92 -38t38 -92t-38 -92t-92 -38z" />
    <glyph glyph-name="comma" unicode="," horiz-adv-x="628" 
d="M78 -190q0 18 6 42l94 394q11 48 54.5 81t95.5 33q64 0 110 -45.5t46 -108.5q0 -31 -8 -52l-148 -388q-15 -38 -45 -60t-71 -22q-54 0 -94 35t-40 91z" />
    <glyph glyph-name="hyphen" unicode="-" horiz-adv-x="812" 
d="M598 534h-384q-54 0 -92 38t-38 92t38 92t92 38h384q54 0 92 -38t38 -92t-38 -92t-92 -38z" />
    <glyph glyph-name="period" unicode="." horiz-adv-x="628" 
d="M124 168q0 79 56 135.5t134 56.5t134 -56.5t56 -135.5t-56 -135.5t-134 -56.5t-134 56.5t-56 135.5z" />
    <glyph glyph-name="slash" unicode="/" horiz-adv-x="1138" 
d="M92 0l698 1410q44 88 130 88q60 0 104 -41.5t44 -98.5q0 -36 -22 -80l-698 -1410q-44 -88 -130 -88q-60 0 -104 41.5t-44 98.5q0 39 22 80z" />
    <glyph glyph-name="zero" unicode="0" horiz-adv-x="1256" 
d="M1128 700q0 -215 -56 -376.5t-170 -254.5t-274 -93t-274 93t-170 254.5t-56 376.5t56 376.5t170 254.5t274 93t274 -93t170 -254.5t56 -376.5zM476 700q0 -205 40 -308.5t112 -103.5t112 103.5t40 308.5t-40 308.5t-112 103.5t-112 -103.5t-40 -308.5z" />
    <glyph glyph-name="one" unicode="1" horiz-adv-x="1256" 
d="M204 1036q0 41 23.5 76.5t60.5 55.5l414 230q45 26 88 26q41 0 66.5 -25.5t25.5 -68.5v-1180q0 -72 -51 -123t-123 -51t-123 51t-51 123v822l-114 -62q-33 -18 -72 -18q-58 0 -101 43t-43 101z" />
    <glyph glyph-name="two" unicode="2" horiz-adv-x="1256" 
d="M180 194l412 560q72 98 97 145t25 95q0 53 -35.5 87.5t-94.5 34.5q-88 0 -144 -94q-48 -76 -136 -76q-63 0 -107.5 39t-44.5 101q0 57 42 122q63 98 169.5 157t232.5 59q214 0 340 -118.5t126 -311.5q0 -167 -140 -360l-240 -332h282q63 0 107.5 -44.5t44.5 -107.5
t-44.5 -106.5t-107.5 -43.5h-716q-48 0 -78 28t-30 70q0 43 40 96z" />
    <glyph glyph-name="three" unicode="3" horiz-adv-x="1256" 
d="M136 266q0 64 43.5 107t108.5 43q60 0 126 -66q67 -64 154 -64q85 0 134.5 48.5t49.5 123.5q0 93 -61 146.5t-153 55.5h-10q-57 0 -96.5 32.5t-39.5 81.5q0 45 42 106l152 218h-250q-63 0 -107.5 43.5t-44.5 106.5t44.5 107.5t107.5 44.5h634q49 0 78.5 -26t29.5 -66
q0 -45 -40 -102l-248 -356q146 -52 228 -160t82 -260q0 -89 -34 -170.5t-96.5 -145t-160 -101t-215.5 -37.5q-268 0 -418 180q-40 47 -40 110z" />
    <glyph glyph-name="four" unicode="4" horiz-adv-x="1256" 
d="M676 242h-514q-49 0 -78.5 26t-29.5 66q0 45 40 102l634 912q52 76 146 76q69 0 109.5 -46t40.5 -114v-710h32q64 0 110 -46t46 -110t-46 -110t-110 -46h-32v-92q0 -72 -51 -123t-123 -51t-123 51t-51 123v92zM454 554h222v318z" />
    <glyph glyph-name="five" unicode="5" horiz-adv-x="1256" 
d="M136 258q0 63 44.5 106.5t109.5 43.5q60 0 116 -56q64 -64 162 -64q83 0 132.5 47.5t49.5 126.5q0 90 -58.5 144t-149.5 54q-64 0 -142 -32q-47 -18 -72 -18q-42 0 -69 24t-27 70q0 8 2 24l76 514q12 78 60 118t124 40h420q64 0 110 -46t46 -110t-46 -110t-110 -46h-280
l-32 -190q94 0 182 -30t158.5 -85.5t113 -142t42.5 -190.5q0 -98 -33.5 -183.5t-96.5 -150.5t-161 -102.5t-219 -37.5q-254 0 -414 178q-38 41 -38 104z" />
    <glyph glyph-name="six" unicode="6" horiz-adv-x="1256" 
d="M230 800l356 544q52 80 138 80q67 0 118.5 -47.5t51.5 -118.5q0 -47 -32 -96l-172 -262q83 -5 163.5 -38.5t145 -89.5t104 -138.5t39.5 -175.5q0 -138 -70 -249.5t-185 -172t-251 -60.5q-139 0 -258 60.5t-191.5 173t-72.5 252.5q0 170 116 338zM802 452q0 72 -52 123
t-122 51t-122 -51t-52 -123t52 -123t122 -51t122 51t52 123z" />
    <glyph glyph-name="seven" unicode="7" horiz-adv-x="1256" 
d="M1114 1196l-446 -1094q-51 -126 -168 -126q-74 0 -123 45t-49 119q0 42 20 90l360 858h-402q-64 0 -110 46t-46 110t46 110t110 46h724q48 0 80 -26t32 -66q0 -44 -28 -112z" />
    <glyph glyph-name="eight" unicode="8" horiz-adv-x="1256" 
d="M628 -24q-227 0 -374.5 130t-147.5 324q0 119 59 212.5t161 145.5q-57 42 -92.5 111.5t-35.5 148.5q0 162 121 269t309 107t309 -107t121 -269q0 -79 -35.5 -148.5t-92.5 -111.5q102 -50 161 -144t59 -214q0 -194 -147.5 -324t-374.5 -130zM628 632q-72 0 -123 -51.5
t-51 -122.5t51 -122.5t123 -51.5t123 51.5t51 122.5t-51 122.5t-123 51.5zM628 898q50 0 86 36t36 86t-36 86t-86 36t-86 -36t-36 -86t36 -86t86 -36z" />
    <glyph glyph-name="nine" unicode="9" horiz-adv-x="1256" 
d="M1026 600l-356 -544q-52 -80 -138 -80q-67 0 -118.5 47.5t-51.5 118.5q0 47 32 96l172 262q-83 5 -163.5 38.5t-145 89.5t-104 138.5t-39.5 175.5q0 138 70 249.5t185 172t251 60.5q139 0 258 -60.5t191.5 -173t72.5 -252.5q0 -170 -116 -338zM454 948q0 -72 52 -123
t122 -51t122 51t52 123t-52 123t-122 51t-122 -51t-52 -123z" />
    <glyph glyph-name="colon" unicode=":" horiz-adv-x="628" 
d="M124 168q0 79 56 135.5t134 56.5t134 -56.5t56 -135.5t-56 -135.5t-134 -56.5t-134 56.5t-56 135.5zM124 872q0 79 56 135.5t134 56.5t134 -56.5t56 -135.5t-56 -135.5t-134 -56.5t-134 56.5t-56 135.5z" />
    <glyph glyph-name="semicolon" unicode=";" horiz-adv-x="628" 
d="M124 872q0 79 56 135.5t134 56.5t134 -56.5t56 -135.5t-56 -135.5t-134 -56.5t-134 56.5t-56 135.5zM44 -190q0 18 6 42l94 394q11 48 54.5 81t95.5 33q64 0 110 -45.5t46 -108.5q0 -31 -8 -52l-148 -388q-15 -38 -45 -60t-71 -22q-54 0 -94 35t-40 91z" />
    <glyph glyph-name="less" unicode="&#x3c;" horiz-adv-x="1260" 
d="M104 664q0 51 54 80l784 428q29 16 68 16q62 0 104 -42t42 -104q0 -42 -23.5 -78t-62.5 -56l-476 -244l476 -244q39 -20 62.5 -56t23.5 -78q0 -62 -42 -104t-104 -42q-39 0 -68 16l-784 428q-54 29 -54 80z" />
    <glyph glyph-name="equal" unicode="=" horiz-adv-x="1260" 
d="M1026 782h-792q-54 0 -92 38t-38 92t38 92t92 38h792q54 0 92 -38t38 -92t-38 -92t-92 -38zM1026 286h-792q-54 0 -92 38t-38 92t38 92t92 38h792q54 0 92 -38t38 -92t-38 -92t-92 -38z" />
    <glyph glyph-name="greater" unicode="&#x3e;" horiz-adv-x="1260" 
d="M1156 664q0 -51 -54 -80l-784 -428q-29 -16 -68 -16q-62 0 -104 42t-42 104q0 42 23.5 78t62.5 56l476 244l-476 244q-39 20 -62.5 56t-23.5 78q0 62 42 104t104 42q39 0 68 -16l784 -428q54 -29 54 -80z" />
    <glyph glyph-name="question" unicode="?" horiz-adv-x="1066" 
d="M98 1156q0 60 44 108q66 75 165.5 117.5t220.5 42.5q211 0 338.5 -100t127.5 -250q0 -137 -71 -222t-217 -152q-93 -43 -127.5 -69.5t-34.5 -54.5q0 -50 72 -50q25 0 52 8q18 6 30 6q27 0 43.5 -18.5t16.5 -45.5q0 -36 -36 -54q-75 -36 -174 -36q-121 0 -193.5 63
t-72.5 161q0 165 190 264q94 50 134 84.5t40 73.5q0 49 -36.5 75.5t-97.5 26.5q-80 0 -136 -56q-60 -60 -130 -60q-61 0 -104.5 40t-43.5 98zM726 150q0 -75 -55.5 -124.5t-136.5 -49.5t-136.5 49.5t-55.5 124.5t55.5 124.5t136.5 49.5t136.5 -49.5t55.5 -124.5z" />
    <glyph glyph-name="at" unicode="@" horiz-adv-x="1880" 
d="M1106 826q0 54 38 93t92 39t93 -39t39 -93v-412q0 -72 29.5 -106t78.5 -34q84 0 136 84.5t52 233.5q0 144 -55.5 274.5t-151 227t-232.5 153.5t-293 57q-146 0 -278.5 -60t-228.5 -161.5t-152.5 -241.5t-56.5 -293q0 -201 96.5 -373.5t268 -275.5t377.5 -103
q112 0 228.5 30.5t207.5 81.5q16 8 34 8q22 0 39 -16t17 -40q0 -36 -32 -54q-228 -130 -494 -130q-146 0 -282 46.5t-243 130t-187 192t-123 238.5t-43 265q0 169 67 329.5t180 280.5t272 193t333 73q182 0 345 -69t276.5 -183.5t180 -266t66.5 -313.5q0 -205 -106.5 -331.5
t-297.5 -126.5q-97 0 -171.5 34t-112.5 100q-46 -63 -116 -96.5t-150 -33.5q-162 0 -269 117.5t-107 290.5t107 290.5t269 117.5q78 0 148 -34.5t112 -93.5zM730 546q0 -73 52 -125.5t126 -52.5t126 52.5t52 125.5t-52 125.5t-126 52.5t-126 -52.5t-52 -125.5z" />
    <glyph glyph-name="A" unicode="A" horiz-adv-x="1368" 
d="M684 1424q85 0 124 -90l482 -1112q18 -43 18 -82q0 -69 -47.5 -116.5t-116.5 -47.5q-58 0 -101 32.5t-65 85.5l-50 124h-488l-50 -124q-22 -53 -65 -85.5t-101 -32.5q-69 0 -116.5 47.5t-47.5 116.5q0 39 18 82l482 1112q39 90 124 90zM684 820l-132 -326h264z" />
    <glyph glyph-name="B" unicode="B" horiz-adv-x="1156" 
d="M480 602v-304h46q190 0 190 152t-190 152h-46zM480 1102v-224h58q67 0 102.5 29.5t35.5 82.5t-35.5 82.5t-102.5 29.5h-58zM306 1400h206q229 0 359.5 -104.5t130.5 -271.5q0 -177 -152 -278q115 -44 176.5 -133t61.5 -213q0 -177 -147 -288.5t-423 -111.5h-212
q-72 0 -123 51t-51 123v1052q0 72 51 123t123 51z" />
    <glyph glyph-name="C" unicode="C" horiz-adv-x="1462" 
d="M78 700q0 155 60.5 291.5t161.5 230.5t236 148t282 54q153 0 287.5 -51t232.5 -141q64 -60 64 -132q0 -69 -46.5 -115.5t-115.5 -46.5q-70 0 -130 60q-117 114 -284 114q-166 0 -283 -119t-117 -293t117 -293t283 -119q167 0 284 114q60 60 130 60q69 0 115.5 -46.5
t46.5 -115.5q0 -72 -64 -132q-98 -90 -232.5 -141t-287.5 -51q-147 0 -282 54t-236 148t-161.5 230.5t-60.5 291.5z" />
    <glyph glyph-name="D" unicode="D" horiz-adv-x="1374" 
d="M946 700q0 177 -103 282.5t-277 105.5h-86v-776h86q174 0 277 105.5t103 282.5zM558 0h-252q-72 0 -123 51t-51 123v1052q0 72 51 123t123 51h252q154 0 289 -50.5t234 -140t156 -221.5t57 -288t-57 -288t-156 -221.5t-234 -140t-289 -50.5z" />
    <glyph glyph-name="E" unicode="E" horiz-adv-x="1024" 
d="M306 1400h482q66 0 110 -44.5t44 -113.5q0 -66 -44 -110t-110 -44h-308v-188h264q66 0 110 -44.5t44 -113.5q0 -66 -44 -110t-110 -44h-264v-276h326q66 0 110 -44.5t44 -113.5q0 -66 -44 -110t-110 -44h-500q-72 0 -123 51t-51 123v1052q0 72 51 123t123 51z" />
    <glyph glyph-name="F" unicode="F" horiz-adv-x="976" 
d="M480 886h252q66 0 110 -44.5t44 -113.5q0 -66 -44 -110t-110 -44h-252v-424q0 -72 -51 -123t-123 -51t-123 51t-51 123v1076q0 72 51 123t123 51h470q66 0 110 -44.5t44 -113.5q0 -66 -44 -110t-110 -44h-296v-202z" />
    <glyph glyph-name="G" unicode="G" horiz-adv-x="1578" 
d="M816 1424q158 0 300.5 -59.5t249.5 -166.5q58 -58 58 -128q0 -68 -46 -114t-114 -46q-70 0 -132 62q-63 65 -145 102.5t-165 37.5q-166 0 -281 -118.5t-115 -293.5q0 -89 34 -167.5t89 -131t124.5 -83t140.5 -30.5q137 0 227.5 63t114.5 177h-198q-46 0 -80 34t-34 80
t34 80t80 34h432q46 0 80 -34t34 -80q0 -196 -88.5 -348t-245 -235t-354.5 -83q-146 0 -281 54.5t-236 149t-161 230.5t-60 290q0 206 102.5 373.5t270.5 259t365 91.5z" />
    <glyph glyph-name="H" unicode="H" horiz-adv-x="1356" 
d="M876 894v356q0 72 51 123t123 51t123 -51t51 -123v-1100q0 -72 -51 -123t-123 -51t-123 51t-51 123v432h-396v-432q0 -72 -51 -123t-123 -51t-123 51t-51 123v1100q0 72 51 123t123 51t123 -51t51 -123v-356h396z" />
    <glyph glyph-name="I" unicode="I" horiz-adv-x="644" 
d="M496 1250v-1100q0 -72 -51 -123t-123 -51t-123 51t-51 123v1100q0 72 51 123t123 51t123 -51t51 -123z" />
    <glyph glyph-name="J" unicode="J" horiz-adv-x="1036" 
d="M0 276q0 67 45 107.5t109 40.5q77 0 136 -76q47 -60 124 -60q67 0 104.5 47.5t37.5 138.5v776q0 72 51 123t123 51t123 -51t51 -123v-790q0 -229 -126.5 -356.5t-341.5 -127.5q-121 0 -224 49t-174 139q-38 48 -38 112z" />
    <glyph glyph-name="K" unicode="K" horiz-adv-x="1330" 
d="M956 44l-476 612v-506q0 -72 -51 -123t-123 -51t-123 51t-51 123v1100q0 72 51 123t123 51t123 -51t51 -123v-474l448 582q50 66 130 66q68 0 116 -48t48 -116q0 -63 -46 -112l-356 -430l400 -472q36 -42 36 -104q0 -69 -48.5 -116.5t-117.5 -47.5q-84 0 -134 66z" />
    <glyph glyph-name="L" unicode="L" horiz-adv-x="994" 
d="M822 0h-516q-72 0 -123 51t-51 123v1076q0 72 51 123t123 51t123 -51t51 -123v-938h342q66 0 110 -44.5t44 -113.5q0 -66 -44 -110t-110 -44z" />
    <glyph glyph-name="M" unicode="M" horiz-adv-x="1968" 
d="M984 -24q-87 0 -124 90l-262 640l-172 -606q-16 -56 -62.5 -90t-107.5 -34q-73 0 -122.5 50t-49.5 124q0 37 14 82l336 1108q11 38 43 61t75 23q86 0 120 -84l312 -768l312 768q34 84 120 84q43 0 75 -23t43 -61l336 -1108q14 -45 14 -82q0 -74 -49.5 -124t-122.5 -50
q-61 0 -107.5 34t-62.5 90l-172 606l-262 -640q-37 -90 -124 -90z" />
    <glyph glyph-name="N" unicode="N" horiz-adv-x="1466" 
d="M346 1376l640 -730v604q0 72 51 123t123 51t123 -51t51 -123v-1154q0 -56 -29.5 -88t-78.5 -32q-64 0 -106 48l-640 730v-604q0 -72 -51 -123t-123 -51t-123 51t-51 123v1154q0 56 29.5 88t78.5 32q64 0 106 -48z" />
    <glyph glyph-name="O" unicode="O" horiz-adv-x="1656" 
d="M1578 700q0 -123 -39 -236t-109 -201t-163 -153t-206 -99.5t-233 -34.5t-233 34.5t-206 99.5t-163 153t-109 201t-39 236t39 236t109 201t163 153t206 99.5t233 34.5t233 -34.5t206 -99.5t163 -153t109 -201t39 -236zM426 700q0 -175 116.5 -293.5t285.5 -118.5
t285.5 118.5t116.5 293.5t-116.5 293.5t-285.5 118.5t-285.5 -118.5t-116.5 -293.5z" />
    <glyph glyph-name="P" unicode="P" horiz-adv-x="1132" 
d="M480 1098v-320h56q89 0 138.5 40.5t49.5 119.5t-49.5 119.5t-138.5 40.5h-56zM306 1400h228q127 0 229.5 -36t169.5 -98.5t103 -146.5t36 -181t-36 -181t-103 -146.5t-169.5 -98.5t-229.5 -36h-54v-326q0 -72 -51 -123t-123 -51t-123 51t-51 123v1076q0 72 51 123t123 51
z" />
    <glyph glyph-name="Q" unicode="Q" horiz-adv-x="1656" 
d="M1578 700q0 -244 -148 -434l100 -100q36 -36 36 -92q0 -54 -37.5 -92t-90.5 -38q-52 0 -98 46l-100 102q-188 -116 -412 -116q-120 0 -233 34.5t-206 99.5t-163 153t-109 201t-39 236t39 236t109 201t163 153t206 99.5t233 34.5t233 -34.5t206 -99.5t163 -153t109 -201
t39 -236zM1092 610l96 -98q42 90 42 188q0 175 -116.5 293.5t-285.5 118.5t-285.5 -118.5t-116.5 -293.5t116.5 -293.5t285.5 -118.5q95 0 178 40l-104 106q-36 36 -36 92q0 54 37.5 92t90.5 38q52 0 98 -46z" />
    <glyph glyph-name="R" unicode="R" horiz-adv-x="1220" 
d="M306 1400h258q224 0 362 -126.5t138 -335.5q0 -130 -63 -227t-169 -149l244 -338q32 -46 32 -96q0 -68 -46 -110t-116 -42q-85 0 -132 70l-334 488v-384q0 -72 -51 -123t-123 -51t-123 51t-51 123v1076q0 72 51 123t123 51zM480 1108v-340h48q88 0 138 43.5t50 126.5
t-50 126.5t-138 43.5h-48z" />
    <glyph glyph-name="S" unicode="S" horiz-adv-x="1126" 
d="M736 1084q-65 42 -124 42q-116 0 -116 -86q0 -45 43 -80.5t163 -83.5q176 -71 263 -185.5t87 -280.5q0 -196 -128 -315t-358 -119q-128 0 -248 43.5t-208 122.5q-50 44 -50 118q0 63 46.5 109.5t109.5 46.5q47 0 98 -40q104 -86 226 -86q75 0 119.5 35.5t44.5 92.5
q0 63 -40 105t-146 83q-195 76 -282.5 181t-87.5 263q0 159 116 266.5t306 107.5t336 -104q66 -47 66 -122q0 -59 -41 -101.5t-99 -42.5q-47 0 -96 30z" />
    <glyph glyph-name="T" unicode="T" horiz-adv-x="1064" 
d="M358 1088h-176q-66 0 -110 44t-44 110q0 69 44 113.5t110 44.5h700q66 0 110 -44.5t44 -113.5q0 -66 -44 -110t-110 -44h-176v-938q0 -72 -51 -123t-123 -51t-123 51t-51 123v938z" />
    <glyph glyph-name="U" unicode="U" horiz-adv-x="1348" 
d="M1216 1250v-728q0 -126 -45 -230.5t-120.5 -172.5t-173 -105.5t-203.5 -37.5t-203.5 37.5t-173 105.5t-120.5 172.5t-45 230.5v728q0 72 51 123t123 51t123 -51t51 -123v-738q0 -105 53 -164.5t141 -59.5t141 59.5t53 164.5v738q0 72 51 123t123 51t123 -51t51 -123z" />
    <glyph glyph-name="V" unicode="V" horiz-adv-x="1376" 
d="M688 580l294 726q22 53 65 85.5t101 32.5q69 0 116.5 -47.5t47.5 -116.5q0 -39 -18 -82l-482 -1112q-39 -90 -124 -90t-124 90l-482 1112q-18 43 -18 82q0 69 47.5 116.5t116.5 47.5q58 0 101 -32.5t65 -85.5z" />
    <glyph glyph-name="W" unicode="W" horiz-adv-x="2040" 
d="M1020 1424q88 0 122 -92l252 -686l240 658q21 58 63.5 89t98.5 31q70 0 122 -46.5t52 -119.5q0 -42 -16 -82l-428 -1112q-35 -88 -122 -88q-43 0 -75 23t-47 65l-262 720l-262 -720q-15 -42 -47 -65t-75 -23q-87 0 -122 88l-428 1112q-16 40 -16 82q0 73 52 119.5
t122 46.5q56 0 98.5 -31t63.5 -89l240 -658l252 686q34 92 122 92z" />
    <glyph glyph-name="X" unicode="X" horiz-adv-x="1344" 
d="M964 42l-292 420l-292 -420q-45 -66 -136 -66q-72 0 -120 48t-48 120q0 58 32 102l342 482l-298 428q-34 48 -34 104q0 69 48.5 116.5t119.5 47.5q41 0 77.5 -19t58.5 -51l250 -362l250 362q22 32 58.5 51t77.5 19q71 0 119.5 -47.5t48.5 -116.5q0 -56 -34 -104
l-298 -428l342 -482q32 -44 32 -102q0 -72 -48 -120t-120 -48q-91 0 -136 66z" />
    <glyph glyph-name="Y" unicode="Y" horiz-adv-x="1360" 
d="M680 -24q-72 0 -123 51t-51 123v392l-408 628q-26 39 -26 94q0 62 49 111t115 49q97 0 156 -96l288 -464l288 464q59 96 156 96q66 0 115 -49t49 -111q0 -55 -26 -94l-408 -628v-392q0 -72 -51 -123t-123 -51z" />
    <glyph glyph-name="Z" unicode="Z" horiz-adv-x="1152" 
d="M948 0h-762q-53 0 -86.5 28.5t-33.5 71.5q0 45 30 102l478 886h-312q-66 0 -110 44t-44 110q0 69 44 113.5t110 44.5h680q53 0 86.5 -28.5t33.5 -71.5q0 -45 -30 -102l-472 -886h388q66 0 110 -44t44 -110q0 -69 -44 -113.5t-110 -44.5z" />
    <glyph glyph-name="bracketleft" unicode="[" horiz-adv-x="818" 
d="M536 12h110q57 0 96.5 -39.5t39.5 -96.5t-39.5 -96.5t-96.5 -39.5h-282q-57 0 -96.5 39.5t-39.5 96.5v1488q0 57 39.5 96.5t96.5 39.5h282q57 0 96.5 -39.5t39.5 -96.5t-39.5 -96.5t-96.5 -39.5h-110v-1216z" />
    <glyph glyph-name="backslash" unicode="\" horiz-adv-x="1138" 
d="M348 1410l698 -1410q22 -44 22 -80q0 -57 -44 -98.5t-104 -41.5q-86 0 -130 88l-698 1410q-22 44 -22 80q0 57 44 98.5t104 41.5q86 0 130 -88z" />
    <glyph glyph-name="bracketright" unicode="]" horiz-adv-x="818" 
d="M172 12h110v1216h-110q-57 0 -96.5 39.5t-39.5 96.5t39.5 96.5t96.5 39.5h282q57 0 96.5 -39.5t39.5 -96.5v-1488q0 -57 -39.5 -96.5t-96.5 -39.5h-282q-57 0 -96.5 39.5t-39.5 96.5t39.5 96.5t96.5 39.5z" />
    <glyph glyph-name="asciicircum" unicode="^" horiz-adv-x="1280" 
d="M838 748l-198 268l-198 -268q-49 -66 -122 -66q-58 0 -98 40t-40 98q0 51 28 88l354 474q32 42 76 42t76 -42l354 -474q28 -37 28 -88q0 -58 -40 -98t-98 -40q-73 0 -122 66z" />
    <glyph glyph-name="underscore" unicode="_" horiz-adv-x="1000" 
d="M-24 -272q0 40 29 69t69 29h852q40 0 69 -29t29 -69t-29 -69t-69 -29h-852q-40 0 -69 29t-29 69z" />
    <glyph glyph-name="grave" unicode="`" horiz-adv-x="836" 
d="M186 1402q0 42 31 73t71 31q37 0 68 -24l256 -212q38 -31 38 -80q0 -40 -29 -69t-71 -29q-35 0 -66 24l-256 206q-42 35 -42 80z" />
    <glyph glyph-name="a" unicode="a" horiz-adv-x="1284" 
d="M1166 802v-668q0 -66 -46 -112t-112 -46q-64 0 -108.5 42t-49.5 104q-45 -63 -127.5 -104.5t-182.5 -41.5q-128 0 -235 64.5t-169 177.5t-62 250t62 250t169 177.5t235 64.5q100 0 182.5 -41.5t127.5 -104.5q5 62 49.5 104t108.5 42q66 0 112 -46t46 -112zM838 468
q0 93 -64 156.5t-156 63.5t-156 -63.5t-64 -156.5t64 -156.5t156 -63.5t156 63.5t64 156.5z" />
    <glyph glyph-name="b" unicode="b" horiz-adv-x="1284" 
d="M118 134v1232q0 66 46 112t112 46t112 -46t46 -112v-552q45 63 127.5 104.5t182.5 41.5q128 0 235 -64.5t169 -177.5t62 -250t-62 -250t-169 -177.5t-235 -64.5q-100 0 -182.5 41.5t-127.5 104.5q-5 -62 -49.5 -104t-108.5 -42q-66 0 -112 46t-46 112zM446 468
q0 -93 64 -156.5t156 -63.5t156 63.5t64 156.5t-64 156.5t-156 63.5t-156 -63.5t-64 -156.5z" />
    <glyph glyph-name="c" unicode="c" horiz-adv-x="1032" 
d="M70 468q0 135 69.5 248.5t187.5 178.5t255 65q82 0 166 -26t148 -72q72 -52 72 -132q0 -60 -43.5 -103t-106.5 -43q-50 0 -98 38q-62 50 -136 50q-79 0 -138.5 -57.5t-59.5 -146.5t59.5 -146.5t138.5 -57.5q74 0 136 50q48 38 98 38q63 0 106.5 -43t43.5 -103
q0 -80 -72 -132q-64 -46 -148 -72t-166 -26q-137 0 -255 65t-187.5 178.5t-69.5 248.5z" />
    <glyph glyph-name="d" unicode="d" horiz-adv-x="1284" 
d="M1166 1366v-1232q0 -66 -46 -112t-112 -46q-64 0 -108.5 42t-49.5 104q-45 -63 -127.5 -104.5t-182.5 -41.5q-128 0 -235 64.5t-169 177.5t-62 250t62 250t169 177.5t235 64.5q100 0 182.5 -41.5t127.5 -104.5v552q0 66 46 112t112 46t112 -46t46 -112zM838 468
q0 93 -64 156.5t-156 63.5t-156 -63.5t-64 -156.5t64 -156.5t156 -63.5t156 63.5t64 156.5z" />
    <glyph glyph-name="e" unicode="e" horiz-adv-x="1160" 
d="M1090 524q1 -7 1 -19q0 -54 -35.5 -86.5t-91.5 -32.5h-562q20 -66 73 -104t137 -38q99 0 172 54q46 34 94 34q61 0 100.5 -39t39.5 -97q0 -67 -60 -114q-133 -106 -350 -106q-239 0 -388.5 138.5t-149.5 353.5q0 137 69 250t187.5 177.5t259.5 64.5q128 0 238.5 -56
t180.5 -156t85 -224zM404 590h384q-20 54 -71.5 88t-120.5 34t-120.5 -34t-71.5 -88z" />
    <glyph glyph-name="f" unicode="f" horiz-adv-x="818" 
d="M202 936v180q0 189 100.5 297.5t275.5 108.5q77 0 150.5 -24.5t125.5 -69.5t52 -108q0 -56 -37.5 -94t-92.5 -38q-44 0 -86 28q-34 24 -76 24q-96 0 -96 -132v-172h144q52 0 89 -37t37 -89t-37 -89t-89 -37h-144v-550q0 -66 -46 -112t-112 -46t-112 46t-46 112v550h-44
q-52 0 -89 37t-37 89t37 89t89 37h44z" />
    <glyph glyph-name="g" unicode="g" horiz-adv-x="1284" 
d="M146 -292q0 57 39.5 96.5t96.5 39.5q62 0 102 -40q99 -96 222 -96q115 0 179.5 71.5t64.5 224.5v118q-45 -63 -127.5 -104.5t-182.5 -41.5q-128 0 -235 64.5t-169 177.5t-62 250t62 250t169 177.5t235 64.5q100 0 182.5 -41.5t127.5 -104.5q5 62 49.5 104t108.5 42
q66 0 112 -46t46 -112v-772q0 -153 -40.5 -268t-115.5 -185.5t-174.5 -105.5t-223.5 -35q-120 0 -228 43.5t-192 122.5q-46 43 -46 106zM838 468q0 93 -64 156.5t-156 63.5t-156 -63.5t-64 -156.5t64 -156.5t156 -63.5t156 63.5t64 156.5z" />
    <glyph glyph-name="h" unicode="h" horiz-adv-x="1142" 
d="M118 134v1232q0 66 46 112t112 46t112 -46t46 -112v-540q44 58 117.5 96t164.5 38q135 0 224.5 -93.5t89.5 -248.5v-484q0 -66 -46 -112t-112 -46t-112 46t-46 112v406q0 64 -40.5 106t-99.5 42q-56 0 -96 -38t-44 -98v-418q0 -66 -46 -112t-112 -46t-112 46t-46 112z
" />
    <glyph glyph-name="i" unicode="i" horiz-adv-x="576" 
d="M104 1294q0 75 54 128.5t130 53.5t130 -53.5t54 -128.5t-54 -128.5t-130 -53.5t-130 53.5t-54 128.5zM130 134v668q0 66 46 112t112 46t112 -46t46 -112v-668q0 -66 -46 -112t-112 -46t-112 46t-46 112z" />
    <glyph glyph-name="j" unicode="j" horiz-adv-x="614" 
d="M-274 -348q0 61 38.5 100.5t97.5 39.5q55 0 98 -40q51 -44 102 -44q116 0 116 162v932q0 66 46 112t112 46t112 -46t46 -112v-936q0 -203 -110 -316.5t-306 -113.5q-187 0 -306 116q-46 46 -46 100zM152 1294q0 75 54 128.5t130 53.5t130 -53.5t54 -128.5t-54 -128.5
t-130 -53.5t-130 53.5t-54 128.5z" />
    <glyph glyph-name="k" unicode="k" horiz-adv-x="1162" 
d="M118 134v1232q0 66 46 112t112 46t112 -46t46 -112v-788l364 338q47 44 104 44q60 0 101 -41t41 -101q0 -57 -38 -98l-248 -228l278 -274q40 -40 40 -100t-41 -101t-101 -41q-64 0 -110 46l-390 384v-272q0 -66 -46 -112t-112 -46t-112 46t-46 112z" />
    <glyph glyph-name="l" unicode="l" horiz-adv-x="568" 
d="M126 134v1232q0 66 46 112t112 46t112 -46t46 -112v-1232q0 -66 -46 -112t-112 -46t-112 46t-46 112z" />
    <glyph glyph-name="m" unicode="m" horiz-adv-x="1738" 
d="M1310 134v406q0 64 -40.5 106t-99.5 42t-99.5 -42t-40.5 -106v-406q0 -66 -46 -112t-112 -46t-112 46t-46 112v406q0 64 -40.5 106t-99.5 42t-99.5 -42t-40.5 -106v-406q0 -66 -46 -112t-112 -46t-112 46t-46 112v668q0 66 46 112t112 46q64 0 108.5 -43t49.5 -103
q45 65 118.5 105.5t153.5 40.5q177 0 272 -148q127 148 320 148q144 0 236 -93.5t92 -252.5v-480q0 -66 -46 -112t-112 -46t-112 46t-46 112z" />
    <glyph glyph-name="n" unicode="n" horiz-adv-x="1142" 
d="M118 134v668q0 66 46 112t112 46q64 0 108.5 -43t49.5 -103q43 68 116 107t166 39q135 0 224.5 -93.5t89.5 -248.5v-484q0 -66 -46 -112t-112 -46t-112 46t-46 112v406q0 64 -40.5 106t-99.5 42q-56 0 -96 -38t-44 -98v-418q0 -66 -46 -112t-112 -46t-112 46t-46 112z
" />
    <glyph glyph-name="o" unicode="o" horiz-adv-x="1180" 
d="M1110 468q0 -135 -68.5 -248t-188 -178.5t-263.5 -65.5t-263.5 65.5t-188 178.5t-68.5 248t68.5 248t188 178.5t263.5 65.5t263.5 -65.5t188 -178.5t68.5 -248zM794 468q0 87 -61.5 145.5t-142.5 58.5t-142.5 -58.5t-61.5 -145.5t61.5 -145.5t142.5 -58.5t142.5 58.5
t61.5 145.5z" />
    <glyph glyph-name="p" unicode="p" horiz-adv-x="1284" 
d="M118 -427v1229q0 66 46 112t112 46q64 0 108.5 -42t49.5 -104q45 63 127.5 104.5t182.5 41.5q128 0 235 -64.5t169 -177.5t62 -250t-62 -250t-169 -177.5t-235 -64.5q-100 0 -182.5 41.5t-127.5 104.5v-549q0 -66 -46 -112t-112 -46t-112 46t-46 112zM446 468
q0 -93 64 -156.5t156 -63.5t156 63.5t64 156.5t-64 156.5t-156 63.5t-156 -63.5t-64 -156.5z" />
    <glyph glyph-name="q" unicode="q" horiz-adv-x="1284" 
d="M1166 802v-1230q0 -66 -46 -112t-112 -46t-112 46t-46 112v550q-45 -63 -127.5 -104.5t-182.5 -41.5q-128 0 -235 64.5t-169 177.5t-62 250t62 250t169 177.5t235 64.5q100 0 182.5 -41.5t127.5 -104.5q5 62 49.5 104t108.5 42q66 0 112 -46t46 -112zM838 468
q0 93 -64 156.5t-156 63.5t-156 -63.5t-64 -156.5t64 -156.5t156 -63.5t156 63.5t64 156.5z" />
    <glyph glyph-name="r" unicode="r" horiz-adv-x="852" 
d="M434 814q43 65 109.5 105.5t142.5 40.5q70 0 112 -41t42 -101q0 -57 -42 -99.5t-100 -42.5q-16 0 -40 6q-21 6 -42 6q-86 0 -134 -57.5t-48 -162.5v-334q0 -66 -46 -112t-112 -46t-112 46t-46 112v668q0 66 46 112t112 46q64 0 108.5 -42t49.5 -104z" />
    <glyph glyph-name="s" unicode="s" horiz-adv-x="824" 
d="M96 74q-50 37 -50 94q0 50 33.5 85t82.5 35q40 0 78 -28q57 -44 116 -44q39 0 62.5 18.5t23.5 49.5q0 36 -20 59.5t-78 48.5q-240 101 -240 298q0 119 88 194.5t230 75.5q134 0 244 -70q52 -35 52 -96q0 -51 -32 -82.5t-80 -31.5q-28 0 -60 20q-33 20 -66 20
q-60 0 -60 -40q0 -22 22 -40t90 -48q226 -100 226 -304q0 -136 -92 -224t-258 -88q-188 0 -312 98z" />
    <glyph glyph-name="t" unicode="t" horiz-adv-x="762" 
d="M202 134v550h-44q-52 0 -89 37t-37 89t37 89t89 37h44v130q0 66 46 112t112 46t112 -46t46 -112v-130h104q52 0 89 -37t37 -89t-37 -89t-89 -37h-104v-550q0 -66 -46 -112t-112 -46t-112 46t-46 112z" />
    <glyph glyph-name="u" unicode="u" horiz-adv-x="1148" 
d="M1030 802v-668q0 -66 -46 -112t-112 -46q-64 0 -108.5 43t-49.5 103q-43 -68 -116 -107t-166 -39q-135 0 -224.5 93.5t-89.5 248.5v484q0 66 46 112t112 46t112 -46t46 -112v-406q0 -64 40.5 -106t99.5 -42q56 0 96 38t44 98v418q0 66 46 112t112 46t112 -46t46 -112z
" />
    <glyph glyph-name="v" unicode="v" horiz-adv-x="1032" 
d="M516 480l136 380q15 45 53 72.5t91 27.5q63 0 106.5 -42.5t43.5 -105.5q0 -35 -12 -62l-304 -694q-35 -80 -114 -80t-114 80l-304 694q-12 27 -12 62q0 63 43.5 105.5t106.5 42.5q53 0 91 -27.5t53 -72.5z" />
    <glyph glyph-name="w" unicode="w" horiz-adv-x="1596" 
d="M798 960q79 0 112 -76l176 -406l134 366q19 52 57 84t89 32q64 0 108 -40.5t44 -101.5q0 -45 -16 -82l-304 -686q-15 -34 -44 -54t-66 -20q-81 0 -112 74l-178 432l-178 -432q-31 -74 -112 -74q-37 0 -66 20t-44 54l-304 686q-16 37 -16 82q0 61 44 101.5t108 40.5
q51 0 89 -32t57 -84l134 -366l176 406q33 76 112 76z" />
    <glyph glyph-name="x" unicode="x" horiz-adv-x="1040" 
d="M520 282l-184 -246q-20 -27 -51 -43.5t-65 -16.5q-58 0 -101 43t-43 101q0 47 30 86l208 278l-182 242q-32 43 -32 90q0 59 43.5 101.5t102.5 42.5q75 0 118 -60l156 -214l156 214q43 60 118 60q59 0 102.5 -42.5t43.5 -101.5q0 -47 -32 -90l-182 -242l208 -278
q30 -39 30 -86q0 -58 -43 -101t-101 -43q-34 0 -65 16.5t-51 43.5z" />
    <glyph glyph-name="y" unicode="y" horiz-adv-x="1086" 
d="M990 750l-458 -1238q-17 -44 -57.5 -72t-90.5 -28q-63 0 -108.5 46t-45.5 106q0 28 16 68l152 396l-302 722q-12 27 -12 62q0 63 43.5 105.5t106.5 42.5q54 0 92 -27.5t54 -72.5l164 -456l154 450q16 49 55 77.5t97 28.5q63 0 107.5 -42.5t44.5 -105.5q0 -26 -12 -62z
" />
    <glyph glyph-name="z" unicode="z" horiz-adv-x="904" 
d="M90 158l294 526h-164q-52 0 -89 37t-37 89t37 89t89 37h510q39 0 62.5 -21.5t23.5 -52.5q0 -38 -26 -84l-292 -526h238q52 0 89 -37t37 -89t-37 -89t-89 -37h-586q-39 0 -62.5 21.5t-23.5 52.5q0 38 26 84z" />
    <glyph glyph-name="braceleft" unicode="{" horiz-adv-x="890" 
d="M320 938v174q0 166 106 277t276 111h20q56 0 96 -37.5t40 -98.5q0 -55 -29 -92t-81 -46q-61 -11 -90.5 -55.5t-29.5 -134.5v-102q0 -214 -190 -314q190 -100 190 -314v-102q0 -90 29.5 -134.5t90.5 -55.5q52 -9 81 -46t29 -92q0 -61 -40 -98.5t-96 -37.5h-20
q-170 0 -276 111t-106 277v174q0 190 -146 252q-44 19 -44 66t44 66q146 62 146 252z" />
    <glyph glyph-name="bar" unicode="|" horiz-adv-x="652" 
d="M468 1420v-1702q0 -58 -42 -100t-100 -42t-100 42t-42 100v1702q0 58 42 100t100 42t100 -42t42 -100z" />
    <glyph glyph-name="braceright" unicode="}" horiz-adv-x="890" 
d="M570 1112v-174q0 -190 146 -252q44 -19 44 -66t-44 -66q-146 -62 -146 -252v-174q0 -166 -106 -277t-276 -111h-20q-56 0 -96 37.5t-40 98.5q0 55 29 92t81 46q61 11 90.5 55.5t29.5 134.5v102q0 214 190 314q-190 100 -190 314v102q0 90 -29.5 134.5t-90.5 55.5
q-52 9 -81 46t-29 92q0 61 40 98.5t96 37.5h20q170 0 276 -111t106 -277z" />
    <glyph glyph-name="asciitilde" unicode="~" horiz-adv-x="1260" 
d="M660 792q88 -68 142 -68q51 0 72 62q15 47 49 73.5t79 26.5q62 0 104 -36.5t42 -100.5q0 -22 -4 -41q-25 -124 -106 -197t-190 -73q-126 0 -250 94q-88 68 -142 68q-56 0 -72 -62q-12 -46 -47 -73t-81 -27q-62 0 -104 36.5t-42 100.5q0 22 4 41q25 124 106 197t190 73
q126 0 250 -94z" />
    <glyph glyph-name="uni00A0" unicode="&#xa0;" horiz-adv-x="600" 
 />
    <glyph glyph-name="exclamdown" unicode="&#xa1;" horiz-adv-x="680" 
d="M148 782q0 75 55.5 124.5t136.5 49.5t136.5 -49.5t55.5 -124.5t-55.5 -124.5t-136.5 -49.5t-136.5 49.5t-55.5 124.5zM166 -318v678q0 72 51 123t123 51t123 -51t51 -123v-678q0 -72 -51 -123t-123 -51t-123 51t-51 123z" />
    <glyph glyph-name="cent" unicode="&#xa2;" horiz-adv-x="1030" 
d="M70 466q0 177 109.5 310t280.5 168v86q0 44 31 75t75 31t75 -31t31 -75v-80q76 -12 150 -46.5t124 -81.5q44 -41 44 -106q0 -56 -41 -96t-99 -40q-56 0 -98 42q-67 64 -156 64q-90 0 -154 -63.5t-64 -156.5t64 -156.5t154 -63.5q89 0 156 64q42 42 98 42q58 0 99 -40
t41 -96q0 -65 -44 -106q-50 -47 -124 -81.5t-150 -46.5v-80q0 -44 -31 -75t-75 -31t-75 31t-31 75v86q-171 35 -280.5 168t-109.5 310z" />
    <glyph glyph-name="sterling" unicode="&#xa3;" horiz-adv-x="1208" 
d="M154 192q110 150 110 300v116h-102q-28 0 -48 20t-20 48t20 48t48 20h102v252q0 187 113.5 307.5t312.5 120.5q211 0 354 -128q48 -42 48 -108q0 -59 -41 -99.5t-101 -40.5q-37 0 -94 34q-50 30 -104 30q-67 0 -103.5 -42.5t-36.5 -119.5v-206h234q28 0 48 -20t20 -48
t-20 -48t-48 -20h-234v-52q0 -155 -46 -244h430q64 0 110 -46t46 -110t-46 -110t-110 -46h-774q-48 0 -78 28t-30 70q0 45 40 94z" />
    <glyph glyph-name="currency" unicode="&#xa4;" horiz-adv-x="1436" 
d="M1168 664q0 -99 -44 -190l102 -102q50 -50 50 -108q0 -57 -40.5 -97.5t-97.5 -40.5q-58 0 -100 42l-110 110q-98 -52 -210 -52t-210 52l-110 -110q-42 -42 -100 -42q-57 0 -97.5 40.5t-40.5 97.5q0 58 50 108l102 102q-44 91 -44 190t44 190l-102 102q-50 50 -50 108
q0 57 40.5 97.5t97.5 40.5q58 0 100 -42l110 -110q98 52 210 52t210 -52l110 110q42 42 100 42q57 0 97.5 -40.5t40.5 -97.5q0 -58 -50 -108l-102 -102q44 -91 44 -190zM538 664q0 -78 51 -130t129 -52t129 52t51 130t-51 130t-129 52t-129 -52t-51 -130z" />
    <glyph glyph-name="yen" unicode="&#xa5;" horiz-adv-x="1360" 
d="M680 -24q-72 0 -123 51t-51 123v182h-294q-27 0 -45.5 18.5t-18.5 45.5t18.5 45.5t45.5 18.5h294v82l-6 8h-288q-27 0 -45.5 18.5t-18.5 45.5t18.5 45.5t45.5 18.5h206l-320 492q-26 39 -26 94q0 62 49 111t115 49q97 0 156 -96l288 -464l288 464q59 96 156 96
q66 0 115 -49t49 -111q0 -55 -26 -94l-320 -492h206q27 0 45.5 -18.5t18.5 -45.5t-18.5 -45.5t-45.5 -18.5h-290l-4 -8v-82h294q27 0 45.5 -18.5t18.5 -45.5t-18.5 -45.5t-45.5 -18.5h-294v-182q0 -72 -51 -123t-123 -51z" />
    <glyph glyph-name="brokenbar" unicode="&#xa6;" horiz-adv-x="650" 
d="M468 1280v-450q0 -58 -42 -100t-100 -42t-100 42t-42 100v450q0 58 42 100t100 42t100 -42t42 -100zM468 344v-450q0 -58 -42 -100t-100 -42t-100 42t-42 100v450q0 58 42 100t100 42t100 -42t42 -100z" />
    <glyph glyph-name="section" unicode="&#xa7;" horiz-adv-x="1038" 
d="M396 612q0 -52 37 -88t87 -36t87 36t37 88t-37 88t-87 36t-87 -36t-37 -88zM138 618q0 90 51 171.5t137 124.5q-128 100 -128 238q0 118 87.5 194t230.5 76q77 0 145.5 -24.5t112.5 -63.5q42 -36 42 -90q0 -42 -27.5 -69t-66.5 -27q-41 0 -72 26q-32 26 -74 26
q-38 0 -62 -22t-24 -56q0 -41 35 -73.5t125 -78.5q250 -125 250 -364q0 -90 -51 -171.5t-137 -124.5q128 -100 128 -238q0 -118 -87.5 -194t-230.5 -76q-77 0 -145.5 24.5t-112.5 63.5q-42 36 -42 90q0 42 27.5 69t66.5 27q41 0 72 -26q32 -26 74 -26q38 0 62 22t24 56
q0 41 -35 73.5t-125 78.5q-250 125 -250 364z" />
    <glyph glyph-name="dieresis" unicode="&#xa8;" horiz-adv-x="836" 
d="M82 1298q0 56 39.5 96t96.5 40t96.5 -40t39.5 -96t-39.5 -96t-96.5 -40t-96.5 40t-39.5 96zM482 1298q0 56 39.5 96t96.5 40t96.5 -40t39.5 -96t-39.5 -96t-96.5 -40t-96.5 40t-39.5 96z" />
    <glyph glyph-name="copyright" unicode="&#xa9;" horiz-adv-x="1636" 
d="M94 700q0 197 97 363.5t263.5 263.5t363.5 97t363.5 -97t263.5 -263.5t97 -363.5t-97 -363.5t-263.5 -263.5t-363.5 -97t-363.5 97t-263.5 263.5t-97 363.5zM1430 700q0 169 -82 312t-223 225.5t-307 82.5t-307 -82.5t-223 -225.5t-82 -312t82 -312t223 -225.5t307 -82.5
t307 82.5t223 225.5t82 312zM438 700q0 166 118 277t284 111q81 0 154.5 -26t117.5 -70q50 -50 50 -96t-31.5 -77t-78.5 -31q-51 0 -86 38q-42 48 -116 48q-71 0 -118.5 -48t-47.5 -126t47.5 -126t118.5 -48q74 0 116 48q35 38 86 38q47 0 78.5 -31t31.5 -77t-50 -96
q-44 -44 -117.5 -70t-154.5 -26q-166 0 -284 111t-118 277z" />
    <glyph glyph-name="ordfeminine" unicode="&#xaa;" horiz-adv-x="920" 
d="M840 1306v-488q0 -50 -34 -84t-84 -34q-46 0 -79.5 31.5t-36.5 76.5q-35 -50 -94 -79t-130 -29q-143 0 -241.5 104.5t-98.5 257.5t98.5 257.5t241.5 104.5q71 0 130 -29t94 -79q3 45 36.5 76.5t79.5 31.5q50 0 84 -34t34 -84zM292 1062q0 -63 43 -105.5t105 -42.5
t105 42.5t43 105.5t-43 105.5t-105 42.5t-105 -42.5t-43 -105.5z" />
    <glyph glyph-name="guillemotleft" unicode="&#xab;" horiz-adv-x="1224" 
d="M564 624q0 28 32 50l390 278q24 18 60 18q40 0 70 -30t30 -70q0 -53 -42 -82l-238 -164l238 -164q42 -29 42 -82q0 -40 -30 -70t-70 -30q-36 0 -60 18l-390 278q-32 22 -32 50zM52 624q0 28 32 50l390 278q24 18 60 18q40 0 70 -30t30 -70q0 -53 -42 -82l-238 -164
l238 -164q42 -29 42 -82q0 -40 -30 -70t-70 -30q-36 0 -60 18l-390 278q-32 22 -32 50z" />
    <glyph glyph-name="logicalnot" unicode="&#xac;" horiz-adv-x="1260" 
d="M210 900h784q63 0 108.5 -45t45.5 -109v-302q0 -64 -45.5 -109t-108.5 -45q-64 0 -109 45t-45 109v196h-630q-54 0 -92 38t-38 92t38 92t92 38z" />
    <glyph glyph-name="uni00AD" unicode="&#xad;" horiz-adv-x="812" 
d="M598 534h-384q-54 0 -92 38t-38 92t38 92t92 38h384q54 0 92 -38t38 -92t-38 -92t-92 -38z" />
    <glyph glyph-name="registered" unicode="&#xae;" horiz-adv-x="1636" 
d="M94 700q0 197 97 363.5t263.5 263.5t363.5 97t363.5 -97t263.5 -263.5t97 -363.5t-97 -363.5t-263.5 -263.5t-363.5 -97t-363.5 97t-263.5 263.5t-97 363.5zM1430 700q0 169 -82 312t-223 225.5t-307 82.5t-307 -82.5t-223 -225.5t-82 -312t82 -312t223 -225.5t307 -82.5
t307 82.5t223 225.5t82 312zM768 760h46q36 0 59 17.5t23 54.5t-23 54.5t-59 17.5h-46v-144zM644 1088h214q124 0 204 -69t80 -183q0 -132 -126 -204l114 -156q26 -36 26 -68q0 -46 -33 -76t-83 -30q-60 0 -102 62l-170 250v-190q0 -51 -36.5 -86.5t-87.5 -35.5t-86.5 35.5
t-35.5 86.5v542q0 51 35.5 86.5t86.5 35.5z" />
    <glyph glyph-name="macron" unicode="&#xaf;" horiz-adv-x="1000" 
d="M-24 1298q0 40 29 69t69 29h852q40 0 69 -29t29 -69t-29 -69t-69 -29h-852q-40 0 -69 29t-29 69z" />
    <glyph glyph-name="degree" unicode="&#xb0;" horiz-adv-x="800" 
d="M684 1148q0 -117 -83 -196.5t-201 -79.5t-201 79.5t-83 196.5t83 196.5t201 79.5t201 -79.5t83 -196.5zM296 1148q0 -45 30 -74.5t74 -29.5t74 29.5t30 74.5t-30 74.5t-74 29.5t-74 -29.5t-30 -74.5z" />
    <glyph glyph-name="plusminus" unicode="&#xb1;" horiz-adv-x="1260" 
d="M1026 708h-242v-216q0 -64 -45 -109t-109 -45t-109 45t-45 109v216h-242q-54 0 -92 38t-38 92t38 92t92 38h242v214q0 64 45 109t109 45t109 -45t45 -109v-214h242q54 0 92 -38t38 -92t-38 -92t-92 -38zM1026 28h-792q-54 0 -92 38t-38 92t38 92t92 38h792q54 0 92 -38
t38 -92t-38 -92t-92 -38z" />
    <glyph glyph-name="twosuperior" unicode="&#xb2;" 
d="M90 1192q0 33 14 58q42 81 121.5 127.5t178.5 46.5q131 0 213.5 -80.5t82.5 -201.5q0 -128 -92 -246l-160 -204h188q44 0 74 -30t30 -74t-30 -74t-74 -30h-480q-30 0 -51 18t-21 46q0 29 18 54l294 382q68 87 68 148q0 35 -24.5 58.5t-61.5 23.5q-61 0 -102 -70
q-27 -48 -90 -48q-41 0 -68.5 27t-27.5 69z" />
    <glyph glyph-name="threesuperior" unicode="&#xb3;" 
d="M92 586q-28 32 -28 78q0 44 29.5 73t72.5 29t78 -38q51 -60 118 -60q47 0 79.5 30t32.5 82q0 55 -43 88.5t-107 33.5h-16q-27 0 -45.5 18.5t-18.5 45.5q0 24 16 46l130 184h-188q-42 0 -72 30t-30 72t30 72t72 30h430q30 0 51 -18t21 -46q0 -29 -18 -54l-172 -242
q97 -34 149.5 -107t52.5 -171q0 -126 -90 -214t-246 -88q-180 0 -288 126z" />
    <glyph glyph-name="acute" unicode="&#xb4;" horiz-adv-x="836" 
d="M650 1402q0 -45 -42 -80l-256 -206q-31 -24 -66 -24q-42 0 -71 29t-29 69q0 49 38 80l256 212q31 24 68 24q40 0 71 -31t31 -73z" />
    <glyph glyph-name="mu" unicode="&#xb5;" horiz-adv-x="1148" 
d="M714 134q-28 -63 -77 -96.5t-109 -33.5q-56 0 -94 22v-278q0 -66 -46 -112t-112 -46t-112 46t-46 112v1054q0 66 46 112t112 46t112 -46t46 -112v-406q0 -64 40.5 -106t99.5 -42t99.5 42t40.5 106v406q0 66 46 112t112 46t112 -46t46 -112v-668q0 -66 -46 -112t-112 -46
t-112 46t-46 112z" />
    <glyph glyph-name="paragraph" unicode="&#xb6;" horiz-adv-x="1256" 
d="M1106 1282v-1450q0 -50 -34 -84t-84 -34t-84 34t-34 84v1336h-86v-1336q0 -50 -34 -84t-84 -34t-84 34t-34 84v700h-18q-127 0 -232 50t-170.5 150.5t-65.5 233.5t65.5 233.5t170.5 150.5t232 50h458q50 0 84 -34t34 -84z" />
    <glyph glyph-name="periodcentered" unicode="&#xb7;" horiz-adv-x="628" 
d="M124 668q0 79 56 135.5t134 56.5t134 -56.5t56 -135.5t-56 -135.5t-134 -56.5t-134 56.5t-56 135.5z" />
    <glyph glyph-name="cedilla" unicode="&#xb8;" horiz-adv-x="836" 
d="M522 4l-46 -96q63 -19 100.5 -65t37.5 -113q0 -86 -68.5 -146t-181.5 -60q-87 0 -154 32q-50 23 -50 76q0 33 22.5 54.5t55.5 21.5q22 0 38 -8q27 -12 54 -12q31 0 49.5 15t18.5 39q0 60 -106 66q-12 0 -21 7t-9 17q0 12 6 24l70 148h184z" />
    <glyph glyph-name="onesuperior" unicode="&#xb9;" 
d="M116 1162q0 58 64 94l268 150q32 18 62 18t52 -21t22 -55v-758q0 -50 -35 -85t-85 -35t-85 35t-35 85v528l-80 -44q-21 -12 -48 -12q-42 0 -71 29t-29 71z" />
    <glyph glyph-name="ordmasculine" unicode="&#xba;" horiz-adv-x="920" 
d="M838 1062q0 -150 -111.5 -256t-268.5 -106q-155 0 -265.5 106t-110.5 256t110.5 256t265.5 106q157 0 268.5 -106t111.5 -256zM312 1062q0 -63 43 -105.5t105 -42.5t105 42.5t43 105.5t-43 105.5t-105 42.5t-105 -42.5t-43 -105.5z" />
    <glyph glyph-name="guillemotright" unicode="&#xbb;" horiz-adv-x="1224" 
d="M660 624q0 -28 -32 -50l-390 -278q-24 -18 -60 -18q-40 0 -70 30t-30 70q0 53 42 82l238 164l-238 164q-42 29 -42 82q0 40 30 70t70 30q36 0 60 -18l390 -278q32 -22 32 -50zM1172 624q0 -28 -32 -50l-390 -278q-24 -18 -60 -18q-40 0 -70 30t-30 70q0 53 42 82l238 164
l-238 164q-42 29 -42 82q0 40 30 70t70 30q36 0 60 -18l390 -278q32 -22 32 -50z" />
    <glyph glyph-name="onequarter" unicode="&#xbc;" horiz-adv-x="1966" 
d="M104 1162q0 58 64 94l268 150q32 18 62 18t52 -21t22 -55v-758q0 -50 -35 -85t-85 -35t-85 35t-35 85v528l-80 -44q-21 -12 -48 -12q-42 0 -71 29t-29 71zM542 102l676 1262q32 60 80 60q34 0 62 -24t28 -58q0 -20 -12 -44l-676 -1262q-32 -60 -80 -60q-34 0 -62 24
t-28 58q0 20 12 44zM1120 234q0 24 12 42l430 618q35 50 88 50q44 0 73 -29t29 -73v-482h12q40 0 69 -29t29 -69t-29 -69t-69 -29h-12v-56q0 -45 -32.5 -77.5t-77.5 -32.5t-77.5 32.5t-32.5 77.5v56h-342q-30 0 -50 20t-20 50zM1380 360h152v222z" />
    <glyph glyph-name="onehalf" unicode="&#xbd;" horiz-adv-x="1968" 
d="M104 1162q0 58 64 94l268 150q32 18 62 18t52 -21t22 -55v-758q0 -50 -35 -85t-85 -35t-85 35t-35 85v528l-80 -44q-21 -12 -48 -12q-42 0 -71 29t-29 71zM542 102l676 1262q32 60 80 60q34 0 62 -24t28 -58q0 -20 -12 -44l-676 -1262q-32 -60 -80 -60q-34 0 -62 24
t-28 58q0 20 12 44zM1230 714q0 33 14 58q42 81 121.5 127.5t178.5 46.5q131 0 213.5 -80.5t82.5 -201.5q0 -128 -92 -246l-160 -204h188q44 0 74 -30t30 -74t-30 -74t-74 -30h-480q-30 0 -51 18t-21 46q0 29 18 54l294 382q68 87 68 148q0 35 -24.5 58.5t-61.5 23.5
q-61 0 -102 -70q-27 -48 -90 -48q-41 0 -68.5 27t-27.5 69z" />
    <glyph glyph-name="threequarters" unicode="&#xbe;" horiz-adv-x="1972" 
d="M86 586q-28 32 -28 78q0 44 29.5 73t72.5 29t78 -38q51 -60 118 -60q47 0 79.5 30t32.5 82q0 55 -43 88.5t-107 33.5h-16q-27 0 -45.5 18.5t-18.5 45.5q0 24 16 46l130 184h-188q-42 0 -72 30t-30 72t30 72t72 30h430q30 0 51 -18t21 -46q0 -29 -18 -54l-172 -242
q97 -34 149.5 -107t52.5 -171q0 -126 -90 -214t-246 -88q-180 0 -288 126zM548 102l676 1262q32 60 80 60q34 0 62 -24t28 -58q0 -20 -12 -44l-676 -1262q-32 -60 -80 -60q-34 0 -62 24t-28 58q0 20 12 44zM1126 228q0 24 12 42l430 618q35 50 88 50q44 0 73 -29t29 -73
v-482h12q40 0 69 -29t29 -69t-29 -69t-69 -29h-12v-56q0 -45 -32.5 -77.5t-77.5 -32.5t-77.5 32.5t-32.5 77.5v56h-342q-30 0 -50 20t-20 50zM1386 354h152v222z" />
    <glyph glyph-name="questiondown" unicode="&#xbf;" horiz-adv-x="1066" 
d="M968 -228q0 -60 -44 -108q-66 -75 -165.5 -117.5t-220.5 -42.5q-211 0 -338.5 100t-127.5 250q0 137 71 222t217 152q93 43 127.5 69.5t34.5 54.5q0 50 -72 50q-25 0 -52 -8q-18 -6 -30 -6q-27 0 -43.5 18.5t-16.5 45.5q0 36 36 54q75 36 174 36q121 0 193.5 -63
t72.5 -161q0 -165 -190 -264q-94 -50 -134 -84.5t-40 -73.5q0 -49 36.5 -75.5t97.5 -26.5q80 0 136 56q60 60 130 60q61 0 104.5 -40t43.5 -98zM340 778q0 75 55.5 124.5t136.5 49.5t136.5 -49.5t55.5 -124.5t-55.5 -124.5t-136.5 -49.5t-136.5 49.5t-55.5 124.5z" />
    <glyph glyph-name="Agrave" unicode="&#xc0;" horiz-adv-x="1368" 
d="M684 1424q85 0 124 -90l482 -1112q18 -43 18 -82q0 -69 -47.5 -116.5t-116.5 -47.5q-58 0 -101 32.5t-65 85.5l-50 124h-488l-50 -124q-22 -53 -65 -85.5t-101 -32.5q-69 0 -116.5 47.5t-47.5 116.5q0 39 18 82l482 1112q39 90 124 90zM684 820l-132 -326h264zM386 1810
q0 42 31 73t71 31q37 0 68 -24l256 -212q38 -31 38 -80q0 -40 -29 -69t-71 -29q-35 0 -66 24l-256 206q-42 35 -42 80z" />
    <glyph glyph-name="Aacute" unicode="&#xc1;" horiz-adv-x="1368" 
d="M684 1424q85 0 124 -90l482 -1112q18 -43 18 -82q0 -69 -47.5 -116.5t-116.5 -47.5q-58 0 -101 32.5t-65 85.5l-50 124h-488l-50 -124q-22 -53 -65 -85.5t-101 -32.5q-69 0 -116.5 47.5t-47.5 116.5q0 39 18 82l482 1112q39 90 124 90zM684 820l-132 -326h264zM982 1810
q0 -45 -42 -80l-256 -206q-31 -24 -66 -24q-42 0 -71 29t-29 69q0 49 38 80l256 212q31 24 68 24q40 0 71 -31t31 -73z" />
    <glyph glyph-name="Acircumflex" unicode="&#xc2;" horiz-adv-x="1368" 
d="M684 1424q85 0 124 -90l482 -1112q18 -43 18 -82q0 -69 -47.5 -116.5t-116.5 -47.5q-58 0 -101 32.5t-65 85.5l-50 124h-488l-50 -124q-22 -53 -65 -85.5t-101 -32.5q-69 0 -116.5 47.5t-47.5 116.5q0 39 18 82l482 1112q39 90 124 90zM684 820l-132 -326h264zM848 1542
l-164 136l-164 -136q-35 -28 -74 -28t-68.5 29.5t-29.5 68.5q0 47 44 84l254 212q19 16 38 16t38 -16l254 -212q44 -37 44 -84q0 -39 -29.5 -68.5t-68.5 -29.5q-43 0 -74 28z" />
    <glyph glyph-name="Atilde" unicode="&#xc3;" horiz-adv-x="1368" 
d="M684 1424q85 0 124 -90l482 -1112q18 -43 18 -82q0 -69 -47.5 -116.5t-116.5 -47.5q-58 0 -101 32.5t-65 85.5l-50 124h-488l-50 -124q-22 -53 -65 -85.5t-101 -32.5q-69 0 -116.5 47.5t-47.5 116.5q0 39 18 82l482 1112q39 90 124 90zM684 820l-132 -326h264zM816 1554
q-78 0 -162 68q-48 38 -82 38q-30 0 -50 -42q-11 -24 -35.5 -40t-52.5 -16q-38 0 -65 27t-27 65q0 16 6 34q24 78 80 124t124 46q78 0 162 -68q47 -38 82 -38q30 0 50 42q11 24 35.5 40t52.5 16q38 0 65 -27t27 -65q0 -16 -6 -34q-24 -78 -80 -124t-124 -46z" />
    <glyph glyph-name="Adieresis" unicode="&#xc4;" horiz-adv-x="1368" 
d="M684 1424q85 0 124 -90l482 -1112q18 -43 18 -82q0 -69 -47.5 -116.5t-116.5 -47.5q-58 0 -101 32.5t-65 85.5l-50 124h-488l-50 -124q-22 -53 -65 -85.5t-101 -32.5q-69 0 -116.5 47.5t-47.5 116.5q0 39 18 82l482 1112q39 90 124 90zM684 820l-132 -326h264zM348 1706
q0 56 39.5 96t96.5 40t96.5 -40t39.5 -96t-39.5 -96t-96.5 -40t-96.5 40t-39.5 96zM748 1706q0 56 39.5 96t96.5 40t96.5 -40t39.5 -96t-39.5 -96t-96.5 -40t-96.5 40t-39.5 96z" />
    <glyph glyph-name="Aring" unicode="&#xc5;" horiz-adv-x="1368" 
d="M684 1424q85 0 124 -90l482 -1112q18 -43 18 -82q0 -69 -47.5 -116.5t-116.5 -47.5q-58 0 -101 32.5t-65 85.5l-50 124h-488l-50 -124q-22 -53 -65 -85.5t-101 -32.5q-69 0 -116.5 47.5t-47.5 116.5q0 39 18 82l482 1112q39 90 124 90zM684 820l-132 -326h264zM910 1706
q0 -93 -66.5 -155.5t-159.5 -62.5t-159.5 62.5t-66.5 155.5t66.5 155.5t159.5 62.5t159.5 -62.5t66.5 -155.5zM762 1706q0 33 -22.5 55.5t-55.5 22.5t-55.5 -22.5t-22.5 -55.5t22.5 -55.5t55.5 -22.5t55.5 22.5t22.5 55.5z" />
    <glyph glyph-name="AE" unicode="&#xc6;" horiz-adv-x="1760" 
d="M1542 0h-500q-72 0 -123 51t-51 123v44h-360l-86 -154q-23 -40 -64 -64t-88 -24q-71 0 -120.5 46.5t-49.5 119.5q0 47 32 104l574 1020q40 71 92 102.5t134 31.5h592q66 0 110 -44.5t44 -113.5q0 -66 -44 -110t-110 -44h-308v-188h264q66 0 110 -44.5t44 -113.5
q0 -66 -44 -110t-110 -44h-264v-276h326q66 0 110 -44.5t44 -113.5q0 -66 -44 -110t-110 -44zM868 854l-204 -360h204v360z" />
    <glyph glyph-name="Ccedilla" unicode="&#xc7;" horiz-adv-x="1462" 
d="M78 700q0 155 60.5 291.5t161.5 230.5t236 148t282 54q152 0 286.5 -51.5t232.5 -141.5q65 -58 65 -131q0 -69 -46.5 -115.5t-115.5 -46.5q-68 0 -131 59q-118 115 -283 115q-166 0 -283 -119t-117 -293t117 -293t283 -119q165 0 283 115q63 59 131 59q69 0 115.5 -46.5
t46.5 -115.5q0 -72 -64 -132q-177 -161 -438 -188l-34 -72q63 -19 100.5 -65t37.5 -113q0 -86 -68.5 -146t-181.5 -60q-87 0 -154 32q-50 23 -50 76q0 33 22.5 54.5t55.5 21.5q22 0 38 -8q27 -12 54 -12q31 0 49.5 15t18.5 39q0 60 -106 66q-12 0 -21 7t-9 17q0 12 6 24
l60 128q-132 16 -248.5 76t-203.5 152.5t-137.5 219t-50.5 268.5z" />
    <glyph glyph-name="Egrave" unicode="&#xc8;" horiz-adv-x="1024" 
d="M306 1400h482q66 0 110 -44.5t44 -113.5q0 -66 -44 -110t-110 -44h-308v-188h264q66 0 110 -44.5t44 -113.5q0 -66 -44 -110t-110 -44h-264v-276h326q66 0 110 -44.5t44 -113.5q0 -66 -44 -110t-110 -44h-500q-72 0 -123 51t-51 123v1052q0 72 51 123t123 51zM288 1810
q0 42 31 73t71 31q37 0 68 -24l256 -212q38 -31 38 -80q0 -40 -29 -69t-71 -29q-35 0 -66 24l-256 206q-42 35 -42 80z" />
    <glyph glyph-name="Eacute" unicode="&#xc9;" horiz-adv-x="1024" 
d="M306 1400h482q66 0 110 -44.5t44 -113.5q0 -66 -44 -110t-110 -44h-308v-188h264q66 0 110 -44.5t44 -113.5q0 -66 -44 -110t-110 -44h-264v-276h326q66 0 110 -44.5t44 -113.5q0 -66 -44 -110t-110 -44h-500q-72 0 -123 51t-51 123v1052q0 72 51 123t123 51zM776 1810
q0 -45 -42 -80l-256 -206q-31 -24 -66 -24q-42 0 -71 29t-29 69q0 49 38 80l256 212q31 24 68 24q40 0 71 -31t31 -73z" />
    <glyph glyph-name="Ecircumflex" unicode="&#xca;" horiz-adv-x="1024" 
d="M306 1400h482q66 0 110 -44.5t44 -113.5q0 -66 -44 -110t-110 -44h-308v-188h264q66 0 110 -44.5t44 -113.5q0 -66 -44 -110t-110 -44h-264v-276h326q66 0 110 -44.5t44 -113.5q0 -66 -44 -110t-110 -44h-500q-72 0 -123 51t-51 123v1052q0 72 51 123t123 51zM684 1542
l-164 136l-164 -136q-35 -28 -74 -28t-68.5 29.5t-29.5 68.5q0 47 44 84l254 212q19 16 38 16t38 -16l254 -212q44 -37 44 -84q0 -39 -29.5 -68.5t-68.5 -29.5q-43 0 -74 28z" />
    <glyph glyph-name="Edieresis" unicode="&#xcb;" horiz-adv-x="1024" 
d="M306 1400h482q66 0 110 -44.5t44 -113.5q0 -66 -44 -110t-110 -44h-308v-188h264q66 0 110 -44.5t44 -113.5q0 -66 -44 -110t-110 -44h-264v-276h326q66 0 110 -44.5t44 -113.5q0 -66 -44 -110t-110 -44h-500q-72 0 -123 51t-51 123v1052q0 72 51 123t123 51zM186 1706
q0 56 39.5 96t96.5 40t96.5 -40t39.5 -96t-39.5 -96t-96.5 -40t-96.5 40t-39.5 96zM586 1706q0 56 39.5 96t96.5 40t96.5 -40t39.5 -96t-39.5 -96t-96.5 -40t-96.5 40t-39.5 96z" />
    <glyph glyph-name="Igrave" unicode="&#xcc;" horiz-adv-x="644" 
d="M496 1250v-1100q0 -72 -51 -123t-123 -51t-123 51t-51 123v1100q0 72 51 123t123 51t123 -51t51 -123zM14 1810q0 42 31 73t71 31q37 0 68 -24l256 -212q38 -31 38 -80q0 -40 -29 -69t-71 -29q-35 0 -66 24l-256 206q-42 35 -42 80z" />
    <glyph glyph-name="Iacute" unicode="&#xcd;" horiz-adv-x="644" 
d="M496 1250v-1100q0 -72 -51 -123t-123 -51t-123 51t-51 123v1100q0 72 51 123t123 51t123 -51t51 -123zM630 1810q0 -45 -42 -80l-256 -206q-31 -24 -66 -24q-42 0 -71 29t-29 69q0 49 38 80l256 212q31 24 68 24q40 0 71 -31t31 -73z" />
    <glyph glyph-name="Icircumflex" unicode="&#xce;" horiz-adv-x="644" 
d="M496 1250v-1100q0 -72 -51 -123t-123 -51t-123 51t-51 123v1100q0 72 51 123t123 51t123 -51t51 -123zM486 1542l-164 136l-164 -136q-35 -28 -74 -28t-68.5 29.5t-29.5 68.5q0 47 44 84l254 212q19 16 38 16t38 -16l254 -212q44 -37 44 -84q0 -39 -29.5 -68.5
t-68.5 -29.5q-43 0 -74 28z" />
    <glyph glyph-name="Idieresis" unicode="&#xcf;" horiz-adv-x="644" 
d="M496 1250v-1100q0 -72 -51 -123t-123 -51t-123 51t-51 123v1100q0 72 51 123t123 51t123 -51t51 -123zM-14 1706q0 56 39.5 96t96.5 40t96.5 -40t39.5 -96t-39.5 -96t-96.5 -40t-96.5 40t-39.5 96zM386 1706q0 56 39.5 96t96.5 40t96.5 -40t39.5 -96t-39.5 -96t-96.5 -40
t-96.5 40t-39.5 96z" />
    <glyph glyph-name="Eth" unicode="&#xd0;" horiz-adv-x="1408" 
d="M10 696q0 38 26.5 65t63.5 27h66v438q0 72 51 123t123 51h252q154 0 289 -50.5t234 -140t156 -221.5t57 -288t-57 -288t-156 -221.5t-234 -140t-289 -50.5h-252q-72 0 -123 51t-51 123v432h-66q-38 0 -64 26t-26 64zM980 700q0 177 -103 282.5t-277 105.5h-86v-300h150
q38 0 65 -27t27 -65q0 -37 -27 -63.5t-65 -26.5h-150v-294h86q174 0 277 105.5t103 282.5z" />
    <glyph glyph-name="Ntilde" unicode="&#xd1;" horiz-adv-x="1466" 
d="M346 1376l640 -730v604q0 72 51 123t123 51t123 -51t51 -123v-1154q0 -56 -29.5 -88t-78.5 -32q-64 0 -106 48l-640 730v-604q0 -72 -51 -123t-123 -51t-123 51t-51 123v1154q0 56 29.5 88t78.5 32q64 0 106 -48zM864 1554q-78 0 -162 68q-47 38 -82 38q-30 0 -50 -42
q-11 -24 -35.5 -40t-52.5 -16q-38 0 -65 27t-27 65q0 16 6 34q24 78 80 124t124 46q78 0 162 -68q48 -38 82 -38q30 0 50 42q11 24 35.5 40t52.5 16q38 0 65 -27t27 -65q0 -16 -6 -34q-24 -78 -80 -124t-124 -46z" />
    <glyph glyph-name="Ograve" unicode="&#xd2;" horiz-adv-x="1656" 
d="M1578 700q0 -123 -39 -236t-109 -201t-163 -153t-206 -99.5t-233 -34.5t-233 34.5t-206 99.5t-163 153t-109 201t-39 236t39 236t109 201t163 153t206 99.5t233 34.5t233 -34.5t206 -99.5t163 -153t109 -201t39 -236zM426 700q0 -175 116.5 -293.5t285.5 -118.5
t285.5 118.5t116.5 293.5t-116.5 293.5t-285.5 118.5t-285.5 -118.5t-116.5 -293.5zM534 1810q0 42 31 73t71 31q37 0 68 -24l256 -212q38 -31 38 -80q0 -40 -29 -69t-71 -29q-35 0 -66 24l-256 206q-42 35 -42 80z" />
    <glyph glyph-name="Oacute" unicode="&#xd3;" horiz-adv-x="1656" 
d="M1578 700q0 -123 -39 -236t-109 -201t-163 -153t-206 -99.5t-233 -34.5t-233 34.5t-206 99.5t-163 153t-109 201t-39 236t39 236t109 201t163 153t206 99.5t233 34.5t233 -34.5t206 -99.5t163 -153t109 -201t39 -236zM426 700q0 -175 116.5 -293.5t285.5 -118.5
t285.5 118.5t116.5 293.5t-116.5 293.5t-285.5 118.5t-285.5 -118.5t-116.5 -293.5zM1122 1810q0 -45 -42 -80l-256 -206q-31 -24 -66 -24q-42 0 -71 29t-29 69q0 49 38 80l256 212q31 24 68 24q40 0 71 -31t31 -73z" />
    <glyph glyph-name="Ocircumflex" unicode="&#xd4;" horiz-adv-x="1656" 
d="M1578 700q0 -123 -39 -236t-109 -201t-163 -153t-206 -99.5t-233 -34.5t-233 34.5t-206 99.5t-163 153t-109 201t-39 236t39 236t109 201t163 153t206 99.5t233 34.5t233 -34.5t206 -99.5t163 -153t109 -201t39 -236zM426 700q0 -175 116.5 -293.5t285.5 -118.5
t285.5 118.5t116.5 293.5t-116.5 293.5t-285.5 118.5t-285.5 -118.5t-116.5 -293.5zM992 1542l-164 136l-164 -136q-35 -28 -74 -28t-68.5 29.5t-29.5 68.5q0 47 44 84l254 212q19 16 38 16t38 -16l254 -212q44 -37 44 -84q0 -39 -29.5 -68.5t-68.5 -29.5q-43 0 -74 28z" />
    <glyph glyph-name="Otilde" unicode="&#xd5;" horiz-adv-x="1656" 
d="M1578 700q0 -123 -39 -236t-109 -201t-163 -153t-206 -99.5t-233 -34.5t-233 34.5t-206 99.5t-163 153t-109 201t-39 236t39 236t109 201t163 153t206 99.5t233 34.5t233 -34.5t206 -99.5t163 -153t109 -201t39 -236zM426 700q0 -175 116.5 -293.5t285.5 -118.5
t285.5 118.5t116.5 293.5t-116.5 293.5t-285.5 118.5t-285.5 -118.5t-116.5 -293.5zM960 1554q-78 0 -162 68q-48 38 -82 38q-30 0 -50 -42q-11 -24 -35.5 -40t-52.5 -16q-38 0 -65 27t-27 65q0 16 6 34q24 78 80 124t124 46q78 0 162 -68q47 -38 82 -38q30 0 50 42
q11 24 35.5 40t52.5 16q38 0 65 -27t27 -65q0 -16 -6 -34q-24 -78 -80 -124t-124 -46z" />
    <glyph glyph-name="Odieresis" unicode="&#xd6;" horiz-adv-x="1656" 
d="M1578 700q0 -123 -39 -236t-109 -201t-163 -153t-206 -99.5t-233 -34.5t-233 34.5t-206 99.5t-163 153t-109 201t-39 236t39 236t109 201t163 153t206 99.5t233 34.5t233 -34.5t206 -99.5t163 -153t109 -201t39 -236zM426 700q0 -175 116.5 -293.5t285.5 -118.5
t285.5 118.5t116.5 293.5t-116.5 293.5t-285.5 118.5t-285.5 -118.5t-116.5 -293.5zM492 1706q0 56 39.5 96t96.5 40t96.5 -40t39.5 -96t-39.5 -96t-96.5 -40t-96.5 40t-39.5 96zM892 1706q0 56 39.5 96t96.5 40t96.5 -40t39.5 -96t-39.5 -96t-96.5 -40t-96.5 40t-39.5 96z
" />
    <glyph glyph-name="multiply" unicode="&#xd7;" horiz-adv-x="1260" 
d="M414 666l-230 228q-50 50 -50 112q0 64 44.5 109t107.5 45q64 0 110 -46l234 -232l234 232q46 46 110 46q63 0 107.5 -45t44.5 -109q0 -62 -50 -112l-230 -228l230 -228q50 -50 50 -112q0 -64 -44.5 -109t-107.5 -45q-64 0 -110 46l-234 232l-234 -232q-46 -46 -110 -46
q-63 0 -107.5 45t-44.5 109q0 62 50 112z" />
    <glyph glyph-name="Oslash" unicode="&#xd8;" horiz-adv-x="1656" 
d="M1578 700q0 -123 -39 -236t-109 -201t-163 -153t-206 -99.5t-233 -34.5q-157 0 -302 60l-112 -198q-18 -32 -56 -32q-26 0 -46 19.5t-20 46.5q0 16 8 32l108 192q-153 97 -241.5 254.5t-88.5 349.5q0 123 39 236t109 201t163 153t206 99.5t233 34.5q155 0 300 -60
l116 202q18 32 56 32q26 0 46 -19.5t20 -46.5q0 -16 -8 -32l-112 -196q153 -97 242.5 -255.5t89.5 -348.5zM1230 700q0 97 -38.5 180.5t-107.5 139.5l-400 -706q64 -26 144 -26q169 0 285.5 118.5t116.5 293.5zM426 700q0 -97 38.5 -180t105.5 -140l400 706q-71 26 -142 26
q-169 0 -285.5 -118.5t-116.5 -293.5z" />
    <glyph glyph-name="Ugrave" unicode="&#xd9;" horiz-adv-x="1348" 
d="M1216 1250v-728q0 -126 -45 -230.5t-120.5 -172.5t-173 -105.5t-203.5 -37.5t-203.5 37.5t-173 105.5t-120.5 172.5t-45 230.5v728q0 72 51 123t123 51t123 -51t51 -123v-738q0 -105 53 -164.5t141 -59.5t141 59.5t53 164.5v738q0 72 51 123t123 51t123 -51t51 -123z
M394 1810q0 42 31 73t71 31q37 0 68 -24l256 -212q38 -31 38 -80q0 -40 -29 -69t-71 -29q-35 0 -66 24l-256 206q-42 35 -42 80z" />
    <glyph glyph-name="Uacute" unicode="&#xda;" horiz-adv-x="1348" 
d="M1216 1250v-728q0 -126 -45 -230.5t-120.5 -172.5t-173 -105.5t-203.5 -37.5t-203.5 37.5t-173 105.5t-120.5 172.5t-45 230.5v728q0 72 51 123t123 51t123 -51t51 -123v-738q0 -105 53 -164.5t141 -59.5t141 59.5t53 164.5v738q0 72 51 123t123 51t123 -51t51 -123z
M954 1810q0 -45 -42 -80l-256 -206q-31 -24 -66 -24q-42 0 -71 29t-29 69q0 49 38 80l256 212q31 24 68 24q40 0 71 -31t31 -73z" />
    <glyph glyph-name="Ucircumflex" unicode="&#xdb;" horiz-adv-x="1348" 
d="M1216 1250v-728q0 -126 -45 -230.5t-120.5 -172.5t-173 -105.5t-203.5 -37.5t-203.5 37.5t-173 105.5t-120.5 172.5t-45 230.5v728q0 72 51 123t123 51t123 -51t51 -123v-738q0 -105 53 -164.5t141 -59.5t141 59.5t53 164.5v738q0 72 51 123t123 51t123 -51t51 -123z
M838 1542l-164 136l-164 -136q-35 -28 -74 -28t-68.5 29.5t-29.5 68.5q0 47 44 84l254 212q19 16 38 16t38 -16l254 -212q44 -37 44 -84q0 -39 -29.5 -68.5t-68.5 -29.5q-43 0 -74 28z" />
    <glyph glyph-name="Udieresis" unicode="&#xdc;" horiz-adv-x="1348" 
d="M1216 1250v-728q0 -126 -45 -230.5t-120.5 -172.5t-173 -105.5t-203.5 -37.5t-203.5 37.5t-173 105.5t-120.5 172.5t-45 230.5v728q0 72 51 123t123 51t123 -51t51 -123v-738q0 -105 53 -164.5t141 -59.5t141 59.5t53 164.5v738q0 72 51 123t123 51t123 -51t51 -123z
M338 1706q0 56 39.5 96t96.5 40t96.5 -40t39.5 -96t-39.5 -96t-96.5 -40t-96.5 40t-39.5 96zM738 1706q0 56 39.5 96t96.5 40t96.5 -40t39.5 -96t-39.5 -96t-96.5 -40t-96.5 40t-39.5 96z" />
    <glyph glyph-name="Yacute" unicode="&#xdd;" horiz-adv-x="1360" 
d="M680 -24q-72 0 -123 51t-51 123v392l-408 628q-26 39 -26 94q0 62 49 111t115 49q97 0 156 -96l288 -464l288 464q59 96 156 96q66 0 115 -49t49 -111q0 -55 -26 -94l-408 -628v-392q0 -72 -51 -123t-123 -51zM992 1810q0 -45 -42 -80l-256 -206q-31 -24 -66 -24
q-42 0 -71 29t-29 69q0 49 38 80l256 212q31 24 68 24q40 0 71 -31t31 -73z" />
    <glyph glyph-name="Thorn" unicode="&#xde;" horiz-adv-x="1166" 
d="M480 888v-360h60q106 0 170 43.5t64 136.5t-64 136.5t-170 43.5h-60zM132 150v1100q0 72 51 123t123 51t123 -51t51 -123v-70h94q233 0 386.5 -129.5t153.5 -342.5t-153.5 -342.5t-386.5 -129.5h-94v-86q0 -72 -51 -123t-123 -51t-123 51t-51 123z" />
    <glyph glyph-name="germandbls" unicode="&#xdf;" horiz-adv-x="1198" 
d="M514 122q0 59 41 100.5t99 41.5h28q67 0 107.5 48.5t40.5 131.5q0 174 -178 230q-44 11 -72 45.5t-28 80.5q0 79 68 118q82 46 82 156q0 60 -34 99t-88 39q-57 0 -94.5 -43t-37.5 -119v-916q0 -66 -46 -112t-112 -46t-112 46t-46 112v898q0 213 122.5 340.5t329.5 127.5
q126 0 226.5 -54t154 -141.5t53.5 -188.5q0 -96 -43.5 -175t-116.5 -123q129 -51 208.5 -161.5t79.5 -258.5q0 -193 -111 -307.5t-299 -114.5q-46 0 -88 6q-58 8 -96 46t-38 94z" />
    <glyph glyph-name="agrave" unicode="&#xe0;" horiz-adv-x="1284" 
d="M1166 802v-668q0 -66 -46 -112t-112 -46q-64 0 -108.5 42t-49.5 104q-45 -63 -127.5 -104.5t-182.5 -41.5q-128 0 -235 64.5t-169 177.5t-62 250t62 250t169 177.5t235 64.5q100 0 182.5 -41.5t127.5 -104.5q5 62 49.5 104t108.5 42q66 0 112 -46t46 -112zM838 468
q0 93 -64 156.5t-156 63.5t-156 -63.5t-64 -156.5t64 -156.5t156 -63.5t156 63.5t64 156.5zM392 1362q0 42 31 73t71 31q37 0 68 -24l256 -212q38 -31 38 -80q0 -40 -29 -69t-71 -29q-35 0 -66 24l-256 206q-42 35 -42 80z" />
    <glyph glyph-name="aacute" unicode="&#xe1;" horiz-adv-x="1284" 
d="M1166 802v-668q0 -66 -46 -112t-112 -46q-64 0 -108.5 42t-49.5 104q-45 -63 -127.5 -104.5t-182.5 -41.5q-128 0 -235 64.5t-169 177.5t-62 250t62 250t169 177.5t235 64.5q100 0 182.5 -41.5t127.5 -104.5q5 62 49.5 104t108.5 42q66 0 112 -46t46 -112zM838 468
q0 93 -64 156.5t-156 63.5t-156 -63.5t-64 -156.5t64 -156.5t156 -63.5t156 63.5t64 156.5zM878 1362q0 -45 -42 -80l-256 -206q-31 -24 -66 -24q-42 0 -71 29t-29 69q0 49 38 80l256 212q31 24 68 24q40 0 71 -31t31 -73z" />
    <glyph glyph-name="acircumflex" unicode="&#xe2;" horiz-adv-x="1284" 
d="M1166 802v-668q0 -66 -46 -112t-112 -46q-64 0 -108.5 42t-49.5 104q-45 -63 -127.5 -104.5t-182.5 -41.5q-128 0 -235 64.5t-169 177.5t-62 250t62 250t169 177.5t235 64.5q100 0 182.5 -41.5t127.5 -104.5q5 62 49.5 104t108.5 42q66 0 112 -46t46 -112zM838 468
q0 93 -64 156.5t-156 63.5t-156 -63.5t-64 -156.5t64 -156.5t156 -63.5t156 63.5t64 156.5zM806 1094l-164 136l-164 -136q-35 -28 -74 -28t-68.5 29.5t-29.5 68.5q0 47 44 84l254 212q19 16 38 16t38 -16l254 -212q44 -37 44 -84q0 -39 -29.5 -68.5t-68.5 -29.5
q-43 0 -74 28z" />
    <glyph glyph-name="atilde" unicode="&#xe3;" horiz-adv-x="1284" 
d="M1166 802v-668q0 -66 -46 -112t-112 -46q-64 0 -108.5 42t-49.5 104q-45 -63 -127.5 -104.5t-182.5 -41.5q-128 0 -235 64.5t-169 177.5t-62 250t62 250t169 177.5t235 64.5q100 0 182.5 -41.5t127.5 -104.5q5 62 49.5 104t108.5 42q66 0 112 -46t46 -112zM838 468
q0 93 -64 156.5t-156 63.5t-156 -63.5t-64 -156.5t64 -156.5t156 -63.5t156 63.5t64 156.5zM774 1106q-78 0 -162 68q-48 38 -82 38q-30 0 -50 -42q-11 -24 -35.5 -40t-52.5 -16q-38 0 -65 27t-27 65q0 16 6 34q24 78 80 124t124 46q78 0 162 -68q48 -38 82 -38q30 0 50 42
q11 24 35.5 40t52.5 16q38 0 65 -27t27 -65q0 -16 -6 -34q-24 -78 -80 -124t-124 -46z" />
    <glyph glyph-name="adieresis" unicode="&#xe4;" horiz-adv-x="1284" 
d="M1166 802v-668q0 -66 -46 -112t-112 -46q-64 0 -108.5 42t-49.5 104q-45 -63 -127.5 -104.5t-182.5 -41.5q-128 0 -235 64.5t-169 177.5t-62 250t62 250t169 177.5t235 64.5q100 0 182.5 -41.5t127.5 -104.5q5 62 49.5 104t108.5 42q66 0 112 -46t46 -112zM838 468
q0 93 -64 156.5t-156 63.5t-156 -63.5t-64 -156.5t64 -156.5t156 -63.5t156 63.5t64 156.5zM308 1258q0 56 39.5 96t96.5 40t96.5 -40t39.5 -96t-39.5 -96t-96.5 -40t-96.5 40t-39.5 96zM708 1258q0 56 39.5 96t96.5 40t96.5 -40t39.5 -96t-39.5 -96t-96.5 -40t-96.5 40
t-39.5 96z" />
    <glyph glyph-name="aring" unicode="&#xe5;" horiz-adv-x="1284" 
d="M1166 802v-668q0 -66 -46 -112t-112 -46q-64 0 -108.5 42t-49.5 104q-45 -63 -127.5 -104.5t-182.5 -41.5q-128 0 -235 64.5t-169 177.5t-62 250t62 250t169 177.5t235 64.5q100 0 182.5 -41.5t127.5 -104.5q5 62 49.5 104t108.5 42q66 0 112 -46t46 -112zM838 468
q0 93 -64 156.5t-156 63.5t-156 -63.5t-64 -156.5t64 -156.5t156 -63.5t156 63.5t64 156.5zM872 1258q0 -93 -66.5 -155.5t-159.5 -62.5t-159.5 62.5t-66.5 155.5t66.5 155.5t159.5 62.5t159.5 -62.5t66.5 -155.5zM724 1258q0 33 -22.5 55.5t-55.5 22.5t-55.5 -22.5
t-22.5 -55.5t22.5 -55.5t55.5 -22.5t55.5 22.5t22.5 55.5z" />
    <glyph glyph-name="ae" unicode="&#xe6;" horiz-adv-x="1774" 
d="M1018 590h384q-20 54 -71.5 88t-120.5 34t-120.5 -34t-71.5 -88zM686 290q0 44 -42.5 73t-103.5 29t-103.5 -29t-42.5 -73t42.5 -73t103.5 -29t103.5 29t42.5 73zM1578 386h-562q20 -66 73 -104t137 -38q99 0 172 54q46 34 94 34q61 0 100.5 -39t39.5 -97q0 -67 -60 -114
q-133 -106 -350 -106q-100 0 -191 37.5t-155 106.5q-122 -144 -392 -144q-175 0 -290.5 87.5t-115.5 226.5q0 138 100 226t242 88q164 0 266 -96v26q0 108 -58 161t-164 53q-85 0 -186 -48q-27 -12 -54 -12q-42 0 -71 30t-29 72q0 66 72 102q139 68 302 68q121 0 217 -36.5
t153 -105.5q60 69 149 105.5t183 36.5q128 0 238.5 -56t180.5 -156t85 -224q1 -7 1 -19q0 -54 -35.5 -86.5t-91.5 -32.5z" />
    <glyph glyph-name="ccedilla" unicode="&#xe7;" horiz-adv-x="1032" 
d="M70 468q0 135 69.5 248.5t187.5 178.5t255 65q82 0 166 -26t148 -72q72 -52 72 -132q0 -60 -43.5 -103t-106.5 -43q-50 0 -98 38q-62 50 -136 50q-79 0 -138.5 -57.5t-59.5 -146.5t59.5 -146.5t138.5 -57.5q74 0 136 50q48 38 98 38q63 0 106.5 -43t43.5 -103
q0 -80 -72 -132q-92 -65 -218 -88l-36 -78q63 -19 100.5 -65t37.5 -113q0 -86 -68.5 -146t-181.5 -60q-87 0 -154 32q-50 23 -50 76q0 33 22.5 54.5t55.5 21.5q22 0 38 -8q27 -12 54 -12q31 0 49.5 15t18.5 39q0 60 -106 66q-12 0 -21 7t-9 17q0 12 6 24l60 128
q-181 29 -302.5 165.5t-121.5 318.5z" />
    <glyph glyph-name="egrave" unicode="&#xe8;" horiz-adv-x="1160" 
d="M1090 524q1 -7 1 -19q0 -54 -35.5 -86.5t-91.5 -32.5h-562q20 -66 73 -104t137 -38q99 0 172 54q46 34 94 34q61 0 100.5 -39t39.5 -97q0 -67 -60 -114q-133 -106 -350 -106q-239 0 -388.5 138.5t-149.5 353.5q0 137 69 250t187.5 177.5t259.5 64.5q128 0 238.5 -56
t180.5 -156t85 -224zM404 590h384q-20 54 -71.5 88t-120.5 34t-120.5 -34t-71.5 -88zM324 1362q0 42 31 73t71 31q37 0 68 -24l256 -212q38 -31 38 -80q0 -40 -29 -69t-71 -29q-35 0 -66 24l-256 206q-42 35 -42 80z" />
    <glyph glyph-name="eacute" unicode="&#xe9;" horiz-adv-x="1160" 
d="M1090 524q1 -7 1 -19q0 -54 -35.5 -86.5t-91.5 -32.5h-562q20 -66 73 -104t137 -38q99 0 172 54q46 34 94 34q61 0 100.5 -39t39.5 -97q0 -67 -60 -114q-133 -106 -350 -106q-239 0 -388.5 138.5t-149.5 353.5q0 137 69 250t187.5 177.5t259.5 64.5q128 0 238.5 -56
t180.5 -156t85 -224zM404 590h384q-20 54 -71.5 88t-120.5 34t-120.5 -34t-71.5 -88zM822 1362q0 -45 -42 -80l-256 -206q-31 -24 -66 -24q-42 0 -71 29t-29 69q0 49 38 80l256 212q31 24 68 24q40 0 71 -31t31 -73z" />
    <glyph glyph-name="ecircumflex" unicode="&#xea;" horiz-adv-x="1160" 
d="M1090 524q1 -7 1 -19q0 -54 -35.5 -86.5t-91.5 -32.5h-562q20 -66 73 -104t137 -38q99 0 172 54q46 34 94 34q61 0 100.5 -39t39.5 -97q0 -67 -60 -114q-133 -106 -350 -106q-239 0 -388.5 138.5t-149.5 353.5q0 137 69 250t187.5 177.5t259.5 64.5q128 0 238.5 -56
t180.5 -156t85 -224zM404 590h384q-20 54 -71.5 88t-120.5 34t-120.5 -34t-71.5 -88zM738 1094l-164 136l-164 -136q-35 -28 -74 -28t-68.5 29.5t-29.5 68.5q0 47 44 84l254 212q19 16 38 16t38 -16l254 -212q44 -37 44 -84q0 -39 -29.5 -68.5t-68.5 -29.5q-43 0 -74 28z
" />
    <glyph glyph-name="edieresis" unicode="&#xeb;" horiz-adv-x="1160" 
d="M1090 524q1 -7 1 -19q0 -54 -35.5 -86.5t-91.5 -32.5h-562q20 -66 73 -104t137 -38q99 0 172 54q46 34 94 34q61 0 100.5 -39t39.5 -97q0 -67 -60 -114q-133 -106 -350 -106q-239 0 -388.5 138.5t-149.5 353.5q0 137 69 250t187.5 177.5t259.5 64.5q128 0 238.5 -56
t180.5 -156t85 -224zM404 590h384q-20 54 -71.5 88t-120.5 34t-120.5 -34t-71.5 -88zM238 1258q0 56 39.5 96t96.5 40t96.5 -40t39.5 -96t-39.5 -96t-96.5 -40t-96.5 40t-39.5 96zM638 1258q0 56 39.5 96t96.5 40t96.5 -40t39.5 -96t-39.5 -96t-96.5 -40t-96.5 40t-39.5 96z
" />
    <glyph glyph-name="igrave" unicode="&#xec;" horiz-adv-x="576" 
d="M130 134v668q0 66 46 112t112 46t112 -46t46 -112v-668q0 -66 -46 -112t-112 -46t-112 46t-46 112zM-28 1362q0 42 31 73t71 31q37 0 68 -24l256 -212q38 -31 38 -80q0 -40 -29 -69t-71 -29q-35 0 -66 24l-256 206q-42 35 -42 80z" />
    <glyph glyph-name="iacute" unicode="&#xed;" horiz-adv-x="576" 
d="M130 134v668q0 66 46 112t112 46t112 -46t46 -112v-668q0 -66 -46 -112t-112 -46t-112 46t-46 112zM604 1362q0 -45 -42 -80l-256 -206q-31 -24 -66 -24q-42 0 -71 29t-29 69q0 49 38 80l256 212q31 24 68 24q40 0 71 -31t31 -73z" />
    <glyph glyph-name="icircumflex" unicode="&#xee;" horiz-adv-x="576" 
d="M130 134v668q0 66 46 112t112 46t112 -46t46 -112v-668q0 -66 -46 -112t-112 -46t-112 46t-46 112zM452 1094l-164 136l-164 -136q-35 -28 -74 -28t-68.5 29.5t-29.5 68.5q0 47 44 84l254 212q19 16 38 16t38 -16l254 -212q44 -37 44 -84q0 -39 -29.5 -68.5t-68.5 -29.5
q-43 0 -74 28z" />
    <glyph glyph-name="idieresis" unicode="&#xef;" horiz-adv-x="576" 
d="M130 134v668q0 66 46 112t112 46t112 -46t46 -112v-668q0 -66 -46 -112t-112 -46t-112 46t-46 112zM-48 1258q0 56 39.5 96t96.5 40t96.5 -40t39.5 -96t-39.5 -96t-96.5 -40t-96.5 40t-39.5 96zM352 1258q0 56 39.5 96t96.5 40t96.5 -40t39.5 -96t-39.5 -96t-96.5 -40
t-96.5 40t-39.5 96z" />
    <glyph glyph-name="eth" unicode="&#xf0;" horiz-adv-x="1186" 
d="M248 1106l112 62l-12 8q-39 22 -63.5 57t-24.5 75q0 59 44 105.5t102 46.5q48 0 94 -26q108 -64 158 -100l140 78q17 10 36 10q28 0 49 -21t21 -49q0 -39 -34 -58l-96 -54q338 -305 338 -718q0 -244 -144.5 -395t-371.5 -151q-215 0 -365.5 143t-150.5 349
q0 201 138 334.5t334 133.5q48 0 90 -14q-63 87 -154 160l-168 -94q-17 -10 -36 -10q-28 0 -49 21t-21 49q0 39 34 58zM398 468q0 -87 56.5 -144.5t141.5 -57.5q84 0 140 57.5t56 144.5q0 86 -56 143t-140 57q-85 0 -141.5 -57t-56.5 -143z" />
    <glyph glyph-name="ntilde" unicode="&#xf1;" horiz-adv-x="1142" 
d="M118 134v668q0 66 46 112t112 46q64 0 108.5 -43t49.5 -103q43 68 116 107t166 39q135 0 224.5 -93.5t89.5 -248.5v-484q0 -66 -46 -112t-112 -46t-112 46t-46 112v406q0 64 -40.5 106t-99.5 42q-56 0 -96 -38t-44 -98v-418q0 -66 -46 -112t-112 -46t-112 46t-46 112z
M696 1106q-78 0 -162 68q-47 38 -82 38q-30 0 -50 -42q-11 -24 -35.5 -40t-52.5 -16q-38 0 -65 27t-27 65q0 16 6 34q24 78 80 124t124 46q78 0 162 -68q48 -38 82 -38q30 0 50 42q11 24 35.5 40t52.5 16q38 0 65 -27t27 -65q0 -16 -6 -34q-24 -78 -80 -124t-124 -46z" />
    <glyph glyph-name="ograve" unicode="&#xf2;" horiz-adv-x="1180" 
d="M1110 468q0 -135 -68.5 -248t-188 -178.5t-263.5 -65.5t-263.5 65.5t-188 178.5t-68.5 248t68.5 248t188 178.5t263.5 65.5t263.5 -65.5t188 -178.5t68.5 -248zM794 468q0 87 -61.5 145.5t-142.5 58.5t-142.5 -58.5t-61.5 -145.5t61.5 -145.5t142.5 -58.5t142.5 58.5
t61.5 145.5zM340 1362q0 42 31 73t71 31q37 0 68 -24l256 -212q38 -31 38 -80q0 -40 -29 -69t-71 -29q-35 0 -66 24l-256 206q-42 35 -42 80z" />
    <glyph glyph-name="oacute" unicode="&#xf3;" horiz-adv-x="1180" 
d="M1110 468q0 -135 -68.5 -248t-188 -178.5t-263.5 -65.5t-263.5 65.5t-188 178.5t-68.5 248t68.5 248t188 178.5t263.5 65.5t263.5 -65.5t188 -178.5t68.5 -248zM794 468q0 87 -61.5 145.5t-142.5 58.5t-142.5 -58.5t-61.5 -145.5t61.5 -145.5t142.5 -58.5t142.5 58.5
t61.5 145.5zM840 1362q0 -45 -42 -80l-256 -206q-31 -24 -66 -24q-42 0 -71 29t-29 69q0 49 38 80l256 212q31 24 68 24q40 0 71 -31t31 -73z" />
    <glyph glyph-name="ocircumflex" unicode="&#xf4;" horiz-adv-x="1180" 
d="M1110 468q0 -135 -68.5 -248t-188 -178.5t-263.5 -65.5t-263.5 65.5t-188 178.5t-68.5 248t68.5 248t188 178.5t263.5 65.5t263.5 -65.5t188 -178.5t68.5 -248zM794 468q0 87 -61.5 145.5t-142.5 58.5t-142.5 -58.5t-61.5 -145.5t61.5 -145.5t142.5 -58.5t142.5 58.5
t61.5 145.5zM754 1094l-164 136l-164 -136q-35 -28 -74 -28t-68.5 29.5t-29.5 68.5q0 47 44 84l254 212q19 16 38 16t38 -16l254 -212q44 -37 44 -84q0 -39 -29.5 -68.5t-68.5 -29.5q-43 0 -74 28z" />
    <glyph glyph-name="otilde" unicode="&#xf5;" horiz-adv-x="1180" 
d="M1110 468q0 -135 -68.5 -248t-188 -178.5t-263.5 -65.5t-263.5 65.5t-188 178.5t-68.5 248t68.5 248t188 178.5t263.5 65.5t263.5 -65.5t188 -178.5t68.5 -248zM794 468q0 87 -61.5 145.5t-142.5 58.5t-142.5 -58.5t-61.5 -145.5t61.5 -145.5t142.5 -58.5t142.5 58.5
t61.5 145.5zM722 1106q-78 0 -162 68q-48 38 -82 38q-30 0 -50 -42q-11 -24 -35.5 -40t-52.5 -16q-38 0 -65 27t-27 65q0 16 6 34q24 78 80 124t124 46q78 0 162 -68q48 -38 82 -38q30 0 50 42q11 24 35.5 40t52.5 16q38 0 65 -27t27 -65q0 -16 -6 -34q-24 -78 -80 -124
t-124 -46z" />
    <glyph glyph-name="odieresis" unicode="&#xf6;" horiz-adv-x="1180" 
d="M1110 468q0 -135 -68.5 -248t-188 -178.5t-263.5 -65.5t-263.5 65.5t-188 178.5t-68.5 248t68.5 248t188 178.5t263.5 65.5t263.5 -65.5t188 -178.5t68.5 -248zM794 468q0 87 -61.5 145.5t-142.5 58.5t-142.5 -58.5t-61.5 -145.5t61.5 -145.5t142.5 -58.5t142.5 58.5
t61.5 145.5zM254 1258q0 56 39.5 96t96.5 40t96.5 -40t39.5 -96t-39.5 -96t-96.5 -40t-96.5 40t-39.5 96zM654 1258q0 56 39.5 96t96.5 40t96.5 -40t39.5 -96t-39.5 -96t-96.5 -40t-96.5 40t-39.5 96z" />
    <glyph glyph-name="divide" unicode="&#xf7;" horiz-adv-x="1260" 
d="M462 1064q0 70 48 119t120 49t120 -49t48 -119t-48 -119t-120 -49t-120 49t-48 119zM462 264q0 70 48 119t120 49t120 -49t48 -119t-48 -119t-120 -49t-120 49t-48 119zM1026 534h-792q-54 0 -92 38t-38 92t38 92t92 38h792q54 0 92 -38t38 -92t-38 -92t-92 -38z" />
    <glyph glyph-name="oslash" unicode="&#xf8;" horiz-adv-x="1180" 
d="M1110 468q0 -135 -68.5 -248t-188 -178.5t-263.5 -65.5q-97 0 -190 32l-110 -194q-20 -34 -56 -34q-24 0 -44 18t-20 44q0 14 8 30l110 192q-102 69 -160 174.5t-58 229.5q0 135 68.5 248t188 178.5t263.5 65.5q95 0 188 -32l108 188q20 34 56 34q24 0 44 -18t20 -44
q0 -14 -8 -30l-106 -188q101 -67 159.5 -173t58.5 -229zM794 468q0 79 -54 136l-192 -336q14 -4 42 -4q81 0 142.5 58.5t61.5 145.5zM386 468q0 -80 52 -138l192 338q-24 4 -40 4q-81 0 -142.5 -58.5t-61.5 -145.5z" />
    <glyph glyph-name="ugrave" unicode="&#xf9;" horiz-adv-x="1148" 
d="M1030 802v-668q0 -66 -46 -112t-112 -46q-64 0 -108.5 43t-49.5 103q-43 -68 -116 -107t-166 -39q-135 0 -224.5 93.5t-89.5 248.5v484q0 66 46 112t112 46t112 -46t46 -112v-406q0 -64 40.5 -106t99.5 -42q56 0 96 38t44 98v418q0 66 46 112t112 46t112 -46t46 -112z
M308 1362q0 42 31 73t71 31q37 0 68 -24l256 -212q38 -31 38 -80q0 -40 -29 -69t-71 -29q-35 0 -66 24l-256 206q-42 35 -42 80z" />
    <glyph glyph-name="uacute" unicode="&#xfa;" horiz-adv-x="1148" 
d="M1030 802v-668q0 -66 -46 -112t-112 -46q-64 0 -108.5 43t-49.5 103q-43 -68 -116 -107t-166 -39q-135 0 -224.5 93.5t-89.5 248.5v484q0 66 46 112t112 46t112 -46t46 -112v-406q0 -64 40.5 -106t99.5 -42q56 0 96 38t44 98v418q0 66 46 112t112 46t112 -46t46 -112z
M840 1362q0 -45 -42 -80l-256 -206q-31 -24 -66 -24q-42 0 -71 29t-29 69q0 49 38 80l256 212q31 24 68 24q40 0 71 -31t31 -73z" />
    <glyph glyph-name="ucircumflex" unicode="&#xfb;" horiz-adv-x="1148" 
d="M1030 802v-668q0 -66 -46 -112t-112 -46q-64 0 -108.5 43t-49.5 103q-43 -68 -116 -107t-166 -39q-135 0 -224.5 93.5t-89.5 248.5v484q0 66 46 112t112 46t112 -46t46 -112v-406q0 -64 40.5 -106t99.5 -42q56 0 96 38t44 98v418q0 66 46 112t112 46t112 -46t46 -112z
M738 1094l-164 136l-164 -136q-35 -28 -74 -28t-68.5 29.5t-29.5 68.5q0 47 44 84l254 212q19 16 38 16t38 -16l254 -212q44 -37 44 -84q0 -39 -29.5 -68.5t-68.5 -29.5q-43 0 -74 28z" />
    <glyph glyph-name="udieresis" unicode="&#xfc;" horiz-adv-x="1148" 
d="M1030 802v-668q0 -66 -46 -112t-112 -46q-64 0 -108.5 43t-49.5 103q-43 -68 -116 -107t-166 -39q-135 0 -224.5 93.5t-89.5 248.5v484q0 66 46 112t112 46t112 -46t46 -112v-406q0 -64 40.5 -106t99.5 -42q56 0 96 38t44 98v418q0 66 46 112t112 46t112 -46t46 -112z
M238 1258q0 56 39.5 96t96.5 40t96.5 -40t39.5 -96t-39.5 -96t-96.5 -40t-96.5 40t-39.5 96zM638 1258q0 56 39.5 96t96.5 40t96.5 -40t39.5 -96t-39.5 -96t-96.5 -40t-96.5 40t-39.5 96z" />
    <glyph glyph-name="yacute" unicode="&#xfd;" horiz-adv-x="1086" 
d="M990 750l-458 -1238q-17 -44 -57.5 -72t-90.5 -28q-63 0 -108.5 46t-45.5 106q0 28 16 68l152 396l-302 722q-12 27 -12 62q0 63 43.5 105.5t106.5 42.5q54 0 92 -27.5t54 -72.5l164 -456l154 450q16 49 55 77.5t97 28.5q63 0 107.5 -42.5t44.5 -105.5q0 -26 -12 -62z
M806 1362q0 -45 -42 -80l-256 -206q-31 -24 -66 -24q-42 0 -71 29t-29 69q0 49 38 80l256 212q31 24 68 24q40 0 71 -31t31 -73z" />
    <glyph glyph-name="thorn" unicode="&#xfe;" horiz-adv-x="1284" 
d="M118 -428v1794q0 66 46 112t112 46t112 -46t46 -112v-552q45 63 127.5 104.5t182.5 41.5q128 0 235 -64.5t169 -177.5t62 -250t-62 -250t-169 -177.5t-235 -64.5q-100 0 -182.5 41.5t-127.5 104.5v-550q0 -66 -46 -112t-112 -46t-112 46t-46 112zM446 468
q0 -93 64 -156.5t156 -63.5t156 63.5t64 156.5t-64 156.5t-156 63.5t-156 -63.5t-64 -156.5z" />
    <glyph glyph-name="ydieresis" unicode="&#xff;" horiz-adv-x="1086" 
d="M990 750l-458 -1238q-17 -44 -57.5 -72t-90.5 -28q-63 0 -108.5 46t-45.5 106q0 28 16 68l152 396l-302 722q-12 27 -12 62q0 63 43.5 105.5t106.5 42.5q54 0 92 -27.5t54 -72.5l164 -456l154 450q16 49 55 77.5t97 28.5q63 0 107.5 -42.5t44.5 -105.5q0 -26 -12 -62z
M210 1258q0 56 39.5 96t96.5 40t96.5 -40t39.5 -96t-39.5 -96t-96.5 -40t-96.5 40t-39.5 96zM610 1258q0 56 39.5 96t96.5 40t96.5 -40t39.5 -96t-39.5 -96t-96.5 -40t-96.5 40t-39.5 96z" />
    <glyph glyph-name="Amacron" unicode="&#x100;" horiz-adv-x="1368" 
d="M684 1424q85 0 124 -90l482 -1112q18 -43 18 -82q0 -69 -47.5 -116.5t-116.5 -47.5q-58 0 -101 32.5t-65 85.5l-50 124h-488l-50 -124q-22 -53 -65 -85.5t-101 -32.5q-69 0 -116.5 47.5t-47.5 116.5q0 39 18 82l482 1112q39 90 124 90zM684 820l-132 -326h264zM376 1706
q0 44 30 74t74 30h408q44 0 74 -30t30 -74t-30 -74t-74 -30h-408q-44 0 -74 30t-30 74z" />
    <glyph glyph-name="amacron" unicode="&#x101;" horiz-adv-x="1284" 
d="M1166 802v-668q0 -66 -46 -112t-112 -46q-64 0 -108.5 42t-49.5 104q-45 -63 -127.5 -104.5t-182.5 -41.5q-128 0 -235 64.5t-169 177.5t-62 250t62 250t169 177.5t235 64.5q100 0 182.5 -41.5t127.5 -104.5q5 62 49.5 104t108.5 42q66 0 112 -46t46 -112zM838 468
q0 93 -64 156.5t-156 63.5t-156 -63.5t-64 -156.5t64 -156.5t156 -63.5t156 63.5t64 156.5zM336 1258q0 44 30 74t74 30h408q44 0 74 -30t30 -74t-30 -74t-74 -30h-408q-44 0 -74 30t-30 74z" />
    <glyph glyph-name="Abreve" unicode="&#x102;" horiz-adv-x="1368" 
d="M684 1424q85 0 124 -90l482 -1112q18 -43 18 -82q0 -69 -47.5 -116.5t-116.5 -47.5q-58 0 -101 32.5t-65 85.5l-50 124h-488l-50 -124q-22 -53 -65 -85.5t-101 -32.5q-69 0 -116.5 47.5t-47.5 116.5q0 39 18 82l482 1112q39 90 124 90zM684 820l-132 -326h264zM684 1542
q-94 0 -171 48.5t-113 133.5q-12 32 -12 58q0 42 27 71t69 29q75 0 110 -76q28 -62 90 -62t90 62q33 76 110 76q42 0 69 -29t27 -71q0 -26 -12 -58q-36 -85 -113 -133.5t-171 -48.5z" />
    <glyph glyph-name="abreve" unicode="&#x103;" horiz-adv-x="1284" 
d="M1166 802v-668q0 -66 -46 -112t-112 -46q-64 0 -108.5 42t-49.5 104q-45 -63 -127.5 -104.5t-182.5 -41.5q-128 0 -235 64.5t-169 177.5t-62 250t62 250t169 177.5t235 64.5q100 0 182.5 -41.5t127.5 -104.5q5 62 49.5 104t108.5 42q66 0 112 -46t46 -112zM838 468
q0 93 -64 156.5t-156 63.5t-156 -63.5t-64 -156.5t64 -156.5t156 -63.5t156 63.5t64 156.5zM640 1094q-94 0 -171 48.5t-113 133.5q-12 32 -12 58q0 42 27 71t69 29q75 0 110 -76q28 -62 90 -62t90 62q33 76 110 76q42 0 69 -29t27 -71q0 -26 -12 -58q-36 -85 -113 -133.5
t-171 -48.5z" />
    <glyph glyph-name="Aogonek" unicode="&#x104;" horiz-adv-x="1370" 
d="M684 1424q85 0 124 -90l482 -1112q18 -43 18 -82q0 -79 -62 -128q-120 -111 -120 -202q0 -34 20 -51t52 -17q8 0 20 2t18 2q37 0 62.5 -24.5t25.5 -59.5q0 -28 -15 -50.5t-41 -31.5q-51 -18 -120 -18q-100 0 -165 59t-65 145q0 133 132 236q-49 34 -72 92l-50 124h-488
l-50 -124q-22 -53 -65 -85.5t-101 -32.5q-69 0 -116.5 47.5t-47.5 116.5q0 39 18 82l482 1112q39 90 124 90zM684 820l-132 -326h264z" />
    <glyph glyph-name="aogonek" unicode="&#x105;" horiz-adv-x="1286" 
d="M1166 802v-668q0 -85 -70 -132q-110 -104 -110 -192q0 -34 20 -51t52 -17q8 0 20 2t18 2q37 0 62.5 -24.5t25.5 -59.5q0 -28 -15 -50.5t-41 -31.5q-51 -18 -120 -18q-100 0 -165 59t-65 145q0 63 34 126t100 114q-59 43 -62 116q-45 -63 -127.5 -104.5t-182.5 -41.5
q-128 0 -235 64.5t-169 177.5t-62 250t62 250t169 177.5t235 64.5q100 0 182.5 -41.5t127.5 -104.5q5 62 49.5 104t108.5 42q66 0 112 -46t46 -112zM838 468q0 93 -64 156.5t-156 63.5t-156 -63.5t-64 -156.5t64 -156.5t156 -63.5t156 63.5t64 156.5z" />
    <glyph glyph-name="Cacute" unicode="&#x106;" horiz-adv-x="1462" 
d="M78 700q0 155 60.5 291.5t161.5 230.5t236 148t282 54q153 0 287.5 -51t232.5 -141q64 -60 64 -132q0 -69 -46.5 -115.5t-115.5 -46.5q-70 0 -130 60q-117 114 -284 114q-166 0 -283 -119t-117 -293t117 -293t283 -119q167 0 284 114q60 60 130 60q69 0 115.5 -46.5
t46.5 -115.5q0 -72 -64 -132q-98 -90 -232.5 -141t-287.5 -51q-147 0 -282 54t-236 148t-161.5 230.5t-60.5 291.5zM1062 1810q0 -45 -42 -80l-256 -206q-31 -24 -66 -24q-42 0 -71 29t-29 69q0 49 38 80l256 212q31 24 68 24q40 0 71 -31t31 -73z" />
    <glyph glyph-name="cacute" unicode="&#x107;" horiz-adv-x="1032" 
d="M70 468q0 135 69.5 248.5t187.5 178.5t255 65q82 0 166 -26t148 -72q72 -52 72 -132q0 -60 -43.5 -103t-106.5 -43q-50 0 -98 38q-62 50 -136 50q-79 0 -138.5 -57.5t-59.5 -146.5t59.5 -146.5t138.5 -57.5q74 0 136 50q48 38 98 38q63 0 106.5 -43t43.5 -103
q0 -80 -72 -132q-64 -46 -148 -72t-166 -26q-137 0 -255 65t-187.5 178.5t-69.5 248.5zM798 1362q0 -45 -42 -80l-256 -206q-31 -24 -66 -24q-42 0 -71 29t-29 69q0 49 38 80l256 212q31 24 68 24q40 0 71 -31t31 -73z" />
    <glyph glyph-name="Ccircumflex" unicode="&#x108;" horiz-adv-x="1462" 
d="M78 700q0 155 60.5 291.5t161.5 230.5t236 148t282 54q153 0 287.5 -51t232.5 -141q64 -60 64 -132q0 -69 -46.5 -115.5t-115.5 -46.5q-70 0 -130 60q-117 114 -284 114q-166 0 -283 -119t-117 -293t117 -293t283 -119q167 0 284 114q60 60 130 60q69 0 115.5 -46.5
t46.5 -115.5q0 -72 -64 -132q-98 -90 -232.5 -141t-287.5 -51q-147 0 -282 54t-236 148t-161.5 230.5t-60.5 291.5zM938 1542l-164 136l-164 -136q-35 -28 -74 -28t-68.5 29.5t-29.5 68.5q0 47 44 84l254 212q19 16 38 16t38 -16l254 -212q44 -37 44 -84q0 -39 -29.5 -68.5
t-68.5 -29.5q-43 0 -74 28z" />
    <glyph glyph-name="ccircumflex" unicode="&#x109;" horiz-adv-x="1032" 
d="M70 468q0 135 69.5 248.5t187.5 178.5t255 65q82 0 166 -26t148 -72q72 -52 72 -132q0 -60 -43.5 -103t-106.5 -43q-50 0 -98 38q-62 50 -136 50q-79 0 -138.5 -57.5t-59.5 -146.5t59.5 -146.5t138.5 -57.5q74 0 136 50q48 38 98 38q63 0 106.5 -43t43.5 -103
q0 -80 -72 -132q-64 -46 -148 -72t-166 -26q-137 0 -255 65t-187.5 178.5t-69.5 248.5zM714 1094l-164 136l-164 -136q-35 -28 -74 -28t-68.5 29.5t-29.5 68.5q0 47 44 84l254 212q19 16 38 16t38 -16l254 -212q44 -37 44 -84q0 -39 -29.5 -68.5t-68.5 -29.5q-43 0 -74 28z
" />
    <glyph glyph-name="Cdotaccent" unicode="&#x10a;" horiz-adv-x="1462" 
d="M78 700q0 155 60.5 291.5t161.5 230.5t236 148t282 54q153 0 287.5 -51t232.5 -141q64 -60 64 -132q0 -69 -46.5 -115.5t-115.5 -46.5q-70 0 -130 60q-117 114 -284 114q-166 0 -283 -119t-117 -293t117 -293t283 -119q167 0 284 114q60 60 130 60q69 0 115.5 -46.5
t46.5 -115.5q0 -72 -64 -132q-98 -90 -232.5 -141t-287.5 -51q-147 0 -282 54t-236 148t-161.5 230.5t-60.5 291.5zM638 1706q0 56 39.5 96t96.5 40t96.5 -40t39.5 -96t-39.5 -96t-96.5 -40t-96.5 40t-39.5 96z" />
    <glyph glyph-name="cdotaccent" unicode="&#x10b;" horiz-adv-x="1032" 
d="M70 468q0 135 69.5 248.5t187.5 178.5t255 65q82 0 166 -26t148 -72q72 -52 72 -132q0 -60 -43.5 -103t-106.5 -43q-50 0 -98 38q-62 50 -136 50q-79 0 -138.5 -57.5t-59.5 -146.5t59.5 -146.5t138.5 -57.5q74 0 136 50q48 38 98 38q63 0 106.5 -43t43.5 -103
q0 -80 -72 -132q-64 -46 -148 -72t-166 -26q-137 0 -255 65t-187.5 178.5t-69.5 248.5zM414 1258q0 56 39.5 96t96.5 40t96.5 -40t39.5 -96t-39.5 -96t-96.5 -40t-96.5 40t-39.5 96z" />
    <glyph glyph-name="Ccaron" unicode="&#x10c;" horiz-adv-x="1462" 
d="M78 700q0 155 60.5 291.5t161.5 230.5t236 148t282 54q153 0 287.5 -51t232.5 -141q64 -60 64 -132q0 -69 -46.5 -115.5t-115.5 -46.5q-70 0 -130 60q-117 114 -284 114q-166 0 -283 -119t-117 -293t117 -293t283 -119q167 0 284 114q60 60 130 60q69 0 115.5 -46.5
t46.5 -115.5q0 -72 -64 -132q-98 -90 -232.5 -141t-287.5 -51q-147 0 -282 54t-236 148t-161.5 230.5t-60.5 291.5zM774 1730l164 136q35 28 74 28t68.5 -29.5t29.5 -68.5q0 -47 -44 -84l-254 -212q-19 -16 -38 -16t-38 16l-254 212q-44 37 -44 84q0 39 29.5 68.5t68.5 29.5
t74 -28z" />
    <glyph glyph-name="ccaron" unicode="&#x10d;" horiz-adv-x="1032" 
d="M70 468q0 135 69.5 248.5t187.5 178.5t255 65q82 0 166 -26t148 -72q72 -52 72 -132q0 -60 -43.5 -103t-106.5 -43q-50 0 -98 38q-62 50 -136 50q-79 0 -138.5 -57.5t-59.5 -146.5t59.5 -146.5t138.5 -57.5q74 0 136 50q48 38 98 38q63 0 106.5 -43t43.5 -103
q0 -80 -72 -132q-64 -46 -148 -72t-166 -26q-137 0 -255 65t-187.5 178.5t-69.5 248.5zM550 1282l164 136q35 28 74 28t68.5 -29.5t29.5 -68.5q0 -47 -44 -84l-254 -212q-19 -16 -38 -16t-38 16l-254 212q-44 37 -44 84q0 39 29.5 68.5t68.5 29.5t74 -28z" />
    <glyph glyph-name="Dcaron" unicode="&#x10e;" horiz-adv-x="1374" 
d="M946 700q0 177 -103 282.5t-277 105.5h-86v-776h86q174 0 277 105.5t103 282.5zM558 0h-252q-72 0 -123 51t-51 123v1052q0 72 51 123t123 51h252q154 0 289 -50.5t234 -140t156 -221.5t57 -288t-57 -288t-156 -221.5t-234 -140t-289 -50.5zM566 1730l164 136
q35 28 74 28t68.5 -29.5t29.5 -68.5q0 -47 -44 -84l-254 -212q-19 -16 -38 -16t-38 16l-254 212q-44 37 -44 84q0 39 29.5 68.5t68.5 29.5t74 -28z" />
    <glyph glyph-name="dcaron" unicode="&#x10f;" horiz-adv-x="1668" 
d="M1166 1366v-1232q0 -66 -46 -112t-112 -46q-64 0 -108.5 42t-49.5 104q-45 -63 -127.5 -104.5t-182.5 -41.5q-128 0 -235 64.5t-169 177.5t-62 250t62 250t169 177.5t235 64.5q100 0 182.5 -41.5t127.5 -104.5v552q0 66 46 112t112 46t112 -46t46 -112zM838 468
q0 93 -64 156.5t-156 63.5t-156 -63.5t-64 -156.5t64 -156.5t156 -63.5t156 63.5t64 156.5zM1278 1102l66 290q10 44 46.5 73t85.5 29q57 0 98.5 -39.5t41.5 -96.5q0 -21 -10 -44l-118 -288q-12 -30 -41 -49t-65 -19q-45 0 -77.5 31.5t-32.5 76.5q0 15 6 36z" />
    <glyph glyph-name="Dcroat" unicode="&#x110;" horiz-adv-x="1408" 
d="M10 696q0 38 26.5 65t63.5 27h66v438q0 72 51 123t123 51h252q154 0 289 -50.5t234 -140t156 -221.5t57 -288t-57 -288t-156 -221.5t-234 -140t-289 -50.5h-252q-72 0 -123 51t-51 123v432h-66q-38 0 -64 26t-26 64zM980 700q0 177 -103 282.5t-277 105.5h-86v-300h150
q38 0 65 -27t27 -65q0 -37 -27 -63.5t-65 -26.5h-150v-294h86q174 0 277 105.5t103 282.5z" />
    <glyph glyph-name="dcroat" unicode="&#x111;" horiz-adv-x="1308" 
d="M1166 1154v-1020q0 -66 -46 -112t-112 -46q-64 0 -108.5 42t-49.5 104q-45 -63 -127.5 -104.5t-182.5 -41.5q-128 0 -235 64.5t-169 177.5t-62 250t62 250t169 177.5t235 64.5q100 0 182.5 -41.5t127.5 -104.5v340h-328q-38 0 -65 27t-27 65t27 65t65 27h328v28
q0 66 46 112t112 46t112 -46t46 -112v-28h58q38 0 65 -27t27 -65t-27 -65t-65 -27h-58zM838 468q0 93 -64 156.5t-156 63.5t-156 -63.5t-64 -156.5t64 -156.5t156 -63.5t156 63.5t64 156.5z" />
    <glyph glyph-name="Emacron" unicode="&#x112;" horiz-adv-x="1024" 
d="M306 1400h482q66 0 110 -44.5t44 -113.5q0 -66 -44 -110t-110 -44h-308v-188h264q66 0 110 -44.5t44 -113.5q0 -66 -44 -110t-110 -44h-264v-276h326q66 0 110 -44.5t44 -113.5q0 -66 -44 -110t-110 -44h-500q-72 0 -123 51t-51 123v1052q0 72 51 123t123 51zM214 1706
q0 44 30 74t74 30h408q44 0 74 -30t30 -74t-30 -74t-74 -30h-408q-44 0 -74 30t-30 74z" />
    <glyph glyph-name="emacron" unicode="&#x113;" horiz-adv-x="1160" 
d="M1090 524q1 -7 1 -19q0 -54 -35.5 -86.5t-91.5 -32.5h-562q20 -66 73 -104t137 -38q99 0 172 54q46 34 94 34q61 0 100.5 -39t39.5 -97q0 -67 -60 -114q-133 -106 -350 -106q-239 0 -388.5 138.5t-149.5 353.5q0 137 69 250t187.5 177.5t259.5 64.5q128 0 238.5 -56
t180.5 -156t85 -224zM404 590h384q-20 54 -71.5 88t-120.5 34t-120.5 -34t-71.5 -88zM266 1258q0 44 30 74t74 30h408q44 0 74 -30t30 -74t-30 -74t-74 -30h-408q-44 0 -74 30t-30 74z" />
    <glyph glyph-name="Ebreve" unicode="&#x114;" horiz-adv-x="1024" 
d="M306 1400h482q66 0 110 -44.5t44 -113.5q0 -66 -44 -110t-110 -44h-308v-188h264q66 0 110 -44.5t44 -113.5q0 -66 -44 -110t-110 -44h-264v-276h326q66 0 110 -44.5t44 -113.5q0 -66 -44 -110t-110 -44h-500q-72 0 -123 51t-51 123v1052q0 72 51 123t123 51zM522 1542
q-94 0 -171 48.5t-113 133.5q-12 32 -12 58q0 42 27 71t69 29q75 0 110 -76q28 -62 90 -62t90 62q33 76 110 76q42 0 69 -29t27 -71q0 -26 -12 -58q-36 -85 -113 -133.5t-171 -48.5z" />
    <glyph glyph-name="ebreve" unicode="&#x115;" horiz-adv-x="1160" 
d="M1090 524q1 -7 1 -19q0 -54 -35.5 -86.5t-91.5 -32.5h-562q20 -66 73 -104t137 -38q99 0 172 54q46 34 94 34q61 0 100.5 -39t39.5 -97q0 -67 -60 -114q-133 -106 -350 -106q-239 0 -388.5 138.5t-149.5 353.5q0 137 69 250t187.5 177.5t259.5 64.5q128 0 238.5 -56
t180.5 -156t85 -224zM404 590h384q-20 54 -71.5 88t-120.5 34t-120.5 -34t-71.5 -88zM574 1094q-94 0 -171 48.5t-113 133.5q-12 32 -12 58q0 42 27 71t69 29q75 0 110 -76q28 -62 90 -62t90 62q33 76 110 76q42 0 69 -29t27 -71q0 -26 -12 -58q-36 -85 -113 -133.5
t-171 -48.5z" />
    <glyph glyph-name="Edotaccent" unicode="&#x116;" horiz-adv-x="1024" 
d="M306 1400h482q66 0 110 -44.5t44 -113.5q0 -66 -44 -110t-110 -44h-308v-188h264q66 0 110 -44.5t44 -113.5q0 -66 -44 -110t-110 -44h-264v-276h326q66 0 110 -44.5t44 -113.5q0 -66 -44 -110t-110 -44h-500q-72 0 -123 51t-51 123v1052q0 72 51 123t123 51zM396 1706
q0 56 39.5 96t96.5 40t96.5 -40t39.5 -96t-39.5 -96t-96.5 -40t-96.5 40t-39.5 96z" />
    <glyph glyph-name="edotaccent" unicode="&#x117;" horiz-adv-x="1160" 
d="M1090 524q1 -7 1 -19q0 -54 -35.5 -86.5t-91.5 -32.5h-562q20 -66 73 -104t137 -38q99 0 172 54q46 34 94 34q61 0 100.5 -39t39.5 -97q0 -67 -60 -114q-133 -106 -350 -106q-239 0 -388.5 138.5t-149.5 353.5q0 137 69 250t187.5 177.5t259.5 64.5q128 0 238.5 -56
t180.5 -156t85 -224zM404 590h384q-20 54 -71.5 88t-120.5 34t-120.5 -34t-71.5 -88zM438 1258q0 56 39.5 96t96.5 40t96.5 -40t39.5 -96t-39.5 -96t-96.5 -40t-96.5 40t-39.5 96z" />
    <glyph glyph-name="Eogonek" unicode="&#x118;" horiz-adv-x="1024" 
d="M306 1400h482q66 0 110 -44.5t44 -113.5q0 -66 -44 -110t-110 -44h-308v-188h264q66 0 110 -44.5t44 -113.5q0 -66 -44 -110t-110 -44h-264v-276h326q66 0 110 -44.5t44 -113.5q0 -56 -33.5 -98t-86.5 -54q-112 -106 -112 -192q0 -34 20 -51t52 -17q8 0 20 2t18 2
q37 0 62.5 -24.5t25.5 -59.5q0 -28 -15 -50.5t-41 -31.5q-51 -18 -120 -18q-100 0 -165 59t-65 145q0 130 128 234h-342q-72 0 -123 51t-51 123v1052q0 72 51 123t123 51z" />
    <glyph glyph-name="eogonek" unicode="&#x119;" horiz-adv-x="1160" 
d="M1090 524q1 -7 1 -19q0 -54 -35.5 -86.5t-91.5 -32.5h-562q20 -66 73 -104t137 -38q99 0 172 54q46 34 94 34q61 0 100.5 -39t39.5 -97q0 -67 -60 -114q-96 -75 -236 -96q-92 -98 -92 -176q0 -34 20 -51t52 -17q8 0 20 2t18 2q37 0 62.5 -24.5t25.5 -59.5
q0 -28 -15 -50.5t-41 -31.5q-51 -18 -120 -18q-100 0 -165 59t-65 145q0 116 104 214q-206 24 -331 158t-125 330q0 137 69 250t187.5 177.5t259.5 64.5q128 0 238.5 -56t180.5 -156t85 -224zM404 590h384q-20 54 -71.5 88t-120.5 34t-120.5 -34t-71.5 -88z" />
    <glyph glyph-name="Ecaron" unicode="&#x11a;" horiz-adv-x="1024" 
d="M306 1400h482q66 0 110 -44.5t44 -113.5q0 -66 -44 -110t-110 -44h-308v-188h264q66 0 110 -44.5t44 -113.5q0 -66 -44 -110t-110 -44h-264v-276h326q66 0 110 -44.5t44 -113.5q0 -66 -44 -110t-110 -44h-500q-72 0 -123 51t-51 123v1052q0 72 51 123t123 51zM520 1730
l164 136q35 28 74 28t68.5 -29.5t29.5 -68.5q0 -47 -44 -84l-254 -212q-19 -16 -38 -16t-38 16l-254 212q-44 37 -44 84q0 39 29.5 68.5t68.5 29.5t74 -28z" />
    <glyph glyph-name="ecaron" unicode="&#x11b;" horiz-adv-x="1160" 
d="M1090 524q1 -7 1 -19q0 -54 -35.5 -86.5t-91.5 -32.5h-562q20 -66 73 -104t137 -38q99 0 172 54q46 34 94 34q61 0 100.5 -39t39.5 -97q0 -67 -60 -114q-133 -106 -350 -106q-239 0 -388.5 138.5t-149.5 353.5q0 137 69 250t187.5 177.5t259.5 64.5q128 0 238.5 -56
t180.5 -156t85 -224zM404 590h384q-20 54 -71.5 88t-120.5 34t-120.5 -34t-71.5 -88zM568 1282l164 136q35 28 74 28t68.5 -29.5t29.5 -68.5q0 -47 -44 -84l-254 -212q-19 -16 -38 -16t-38 16l-254 212q-44 37 -44 84q0 39 29.5 68.5t68.5 29.5t74 -28z" />
    <glyph glyph-name="Gcircumflex" unicode="&#x11c;" horiz-adv-x="1578" 
d="M816 1424q158 0 300.5 -59.5t249.5 -166.5q58 -58 58 -128q0 -68 -46 -114t-114 -46q-70 0 -132 62q-63 65 -145 102.5t-165 37.5q-166 0 -281 -118.5t-115 -293.5q0 -89 34 -167.5t89 -131t124.5 -83t140.5 -30.5q137 0 227.5 63t114.5 177h-198q-46 0 -80 34t-34 80
t34 80t80 34h432q46 0 80 -34t34 -80q0 -196 -88.5 -348t-245 -235t-354.5 -83q-146 0 -281 54.5t-236 149t-161 230.5t-60 290q0 206 102.5 373.5t270.5 259t365 91.5zM956 1542l-164 136l-164 -136q-35 -28 -74 -28t-68.5 29.5t-29.5 68.5q0 47 44 84l254 212q19 16 38 16
t38 -16l254 -212q44 -37 44 -84q0 -39 -29.5 -68.5t-68.5 -29.5q-43 0 -74 28z" />
    <glyph glyph-name="gcircumflex" unicode="&#x11d;" horiz-adv-x="1284" 
d="M146 -292q0 57 39.5 96.5t96.5 39.5q62 0 102 -40q99 -96 222 -96q115 0 179.5 71.5t64.5 224.5v118q-45 -63 -127.5 -104.5t-182.5 -41.5q-128 0 -235 64.5t-169 177.5t-62 250t62 250t169 177.5t235 64.5q100 0 182.5 -41.5t127.5 -104.5q5 62 49.5 104t108.5 42
q66 0 112 -46t46 -112v-772q0 -153 -40.5 -268t-115.5 -185.5t-174.5 -105.5t-223.5 -35q-120 0 -228 43.5t-192 122.5q-46 43 -46 106zM838 468q0 93 -64 156.5t-156 63.5t-156 -63.5t-64 -156.5t64 -156.5t156 -63.5t156 63.5t64 156.5zM806 1094l-164 136l-164 -136
q-35 -28 -74 -28t-68.5 29.5t-29.5 68.5q0 47 44 84l254 212q19 16 38 16t38 -16l254 -212q44 -37 44 -84q0 -39 -29.5 -68.5t-68.5 -29.5q-43 0 -74 28z" />
    <glyph glyph-name="Gbreve" unicode="&#x11e;" horiz-adv-x="1578" 
d="M816 1424q158 0 300.5 -59.5t249.5 -166.5q58 -58 58 -128q0 -68 -46 -114t-114 -46q-70 0 -132 62q-63 65 -145 102.5t-165 37.5q-166 0 -281 -118.5t-115 -293.5q0 -89 34 -167.5t89 -131t124.5 -83t140.5 -30.5q137 0 227.5 63t114.5 177h-198q-46 0 -80 34t-34 80
t34 80t80 34h432q46 0 80 -34t34 -80q0 -196 -88.5 -348t-245 -235t-354.5 -83q-146 0 -281 54.5t-236 149t-161 230.5t-60 290q0 206 102.5 373.5t270.5 259t365 91.5zM792 1542q-94 0 -171 48.5t-113 133.5q-12 32 -12 58q0 42 27 71t69 29q75 0 110 -76q28 -62 90 -62
t90 62q33 76 110 76q42 0 69 -29t27 -71q0 -26 -12 -58q-36 -85 -113 -133.5t-171 -48.5z" />
    <glyph glyph-name="gbreve" unicode="&#x11f;" horiz-adv-x="1284" 
d="M146 -292q0 57 39.5 96.5t96.5 39.5q62 0 102 -40q99 -96 222 -96q115 0 179.5 71.5t64.5 224.5v118q-45 -63 -127.5 -104.5t-182.5 -41.5q-128 0 -235 64.5t-169 177.5t-62 250t62 250t169 177.5t235 64.5q100 0 182.5 -41.5t127.5 -104.5q5 62 49.5 104t108.5 42
q66 0 112 -46t46 -112v-772q0 -153 -40.5 -268t-115.5 -185.5t-174.5 -105.5t-223.5 -35q-120 0 -228 43.5t-192 122.5q-46 43 -46 106zM838 468q0 93 -64 156.5t-156 63.5t-156 -63.5t-64 -156.5t64 -156.5t156 -63.5t156 63.5t64 156.5zM642 1094q-94 0 -171 48.5
t-113 133.5q-12 32 -12 58q0 42 27 71t69 29q75 0 110 -76q28 -62 90 -62t90 62q33 76 110 76q42 0 69 -29t27 -71q0 -26 -12 -58q-36 -85 -113 -133.5t-171 -48.5z" />
    <glyph glyph-name="Gdotaccent" unicode="&#x120;" horiz-adv-x="1578" 
d="M816 1424q158 0 300.5 -59.5t249.5 -166.5q58 -58 58 -128q0 -68 -46 -114t-114 -46q-70 0 -132 62q-63 65 -145 102.5t-165 37.5q-166 0 -281 -118.5t-115 -293.5q0 -89 34 -167.5t89 -131t124.5 -83t140.5 -30.5q137 0 227.5 63t114.5 177h-198q-46 0 -80 34t-34 80
t34 80t80 34h432q46 0 80 -34t34 -80q0 -196 -88.5 -348t-245 -235t-354.5 -83q-146 0 -281 54.5t-236 149t-161 230.5t-60 290q0 206 102.5 373.5t270.5 259t365 91.5zM656 1706q0 56 39.5 96t96.5 40t96.5 -40t39.5 -96t-39.5 -96t-96.5 -40t-96.5 40t-39.5 96z" />
    <glyph glyph-name="gdotaccent" unicode="&#x121;" horiz-adv-x="1284" 
d="M146 -292q0 57 39.5 96.5t96.5 39.5q62 0 102 -40q99 -96 222 -96q115 0 179.5 71.5t64.5 224.5v118q-45 -63 -127.5 -104.5t-182.5 -41.5q-128 0 -235 64.5t-169 177.5t-62 250t62 250t169 177.5t235 64.5q100 0 182.5 -41.5t127.5 -104.5q5 62 49.5 104t108.5 42
q66 0 112 -46t46 -112v-772q0 -153 -40.5 -268t-115.5 -185.5t-174.5 -105.5t-223.5 -35q-120 0 -228 43.5t-192 122.5q-46 43 -46 106zM838 468q0 93 -64 156.5t-156 63.5t-156 -63.5t-64 -156.5t64 -156.5t156 -63.5t156 63.5t64 156.5zM506 1258q0 56 39.5 96t96.5 40
t96.5 -40t39.5 -96t-39.5 -96t-96.5 -40t-96.5 40t-39.5 96z" />
    <glyph glyph-name="Gcommaaccent" unicode="&#x122;" horiz-adv-x="1578" 
d="M816 1424q158 0 300.5 -59.5t249.5 -166.5q58 -58 58 -128q0 -68 -46 -114t-114 -46q-70 0 -132 62q-63 65 -145 102.5t-165 37.5q-166 0 -281 -118.5t-115 -293.5q0 -89 34 -167.5t89 -131t124.5 -83t140.5 -30.5q137 0 227.5 63t114.5 177h-198q-46 0 -80 34t-34 80
t34 80t80 34h432q46 0 80 -34t34 -80q0 -196 -88.5 -348t-245 -235t-354.5 -83q-146 0 -281 54.5t-236 149t-161 230.5t-60 290q0 206 102.5 373.5t270.5 259t365 91.5zM654 -454l52 224q10 44 40 71t74 27q48 0 82 -33t34 -81q0 -23 -8 -42l-88 -226q-11 -29 -36 -46.5
t-56 -17.5q-41 0 -69.5 28t-28.5 68q0 12 4 28z" />
    <glyph glyph-name="gcommaaccent" unicode="&#x123;" horiz-adv-x="1284" 
d="M146 -292q0 57 39.5 96.5t96.5 39.5q62 0 102 -40q99 -96 222 -96q115 0 179.5 71.5t64.5 224.5v118q-45 -63 -127.5 -104.5t-182.5 -41.5q-128 0 -235 64.5t-169 177.5t-62 250t62 250t169 177.5t235 64.5q100 0 182.5 -41.5t127.5 -104.5q5 62 49.5 104t108.5 42
q66 0 112 -46t46 -112v-772q0 -153 -40.5 -268t-115.5 -185.5t-174.5 -105.5t-223.5 -35q-120 0 -228 43.5t-192 122.5q-46 43 -46 106zM838 468q0 93 -64 156.5t-156 63.5t-156 -63.5t-64 -156.5t64 -156.5t156 -63.5t156 63.5t64 156.5zM812 1362l-52 -224
q-10 -44 -40 -71t-74 -27q-48 0 -82 33t-34 81q0 23 8 42l88 226q11 29 36 46.5t56 17.5q41 0 69.5 -28t28.5 -68q0 -12 -4 -28z" />
    <glyph glyph-name="Hcircumflex" unicode="&#x124;" horiz-adv-x="1356" 
d="M876 894v356q0 72 51 123t123 51t123 -51t51 -123v-1100q0 -72 -51 -123t-123 -51t-123 51t-51 123v432h-396v-432q0 -72 -51 -123t-123 -51t-123 51t-51 123v1100q0 72 51 123t123 51t123 -51t51 -123v-356h396zM842 1522l-164 136l-164 -136q-35 -28 -74 -28
t-68.5 29.5t-29.5 68.5q0 47 44 84l254 212q19 16 38 16t38 -16l254 -212q44 -37 44 -84q0 -39 -29.5 -68.5t-68.5 -29.5q-43 0 -74 28z" />
    <glyph glyph-name="hcircumflex" unicode="&#x125;" horiz-adv-x="1162" 
d="M138 134v1232q0 66 46 112t112 46t112 -46t46 -112v-540q44 58 117.5 96t164.5 38q135 0 224.5 -93.5t89.5 -248.5v-484q0 -66 -46 -112t-112 -46t-112 46t-46 112v406q0 64 -40.5 106t-99.5 42q-56 0 -96 -38t-44 -98v-418q0 -66 -46 -112t-112 -46t-112 46t-46 112z
M460 1522l-164 136l-164 -136q-35 -28 -74 -28t-68.5 29.5t-29.5 68.5q0 47 44 84l254 212q19 16 38 16t38 -16l254 -212q44 -37 44 -84q0 -39 -29.5 -68.5t-68.5 -29.5q-43 0 -74 28z" />
    <glyph glyph-name="Hbar" unicode="&#x126;" horiz-adv-x="1384" 
d="M1292 1060h-54v-910q0 -72 -51 -123t-123 -51t-123 51t-51 123v432h-396v-432q0 -72 -51 -123t-123 -51t-123 51t-51 123v910h-54q-38 0 -64 26t-26 64t26.5 65t63.5 27h54v8q0 72 51 123t123 51t123 -51t51 -123v-8h396v8q0 72 51 123t123 51t123 -51t51 -123v-8h54
q37 0 63.5 -27t26.5 -65t-26 -64t-64 -26zM890 894v166h-396v-166h396z" />
    <glyph glyph-name="hbar" unicode="&#x127;" horiz-adv-x="1166" 
d="M690 1156h-232v-330q44 58 117.5 96t164.5 38q135 0 224.5 -93.5t89.5 -248.5v-484q0 -66 -46 -112t-112 -46t-112 46t-46 112v406q0 64 -40.5 106t-99.5 42q-56 0 -96 -38t-44 -98v-418q0 -66 -46 -112t-112 -46t-112 46t-46 112v1022h-48q-38 0 -65 27t-27 65t27 65
t65 27h48v26q0 66 46 112t112 46t112 -46t46 -112v-26h232q38 0 65 -27t27 -65t-27 -65t-65 -27z" />
    <glyph glyph-name="Itilde" unicode="&#x128;" horiz-adv-x="644" 
d="M496 1250v-1100q0 -72 -51 -123t-123 -51t-123 51t-51 123v1100q0 72 51 123t123 51t123 -51t51 -123zM454 1554q-78 0 -162 68q-47 38 -82 38q-30 0 -50 -42q-11 -24 -35.5 -40t-52.5 -16q-38 0 -65 27t-27 65q0 16 6 34q24 78 80 124t124 46q78 0 162 -68
q48 -38 82 -38q30 0 50 42q11 24 35.5 40t52.5 16q38 0 65 -27t27 -65q0 -16 -6 -34q-24 -78 -80 -124t-124 -46z" />
    <glyph glyph-name="itilde" unicode="&#x129;" horiz-adv-x="576" 
d="M130 134v668q0 66 46 112t112 46t112 -46t46 -112v-668q0 -66 -46 -112t-112 -46t-112 46t-46 112zM420 1106q-78 0 -162 68q-47 38 -82 38q-30 0 -50 -42q-11 -24 -35.5 -40t-52.5 -16q-38 0 -65 27t-27 65q0 16 6 34q24 78 80 124t124 46q78 0 162 -68q48 -38 82 -38
q30 0 50 42q11 24 35.5 40t52.5 16q38 0 65 -27t27 -65q0 -16 -6 -34q-24 -78 -80 -124t-124 -46z" />
    <glyph glyph-name="Imacron" unicode="&#x12a;" horiz-adv-x="644" 
d="M496 1250v-1100q0 -72 -51 -123t-123 -51t-123 51t-51 123v1100q0 72 51 123t123 51t123 -51t51 -123zM14 1706q0 44 30 74t74 30h408q44 0 74 -30t30 -74t-30 -74t-74 -30h-408q-44 0 -74 30t-30 74z" />
    <glyph glyph-name="imacron" unicode="&#x12b;" horiz-adv-x="576" 
d="M130 134v668q0 66 46 112t112 46t112 -46t46 -112v-668q0 -66 -46 -112t-112 -46t-112 46t-46 112zM-20 1258q0 44 30 74t74 30h408q44 0 74 -30t30 -74t-30 -74t-74 -30h-408q-44 0 -74 30t-30 74z" />
    <glyph glyph-name="Ibreve" unicode="&#x12c;" horiz-adv-x="644" 
d="M496 1250v-1100q0 -72 -51 -123t-123 -51t-123 51t-51 123v1100q0 72 51 123t123 51t123 -51t51 -123zM322 1542q-94 0 -171 48.5t-113 133.5q-12 32 -12 58q0 42 27 71t69 29q75 0 110 -76q28 -62 90 -62t90 62q33 76 110 76q42 0 69 -29t27 -71q0 -26 -12 -58
q-36 -85 -113 -133.5t-171 -48.5z" />
    <glyph glyph-name="ibreve" unicode="&#x12d;" horiz-adv-x="576" 
d="M130 134v668q0 66 46 112t112 46t112 -46t46 -112v-668q0 -66 -46 -112t-112 -46t-112 46t-46 112zM288 1094q-94 0 -171 48.5t-113 133.5q-12 32 -12 58q0 42 27 71t69 29q75 0 110 -76q28 -62 90 -62t90 62q33 76 110 76q42 0 69 -29t27 -71q0 -26 -12 -58
q-36 -85 -113 -133.5t-171 -48.5z" />
    <glyph glyph-name="Iogonek" unicode="&#x12e;" horiz-adv-x="644" 
d="M496 1250v-1100q0 -88 -72 -140q-118 -109 -118 -200q0 -34 20 -51t52 -17q9 0 21 2t17 2q37 0 62.5 -24.5t25.5 -59.5q0 -28 -15 -50.5t-41 -31.5q-51 -18 -120 -18q-100 0 -165 59t-65 145q0 133 130 236q-37 25 -58.5 63.5t-21.5 84.5v1100q0 72 51 123t123 51
t123 -51t51 -123z" />
    <glyph glyph-name="iogonek" unicode="&#x12f;" horiz-adv-x="576" 
d="M130 134v668q0 66 46 112t112 46t112 -46t46 -112v-668q0 -71 -54 -118q-60 -51 -92 -106t-32 -100q0 -34 20 -51t52 -17q8 0 20 2t18 2q37 0 62.5 -24.5t25.5 -59.5q0 -28 -15 -50.5t-41 -31.5q-51 -18 -120 -18q-100 0 -165 59t-65 145q0 63 34 126t100 114
q-64 45 -64 128zM104 1294q0 75 54 128.5t130 53.5t130 -53.5t54 -128.5t-54 -128.5t-130 -53.5t-130 53.5t-54 128.5z" />
    <glyph glyph-name="Idotaccent" unicode="&#x130;" horiz-adv-x="644" 
d="M496 1250v-1100q0 -72 -51 -123t-123 -51t-123 51t-51 123v1100q0 72 51 123t123 51t123 -51t51 -123zM186 1706q0 56 39.5 96t96.5 40t96.5 -40t39.5 -96t-39.5 -96t-96.5 -40t-96.5 40t-39.5 96z" />
    <glyph glyph-name="dotlessi" unicode="&#x131;" horiz-adv-x="576" 
d="M130 134v668q0 66 46 112t112 46t112 -46t46 -112v-668q0 -66 -46 -112t-112 -46t-112 46t-46 112z" />
    <glyph glyph-name="IJ" unicode="&#x132;" horiz-adv-x="1698" 
d="M496 1250v-1100q0 -72 -51 -123t-123 -51t-123 51t-51 123v1100q0 72 51 123t123 51t123 -51t51 -123zM662 276q0 67 45 107.5t109 40.5q77 0 136 -76q47 -60 124 -60q67 0 104.5 47.5t37.5 138.5v776q0 72 51 123t123 51t123 -51t51 -123v-790q0 -229 -126.5 -356.5
t-341.5 -127.5q-121 0 -224 49t-174 139q-38 48 -38 112z" />
    <glyph glyph-name="ij" unicode="&#x133;" horiz-adv-x="1140" 
d="M104 1294q0 75 54 128.5t130 53.5t130 -53.5t54 -128.5t-54 -128.5t-130 -53.5t-130 53.5t-54 128.5zM130 134v668q0 66 46 112t112 46t112 -46t46 -112v-668q0 -66 -46 -112t-112 -46t-112 46t-46 112zM252 -348q0 61 38.5 100.5t97.5 39.5q55 0 98 -40q51 -44 102 -44
q116 0 116 162v932q0 66 46 112t112 46t112 -46t46 -112v-936q0 -203 -110 -316.5t-306 -113.5q-187 0 -306 116q-46 46 -46 100zM678 1294q0 75 54 128.5t130 53.5t130 -53.5t54 -128.5t-54 -128.5t-130 -53.5t-130 53.5t-54 128.5z" />
    <glyph glyph-name="Jcircumflex" unicode="&#x134;" horiz-adv-x="1056" 
d="M0 276q0 67 45 107.5t109 40.5q77 0 136 -76q47 -60 124 -60q67 0 104.5 47.5t37.5 138.5v776q0 72 51 123t123 51t123 -51t51 -123v-790q0 -229 -126.5 -356.5t-341.5 -127.5q-121 0 -224 49t-174 139q-38 48 -38 112zM894 1542l-164 136l-164 -136q-35 -28 -74 -28
t-68.5 29.5t-29.5 68.5q0 47 44 84l254 212q19 16 38 16t38 -16l254 -212q44 -37 44 -84q0 -39 -29.5 -68.5t-68.5 -29.5q-43 0 -74 28z" />
    <glyph glyph-name="jcircumflex" unicode="&#x135;" horiz-adv-x="632" 
d="M-274 -348q0 61 38.5 100.5t97.5 39.5q55 0 98 -40q51 -44 102 -44q116 0 116 162v932q0 66 46 112t112 46t112 -46t46 -112v-936q0 -203 -110 -316.5t-306 -113.5q-187 0 -306 116q-46 46 -46 100zM500 1094l-164 136l-164 -136q-35 -28 -74 -28t-68.5 29.5t-29.5 68.5
q0 47 44 84l254 212q19 16 38 16t38 -16l254 -212q44 -37 44 -84q0 -39 -29.5 -68.5t-68.5 -29.5q-43 0 -74 28z" />
    <glyph glyph-name="Kcommaaccent" unicode="&#x136;" horiz-adv-x="1330" 
d="M956 44l-476 612v-506q0 -72 -51 -123t-123 -51t-123 51t-51 123v1100q0 72 51 123t123 51t123 -51t51 -123v-474l448 582q50 66 130 66q68 0 116 -48t48 -116q0 -63 -46 -112l-356 -430l400 -472q36 -42 36 -104q0 -69 -48.5 -116.5t-117.5 -47.5q-84 0 -134 66z
M526 -454l52 224q10 44 40 71t74 27q48 0 82 -33t34 -81q0 -23 -8 -42l-88 -226q-11 -29 -36 -46.5t-56 -17.5q-41 0 -69.5 28t-28.5 68q0 12 4 28z" />
    <glyph glyph-name="kcommaaccent" unicode="&#x137;" horiz-adv-x="1162" 
d="M118 134v1232q0 66 46 112t112 46t112 -46t46 -112v-788l364 338q47 44 104 44q60 0 101 -41t41 -101q0 -57 -38 -98l-248 -228l278 -274q40 -40 40 -100t-41 -101t-101 -41q-64 0 -110 46l-390 384v-272q0 -66 -46 -112t-112 -46t-112 46t-46 112zM418 -454l52 224
q10 44 40 71t74 27q48 0 82 -33t34 -81q0 -23 -8 -42l-88 -226q-11 -29 -36 -46.5t-56 -17.5q-41 0 -69.5 28t-28.5 68q0 12 4 28z" />
    <glyph glyph-name="kgreenlandic" unicode="&#x138;" horiz-adv-x="1162" 
d="M118 134v668q0 66 46 112t112 46t112 -46t46 -112v-224l364 338q47 44 104 44q60 0 101 -41t41 -101q0 -57 -38 -98l-248 -228l278 -274q40 -40 40 -100t-41 -101t-101 -41q-64 0 -110 46l-390 384v-272q0 -66 -46 -112t-112 -46t-112 46t-46 112z" />
    <glyph glyph-name="Lacute" unicode="&#x139;" horiz-adv-x="994" 
d="M822 0h-516q-72 0 -123 51t-51 123v1076q0 72 51 123t123 51t123 -51t51 -123v-938h342q66 0 110 -44.5t44 -113.5q0 -66 -44 -110t-110 -44zM614 1810q0 -45 -42 -80l-256 -206q-31 -24 -66 -24q-42 0 -71 29t-29 69q0 49 38 80l256 212q31 24 68 24q40 0 71 -31t31 -73
z" />
    <glyph glyph-name="lacute" unicode="&#x13a;" horiz-adv-x="584" 
d="M126 129v1184q0 64 46 108t112 44t112 -44t46 -108v-1184q0 -64 -46 -108t-112 -44t-112 44t-46 108zM600 1810q0 -45 -42 -80l-256 -206q-31 -24 -66 -24q-42 0 -71 29t-29 69q0 49 38 80l256 212q31 24 68 24q40 0 71 -31t31 -73z" />
    <glyph glyph-name="Lcommaaccent" unicode="&#x13b;" horiz-adv-x="994" 
d="M822 0h-516q-72 0 -123 51t-51 123v1076q0 72 51 123t123 51t123 -51t51 -123v-938h342q66 0 110 -44.5t44 -113.5q0 -66 -44 -110t-110 -44zM382 -454l52 224q10 44 40 71t74 27q48 0 82 -33t34 -81q0 -23 -8 -42l-88 -226q-11 -29 -36 -46.5t-56 -17.5q-41 0 -69.5 28
t-28.5 68q0 12 4 28z" />
    <glyph glyph-name="lcommaaccent" unicode="&#x13c;" horiz-adv-x="574" 
d="M132 134v1232q0 66 46 112t112 46t112 -46t46 -112v-1232q0 -66 -46 -112t-112 -46t-112 46t-46 112zM108 -454l52 224q10 44 40 71t74 27q48 0 82 -33t34 -81q0 -23 -8 -42l-88 -226q-11 -29 -36 -46.5t-56 -17.5q-41 0 -69.5 28t-28.5 68q0 12 4 28z" />
    <glyph glyph-name="Lcaron" unicode="&#x13d;" horiz-adv-x="1062" 
d="M822 0h-516q-72 0 -123 51t-51 123v1076q0 72 51 123t123 51t123 -51t51 -123v-938h342q66 0 110 -44.5t44 -113.5q0 -66 -44 -110t-110 -44zM672 1102l66 290q10 44 46.5 73t85.5 29q57 0 98.5 -39.5t41.5 -96.5q0 -21 -10 -44l-118 -288q-12 -30 -41 -49t-65 -19
q-45 0 -77.5 31.5t-32.5 76.5q0 15 6 36z" />
    <glyph glyph-name="lcaron" unicode="&#x13e;" horiz-adv-x="934" 
d="M126 134v1232q0 66 46 112t112 46t112 -46t46 -112v-1232q0 -66 -46 -112t-112 -46t-112 46t-46 112zM544 1102l66 290q10 44 46.5 73t85.5 29q57 0 98.5 -39.5t41.5 -96.5q0 -21 -10 -44l-118 -288q-12 -30 -41 -49t-65 -19q-45 0 -77.5 31.5t-32.5 76.5q0 15 6 36z" />
    <glyph glyph-name="Ldot" unicode="&#x13f;" horiz-adv-x="994" 
d="M822 0h-516q-72 0 -123 51t-51 123v1076q0 72 51 123t123 51t123 -51t51 -123v-938h342q66 0 110 -44.5t44 -113.5q0 -66 -44 -110t-110 -44zM636 758q0 56 39.5 96t96.5 40t96.5 -40t39.5 -96t-39.5 -96t-96.5 -40t-96.5 40t-39.5 96z" />
    <glyph glyph-name="ldot" unicode="&#x140;" horiz-adv-x="934" 
d="M126 134v1232q0 66 46 112t112 46t112 -46t46 -112v-1232q0 -66 -46 -112t-112 -46t-112 46t-46 112zM626 758q0 56 39.5 96t96.5 40t96.5 -40t39.5 -96t-39.5 -96t-96.5 -40t-96.5 40t-39.5 96z" />
    <glyph glyph-name="Lslash" unicode="&#x141;" horiz-adv-x="1010" 
d="M838 0h-516q-72 0 -123 51t-51 123v320l-50 -30q-26 -16 -42 -16q-25 0 -43.5 19t-18.5 43q0 31 32 52l122 76v612q0 72 51 123t123 51t123 -51t51 -123v-396l308 194q26 16 42 16q25 0 43.5 -19t18.5 -43q0 -31 -32 -52l-380 -238v-400h342q66 0 110 -44.5t44 -113.5
q0 -66 -44 -110t-110 -44z" />
    <glyph glyph-name="lslash" unicode="&#x142;" horiz-adv-x="818" 
d="M244 134v468l-158 -98q-26 -16 -42 -16q-25 0 -43.5 19t-18.5 43q0 31 32 52l230 144v620q0 66 46 112t112 46t112 -46t46 -112v-422l176 110q26 16 42 16q25 0 43.5 -19t18.5 -43q0 -31 -32 -52l-248 -156v-666q0 -66 -46 -112t-112 -46t-112 46t-46 112z" />
    <glyph glyph-name="Nacute" unicode="&#x143;" horiz-adv-x="1466" 
d="M346 1376l640 -730v604q0 72 51 123t123 51t123 -51t51 -123v-1154q0 -56 -29.5 -88t-78.5 -32q-64 0 -106 48l-640 730v-604q0 -72 -51 -123t-123 -51t-123 51t-51 123v1154q0 56 29.5 88t78.5 32q64 0 106 -48zM974 1810q0 -45 -42 -80l-256 -206q-31 -24 -66 -24
q-42 0 -71 29t-29 69q0 49 38 80l256 212q31 24 68 24q40 0 71 -31t31 -73z" />
    <glyph glyph-name="nacute" unicode="&#x144;" horiz-adv-x="1142" 
d="M118 134v668q0 66 46 112t112 46q64 0 108.5 -43t49.5 -103q43 68 116 107t166 39q135 0 224.5 -93.5t89.5 -248.5v-484q0 -66 -46 -112t-112 -46t-112 46t-46 112v406q0 64 -40.5 106t-99.5 42q-56 0 -96 -38t-44 -98v-418q0 -66 -46 -112t-112 -46t-112 46t-46 112z
M826 1362q0 -45 -42 -80l-256 -206q-31 -24 -66 -24q-42 0 -71 29t-29 69q0 49 38 80l256 212q31 24 68 24q40 0 71 -31t31 -73z" />
    <glyph glyph-name="Ncommaaccent" unicode="&#x145;" horiz-adv-x="1466" 
d="M346 1376l640 -730v604q0 72 51 123t123 51t123 -51t51 -123v-1154q0 -56 -29.5 -88t-78.5 -32q-64 0 -106 48l-640 730v-604q0 -72 -51 -123t-123 -51t-123 51t-51 123v1154q0 56 29.5 88t78.5 32q64 0 106 -48zM626 -454l52 224q10 44 40 71t74 27q48 0 82 -33t34 -81
q0 -23 -8 -42l-88 -226q-11 -29 -36 -46.5t-56 -17.5q-41 0 -69.5 28t-28.5 68q0 12 4 28z" />
    <glyph glyph-name="ncommaaccent" unicode="&#x146;" horiz-adv-x="1142" 
d="M118 134v668q0 66 46 112t112 46q64 0 108.5 -43t49.5 -103q43 68 116 107t166 39q135 0 224.5 -93.5t89.5 -248.5v-484q0 -66 -46 -112t-112 -46t-112 46t-46 112v406q0 64 -40.5 106t-99.5 42q-56 0 -96 -38t-44 -98v-418q0 -66 -46 -112t-112 -46t-112 46t-46 112z
M414 -454l52 224q10 44 40 71t74 27q48 0 82 -33t34 -81q0 -23 -8 -42l-88 -226q-11 -29 -36 -46.5t-56 -17.5q-41 0 -69.5 28t-28.5 68q0 12 4 28z" />
    <glyph glyph-name="Ncaron" unicode="&#x147;" horiz-adv-x="1466" 
d="M346 1376l640 -730v604q0 72 51 123t123 51t123 -51t51 -123v-1154q0 -56 -29.5 -88t-78.5 -32q-64 0 -106 48l-640 730v-604q0 -72 -51 -123t-123 -51t-123 51t-51 123v1154q0 56 29.5 88t78.5 32q64 0 106 -48zM732 1730l164 136q35 28 74 28t68.5 -29.5t29.5 -68.5
q0 -47 -44 -84l-254 -212q-19 -16 -38 -16t-38 16l-254 212q-44 37 -44 84q0 39 29.5 68.5t68.5 29.5t74 -28z" />
    <glyph glyph-name="ncaron" unicode="&#x148;" horiz-adv-x="1142" 
d="M118 134v668q0 66 46 112t112 46q64 0 108.5 -43t49.5 -103q43 68 116 107t166 39q135 0 224.5 -93.5t89.5 -248.5v-484q0 -66 -46 -112t-112 -46t-112 46t-46 112v406q0 64 -40.5 106t-99.5 42q-56 0 -96 -38t-44 -98v-418q0 -66 -46 -112t-112 -46t-112 46t-46 112z
M570 1282l164 136q35 28 74 28t68.5 -29.5t29.5 -68.5q0 -47 -44 -84l-254 -212q-19 -16 -38 -16t-38 16l-254 212q-44 37 -44 84q0 39 29.5 68.5t68.5 29.5t74 -28z" />
    <glyph glyph-name="napostrophe" unicode="&#x149;" horiz-adv-x="1344" 
d="M334 134v668q0 66 46 112t112 46q64 0 108.5 -43t49.5 -103q43 68 116 107t166 39q135 0 224.5 -93.5t89.5 -248.5v-484q0 -66 -46 -112t-112 -46t-112 46t-46 112v406q0 64 -40.5 106t-99.5 42q-56 0 -96 -38t-44 -98v-418q0 -66 -46 -112t-112 -46t-112 46t-46 112z
M52 1102l66 290q10 44 46.5 73t85.5 29q57 0 98.5 -39.5t41.5 -96.5q0 -21 -10 -44l-118 -288q-12 -30 -41 -49t-65 -19q-45 0 -77.5 31.5t-32.5 76.5q0 15 6 36z" />
    <glyph glyph-name="Eng" unicode="&#x14a;" horiz-adv-x="1466" 
d="M628 -368q0 59 39.5 99.5t100.5 40.5q30 0 78 -24q24 -12 50 -12q90 0 90 120v144l-506 690v-540q0 -72 -51 -123t-123 -51t-123 51t-51 123v1154q0 56 30 88t76 32q64 0 118 -74l630 -856v756q0 72 51 123t123 51t123 -51t51 -123v-1402q0 -196 -98.5 -304t-281.5 -108
q-168 0 -266 74q-27 20 -43.5 52.5t-16.5 69.5z" />
    <glyph glyph-name="eng" unicode="&#x14b;" horiz-adv-x="1142" 
d="M370 -382q0 54 36.5 91t89.5 37q38 0 68 -18q33 -20 64 -20q86 0 86 108v724q0 64 -40.5 106t-99.5 42t-99.5 -42t-40.5 -106v-406q0 -66 -46 -112t-112 -46t-112 46t-46 112v668q0 66 46 112t112 46q64 0 108.5 -43t49.5 -103q43 68 116 107t166 39q135 0 224.5 -93.5
t89.5 -248.5v-762q0 -202 -93 -311t-269 -109q-150 0 -248 80q-50 40 -50 102z" />
    <glyph glyph-name="Omacron" unicode="&#x14c;" horiz-adv-x="1656" 
d="M1578 700q0 -123 -39 -236t-109 -201t-163 -153t-206 -99.5t-233 -34.5t-233 34.5t-206 99.5t-163 153t-109 201t-39 236t39 236t109 201t163 153t206 99.5t233 34.5t233 -34.5t206 -99.5t163 -153t109 -201t39 -236zM426 700q0 -175 116.5 -293.5t285.5 -118.5
t285.5 118.5t116.5 293.5t-116.5 293.5t-285.5 118.5t-285.5 -118.5t-116.5 -293.5zM520 1706q0 44 30 74t74 30h408q44 0 74 -30t30 -74t-30 -74t-74 -30h-408q-44 0 -74 30t-30 74z" />
    <glyph glyph-name="omacron" unicode="&#x14d;" horiz-adv-x="1180" 
d="M1110 468q0 -135 -68.5 -248t-188 -178.5t-263.5 -65.5t-263.5 65.5t-188 178.5t-68.5 248t68.5 248t188 178.5t263.5 65.5t263.5 -65.5t188 -178.5t68.5 -248zM794 468q0 87 -61.5 145.5t-142.5 58.5t-142.5 -58.5t-61.5 -145.5t61.5 -145.5t142.5 -58.5t142.5 58.5
t61.5 145.5zM282 1258q0 44 30 74t74 30h408q44 0 74 -30t30 -74t-30 -74t-74 -30h-408q-44 0 -74 30t-30 74z" />
    <glyph glyph-name="Obreve" unicode="&#x14e;" horiz-adv-x="1656" 
d="M1578 700q0 -123 -39 -236t-109 -201t-163 -153t-206 -99.5t-233 -34.5t-233 34.5t-206 99.5t-163 153t-109 201t-39 236t39 236t109 201t163 153t206 99.5t233 34.5t233 -34.5t206 -99.5t163 -153t109 -201t39 -236zM426 700q0 -175 116.5 -293.5t285.5 -118.5
t285.5 118.5t116.5 293.5t-116.5 293.5t-285.5 118.5t-285.5 -118.5t-116.5 -293.5zM828 1542q-94 0 -171 48.5t-113 133.5q-12 32 -12 58q0 42 27 71t69 29q75 0 110 -76q28 -62 90 -62t90 62q33 76 110 76q42 0 69 -29t27 -71q0 -26 -12 -58q-36 -85 -113 -133.5
t-171 -48.5z" />
    <glyph glyph-name="obreve" unicode="&#x14f;" horiz-adv-x="1180" 
d="M1110 468q0 -135 -68.5 -248t-188 -178.5t-263.5 -65.5t-263.5 65.5t-188 178.5t-68.5 248t68.5 248t188 178.5t263.5 65.5t263.5 -65.5t188 -178.5t68.5 -248zM794 468q0 87 -61.5 145.5t-142.5 58.5t-142.5 -58.5t-61.5 -145.5t61.5 -145.5t142.5 -58.5t142.5 58.5
t61.5 145.5zM590 1094q-94 0 -171 48.5t-113 133.5q-12 32 -12 58q0 42 27 71t69 29q75 0 110 -76q28 -62 90 -62t90 62q33 76 110 76q42 0 69 -29t27 -71q0 -26 -12 -58q-36 -85 -113 -133.5t-171 -48.5z" />
    <glyph glyph-name="Ohungarumlaut" unicode="&#x150;" horiz-adv-x="1656" 
d="M1578 700q0 -123 -39 -236t-109 -201t-163 -153t-206 -99.5t-233 -34.5t-233 34.5t-206 99.5t-163 153t-109 201t-39 236t39 236t109 201t163 153t206 99.5t233 34.5t233 -34.5t206 -99.5t163 -153t109 -201t39 -236zM426 700q0 -175 116.5 -293.5t285.5 -118.5
t285.5 118.5t116.5 293.5t-116.5 293.5t-285.5 118.5t-285.5 -118.5t-116.5 -293.5zM890 1810q0 -45 -42 -80l-256 -206q-31 -24 -66 -24q-42 0 -71 29t-29 69q0 49 38 80l256 212q31 24 68 24q40 0 71 -31t31 -73zM1310 1810q0 -45 -42 -80l-256 -206q-31 -24 -66 -24
q-42 0 -71 29t-29 69q0 49 38 80l256 212q31 24 68 24q40 0 71 -31t31 -73z" />
    <glyph glyph-name="ohungarumlaut" unicode="&#x151;" horiz-adv-x="1180" 
d="M1110 468q0 -135 -68.5 -248t-188 -178.5t-263.5 -65.5t-263.5 65.5t-188 178.5t-68.5 248t68.5 248t188 178.5t263.5 65.5t263.5 -65.5t188 -178.5t68.5 -248zM794 468q0 87 -61.5 145.5t-142.5 58.5t-142.5 -58.5t-61.5 -145.5t61.5 -145.5t142.5 -58.5t142.5 58.5
t61.5 145.5zM672 1362q0 -45 -42 -80l-256 -206q-31 -24 -66 -24q-42 0 -71 29t-29 69q0 49 38 80l256 212q31 24 68 24q40 0 71 -31t31 -73zM1092 1362q0 -45 -42 -80l-256 -206q-31 -24 -66 -24q-42 0 -71 29t-29 69q0 49 38 80l256 212q31 24 68 24q40 0 71 -31t31 -73z
" />
    <glyph glyph-name="OE" unicode="&#x152;" horiz-adv-x="1718" 
d="M426 700q0 -173 114.5 -280.5t285.5 -107.5v776q-171 -2 -285.5 -109.5t-114.5 -278.5zM1500 0h-674q-151 0 -287.5 51t-238.5 141t-162 222t-60 286t60.5 286t163 222t239 141t287.5 51h654q66 0 110 -44.5t44 -113.5q0 -66 -44 -110t-110 -44h-308v-188h264
q66 0 110 -44.5t44 -113.5q0 -66 -44 -110t-110 -44h-264v-276h326q66 0 110 -44.5t44 -113.5q0 -66 -44 -110t-110 -44z" />
    <glyph glyph-name="oe" unicode="&#x153;" horiz-adv-x="1866" 
d="M794 468q0 87 -61.5 145.5t-142.5 58.5t-142.5 -58.5t-61.5 -145.5t61.5 -145.5t142.5 -58.5t142.5 58.5t61.5 145.5zM1110 590h384q-20 54 -71.5 88t-120.5 34t-120.5 -34t-71.5 -88zM1310 -24q-100 0 -197 41.5t-155 110.5q-61 -74 -157.5 -113t-210.5 -39
q-144 0 -263.5 65.5t-188 178.5t-68.5 248t68.5 248t188 178.5t263.5 65.5q114 0 210.5 -39t157.5 -113q62 70 151.5 111t182.5 41q128 0 238.5 -56t180.5 -156t85 -224q1 -7 1 -19q0 -54 -35.5 -86.5t-91.5 -32.5h-562q20 -66 73 -104t137 -38q99 0 172 54q46 34 94 34
q61 0 100.5 -39t39.5 -97q0 -67 -60 -114q-133 -106 -354 -106z" />
    <glyph glyph-name="Racute" unicode="&#x154;" horiz-adv-x="1220" 
d="M306 1400h258q224 0 362 -126.5t138 -335.5q0 -130 -63 -227t-169 -149l244 -338q32 -46 32 -96q0 -68 -46 -110t-116 -42q-85 0 -132 70l-334 488v-384q0 -72 -51 -123t-123 -51t-123 51t-51 123v1076q0 72 51 123t123 51zM480 1108v-340h48q88 0 138 43.5t50 126.5
t-50 126.5t-138 43.5h-48zM806 1810q0 -45 -42 -80l-256 -206q-31 -24 -66 -24q-42 0 -71 29t-29 69q0 49 38 80l256 212q31 24 68 24q40 0 71 -31t31 -73z" />
    <glyph glyph-name="racute" unicode="&#x155;" horiz-adv-x="852" 
d="M434 814q43 65 109.5 105.5t142.5 40.5q70 0 112 -41t42 -101q0 -57 -42 -99.5t-100 -42.5q-16 0 -40 6q-21 6 -42 6q-86 0 -134 -57.5t-48 -162.5v-334q0 -66 -46 -112t-112 -46t-112 46t-46 112v668q0 66 46 112t112 46q64 0 108.5 -42t49.5 -104zM692 1362
q0 -45 -42 -80l-256 -206q-31 -24 -66 -24q-42 0 -71 29t-29 69q0 49 38 80l256 212q31 24 68 24q40 0 71 -31t31 -73z" />
    <glyph glyph-name="Rcommaaccent" unicode="&#x156;" horiz-adv-x="1220" 
d="M306 1400h258q224 0 362 -126.5t138 -335.5q0 -130 -63 -227t-169 -149l244 -338q32 -46 32 -96q0 -68 -46 -110t-116 -42q-85 0 -132 70l-334 488v-384q0 -72 -51 -123t-123 -51t-123 51t-51 123v1076q0 72 51 123t123 51zM480 1108v-340h48q88 0 138 43.5t50 126.5
t-50 126.5t-138 43.5h-48zM462 -454l52 224q10 44 40 71t74 27q48 0 82 -33t34 -81q0 -23 -8 -42l-88 -226q-11 -29 -36 -46.5t-56 -17.5q-41 0 -69.5 28t-28.5 68q0 12 4 28z" />
    <glyph glyph-name="rcommaaccent" unicode="&#x157;" horiz-adv-x="856" 
d="M438 814q43 65 109.5 105.5t142.5 40.5q70 0 112 -41t42 -101q0 -57 -42 -99.5t-100 -42.5q-16 0 -40 6q-21 6 -42 6q-86 0 -134 -57.5t-48 -162.5v-334q0 -66 -46 -112t-112 -46t-112 46t-46 112v668q0 66 46 112t112 46q64 0 108.5 -42t49.5 -104zM110 -454l52 224
q10 44 40 71t74 27q48 0 82 -33t34 -81q0 -23 -8 -42l-88 -226q-11 -29 -36 -46.5t-56 -17.5q-41 0 -69.5 28t-28.5 68q0 12 4 28z" />
    <glyph glyph-name="Rcaron" unicode="&#x158;" horiz-adv-x="1220" 
d="M306 1400h258q224 0 362 -126.5t138 -335.5q0 -130 -63 -227t-169 -149l244 -338q32 -46 32 -96q0 -68 -46 -110t-116 -42q-85 0 -132 70l-334 488v-384q0 -72 -51 -123t-123 -51t-123 51t-51 123v1076q0 72 51 123t123 51zM480 1108v-340h48q88 0 138 43.5t50 126.5
t-50 126.5t-138 43.5h-48zM536 1730l164 136q35 28 74 28t68.5 -29.5t29.5 -68.5q0 -47 -44 -84l-254 -212q-19 -16 -38 -16t-38 16l-254 212q-44 37 -44 84q0 39 29.5 68.5t68.5 29.5t74 -28z" />
    <glyph glyph-name="rcaron" unicode="&#x159;" horiz-adv-x="854" 
d="M436 814q43 65 109.5 105.5t142.5 40.5q70 0 112 -41t42 -101q0 -57 -42 -99.5t-100 -42.5q-16 0 -40 6q-21 6 -42 6q-86 0 -134 -57.5t-48 -162.5v-334q0 -66 -46 -112t-112 -46t-112 46t-46 112v668q0 66 46 112t112 46q64 0 108.5 -42t49.5 -104zM454 1282l164 136
q35 28 74 28t68.5 -29.5t29.5 -68.5q0 -47 -44 -84l-254 -212q-19 -16 -38 -16t-38 16l-254 212q-44 37 -44 84q0 39 29.5 68.5t68.5 29.5t74 -28z" />
    <glyph glyph-name="Sacute" unicode="&#x15a;" horiz-adv-x="1126" 
d="M736 1084q-65 42 -124 42q-116 0 -116 -86q0 -45 43 -80.5t163 -83.5q176 -71 263 -185.5t87 -280.5q0 -196 -128 -315t-358 -119q-128 0 -248 43.5t-208 122.5q-50 44 -50 118q0 63 46.5 109.5t109.5 46.5q47 0 98 -40q104 -86 226 -86q75 0 119.5 35.5t44.5 92.5
q0 63 -40 105t-146 83q-195 76 -282.5 181t-87.5 263q0 159 116 266.5t306 107.5t336 -104q66 -47 66 -122q0 -59 -41 -101.5t-99 -42.5q-47 0 -96 30zM800 1810q0 -45 -42 -80l-256 -206q-31 -24 -66 -24q-42 0 -71 29t-29 69q0 49 38 80l256 212q31 24 68 24q40 0 71 -31
t31 -73z" />
    <glyph glyph-name="sacute" unicode="&#x15b;" horiz-adv-x="824" 
d="M96 74q-50 37 -50 94q0 50 33.5 85t82.5 35q40 0 78 -28q57 -44 116 -44q39 0 62.5 18.5t23.5 49.5q0 36 -20 59.5t-78 48.5q-240 101 -240 298q0 119 88 194.5t230 75.5q134 0 244 -70q52 -35 52 -96q0 -51 -32 -82.5t-80 -31.5q-28 0 -60 20q-33 20 -66 20
q-60 0 -60 -40q0 -22 22 -40t90 -48q226 -100 226 -304q0 -136 -92 -224t-258 -88q-188 0 -312 98zM662 1362q0 -45 -42 -80l-256 -206q-31 -24 -66 -24q-42 0 -71 29t-29 69q0 49 38 80l256 212q31 24 68 24q40 0 71 -31t31 -73z" />
    <glyph glyph-name="Scircumflex" unicode="&#x15c;" horiz-adv-x="1126" 
d="M736 1084q-65 42 -124 42q-116 0 -116 -86q0 -45 43 -80.5t163 -83.5q176 -71 263 -185.5t87 -280.5q0 -196 -128 -315t-358 -119q-128 0 -248 43.5t-208 122.5q-50 44 -50 118q0 63 46.5 109.5t109.5 46.5q47 0 98 -40q104 -86 226 -86q75 0 119.5 35.5t44.5 92.5
q0 63 -40 105t-146 83q-195 76 -282.5 181t-87.5 263q0 159 116 266.5t306 107.5t336 -104q66 -47 66 -122q0 -59 -41 -101.5t-99 -42.5q-47 0 -96 30zM714 1522l-164 136l-164 -136q-35 -28 -74 -28t-68.5 29.5t-29.5 68.5q0 47 44 84l254 212q19 16 38 16t38 -16l254 -212
q44 -37 44 -84q0 -39 -29.5 -68.5t-68.5 -29.5q-43 0 -74 28z" />
    <glyph glyph-name="scircumflex" unicode="&#x15d;" horiz-adv-x="824" 
d="M96 74q-50 37 -50 94q0 50 33.5 85t82.5 35q40 0 78 -28q57 -44 116 -44q39 0 62.5 18.5t23.5 49.5q0 36 -20 59.5t-78 48.5q-240 101 -240 298q0 119 88 194.5t230 75.5q134 0 244 -70q52 -35 52 -96q0 -51 -32 -82.5t-80 -31.5q-28 0 -60 20q-33 20 -66 20
q-60 0 -60 -40q0 -22 22 -40t90 -48q226 -100 226 -304q0 -136 -92 -224t-258 -88q-188 0 -312 98zM570 1094l-164 136l-164 -136q-35 -28 -74 -28t-68.5 29.5t-29.5 68.5q0 47 44 84l254 212q19 16 38 16t38 -16l254 -212q44 -37 44 -84q0 -39 -29.5 -68.5t-68.5 -29.5
q-43 0 -74 28z" />
    <glyph glyph-name="Scedilla" unicode="&#x15e;" horiz-adv-x="1126" 
d="M736 1084q-65 42 -124 42q-116 0 -116 -86q0 -45 43 -80.5t163 -83.5q176 -71 263 -185.5t87 -280.5t-93 -278.5t-263 -143.5l-38 -80q63 -19 100.5 -65t37.5 -113q0 -86 -68.5 -146t-181.5 -60q-87 0 -154 32q-50 23 -50 76q0 33 22.5 54.5t55.5 21.5q22 0 38 -8
q27 -12 54 -12q31 0 49.5 15t18.5 39q0 60 -106 66q-12 0 -21 7t-9 17q0 12 6 24l58 124q-114 9 -217.5 50.5t-180.5 111.5q-50 44 -50 118q0 63 46.5 109.5t109.5 46.5q47 0 98 -40q104 -86 226 -86q75 0 119.5 35.5t44.5 92.5q0 63 -40 105t-146 83q-195 76 -282.5 181
t-87.5 263q0 159 116 266.5t306 107.5q187 0 335 -105q67 -46 67 -121q0 -59 -41 -101.5t-99 -42.5q-47 0 -96 30z" />
    <glyph glyph-name="scedilla" unicode="&#x15f;" horiz-adv-x="824" 
d="M96 74q-50 37 -50 94q0 50 33.5 85t82.5 35q40 0 78 -28q57 -44 116 -44q39 0 62.5 18.5t23.5 49.5q0 36 -20 59.5t-78 48.5q-240 101 -240 298q0 119 88 194.5t230 75.5q134 0 244 -70q52 -35 52 -96q0 -51 -32 -82.5t-80 -31.5q-28 0 -60 20q-33 20 -66 20
q-60 0 -60 -40q0 -22 22 -40t90 -48q226 -100 226 -304q0 -111 -62 -191.5t-176 -108.5l-38 -80q63 -19 100.5 -65t37.5 -113q0 -86 -68.5 -146t-181.5 -60q-87 0 -154 32q-50 23 -50 76q0 33 22.5 54.5t55.5 21.5q22 0 38 -8q27 -12 54 -12q31 0 49.5 15t18.5 39
q0 60 -106 66q-12 0 -21 7t-9 17q0 12 6 24l58 126q-144 17 -236 92z" />
    <glyph glyph-name="Scaron" unicode="&#x160;" horiz-adv-x="1126" 
d="M736 1084q-65 42 -124 42q-116 0 -116 -86q0 -45 43 -80.5t163 -83.5q176 -71 263 -185.5t87 -280.5q0 -196 -128 -315t-358 -119q-128 0 -248 43.5t-208 122.5q-50 44 -50 118q0 63 46.5 109.5t109.5 46.5q47 0 98 -40q104 -86 226 -86q75 0 119.5 35.5t44.5 92.5
q0 63 -40 105t-146 83q-195 76 -282.5 181t-87.5 263q0 159 116 266.5t306 107.5t336 -104q66 -47 66 -122q0 -59 -41 -101.5t-99 -42.5q-47 0 -96 30zM550 1730l164 136q35 28 74 28t68.5 -29.5t29.5 -68.5q0 -47 -44 -84l-254 -212q-19 -16 -38 -16t-38 16l-254 212
q-44 37 -44 84q0 39 29.5 68.5t68.5 29.5t74 -28z" />
    <glyph glyph-name="scaron" unicode="&#x161;" horiz-adv-x="824" 
d="M96 74q-50 37 -50 94q0 50 33.5 85t82.5 35q40 0 78 -28q57 -44 116 -44q39 0 62.5 18.5t23.5 49.5q0 36 -20 59.5t-78 48.5q-240 101 -240 298q0 119 88 194.5t230 75.5q134 0 244 -70q52 -35 52 -96q0 -51 -32 -82.5t-80 -31.5q-28 0 -60 20q-33 20 -66 20
q-60 0 -60 -40q0 -22 22 -40t90 -48q226 -100 226 -304q0 -136 -92 -224t-258 -88q-188 0 -312 98zM406 1282l164 136q35 28 74 28t68.5 -29.5t29.5 -68.5q0 -47 -44 -84l-254 -212q-19 -16 -38 -16t-38 16l-254 212q-44 37 -44 84q0 39 29.5 68.5t68.5 29.5t74 -28z" />
    <glyph glyph-name="Tcommaaccent" unicode="&#x162;" horiz-adv-x="1064" 
d="M358 1088h-176q-66 0 -110 44t-44 110q0 69 44 113.5t110 44.5h700q66 0 110 -44.5t44 -113.5q0 -66 -44 -110t-110 -44h-176v-938q0 -46 -21.5 -84.5t-58.5 -63.5l-44 -90q63 -19 100.5 -65t37.5 -113q0 -86 -68.5 -146t-181.5 -60q-87 0 -154 32q-50 23 -50 76
q0 33 22.5 54.5t55.5 21.5q22 0 38 -8q27 -12 54 -12q31 0 49.5 15t18.5 39q0 60 -106 66q-12 0 -21 7t-9 17q0 12 6 24l66 140q-38 24 -60 63.5t-22 86.5v938z" />
    <glyph glyph-name="tcommaaccent" unicode="&#x163;" horiz-adv-x="762" 
d="M202 134v550h-44q-52 0 -89 37t-37 89t37 89t89 37h44v130q0 66 46 112t112 46t112 -46t46 -112v-130h104q52 0 89 -37t37 -89t-37 -89t-89 -37h-104v-550q0 -73 -56 -122l-50 -104q63 -19 100.5 -65t37.5 -113q0 -86 -68.5 -146t-181.5 -60q-87 0 -154 32q-50 23 -50 76
q0 33 22.5 54.5t55.5 21.5q22 0 38 -8q27 -12 54 -12q31 0 49.5 15t18.5 39q0 60 -106 66q-12 0 -21 7t-9 17q0 12 6 24l68 144q-70 47 -70 134z" />
    <glyph glyph-name="Tcaron" unicode="&#x164;" horiz-adv-x="1064" 
d="M358 1088h-176q-66 0 -110 44t-44 110q0 69 44 113.5t110 44.5h700q66 0 110 -44.5t44 -113.5q0 -66 -44 -110t-110 -44h-176v-938q0 -72 -51 -123t-123 -51t-123 51t-51 123v938zM532 1730l164 136q35 28 74 28t68.5 -29.5t29.5 -68.5q0 -47 -44 -84l-254 -212
q-19 -16 -38 -16t-38 16l-254 212q-44 37 -44 84q0 39 29.5 68.5t68.5 29.5t74 -28z" />
    <glyph glyph-name="tcaron" unicode="&#x165;" horiz-adv-x="1176" 
d="M202 134v550h-44q-52 0 -89 37t-37 89t37 89t89 37h44v130q0 66 46 112t112 46t112 -46t46 -112v-130h104q52 0 89 -37t37 -89t-37 -89t-89 -37h-104v-550q0 -66 -46 -112t-112 -46t-112 46t-46 112zM786 1102l66 290q10 44 46.5 73t85.5 29q57 0 98.5 -39.5t41.5 -96.5
q0 -21 -10 -44l-118 -288q-12 -30 -41 -49t-65 -19q-45 0 -77.5 31.5t-32.5 76.5q0 15 6 36z" />
    <glyph glyph-name="Tbar" unicode="&#x166;" horiz-adv-x="1064" 
d="M220 766h138v322h-176q-66 0 -110 44t-44 110q0 69 44 113.5t110 44.5h700q66 0 110 -44.5t44 -113.5q0 -66 -44 -110t-110 -44h-176v-322h138q37 0 63.5 -27.5t26.5 -64.5q0 -38 -26.5 -65t-63.5 -27h-138v-432q0 -72 -51 -123t-123 -51t-123 51t-51 123v432h-138
q-37 0 -63.5 27t-26.5 65q0 37 26.5 64.5t63.5 27.5z" />
    <glyph glyph-name="tbar" unicode="&#x167;" horiz-adv-x="762" 
d="M202 134v220h-48q-37 0 -63.5 27t-26.5 65q0 37 26.5 64.5t63.5 27.5h48v146h-44q-52 0 -89 37t-37 89t37 89t89 37h44v130q0 66 46 112t112 46t112 -46t46 -112v-130h104q52 0 89 -37t37 -89t-37 -89t-89 -37h-104v-146h102q37 0 63.5 -27.5t26.5 -64.5q0 -38 -26.5 -65
t-63.5 -27h-102v-220q0 -66 -46 -112t-112 -46t-112 46t-46 112z" />
    <glyph glyph-name="Utilde" unicode="&#x168;" horiz-adv-x="1348" 
d="M1216 1250v-728q0 -126 -45 -230.5t-120.5 -172.5t-173 -105.5t-203.5 -37.5t-203.5 37.5t-173 105.5t-120.5 172.5t-45 230.5v728q0 72 51 123t123 51t123 -51t51 -123v-738q0 -105 53 -164.5t141 -59.5t141 59.5t53 164.5v738q0 72 51 123t123 51t123 -51t51 -123z
M806 1554q-78 0 -162 68q-47 38 -82 38q-30 0 -50 -42q-11 -24 -35.5 -40t-52.5 -16q-38 0 -65 27t-27 65q0 16 6 34q24 78 80 124t124 46q78 0 162 -68q48 -38 82 -38q30 0 50 42q11 24 35.5 40t52.5 16q38 0 65 -27t27 -65q0 -16 -6 -34q-24 -78 -80 -124t-124 -46z" />
    <glyph glyph-name="utilde" unicode="&#x169;" horiz-adv-x="1148" 
d="M1030 802v-668q0 -66 -46 -112t-112 -46q-64 0 -108.5 43t-49.5 103q-43 -68 -116 -107t-166 -39q-135 0 -224.5 93.5t-89.5 248.5v484q0 66 46 112t112 46t112 -46t46 -112v-406q0 -64 40.5 -106t99.5 -42q56 0 96 38t44 98v418q0 66 46 112t112 46t112 -46t46 -112z
M706 1106q-78 0 -162 68q-48 38 -82 38q-30 0 -50 -42q-11 -24 -35.5 -40t-52.5 -16q-38 0 -65 27t-27 65q0 16 6 34q24 78 80 124t124 46q78 0 162 -68q47 -38 82 -38q30 0 50 42q11 24 35.5 40t52.5 16q38 0 65 -27t27 -65q0 -16 -6 -34q-24 -78 -80 -124t-124 -46z" />
    <glyph glyph-name="Umacron" unicode="&#x16a;" horiz-adv-x="1348" 
d="M1216 1250v-728q0 -126 -45 -230.5t-120.5 -172.5t-173 -105.5t-203.5 -37.5t-203.5 37.5t-173 105.5t-120.5 172.5t-45 230.5v728q0 72 51 123t123 51t123 -51t51 -123v-738q0 -105 53 -164.5t141 -59.5t141 59.5t53 164.5v738q0 72 51 123t123 51t123 -51t51 -123z
M366 1706q0 44 30 74t74 30h408q44 0 74 -30t30 -74t-30 -74t-74 -30h-408q-44 0 -74 30t-30 74z" />
    <glyph glyph-name="umacron" unicode="&#x16b;" horiz-adv-x="1148" 
d="M1030 802v-668q0 -66 -46 -112t-112 -46q-64 0 -108.5 43t-49.5 103q-43 -68 -116 -107t-166 -39q-135 0 -224.5 93.5t-89.5 248.5v484q0 66 46 112t112 46t112 -46t46 -112v-406q0 -64 40.5 -106t99.5 -42q56 0 96 38t44 98v418q0 66 46 112t112 46t112 -46t46 -112z
M266 1258q0 44 30 74t74 30h408q44 0 74 -30t30 -74t-30 -74t-74 -30h-408q-44 0 -74 30t-30 74z" />
    <glyph glyph-name="Ubreve" unicode="&#x16c;" horiz-adv-x="1348" 
d="M1216 1250v-728q0 -126 -45 -230.5t-120.5 -172.5t-173 -105.5t-203.5 -37.5t-203.5 37.5t-173 105.5t-120.5 172.5t-45 230.5v728q0 72 51 123t123 51t123 -51t51 -123v-738q0 -105 53 -164.5t141 -59.5t141 59.5t53 164.5v738q0 72 51 123t123 51t123 -51t51 -123z
M674 1544q-94 0 -171 48.5t-113 133.5q-12 32 -12 58q0 42 27 71t69 29q75 0 110 -76q28 -62 90 -62t90 62q33 76 110 76q42 0 69 -29t27 -71q0 -26 -12 -58q-36 -85 -113 -133.5t-171 -48.5z" />
    <glyph glyph-name="ubreve" unicode="&#x16d;" horiz-adv-x="1148" 
d="M1030 802v-668q0 -66 -46 -112t-112 -46q-64 0 -108.5 43t-49.5 103q-43 -68 -116 -107t-166 -39q-135 0 -224.5 93.5t-89.5 248.5v484q0 66 46 112t112 46t112 -46t46 -112v-406q0 -64 40.5 -106t99.5 -42q56 0 96 38t44 98v418q0 66 46 112t112 46t112 -46t46 -112z
M574 1094q-94 0 -171 48.5t-113 133.5q-12 32 -12 58q0 42 27 71t69 29q75 0 110 -76q28 -62 90 -62t90 62q33 76 110 76q42 0 69 -29t27 -71q0 -26 -12 -58q-36 -85 -113 -133.5t-171 -48.5z" />
    <glyph glyph-name="Uring" unicode="&#x16e;" horiz-adv-x="1348" 
d="M1216 1250v-728q0 -126 -45 -230.5t-120.5 -172.5t-173 -105.5t-203.5 -37.5t-203.5 37.5t-173 105.5t-120.5 172.5t-45 230.5v728q0 72 51 123t123 51t123 -51t51 -123v-738q0 -105 53 -164.5t141 -59.5t141 59.5t53 164.5v738q0 72 51 123t123 51t123 -51t51 -123z
M900 1706q0 -93 -66.5 -155.5t-159.5 -62.5t-159.5 62.5t-66.5 155.5t66.5 155.5t159.5 62.5t159.5 -62.5t66.5 -155.5zM752 1706q0 33 -22.5 55.5t-55.5 22.5t-55.5 -22.5t-22.5 -55.5t22.5 -55.5t55.5 -22.5t55.5 22.5t22.5 55.5z" />
    <glyph glyph-name="uring" unicode="&#x16f;" horiz-adv-x="1148" 
d="M1030 802v-668q0 -66 -46 -112t-112 -46q-64 0 -108.5 43t-49.5 103q-43 -68 -116 -107t-166 -39q-135 0 -224.5 93.5t-89.5 248.5v484q0 66 46 112t112 46t112 -46t46 -112v-406q0 -64 40.5 -106t99.5 -42q56 0 96 38t44 98v418q0 66 46 112t112 46t112 -46t46 -112z
M800 1256q0 -93 -66.5 -155.5t-159.5 -62.5t-159.5 62.5t-66.5 155.5t66.5 155.5t159.5 62.5t159.5 -62.5t66.5 -155.5zM652 1256q0 33 -22.5 55.5t-55.5 22.5t-55.5 -22.5t-22.5 -55.5t22.5 -55.5t55.5 -22.5t55.5 22.5t22.5 55.5z" />
    <glyph glyph-name="Uhungarumlaut" unicode="&#x170;" horiz-adv-x="1348" 
d="M1216 1250v-728q0 -126 -45 -230.5t-120.5 -172.5t-173 -105.5t-203.5 -37.5t-203.5 37.5t-173 105.5t-120.5 172.5t-45 230.5v728q0 72 51 123t123 51t123 -51t51 -123v-738q0 -105 53 -164.5t141 -59.5t141 59.5t53 164.5v738q0 72 51 123t123 51t123 -51t51 -123z
M748 1810q0 -45 -42 -80l-256 -206q-31 -24 -66 -24q-42 0 -71 29t-29 69q0 49 38 80l256 212q31 24 68 24q40 0 71 -31t31 -73zM1168 1810q0 -45 -42 -80l-256 -206q-31 -24 -66 -24q-42 0 -71 29t-29 69q0 49 38 80l256 212q31 24 68 24q40 0 71 -31t31 -73z" />
    <glyph glyph-name="uhungarumlaut" unicode="&#x171;" horiz-adv-x="1150" 
d="M1030 802v-668q0 -66 -46 -112t-112 -46q-64 0 -108.5 43t-49.5 103q-43 -68 -116 -107t-166 -39q-135 0 -224.5 93.5t-89.5 248.5v484q0 66 46 112t112 46t112 -46t46 -112v-406q0 -64 40.5 -106t99.5 -42q56 0 96 38t44 98v418q0 66 46 112t112 46t112 -46t46 -112z
M640 1362q0 -45 -42 -80l-256 -206q-31 -24 -66 -24q-42 0 -71 29t-29 69q0 49 38 80l256 212q31 24 68 24q40 0 71 -31t31 -73zM1060 1362q0 -45 -42 -80l-256 -206q-31 -24 -66 -24q-42 0 -71 29t-29 69q0 49 38 80l256 212q31 24 68 24q40 0 71 -31t31 -73z" />
    <glyph glyph-name="Uogonek" unicode="&#x172;" horiz-adv-x="1348" 
d="M1216 1250v-728q0 -202 -107.5 -339.5t-276.5 -184.5q-51 -48 -78.5 -98t-27.5 -90q0 -34 20 -51t52 -17q8 0 20 2t18 2q37 0 62.5 -24.5t25.5 -59.5q0 -28 -15 -50.5t-41 -31.5q-51 -18 -120 -18q-100 0 -165 59t-65 145q0 119 102 212q-98 9 -186 50t-155.5 109
t-107 167.5t-39.5 217.5v728q0 72 51 123t123 51t123 -51t51 -123v-738q0 -105 53 -164.5t141 -59.5t141 59.5t53 164.5v738q0 72 51 123t123 51t123 -51t51 -123z" />
    <glyph glyph-name="uogonek" unicode="&#x173;" horiz-adv-x="1150" 
d="M1030 802v-668q0 -85 -70 -132q-110 -104 -110 -192q0 -34 20 -51t52 -17q9 0 21 2t17 2q37 0 62.5 -24.5t25.5 -59.5q0 -28 -15 -50.5t-41 -31.5q-51 -18 -120 -18q-100 0 -165 59t-65 145q0 137 136 240q-57 39 -64 116q-43 -68 -116 -107t-166 -39q-135 0 -224.5 93.5
t-89.5 248.5v484q0 66 46 112t112 46t112 -46t46 -112v-406q0 -64 40.5 -106t99.5 -42q56 0 96 38t44 98v418q0 66 46 112t112 46t112 -46t46 -112z" />
    <glyph glyph-name="Wcircumflex" unicode="&#x174;" horiz-adv-x="2040" 
d="M1020 1424q88 0 122 -92l252 -686l240 658q21 58 63.5 89t98.5 31q70 0 122 -46.5t52 -119.5q0 -42 -16 -82l-428 -1112q-35 -88 -122 -88q-43 0 -75 23t-47 65l-262 720l-262 -720q-15 -42 -47 -65t-75 -23q-87 0 -122 88l-428 1112q-16 40 -16 82q0 73 52 119.5
t122 46.5q56 0 98.5 -31t63.5 -89l240 -658l252 686q34 92 122 92zM1184 1522l-164 136l-164 -136q-35 -28 -74 -28t-68.5 29.5t-29.5 68.5q0 47 44 84l254 212q19 16 38 16t38 -16l254 -212q44 -37 44 -84q0 -39 -29.5 -68.5t-68.5 -29.5q-43 0 -74 28z" />
    <glyph glyph-name="wcircumflex" unicode="&#x175;" horiz-adv-x="1596" 
d="M798 960q79 0 112 -76l176 -406l134 366q19 52 57 84t89 32q64 0 108 -40.5t44 -101.5q0 -45 -16 -82l-304 -686q-15 -34 -44 -54t-66 -20q-81 0 -112 74l-178 432l-178 -432q-31 -74 -112 -74q-37 0 -66 20t-44 54l-304 686q-16 37 -16 82q0 61 44 101.5t108 40.5
q51 0 89 -32t57 -84l134 -366l176 406q33 76 112 76zM962 1094l-164 136l-164 -136q-35 -28 -74 -28t-68.5 29.5t-29.5 68.5q0 47 44 84l254 212q19 16 38 16t38 -16l254 -212q44 -37 44 -84q0 -39 -29.5 -68.5t-68.5 -29.5q-43 0 -74 28z" />
    <glyph glyph-name="Ycircumflex" unicode="&#x176;" horiz-adv-x="1360" 
d="M680 -24q-72 0 -123 51t-51 123v392l-408 628q-26 39 -26 94q0 62 49 111t115 49q97 0 156 -96l288 -464l288 464q59 96 156 96q66 0 115 -49t49 -111q0 -55 -26 -94l-408 -628v-392q0 -72 -51 -123t-123 -51zM844 1522l-164 136l-164 -136q-35 -28 -74 -28t-68.5 29.5
t-29.5 68.5q0 47 44 84l254 212q19 16 38 16t38 -16l254 -212q44 -37 44 -84q0 -39 -29.5 -68.5t-68.5 -29.5q-43 0 -74 28z" />
    <glyph glyph-name="ycircumflex" unicode="&#x177;" horiz-adv-x="1086" 
d="M990 750l-458 -1238q-17 -44 -57.5 -72t-90.5 -28q-63 0 -108.5 46t-45.5 106q0 28 16 68l152 396l-302 722q-12 27 -12 62q0 63 43.5 105.5t106.5 42.5q54 0 92 -27.5t54 -72.5l164 -456l154 450q16 49 55 77.5t97 28.5q63 0 107.5 -42.5t44.5 -105.5q0 -26 -12 -62z
M708 1094l-164 136l-164 -136q-35 -28 -74 -28t-68.5 29.5t-29.5 68.5q0 47 44 84l254 212q19 16 38 16t38 -16l254 -212q44 -37 44 -84q0 -39 -29.5 -68.5t-68.5 -29.5q-43 0 -74 28z" />
    <glyph glyph-name="Ydieresis" unicode="&#x178;" horiz-adv-x="1360" 
d="M680 -24q-72 0 -123 51t-51 123v392l-408 628q-26 39 -26 94q0 62 49 111t115 49q97 0 156 -96l288 -464l288 464q59 96 156 96q66 0 115 -49t49 -111q0 -55 -26 -94l-408 -628v-392q0 -72 -51 -123t-123 -51zM344 1706q0 56 39.5 96t96.5 40t96.5 -40t39.5 -96
t-39.5 -96t-96.5 -40t-96.5 40t-39.5 96zM744 1706q0 56 39.5 96t96.5 40t96.5 -40t39.5 -96t-39.5 -96t-96.5 -40t-96.5 40t-39.5 96z" />
    <glyph glyph-name="Zacute" unicode="&#x179;" horiz-adv-x="1152" 
d="M948 0h-762q-53 0 -86.5 28.5t-33.5 71.5q0 45 30 102l478 886h-312q-66 0 -110 44t-44 110q0 69 44 113.5t110 44.5h680q53 0 86.5 -28.5t33.5 -71.5q0 -45 -30 -102l-472 -886h388q66 0 110 -44t44 -110q0 -69 -44 -113.5t-110 -44.5zM834 1810q0 -45 -42 -80
l-256 -206q-31 -24 -66 -24q-42 0 -71 29t-29 69q0 49 38 80l256 212q31 24 68 24q40 0 71 -31t31 -73z" />
    <glyph glyph-name="zacute" unicode="&#x17a;" horiz-adv-x="904" 
d="M90 158l294 526h-164q-52 0 -89 37t-37 89t37 89t89 37h510q39 0 62.5 -21.5t23.5 -52.5q0 -38 -26 -84l-292 -526h238q52 0 89 -37t37 -89t-37 -89t-89 -37h-586q-39 0 -62.5 21.5t-23.5 52.5q0 38 26 84zM706 1362q0 -45 -42 -80l-256 -206q-31 -24 -66 -24
q-42 0 -71 29t-29 69q0 49 38 80l256 212q31 24 68 24q40 0 71 -31t31 -73z" />
    <glyph glyph-name="Zdotaccent" unicode="&#x17b;" horiz-adv-x="1152" 
d="M948 0h-762q-53 0 -86.5 28.5t-33.5 71.5q0 45 30 102l478 886h-312q-66 0 -110 44t-44 110q0 69 44 113.5t110 44.5h680q53 0 86.5 -28.5t33.5 -71.5q0 -45 -30 -102l-472 -886h388q66 0 110 -44t44 -110q0 -69 -44 -113.5t-110 -44.5zM442 1706q0 56 39.5 96t96.5 40
t96.5 -40t39.5 -96t-39.5 -96t-96.5 -40t-96.5 40t-39.5 96z" />
    <glyph glyph-name="zdotaccent" unicode="&#x17c;" horiz-adv-x="904" 
d="M90 158l294 526h-164q-52 0 -89 37t-37 89t37 89t89 37h510q39 0 62.5 -21.5t23.5 -52.5q0 -38 -26 -84l-292 -526h238q52 0 89 -37t37 -89t-37 -89t-89 -37h-586q-39 0 -62.5 21.5t-23.5 52.5q0 38 26 84zM326 1258q0 56 39.5 96t96.5 40t96.5 -40t39.5 -96t-39.5 -96
t-96.5 -40t-96.5 40t-39.5 96z" />
    <glyph glyph-name="Zcaron" unicode="&#x17d;" horiz-adv-x="1152" 
d="M948 0h-762q-53 0 -86.5 28.5t-33.5 71.5q0 45 30 102l478 886h-312q-66 0 -110 44t-44 110q0 69 44 113.5t110 44.5h680q53 0 86.5 -28.5t33.5 -71.5q0 -45 -30 -102l-472 -886h388q66 0 110 -44t44 -110q0 -69 -44 -113.5t-110 -44.5zM574 1730l164 136q35 28 74 28
t68.5 -29.5t29.5 -68.5q0 -47 -44 -84l-254 -212q-19 -16 -38 -16t-38 16l-254 212q-44 37 -44 84q0 39 29.5 68.5t68.5 29.5t74 -28z" />
    <glyph glyph-name="zcaron" unicode="&#x17e;" horiz-adv-x="904" 
d="M90 158l294 526h-164q-52 0 -89 37t-37 89t37 89t89 37h510q39 0 62.5 -21.5t23.5 -52.5q0 -38 -26 -84l-292 -526h238q52 0 89 -37t37 -89t-37 -89t-89 -37h-586q-39 0 -62.5 21.5t-23.5 52.5q0 38 26 84zM460 1282l164 136q35 28 74 28t68.5 -29.5t29.5 -68.5
q0 -47 -44 -84l-254 -212q-19 -16 -38 -16t-38 16l-254 212q-44 37 -44 84q0 39 29.5 68.5t68.5 29.5t74 -28z" />
    <glyph glyph-name="longs" unicode="&#x17f;" horiz-adv-x="818" 
d="M202 936v180q0 189 100.5 297.5t275.5 108.5q77 0 150.5 -24.5t125.5 -69.5t52 -108q0 -56 -37.5 -94t-92.5 -38q-44 0 -86 28q-34 24 -76 24q-96 0 -96 -132v-974q0 -66 -46 -112t-112 -46t-112 46t-46 112v550h-44q-52 0 -89 37t-37 89t37 89t89 37h44z" />
    <glyph glyph-name="florin" unicode="&#x192;" horiz-adv-x="844" 
d="M544 684v-842q0 -189 -100.5 -297.5t-275.5 -108.5q-77 0 -150.5 24.5t-125.5 69.5t-52 108q0 56 37.5 94t92.5 38q44 0 86 -28q34 -24 76 -24q96 0 96 132v834h-44q-52 0 -89 37t-37 89t37 89t89 37h44v180q0 189 100.5 297.5t275.5 108.5q77 0 150.5 -24.5t125.5 -69.5
t52 -108q0 -56 -37.5 -94t-92.5 -38q-44 0 -86 28q-34 24 -76 24q-96 0 -96 -132v-172h144q52 0 89 -37t37 -89t-37 -89t-89 -37h-144z" />
    <glyph glyph-name="Ohorn" unicode="&#x1a0;" horiz-adv-x="1656" 
d="M1324 1540q0 44 30.5 73t73.5 29q36 0 63 -20.5t39 -55.5q22 -63 22 -132q0 -80 -37 -151.5t-105 -122.5q168 -197 168 -460q0 -123 -39 -236t-109 -201t-163 -153t-206 -99.5t-233 -34.5t-233 34.5t-206 99.5t-163 153t-109 201t-39 236t39 236t109 201t163 153
t206 99.5t233 34.5q135 0 260.5 -45t225.5 -127q54 40 54 112q0 64 -32 122q-12 24 -12 54zM426 700q0 -175 116.5 -293.5t285.5 -118.5t285.5 118.5t116.5 293.5t-116.5 293.5t-285.5 118.5t-285.5 -118.5t-116.5 -293.5z" />
    <glyph glyph-name="ohorn" unicode="&#x1a1;" horiz-adv-x="1188" 
d="M794 468q0 87 -61.5 145.5t-142.5 58.5t-142.5 -58.5t-61.5 -145.5t61.5 -145.5t142.5 -58.5t142.5 58.5t61.5 145.5zM1172 1030q0 -82 -40 -157t-114 -125q92 -124 92 -280q0 -135 -68.5 -248t-188 -178.5t-263.5 -65.5t-263.5 65.5t-188 178.5t-68.5 248t68.5 248
t188 178.5t263.5 65.5q193 0 340 -118q58 43 58 118q0 64 -32 122q-12 24 -12 54q0 44 30.5 73t73.5 29q36 0 63 -20.5t39 -55.5q22 -63 22 -132z" />
    <glyph glyph-name="Uhorn" unicode="&#x1af;" horiz-adv-x="1372" 
d="M1246 1490q0 64 -32 122q-10 20 -10 54q0 44 30.5 73t73.5 29q36 0 63 -20.5t39 -55.5q22 -63 22 -132q0 -100 -56.5 -184.5t-159.5 -131.5v-722q0 -126 -45 -230.5t-120.5 -172.5t-173 -105.5t-203.5 -37.5t-203.5 37.5t-173 105.5t-120.5 172.5t-45 230.5v728
q0 72 51 123t123 51t123 -51t51 -123v-738q0 -105 53 -164.5t141 -59.5t141 59.5t53 164.5v738q0 72 51 123t123 51q80 0 132 -62q72 47 72 128z" />
    <glyph glyph-name="uhorn" unicode="&#x1b0;" horiz-adv-x="1220" 
d="M1070 1036q0 64 -32 122q-10 20 -10 54q0 44 30.5 73t73.5 29q36 0 63 -20.5t39 -55.5q22 -63 22 -132q0 -100 -58 -188t-168 -134v-650q0 -66 -46 -112t-112 -46q-64 0 -108.5 43t-49.5 103q-43 -68 -116 -107t-166 -39q-135 0 -224.5 93.5t-89.5 248.5v484q0 66 46 112
t112 46t112 -46t46 -112v-406q0 -64 40.5 -106t99.5 -42q56 0 96 38t44 98v418q0 66 46 112t112 46q74 0 120 -56q78 50 78 132z" />
    <glyph glyph-name="Scommaaccent" unicode="&#x218;" horiz-adv-x="1126" 
d="M736 1084q-65 42 -124 42q-116 0 -116 -86q0 -45 43 -80.5t163 -83.5q176 -71 263 -185.5t87 -280.5q0 -196 -128 -315t-358 -119q-128 0 -248 43.5t-208 122.5q-50 44 -50 118q0 63 46.5 109.5t109.5 46.5q47 0 98 -40q104 -86 226 -86q75 0 119.5 35.5t44.5 92.5
q0 63 -40 105t-146 83q-195 76 -282.5 181t-87.5 263q0 159 116 266.5t306 107.5t336 -104q66 -47 66 -122q0 -59 -41 -101.5t-99 -42.5q-47 0 -96 30zM412 -454l52 224q10 44 40 71t74 27q48 0 82 -33t34 -81q0 -23 -8 -42l-88 -226q-11 -29 -36 -46.5t-56 -17.5
q-41 0 -69.5 28t-28.5 68q0 12 4 28z" />
    <glyph glyph-name="scommaaccent" unicode="&#x219;" horiz-adv-x="824" 
d="M96 74q-50 37 -50 94q0 50 33.5 85t82.5 35q40 0 78 -28q57 -44 116 -44q39 0 62.5 18.5t23.5 49.5q0 36 -20 59.5t-78 48.5q-240 101 -240 298q0 119 88 194.5t230 75.5q134 0 244 -70q52 -35 52 -96q0 -51 -32 -82.5t-80 -31.5q-28 0 -60 20q-33 20 -66 20
q-60 0 -60 -40q0 -22 22 -40t90 -48q226 -100 226 -304q0 -136 -92 -224t-258 -88q-188 0 -312 98zM254 -454l52 224q10 44 40 71t74 27q48 0 82 -33t34 -81q0 -23 -8 -42l-88 -226q-11 -29 -36 -46.5t-56 -17.5q-41 0 -69.5 28t-28.5 68q0 12 4 28z" />
    <glyph glyph-name="uni021A" unicode="&#x21a;" horiz-adv-x="1064" 
d="M358 1088h-176q-66 0 -110 44t-44 110q0 69 44 113.5t110 44.5h700q66 0 110 -44.5t44 -113.5q0 -66 -44 -110t-110 -44h-176v-938q0 -72 -51 -123t-123 -51t-123 51t-51 123v938zM356 -454l52 224q10 44 40 71t74 27q48 0 82 -33t34 -81q0 -23 -8 -42l-88 -226
q-11 -29 -36 -46.5t-56 -17.5q-41 0 -69.5 28t-28.5 68q0 12 4 28z" />
    <glyph glyph-name="uni021B" unicode="&#x21b;" horiz-adv-x="762" 
d="M202 134v550h-44q-52 0 -89 37t-37 89t37 89t89 37h44v130q0 66 46 112t112 46t112 -46t46 -112v-130h104q52 0 89 -37t37 -89t-37 -89t-89 -37h-104v-550q0 -66 -46 -112t-112 -46t-112 46t-46 112zM184 -454l52 224q10 44 40 71t74 27q48 0 82 -33t34 -81q0 -23 -8 -42
l-88 -226q-11 -29 -36 -46.5t-56 -17.5q-41 0 -69.5 28t-28.5 68q0 12 4 28z" />
    <glyph glyph-name="uni0237" unicode="&#x237;" horiz-adv-x="612" 
d="M-274 -348q0 61 38.5 100.5t97.5 39.5q55 0 98 -40q51 -44 102 -44q116 0 116 162v932q0 66 46 112t112 46t112 -46t46 -112v-936q0 -203 -110 -316.5t-306 -113.5q-187 0 -306 116q-46 46 -46 100z" />
    <glyph glyph-name="apostrophe" unicode="&#x2bc;" horiz-adv-x="836" 
d="M236 1118l66 290q10 44 46.5 73t85.5 29q57 0 98.5 -39.5t41.5 -96.5q0 -21 -10 -44l-118 -288q-12 -30 -41 -49t-65 -19q-45 0 -77.5 31.5t-32.5 76.5q0 15 6 36z" />
    <glyph glyph-name="circumflex" unicode="&#x2c6;" horiz-adv-x="836" 
d="M582 1134l-164 136l-164 -136q-35 -28 -74 -28t-68.5 29.5t-29.5 68.5q0 47 44 84l254 212q19 16 38 16t38 -16l254 -212q44 -37 44 -84q0 -39 -29.5 -68.5t-68.5 -29.5q-43 0 -74 28z" />
    <glyph glyph-name="caron" unicode="&#x2c7;" horiz-adv-x="836" 
d="M418 1322l164 136q35 28 74 28t68.5 -29.5t29.5 -68.5q0 -47 -44 -84l-254 -212q-19 -16 -38 -16t-38 16l-254 212q-44 37 -44 84q0 39 29.5 68.5t68.5 29.5t74 -28z" />
    <glyph glyph-name="uni02C9" unicode="&#x2c9;" horiz-adv-x="836" 
d="M110 1298q0 44 30 74t74 30h408q44 0 74 -30t30 -74t-30 -74t-74 -30h-408q-44 0 -74 30t-30 74z" />
    <glyph glyph-name="breve" unicode="&#x2d8;" horiz-adv-x="836" 
d="M418 1114q-94 0 -171 48.5t-113 133.5q-12 32 -12 58q0 42 27 71t69 29q75 0 110 -76q28 -62 90 -62t90 62q33 76 110 76q42 0 69 -29t27 -71q0 -26 -12 -58q-36 -85 -113 -133.5t-171 -48.5z" />
    <glyph glyph-name="dotaccent" unicode="&#x2d9;" horiz-adv-x="836" 
d="M282 1298q0 56 39.5 96t96.5 40t96.5 -40t39.5 -96t-39.5 -96t-96.5 -40t-96.5 40t-39.5 96z" />
    <glyph glyph-name="ring" unicode="&#x2da;" horiz-adv-x="836" 
d="M644 1298q0 -93 -66.5 -155.5t-159.5 -62.5t-159.5 62.5t-66.5 155.5t66.5 155.5t159.5 62.5t159.5 -62.5t66.5 -155.5zM496 1298q0 33 -22.5 55.5t-55.5 22.5t-55.5 -22.5t-22.5 -55.5t22.5 -55.5t55.5 -22.5t55.5 22.5t22.5 55.5z" />
    <glyph glyph-name="ogonek" unicode="&#x2db;" horiz-adv-x="836" 
d="M384 20h184q-62 -55 -96 -110.5t-34 -99.5q0 -34 20 -51t52 -17q8 0 20 2t18 2q37 0 62.5 -24.5t25.5 -59.5q0 -28 -15 -50.5t-41 -31.5q-51 -18 -120 -18q-100 0 -165 59t-65 145q0 144 154 254z" />
    <glyph glyph-name="tilde" unicode="&#x2dc;" horiz-adv-x="836" 
d="M550 1148q-78 0 -162 68q-47 38 -82 38q-30 0 -50 -42q-11 -24 -35.5 -40t-52.5 -16q-38 0 -65 27t-27 65q0 16 6 34q24 78 80 124t124 46q78 0 162 -68q48 -38 82 -38q30 0 50 42q11 24 35.5 40t52.5 16q38 0 65 -27t27 -65q0 -16 -6 -34q-24 -78 -80 -124t-124 -46z
" />
    <glyph glyph-name="hungarumlaut" unicode="&#x2dd;" horiz-adv-x="836" 
d="M440 1402q0 -45 -42 -80l-256 -206q-31 -24 -66 -24q-42 0 -71 29t-29 69q0 49 38 80l256 212q31 24 68 24q40 0 71 -31t31 -73zM860 1402q0 -45 -42 -80l-256 -206q-31 -24 -66 -24q-42 0 -71 29t-29 69q0 49 38 80l256 212q31 24 68 24q40 0 71 -31t31 -73z" />
    <glyph glyph-name="gravecomb" unicode="&#x300;" horiz-adv-x="0" 
d="M-790 1402q0 42 31 73t71 31q37 0 68 -24l256 -212q38 -31 38 -80q0 -40 -29 -69t-71 -29q-35 0 -66 24l-256 206q-42 35 -42 80z" />
    <glyph glyph-name="acutecomb" unicode="&#x301;" horiz-adv-x="0" 
d="M-216 1402q0 -45 -42 -80l-256 -206q-31 -24 -66 -24q-42 0 -71 29t-29 69q0 49 38 80l256 212q31 24 68 24q40 0 71 -31t31 -73z" />
    <glyph glyph-name="uni0302" unicode="&#x302;" horiz-adv-x="0" 
d="M-342 1134l-164 136l-164 -136q-35 -28 -74 -28t-68.5 29.5t-29.5 68.5q0 47 44 84l254 212q19 16 38 16t38 -16l254 -212q44 -37 44 -84q0 -39 -29.5 -68.5t-68.5 -29.5q-43 0 -74 28z" />
    <glyph glyph-name="tildecomb" unicode="&#x303;" horiz-adv-x="0" 
d="M-374 1148q-78 0 -162 68q-48 38 -82 38q-30 0 -50 -42q-11 -24 -35.5 -40t-52.5 -16q-38 0 -65 27t-27 65q0 16 6 34q24 78 80 124t124 46q78 0 162 -68q47 -38 82 -38q30 0 50 42q11 24 35.5 40t52.5 16q38 0 65 -27t27 -65q0 -16 -6 -34q-24 -78 -80 -124t-124 -46z
" />
    <glyph glyph-name="uni0304" unicode="&#x304;" horiz-adv-x="0" 
d="M-806 1298q0 44 30 74t74 30h408q44 0 74 -30t30 -74t-30 -74t-74 -30h-408q-44 0 -74 30t-30 74z" />
    <glyph glyph-name="uni0306" unicode="&#x306;" horiz-adv-x="0" 
d="M-504 1114q-94 0 -171 48.5t-113 133.5q-12 32 -12 58q0 42 27 71t69 29q75 0 110 -76q28 -62 90 -62t90 62q33 76 110 76q42 0 69 -29t27 -71q0 -26 -12 -58q-36 -85 -113 -133.5t-171 -48.5z" />
    <glyph glyph-name="uni0307" unicode="&#x307;" horiz-adv-x="0" 
d="M-630 1298q0 56 39.5 96t96.5 40t96.5 -40t39.5 -96t-39.5 -96t-96.5 -40t-96.5 40t-39.5 96z" />
    <glyph glyph-name="uni0308" unicode="&#x308;" horiz-adv-x="0" 
d="M-842 1298q0 56 39.5 96t96.5 40t96.5 -40t39.5 -96t-39.5 -96t-96.5 -40t-96.5 40t-39.5 96zM-442 1298q0 56 39.5 96t96.5 40t96.5 -40t39.5 -96t-39.5 -96t-96.5 -40t-96.5 40t-39.5 96z" />
    <glyph glyph-name="hookabovecomb" unicode="&#x309;" horiz-adv-x="0" 
d="M-710 1380q0 30 22 52q68 74 174 74q80 0 131 -46.5t51 -115.5q0 -105 -102 -146v-16q0 -34 -25 -59t-59 -25t-59 25t-25 59v34q0 35 34 44q31 7 49.5 23.5t18.5 36.5q0 40 -42 40q-28 0 -52 -24q-22 -22 -50 -22q-27 0 -46.5 19.5t-19.5 46.5z" />
    <glyph glyph-name="uni030A" unicode="&#x30a;" horiz-adv-x="0" 
d="M-276 1298q0 -93 -66.5 -155.5t-159.5 -62.5t-159.5 62.5t-66.5 155.5t66.5 155.5t159.5 62.5t159.5 -62.5t66.5 -155.5zM-424 1298q0 33 -22.5 55.5t-55.5 22.5t-55.5 -22.5t-22.5 -55.5t22.5 -55.5t55.5 -22.5t55.5 22.5t22.5 55.5z" />
    <glyph glyph-name="uni030C" unicode="&#x30c;" horiz-adv-x="0" 
d="M-506 1322l164 136q35 28 74 28t68.5 -29.5t29.5 -68.5q0 -47 -44 -84l-254 -212q-19 -16 -38 -16t-38 16l-254 212q-44 37 -44 84q0 39 29.5 68.5t68.5 29.5t74 -28z" />
    <glyph glyph-name="dotbelowcomb" unicode="&#x323;" horiz-adv-x="0" 
d="M-638 -450q0 56 39.5 96t96.5 40t96.5 -40t39.5 -96t-39.5 -96t-96.5 -40t-96.5 40t-39.5 96z" />
    <glyph glyph-name="uni03A9" unicode="&#x3a9;" horiz-adv-x="1624" 
d="M812 1424q157 0 292.5 -49t230 -133.5t148 -200t53.5 -245.5q0 -163 -78.5 -293t-209.5 -213h164q60 0 102 -43t42 -103t-42 -102t-102 -42h-354q-60 0 -102 42t-42 102v40q0 56 19.5 92t68.5 76q186 152 186 374q0 164 -110 275t-266 111t-266 -111t-110 -275
q0 -222 186 -374q49 -40 68.5 -76t19.5 -92v-40q0 -60 -42 -102t-102 -42h-354q-60 0 -102 42t-42 102t42 103t102 43h164q-131 83 -209.5 213t-78.5 293q0 130 53.5 245.5t148 200t230 133.5t292.5 49z" />
    <glyph glyph-name="pi" unicode="&#x3c0;" horiz-adv-x="1286" 
d="M160 122q0 29 14 64q92 234 92 498h-108q-52 0 -89 37t-37 89q0 51 37 88.5t89 37.5h946q52 0 89 -37.5t37 -88.5q0 -52 -37 -89t-89 -37h-122v-326q0 -116 74 -116q19 0 34 6q28 8 46 8q52 0 90 -38t38 -90q0 -37 -20 -68t-52 -46q-79 -38 -192 -38q-147 0 -234.5 99
t-87.5 243v366h-108q0 -342 -102 -594q-20 -50 -62 -82t-96 -32q-64 0 -107 40.5t-43 105.5z" />
    <glyph glyph-name="uni0400" unicode="&#x400;" horiz-adv-x="1024" 
d="M306 1400h482q66 0 110 -44.5t44 -113.5q0 -66 -44 -110t-110 -44h-308v-188h264q66 0 110 -44.5t44 -113.5q0 -66 -44 -110t-110 -44h-264v-276h326q66 0 110 -44.5t44 -113.5q0 -66 -44 -110t-110 -44h-500q-72 0 -123 51t-51 123v1052q0 72 51 123t123 51zM288 1800
q0 42 31 73t71 31q37 0 68 -24l256 -212q38 -31 38 -80q0 -40 -29 -69t-71 -29q-35 0 -66 24l-256 206q-42 35 -42 80z" />
    <glyph glyph-name="afii10023" unicode="&#x401;" horiz-adv-x="1024" 
d="M306 1400h482q66 0 110 -44.5t44 -113.5q0 -66 -44 -110t-110 -44h-308v-188h264q66 0 110 -44.5t44 -113.5q0 -66 -44 -110t-110 -44h-264v-276h326q66 0 110 -44.5t44 -113.5q0 -66 -44 -110t-110 -44h-500q-72 0 -123 51t-51 123v1052q0 72 51 123t123 51zM186 1706
q0 56 39.5 96t96.5 40t96.5 -40t39.5 -96t-39.5 -96t-96.5 -40t-96.5 40t-39.5 96zM586 1706q0 56 39.5 96t96.5 40t96.5 -40t39.5 -96t-39.5 -96t-96.5 -40t-96.5 40t-39.5 96z" />
    <glyph glyph-name="afii10051" unicode="&#x402;" horiz-adv-x="1364" 
d="M1320 446q0 -122 -55.5 -229.5t-155.5 -174t-219 -66.5q-67 0 -109.5 40.5t-42.5 101.5q0 50 29 87.5t77 56.5q53 21 89.5 70.5t36.5 101.5q0 64 -43 105t-109 41q-89 0 -156 -46v-384q0 -73 -51 -123.5t-125 -50.5t-124 50t-50 124v948h-140q-63 0 -106.5 43.5
t-43.5 106.5t43.5 107.5t106.5 44.5h674q63 0 106.5 -44.5t43.5 -107.5t-43.5 -106.5t-106.5 -43.5h-184v-294q106 66 242 66q173 0 294.5 -119.5t121.5 -304.5z" />
    <glyph glyph-name="afii10052" unicode="&#x403;" horiz-adv-x="946" 
d="M282 1400h488q62 0 106 -44t44 -106t-44 -106t-106 -44h-290v-950q0 -72 -51 -123t-123 -51t-123 51t-51 123v1100q0 62 44 106t106 44zM762 1800q0 -45 -42 -80l-256 -206q-31 -24 -66 -24q-42 0 -71 29t-29 69q0 49 38 80l256 212q31 24 68 24q40 0 71 -31t31 -73z" />
    <glyph glyph-name="afii10053" unicode="&#x404;" horiz-adv-x="1462" 
d="M78 700q0 155 60.5 291.5t161.5 230.5t236 148t282 54q153 0 287.5 -51t232.5 -141q64 -60 64 -132q0 -69 -46.5 -115.5t-115.5 -46.5q-70 0 -130 60q-117 114 -284 114q-126 0 -227 -71.5t-145 -188.5h472q63 0 107.5 -44.5t44.5 -107.5t-44.5 -107.5t-107.5 -44.5h-472
q44 -118 144.5 -189t227.5 -71q167 0 284 114q60 60 130 60q69 0 115.5 -46.5t46.5 -115.5q0 -72 -64 -132q-98 -90 -232.5 -141t-287.5 -51q-147 0 -282 54t-236 148t-161.5 230.5t-60.5 291.5z" />
    <glyph glyph-name="afii10054" unicode="&#x405;" horiz-adv-x="1126" 
d="M736 1084q-65 42 -124 42q-116 0 -116 -86q0 -45 43 -80.5t163 -83.5q176 -71 263 -185.5t87 -280.5q0 -196 -128 -315t-358 -119q-128 0 -248 43.5t-208 122.5q-50 44 -50 118q0 63 46.5 109.5t109.5 46.5q47 0 98 -40q104 -86 226 -86q75 0 119.5 35.5t44.5 92.5
q0 63 -40 105t-146 83q-195 76 -282.5 181t-87.5 263q0 159 116 266.5t306 107.5t336 -104q66 -47 66 -122q0 -59 -41 -101.5t-99 -42.5q-47 0 -96 30z" />
    <glyph glyph-name="afii10055" unicode="&#x406;" horiz-adv-x="644" 
d="M496 1250v-1100q0 -72 -51 -123t-123 -51t-123 51t-51 123v1100q0 72 51 123t123 51t123 -51t51 -123z" />
    <glyph glyph-name="afii10056" unicode="&#x407;" horiz-adv-x="644" 
d="M496 1250v-1100q0 -72 -51 -123t-123 -51t-123 51t-51 123v1100q0 72 51 123t123 51t123 -51t51 -123zM-14 1706q0 56 39.5 96t96.5 40t96.5 -40t39.5 -96t-39.5 -96t-96.5 -40t-96.5 40t-39.5 96zM386 1706q0 56 39.5 96t96.5 40t96.5 -40t39.5 -96t-39.5 -96t-96.5 -40
t-96.5 40t-39.5 96z" />
    <glyph glyph-name="afii10057" unicode="&#x408;" horiz-adv-x="1036" 
d="M0 276q0 67 45 107.5t109 40.5q77 0 136 -76q47 -60 124 -60q67 0 104.5 47.5t37.5 138.5v776q0 72 51 123t123 51t123 -51t51 -123v-790q0 -229 -126.5 -356.5t-341.5 -127.5q-121 0 -224 49t-174 139q-38 48 -38 112z" />
    <glyph glyph-name="afii10058" unicode="&#x409;" horiz-adv-x="1910" 
d="M258 658l46 570q6 73 55.5 122.5t120.5 49.5h624q72 0 123 -51t51 -123v-302h54q127 0 229.5 -36t169.5 -98.5t103 -146.5t36 -181t-36 -181t-103 -146.5t-169.5 -98.5t-229.5 -36h-228q-72 0 -123 51t-51 123v924h-286l-32 -398q-34 -432 -222 -660q-51 -64 -138 -64
q-69 0 -116.5 44t-47.5 114q0 55 30 102q120 182 140 422zM1278 632v-340h56q88 0 138 43.5t50 126.5t-50 126.5t-138 43.5h-56z" />
    <glyph glyph-name="afii10059" unicode="&#x40a;" horiz-adv-x="1834" 
d="M1202 632v-340h56q88 0 138 43.5t50 126.5t-50 126.5t-138 43.5h-56zM132 150v1100q0 72 51 123t123 51t123 -51t51 -123v-356h374v356q0 72 51 123t123 51t123 -51t51 -123v-326h54q127 0 229.5 -36t169.5 -98.5t103 -146.5t36 -181t-36 -181t-103 -146.5t-169.5 -98.5
t-229.5 -36h-228q-72 0 -123 51t-51 123v418h-374v-442q0 -72 -51 -123t-123 -51t-123 51t-51 123z" />
    <glyph glyph-name="afii10060" unicode="&#x40b;" horiz-adv-x="1364" 
d="M1290 442v-292q0 -73 -51 -123.5t-125 -50.5t-124 50t-50 124v254q0 81 -38.5 123.5t-107.5 42.5q-81 0 -132 -36v-384q0 -73 -51 -123.5t-125 -50.5t-124 50t-50 124v948h-140q-63 0 -106.5 43.5t-43.5 106.5t43.5 107.5t106.5 44.5h674q63 0 106.5 -44.5t43.5 -107.5
t-43.5 -106.5t-106.5 -43.5h-184v-292q104 64 240 64q175 0 281.5 -115t106.5 -313z" />
    <glyph glyph-name="afii10061" unicode="&#x40c;" horiz-adv-x="1330" 
d="M956 44l-476 612v-506q0 -72 -51 -123t-123 -51t-123 51t-51 123v1100q0 72 51 123t123 51t123 -51t51 -123v-474l448 582q50 66 130 66q68 0 116 -48t48 -116q0 -63 -46 -112l-356 -430l400 -472q36 -42 36 -104q0 -69 -48.5 -116.5t-117.5 -47.5q-84 0 -134 66z
M902 1800q0 -45 -42 -80l-256 -206q-31 -24 -66 -24q-42 0 -71 29t-29 69q0 49 38 80l256 212q31 24 68 24q40 0 71 -31t31 -73z" />
    <glyph glyph-name="uni040D" unicode="&#x40d;" horiz-adv-x="1466" 
d="M1120 1376l-640 -730v604q0 72 -51 123t-123 51t-123 -51t-51 -123v-1154q0 -56 29.5 -88t78.5 -32q64 0 106 48l640 730v-604q0 -72 51 -123t123 -51t123 51t51 123v1154q0 56 -29.5 88t-78.5 32q-64 0 -106 -48zM498 1800q0 42 31 73t71 31q37 0 68 -24l256 -212
q38 -31 38 -80q0 -40 -29 -69t-71 -29q-35 0 -66 24l-256 206q-42 35 -42 80z" />
    <glyph glyph-name="afii10062" unicode="&#x40e;" horiz-adv-x="1346" 
d="M72 1254q0 69 50 119.5t118 50.5q99 0 152 -94l282 -492l290 496q24 39 63.5 64.5t84.5 25.5q69 0 119.5 -50.5t50.5 -119.5q0 -44 -20 -78l-654 -1108q-25 -42 -65 -67t-87 -25q-64 0 -116 48t-52 120q0 45 20 76l178 294l-392 658q-22 38 -22 82zM672 1542
q-94 0 -171 48.5t-113 133.5q-12 32 -12 58q0 42 27 71t69 29q75 0 110 -76q28 -62 90 -62t90 62q33 76 110 76q42 0 69 -29t27 -71q0 -26 -12 -58q-36 -85 -113 -133.5t-171 -48.5z" />
    <glyph glyph-name="afii10145" unicode="&#x40f;" horiz-adv-x="1356" 
d="M504 -102v102h-198q-72 0 -123 51t-51 123v1076q0 72 51 123t123 51t123 -51t51 -123v-950h396v950q0 72 51 123t123 51t123 -51t51 -123v-1076q0 -72 -51 -123t-123 -51h-198v-102q0 -72 -51 -123t-123 -51t-123 51t-51 123z" />
    <glyph glyph-name="afii10017" unicode="&#x410;" horiz-adv-x="1368" 
d="M684 1424q85 0 124 -90l482 -1112q18 -43 18 -82q0 -69 -47.5 -116.5t-116.5 -47.5q-58 0 -101 32.5t-65 85.5l-50 124h-488l-50 -124q-22 -53 -65 -85.5t-101 -32.5q-69 0 -116.5 47.5t-47.5 116.5q0 39 18 82l482 1112q39 90 124 90zM684 820l-132 -326h264z" />
    <glyph glyph-name="afii10018" unicode="&#x411;" horiz-adv-x="1126" 
d="M480 632v-340h56q88 0 138 43.5t50 126.5t-50 126.5t-138 43.5h-56zM840 1122h-360v-198h54q127 0 229.5 -36t169.5 -98.5t103 -146.5t36 -181t-36 -181t-103 -146.5t-169.5 -98.5t-229.5 -36h-228q-72 0 -123 51t-51 123v1052q0 72 51 123t123 51h534q58 0 99 -41
t41 -99t-40.5 -98t-99.5 -40z" />
    <glyph glyph-name="afii10019" unicode="&#x412;" horiz-adv-x="1156" 
d="M480 602v-304h46q190 0 190 152t-190 152h-46zM480 1102v-224h58q67 0 102.5 29.5t35.5 82.5t-35.5 82.5t-102.5 29.5h-58zM306 1400h206q229 0 359.5 -104.5t130.5 -271.5q0 -177 -152 -278q115 -44 176.5 -133t61.5 -213q0 -177 -147 -288.5t-423 -111.5h-212
q-72 0 -123 51t-51 123v1052q0 72 51 123t123 51z" />
    <glyph glyph-name="afii10020" unicode="&#x413;" horiz-adv-x="946" 
d="M282 1400h488q62 0 106 -44t44 -106t-44 -106t-106 -44h-290v-950q0 -72 -51 -123t-123 -51t-123 51t-51 123v1100q0 62 44 106t106 44z" />
    <glyph glyph-name="afii10021" unicode="&#x414;" horiz-adv-x="1342" 
d="M466 300h368v800h-222q-16 -472 -146 -800zM126 300q166 390 176 924q2 73 52.5 124.5t121.5 51.5h522q72 0 123 -51t51 -123v-926q55 -17 89.5 -62.5t34.5 -103.5v-236q0 -72 -51 -123t-123 -51t-123 51t-51 123v102h-580v-102q0 -72 -51 -123t-123 -51t-123 51t-51 123
v242q0 53 29.5 96.5t76.5 63.5z" />
    <glyph glyph-name="afii10022" unicode="&#x415;" horiz-adv-x="1024" 
d="M306 1400h482q66 0 110 -44.5t44 -113.5q0 -66 -44 -110t-110 -44h-308v-188h264q66 0 110 -44.5t44 -113.5q0 -66 -44 -110t-110 -44h-264v-276h326q66 0 110 -44.5t44 -113.5q0 -66 -44 -110t-110 -44h-500q-72 0 -123 51t-51 123v1052q0 72 51 123t123 51z" />
    <glyph glyph-name="afii10024" unicode="&#x416;" horiz-adv-x="1992" 
d="M996 -24q-72 0 -123 51t-51 123v506l-444 -608q-52 -72 -140 -72q-68 0 -116 48t-48 116q0 59 32 100l364 478l-322 438q-36 48 -36 108q0 68 47 114t115 46q87 0 138 -72l410 -576v474q0 72 51 123t123 51t123 -51t51 -123v-474l410 576q51 72 138 72q68 0 115 -46
t47 -114q0 -60 -36 -108l-322 -438l364 -478q32 -41 32 -100q0 -68 -48 -116t-116 -48q-88 0 -140 72l-444 608v-506q0 -72 -51 -123t-123 -51z" />
    <glyph glyph-name="afii10025" unicode="&#x417;" horiz-adv-x="1128" 
d="M62 272q0 63 44.5 107.5t107.5 44.5q68 0 116 -54q82 -94 196 -94q77 0 129.5 49t52.5 119q0 78 -54 127t-144 49h-8q-57 0 -95.5 38.5t-38.5 95.5t38.5 96.5t91.5 39.5q64 0 107 38t43 94q0 52 -35 86t-91 34q-92 0 -156 -88q-40 -56 -114 -56q-57 0 -96.5 39.5
t-39.5 96.5q0 52 32 90q75 95 178.5 147.5t225.5 52.5q182 0 296 -103.5t114 -248.5q0 -87 -40.5 -157.5t-113.5 -116.5q113 -50 180.5 -146.5t67.5 -229.5q0 -189 -140.5 -317.5t-365.5 -128.5q-277 0 -446 190q-42 49 -42 106z" />
    <glyph glyph-name="afii10026" unicode="&#x418;" horiz-adv-x="1466" 
d="M480 646l640 730q42 48 106 48q49 0 78.5 -32t29.5 -88v-1154q0 -72 -51 -123t-123 -51t-123 51t-51 123v604l-640 -730q-42 -48 -106 -48q-49 0 -78.5 32t-29.5 88v1154q0 72 51 123t123 51t123 -51t51 -123v-604z" />
    <glyph glyph-name="afii10027" unicode="&#x419;" horiz-adv-x="1466" 
d="M1120 1376l-640 -730v604q0 72 -51 123t-123 51t-123 -51t-51 -123v-1154q0 -56 29.5 -88t78.5 -32q64 0 106 48l640 730v-604q0 -72 51 -123t123 -51t123 51t51 123v1154q0 56 -29.5 88t-78.5 32q-64 0 -106 -48zM732 1542q-94 0 -171 48.5t-113 133.5q-12 32 -12 58
q0 42 27 71t69 29q75 0 110 -76q28 -62 90 -62t90 62q33 76 110 76q42 0 69 -29t27 -71q0 -26 -12 -58q-36 -85 -113 -133.5t-171 -48.5z" />
    <glyph glyph-name="afii10028" unicode="&#x41a;" horiz-adv-x="1330" 
d="M956 44l-476 612v-506q0 -72 -51 -123t-123 -51t-123 51t-51 123v1100q0 72 51 123t123 51t123 -51t51 -123v-474l448 582q50 66 130 66q68 0 116 -48t48 -116q0 -63 -46 -112l-356 -430l400 -472q36 -42 36 -104q0 -69 -48.5 -116.5t-117.5 -47.5q-84 0 -134 66z" />
    <glyph glyph-name="afii10029" unicode="&#x41b;" horiz-adv-x="1454" 
d="M644 1098l-32 -398q-34 -432 -222 -660q-51 -64 -138 -64q-69 0 -116.5 44t-47.5 114q0 55 30 102q120 182 140 422l46 570q6 73 55.5 122.5t120.5 49.5h668q72 0 123 -51t51 -123v-1076q0 -72 -51 -123t-123 -51t-123 51t-51 123v948h-330z" />
    <glyph glyph-name="afii10030" unicode="&#x41c;" horiz-adv-x="1968" 
d="M984 -24q-87 0 -124 90l-262 640l-172 -606q-16 -56 -62.5 -90t-107.5 -34q-73 0 -122.5 50t-49.5 124q0 37 14 82l336 1108q11 38 43 61t75 23q86 0 120 -84l312 -768l312 768q34 84 120 84q43 0 75 -23t43 -61l336 -1108q14 -45 14 -82q0 -74 -49.5 -124t-122.5 -50
q-61 0 -107.5 34t-62.5 90l-172 606l-262 -640q-37 -90 -124 -90z" />
    <glyph glyph-name="afii10031" unicode="&#x41d;" horiz-adv-x="1356" 
d="M876 894v356q0 72 51 123t123 51t123 -51t51 -123v-1100q0 -72 -51 -123t-123 -51t-123 51t-51 123v432h-396v-432q0 -72 -51 -123t-123 -51t-123 51t-51 123v1100q0 72 51 123t123 51t123 -51t51 -123v-356h396z" />
    <glyph glyph-name="afii10032" unicode="&#x41e;" horiz-adv-x="1656" 
d="M1578 700q0 -123 -39 -236t-109 -201t-163 -153t-206 -99.5t-233 -34.5t-233 34.5t-206 99.5t-163 153t-109 201t-39 236t39 236t109 201t163 153t206 99.5t233 34.5t233 -34.5t206 -99.5t163 -153t109 -201t39 -236zM426 700q0 -175 116.5 -293.5t285.5 -118.5
t285.5 118.5t116.5 293.5t-116.5 293.5t-285.5 118.5t-285.5 -118.5t-116.5 -293.5z" />
    <glyph glyph-name="afii10033" unicode="&#x41f;" horiz-adv-x="1356" 
d="M306 1400h744q72 0 123 -51t51 -123v-1076q0 -72 -51 -123t-123 -51t-123 51t-51 123v950h-396v-950q0 -72 -51 -123t-123 -51t-123 51t-51 123v1076q0 72 51 123t123 51z" />
    <glyph glyph-name="afii10034" unicode="&#x420;" horiz-adv-x="1132" 
d="M480 1098v-320h56q89 0 138.5 40.5t49.5 119.5t-49.5 119.5t-138.5 40.5h-56zM306 1400h228q127 0 229.5 -36t169.5 -98.5t103 -146.5t36 -181t-36 -181t-103 -146.5t-169.5 -98.5t-229.5 -36h-54v-326q0 -72 -51 -123t-123 -51t-123 51t-51 123v1076q0 72 51 123t123 51
z" />
    <glyph glyph-name="afii10035" unicode="&#x421;" horiz-adv-x="1462" 
d="M78 700q0 155 60.5 291.5t161.5 230.5t236 148t282 54q153 0 287.5 -51t232.5 -141q64 -60 64 -132q0 -69 -46.5 -115.5t-115.5 -46.5q-70 0 -130 60q-117 114 -284 114q-166 0 -283 -119t-117 -293t117 -293t283 -119q167 0 284 114q60 60 130 60q69 0 115.5 -46.5
t46.5 -115.5q0 -72 -64 -132q-98 -90 -232.5 -141t-287.5 -51q-147 0 -282 54t-236 148t-161.5 230.5t-60.5 291.5z" />
    <glyph glyph-name="afii10036" unicode="&#x422;" horiz-adv-x="1064" 
d="M358 1088h-176q-66 0 -110 44t-44 110q0 69 44 113.5t110 44.5h700q66 0 110 -44.5t44 -113.5q0 -66 -44 -110t-110 -44h-176v-938q0 -72 -51 -123t-123 -51t-123 51t-51 123v938z" />
    <glyph glyph-name="afii10037" unicode="&#x423;" horiz-adv-x="1346" 
d="M72 1254q0 69 50 119.5t118 50.5q99 0 152 -94l282 -492l290 496q24 39 63.5 64.5t84.5 25.5q69 0 119.5 -50.5t50.5 -119.5q0 -44 -20 -78l-654 -1108q-25 -42 -65 -67t-87 -25q-64 0 -116 48t-52 120q0 45 20 76l178 294l-392 658q-22 38 -22 82z" />
    <glyph glyph-name="afii10038" unicode="&#x424;" horiz-adv-x="1790" 
d="M720 444v512h-50q-115 0 -190.5 -69.5t-75.5 -186.5t75.5 -186.5t190.5 -69.5h50zM720 154h-44q-125 0 -236.5 39.5t-193.5 109.5t-130 173t-48 224t48 224t130 173t193.5 109.5t236.5 39.5h44q0 75 50.5 126.5t123.5 51.5q74 0 125 -51t51 -125l44 2q170 -8 306.5 -74.5
t219 -191t82.5 -284.5q0 -121 -48 -224t-130 -173t-193.5 -109.5t-236.5 -39.5h-44q0 -75 -51 -126.5t-125 -51.5q-73 0 -123.5 51.5t-50.5 126.5zM1070 956v-512h50q115 0 190.5 69.5t75.5 186.5t-75.5 186.5t-190.5 69.5h-50z" />
    <glyph glyph-name="afii10039" unicode="&#x425;" horiz-adv-x="1344" 
d="M964 42l-292 420l-292 -420q-45 -66 -136 -66q-72 0 -120 48t-48 120q0 58 32 102l342 482l-298 428q-34 48 -34 104q0 69 48.5 116.5t119.5 47.5q41 0 77.5 -19t58.5 -51l250 -362l250 362q22 32 58.5 51t77.5 19q71 0 119.5 -47.5t48.5 -116.5q0 -56 -34 -104
l-298 -428l342 -482q32 -44 32 -102q0 -72 -48 -120t-120 -48q-91 0 -136 66z" />
    <glyph glyph-name="afii10040" unicode="&#x426;" horiz-adv-x="1394" 
d="M1348 126v-228q0 -72 -51 -123t-123 -51t-123 51t-51 123v102h-694q-72 0 -123 51t-51 123v1076q0 72 51 123t123 51t123 -51t51 -123v-950h396v950q0 72 51 123t123 51t123 -51t51 -123v-956q58 -20 91 -63.5t33 -104.5z" />
    <glyph glyph-name="afii10041" unicode="&#x427;" horiz-adv-x="1228" 
d="M748 150v440q-96 -62 -240 -62q-170 0 -285 114t-115 314v294q0 72 51 123t123 51t123 -51t51 -123v-196q0 -114 41.5 -169t128.5 -55q75 0 122 28v392q0 72 51 123t123 51t123 -51t51 -123v-1100q0 -72 -51 -123t-123 -51t-123 51t-51 123z" />
    <glyph glyph-name="afii10042" unicode="&#x428;" horiz-adv-x="1940" 
d="M1460 300v950q0 72 51 123t123 51t123 -51t51 -123v-1076q0 -72 -51 -123t-123 -51h-1328q-72 0 -123 51t-51 123v1076q0 72 51 123t123 51t123 -51t51 -123v-950h316v950q0 72 51 123t123 51t123 -51t51 -123v-950h316z" />
    <glyph glyph-name="afii10043" unicode="&#x429;" horiz-adv-x="1978" 
d="M1584 0h-1278q-72 0 -123 51t-51 123v1076q0 72 51 123t123 51t123 -51t51 -123v-950h316v950q0 72 51 123t123 51t123 -51t51 -123v-950h316v950q0 72 51 123t123 51t123 -51t51 -123v-956q58 -20 91 -63.5t33 -104.5v-228q0 -72 -51 -123t-123 -51t-123 51t-51 123v102
z" />
    <glyph glyph-name="afii10044" unicode="&#x42a;" horiz-adv-x="1298" 
d="M666 632v-340h56q88 0 138 43.5t50 126.5t-50 126.5t-138 43.5h-56zM166 1400h326q72 0 123 -51t51 -123v-302h54q127 0 229.5 -36t169.5 -98.5t103 -146.5t36 -181t-36 -181t-103 -146.5t-169.5 -98.5t-229.5 -36h-228q-72 0 -123 51t-51 123v924h-152
q-63 0 -106.5 43.5t-43.5 106.5t43.5 107.5t106.5 44.5z" />
    <glyph glyph-name="afii10045" unicode="&#x42b;" horiz-adv-x="1718" 
d="M480 1250v-326h54q127 0 229.5 -36t169.5 -98.5t103 -146.5t36 -181t-36 -181t-103 -146.5t-169.5 -98.5t-229.5 -36h-228q-72 0 -123 51t-51 123v1076q0 72 51 123t123 51t123 -51t51 -123zM480 632v-340h56q88 0 138 43.5t50 126.5t-50 126.5t-138 43.5h-56zM1574 1250
v-1100q0 -72 -51 -123t-123 -51t-123 51t-51 123v1100q0 72 51 123t123 51t123 -51t51 -123z" />
    <glyph glyph-name="afii10046" unicode="&#x42c;" horiz-adv-x="1112" 
d="M480 1250v-326h54q127 0 229.5 -36t169.5 -98.5t103 -146.5t36 -181t-36 -181t-103 -146.5t-169.5 -98.5t-229.5 -36h-228q-72 0 -123 51t-51 123v1076q0 72 51 123t123 51t123 -51t51 -123zM480 632v-340h56q88 0 138 43.5t50 126.5t-50 126.5t-138 43.5h-56z" />
    <glyph glyph-name="afii10047" unicode="&#x42d;" horiz-adv-x="1462" 
d="M1384 700q0 -155 -60.5 -291.5t-161.5 -230.5t-236 -148t-282 -54q-152 0 -286.5 51.5t-232.5 141.5q-65 58 -65 131q0 69 46.5 115.5t115.5 46.5q68 0 131 -59q118 -115 283 -115q127 0 227.5 71t144.5 189h-472q-63 0 -107.5 44.5t-44.5 107.5t44.5 107.5t107.5 44.5
h472q-44 117 -145 188.5t-227 71.5q-165 0 -283 -115q-63 -59 -131 -59q-69 0 -115.5 46.5t-46.5 115.5q0 73 65 131q98 90 232.5 141.5t286.5 51.5q147 0 282 -54t236 -148t161.5 -230.5t60.5 -291.5z" />
    <glyph glyph-name="afii10048" unicode="&#x42e;" horiz-adv-x="2212" 
d="M480 1250v-394h170q36 165 143.5 295t262 201.5t328.5 71.5q120 0 233 -34.5t206 -99.5t163 -153t109 -201t39 -236t-39 -236t-109 -201t-163 -153t-206 -99.5t-233 -34.5q-175 0 -329 71t-261.5 201t-143.5 296h-170v-394q0 -72 -51 -123t-123 -51t-123 51t-51 123v1100
q0 72 51 123t123 51t123 -51t51 -123zM982 700q0 -175 116.5 -293.5t285.5 -118.5t285.5 118.5t116.5 293.5t-116.5 293.5t-285.5 118.5t-285.5 -118.5t-116.5 -293.5z" />
    <glyph glyph-name="afii10049" unicode="&#x42f;" horiz-adv-x="1220" 
d="M656 1400h258q72 0 123 -51t51 -123v-1076q0 -72 -51 -123t-123 -51t-123 51t-51 123v384l-334 -488q-47 -70 -132 -70q-70 0 -116 42t-46 110q0 50 32 96l244 338q-106 52 -169 149t-63 227q0 209 138 335.5t362 126.5zM740 768v340h-48q-88 0 -138 -43.5t-50 -126.5
t50 -126.5t138 -43.5h48z" />
    <glyph glyph-name="afii10065" unicode="&#x430;" horiz-adv-x="1284" 
d="M1166 802v-668q0 -66 -46 -112t-112 -46q-64 0 -108.5 42t-49.5 104q-45 -63 -127.5 -104.5t-182.5 -41.5q-128 0 -235 64.5t-169 177.5t-62 250t62 250t169 177.5t235 64.5q100 0 182.5 -41.5t127.5 -104.5q5 62 49.5 104t108.5 42q66 0 112 -46t46 -112zM838 468
q0 93 -64 156.5t-156 63.5t-156 -63.5t-64 -156.5t64 -156.5t156 -63.5t156 63.5t64 156.5z" />
    <glyph glyph-name="afii10066" unicode="&#x431;" horiz-adv-x="1206" 
d="M1136 468q0 -207 -149 -349.5t-371 -142.5q-233 0 -379.5 157.5t-146.5 436.5q0 204 38 358t123 273t227.5 191t345.5 96q7 1 20 1q59 0 97.5 -41.5t38.5 -97.5t-38.5 -95.5t-95.5 -40.5q-193 -32 -283 -117t-99 -223q36 30 94 48t122 18q195 0 325.5 -138t130.5 -334z
M820 468q0 87 -61.5 145.5t-142.5 58.5t-142.5 -58.5t-61.5 -145.5t61.5 -145.5t142.5 -58.5t142.5 58.5t61.5 145.5z" />
    <glyph glyph-name="afii10067" unicode="&#x432;" horiz-adv-x="1002" 
d="M416 216h130q51 0 81.5 23t30.5 65q0 41 -30.5 63.5t-81.5 22.5h-130v-174zM608 652q0 32 -23.5 50t-62.5 18h-106v-138h106q39 0 62.5 18t23.5 52zM276 936h288q147 0 231.5 -72t84.5 -168q0 -124 -108 -184q82 -26 132 -87.5t50 -146.5q0 -125 -93 -201.5t-249 -76.5
h-336q-66 0 -112 46t-46 112v620q0 66 46 112t112 46z" />
    <glyph glyph-name="afii10068" unicode="&#x433;" horiz-adv-x="812" 
d="M654 684h-220v-550q0 -66 -46 -112t-112 -46t-112 46t-46 112v644q0 66 46 112t112 46h378q52 0 89 -37t37 -89t-37 -89t-89 -37z" />
    <glyph glyph-name="afii10069" unicode="&#x434;" horiz-adv-x="1100" 
d="M418 232h240v472h-126q-13 -252 -114 -472zM24 -78v174q0 46 22 83t62 53q123 232 137 540q4 71 49.5 117.5t111.5 46.5h390q66 0 112 -46t46 -112v-546q49 -16 76.5 -55.5t27.5 -88.5v-166q0 -66 -46 -112t-112 -46t-112 46t-46 112v78h-402v-78q0 -66 -46 -112
t-112 -46t-112 46t-46 112z" />
    <glyph glyph-name="afii10070" unicode="&#x435;" horiz-adv-x="1160" 
d="M1090 524q1 -7 1 -19q0 -54 -35.5 -86.5t-91.5 -32.5h-562q20 -66 73 -104t137 -38q99 0 172 54q46 34 94 34q61 0 100.5 -39t39.5 -97q0 -67 -60 -114q-133 -106 -350 -106q-239 0 -388.5 138.5t-149.5 353.5q0 137 69 250t187.5 177.5t259.5 64.5q128 0 238.5 -56
t180.5 -156t85 -224zM404 590h384q-20 54 -71.5 88t-120.5 34t-120.5 -34t-71.5 -88z" />
    <glyph glyph-name="afii10072" unicode="&#x436;" horiz-adv-x="1716" 
d="M858 -24q-66 0 -112 46t-46 112v272l-330 -378q-46 -52 -112 -52q-60 0 -100 40t-40 100q0 56 52 112l244 264l-222 232q-34 37 -34 94q0 60 40 101t100 41q66 0 110 -50l292 -332v224q0 66 46 112t112 46t112 -46t46 -112v-224l292 332q44 50 110 50q60 0 100 -41
t40 -101q0 -57 -34 -94l-222 -232l244 -264q52 -56 52 -112q0 -60 -40 -100t-100 -40q-66 0 -112 52l-330 378v-272q0 -66 -46 -112t-112 -46z" />
    <glyph glyph-name="afii10073" unicode="&#x437;" horiz-adv-x="894" 
d="M86 754q0 46 35 81q58 59 141.5 92t177.5 33q155 0 248.5 -73.5t93.5 -170.5q0 -128 -104 -186q77 -32 120.5 -98.5t43.5 -155.5q0 -124 -112 -212t-290 -88q-106 0 -201 34t-157 94q-40 40 -40 90q0 52 36.5 89t87.5 37q56 0 104 -48q63 -66 142 -66q47 0 81.5 24.5
t34.5 61.5q0 46 -34.5 73t-103.5 27h-14q-44 0 -74 30t-30 74t30.5 75t73.5 31h4q52 0 81 19.5t29 54.5q0 27 -23 46.5t-63 19.5q-67 0 -116 -56q-34 -44 -90 -44q-46 0 -79 33t-33 79z" />
    <glyph glyph-name="afii10074" unicode="&#x438;" horiz-adv-x="1172" 
d="M748 452l-470 -450q-26 -26 -66 -26t-67 27t-27 67v736q0 65 44 109.5t108 44.5t109 -45t45 -109v-322l470 450q26 26 66 26t67 -27t27 -67v-736q0 -64 -45 -109t-109 -45t-108 44.5t-44 109.5v322z" />
    <glyph glyph-name="afii10075" unicode="&#x439;" horiz-adv-x="1172" 
d="M748 452l-470 -450q-26 -26 -66 -26t-67 27t-27 67v736q0 65 44 109.5t108 44.5t109 -45t45 -109v-322l470 450q26 26 66 26t67 -27t27 -67v-736q0 -64 -45 -109t-109 -45t-108 44.5t-44 109.5v322zM586 1094q-94 0 -171 48.5t-113 133.5q-12 32 -12 58q0 42 27 71t69 29
q75 0 110 -76q28 -62 90 -62t90 62q33 76 110 76q42 0 69 -29t27 -71q0 -26 -12 -58q-36 -85 -113 -133.5t-171 -48.5z" />
    <glyph glyph-name="afii10076" unicode="&#x43a;" horiz-adv-x="1162" 
d="M118 134v668q0 66 46 112t112 46t112 -46t46 -112v-224l364 338q47 44 104 44q60 0 101 -41t41 -101q0 -57 -38 -98l-248 -228l278 -274q40 -40 40 -100t-41 -101t-101 -41q-64 0 -110 46l-390 384v-272q0 -66 -46 -112t-112 -46t-112 46t-46 112z" />
    <glyph glyph-name="afii10077" unicode="&#x43b;" horiz-adv-x="1178" 
d="M76 134q0 44 26 88q75 127 86 254l26 310q6 67 49.5 108.5t108.5 41.5h530q66 0 112 -46t46 -112v-644q0 -66 -46 -112t-112 -46t-112 46t-46 112v554h-212l-22 -228q-11 -109 -47 -218.5t-91 -187.5q-54 -78 -138 -78q-66 0 -112 46t-46 112z" />
    <glyph glyph-name="afii10078" unicode="&#x43c;" horiz-adv-x="1440" 
d="M496 910l224 -466l224 466q11 22 32 36t46 14q56 0 78 -60l272 -728q8 -21 8 -52q0 -60 -42 -102t-102 -42q-50 0 -87 28.5t-53 75.5l-118 338l-182 -394q-10 -21 -31 -34.5t-45 -13.5t-45 13.5t-31 34.5l-182 394l-118 -338q-16 -47 -53 -75.5t-87 -28.5q-60 0 -102 42
t-42 102q0 31 8 52l272 728q22 60 78 60q25 0 46 -14t32 -36z" />
    <glyph glyph-name="afii10079" unicode="&#x43d;" horiz-adv-x="1140" 
d="M1022 802v-668q0 -66 -46 -112t-112 -46t-112 46t-46 112v238h-272v-238q0 -66 -46 -112t-112 -46t-112 46t-46 112v668q0 66 46 112t112 46t112 -46t46 -112v-178h272v178q0 66 46 112t112 46t112 -46t46 -112z" />
    <glyph glyph-name="afii10080" unicode="&#x43e;" horiz-adv-x="1180" 
d="M1110 468q0 -135 -68.5 -248t-188 -178.5t-263.5 -65.5t-263.5 65.5t-188 178.5t-68.5 248t68.5 248t188 178.5t263.5 65.5t263.5 -65.5t188 -178.5t68.5 -248zM794 468q0 87 -61.5 145.5t-142.5 58.5t-142.5 -58.5t-61.5 -145.5t61.5 -145.5t142.5 -58.5t142.5 58.5
t61.5 145.5z" />
    <glyph glyph-name="afii10081" unicode="&#x43f;" horiz-adv-x="1140" 
d="M276 936h588q66 0 112 -46t46 -112v-644q0 -66 -46 -112t-112 -46t-112 46t-46 112v550h-272v-550q0 -66 -46 -112t-112 -46t-112 46t-46 112v644q0 66 46 112t112 46z" />
    <glyph glyph-name="afii10082" unicode="&#x440;" horiz-adv-x="1284" 
d="M118 -427v1229q0 66 46 112t112 46q64 0 108.5 -42t49.5 -104q45 63 127.5 104.5t182.5 41.5q128 0 235 -64.5t169 -177.5t62 -250t-62 -250t-169 -177.5t-235 -64.5q-100 0 -182.5 41.5t-127.5 104.5v-549q0 -66 -46 -112t-112 -46t-112 46t-46 112zM446 468
q0 -93 64 -156.5t156 -63.5t156 63.5t64 156.5t-64 156.5t-156 63.5t-156 -63.5t-64 -156.5z" />
    <glyph glyph-name="afii10083" unicode="&#x441;" horiz-adv-x="1032" 
d="M70 468q0 135 69.5 248.5t187.5 178.5t255 65q82 0 166 -26t148 -72q72 -52 72 -132q0 -60 -43.5 -103t-106.5 -43q-50 0 -98 38q-62 50 -136 50q-79 0 -138.5 -57.5t-59.5 -146.5t59.5 -146.5t138.5 -57.5q74 0 136 50q48 38 98 38q63 0 106.5 -43t43.5 -103
q0 -80 -72 -132q-64 -46 -148 -72t-166 -26q-137 0 -255 65t-187.5 178.5t-69.5 248.5z" />
    <glyph glyph-name="afii10084" unicode="&#x442;" horiz-adv-x="936" 
d="M778 684h-152v-550q0 -66 -46 -112t-112 -46t-112 46t-46 112v550h-152q-52 0 -89 37t-37 89t37 89t89 37h620q52 0 89 -37t37 -89t-37 -89t-89 -37z" />
    <glyph glyph-name="afii10085" unicode="&#x443;" horiz-adv-x="1086" 
d="M990 750l-458 -1238q-17 -44 -57.5 -72t-90.5 -28q-63 0 -108.5 46t-45.5 106q0 28 16 68l152 396l-302 722q-12 27 -12 62q0 63 43.5 105.5t106.5 42.5q54 0 92 -27.5t54 -72.5l164 -456l154 450q16 49 55 77.5t97 28.5q63 0 107.5 -42.5t44.5 -105.5q0 -26 -12 -62z
" />
    <glyph glyph-name="afii10086" unicode="&#x444;" horiz-adv-x="2016" 
d="M1178 468q0 -93 64 -156.5t156 -63.5t156 63.5t64 156.5t-64 156.5t-156 63.5t-156 -63.5t-64 -156.5zM838 468q0 93 -64 156.5t-156 63.5t-156 -63.5t-64 -156.5t64 -156.5t156 -63.5t156 63.5t64 156.5zM850 -428v540q-48 -60 -131.5 -98t-178.5 -38q-128 0 -235 64.5
t-169 177.5t-62 250t62 250t169 177.5t235 64.5q95 0 178.5 -38t131.5 -98v542q0 66 46 112t112 46t112 -46t46 -112v-542q48 60 131.5 98t178.5 38q128 0 235 -64.5t169 -177.5t62 -250t-62 -250t-169 -177.5t-235 -64.5q-95 0 -178.5 38t-131.5 98v-540q0 -66 -46 -112
t-112 -46t-112 46t-46 112z" />
    <glyph glyph-name="afii10087" unicode="&#x445;" horiz-adv-x="1040" 
d="M520 282l-184 -246q-20 -27 -51 -43.5t-65 -16.5q-58 0 -101 43t-43 101q0 47 30 86l208 278l-182 242q-32 43 -32 90q0 59 43.5 101.5t102.5 42.5q75 0 118 -60l156 -214l156 214q43 60 118 60q59 0 102.5 -42.5t43.5 -101.5q0 -47 -32 -90l-182 -242l208 -278
q30 -39 30 -86q0 -58 -43 -101t-101 -43q-34 0 -65 16.5t-51 43.5z" />
    <glyph glyph-name="afii10088" unicode="&#x446;" horiz-adv-x="1168" 
d="M810 -78v78h-534q-66 0 -112 46t-46 112v644q0 66 46 112t112 46t112 -46t46 -112v-550h272v550q0 66 46 112t112 46t112 -46t46 -112v-558q104 -44 104 -152v-170q0 -66 -46 -112t-112 -46t-112 46t-46 112z" />
    <glyph glyph-name="afii10089" unicode="&#x447;" horiz-adv-x="1106" 
d="M672 134v158q-83 -50 -208 -50q-74 0 -139.5 25t-116.5 72t-80.5 122t-29.5 169v172q0 66 46 112t112 46t112 -46t46 -112v-124q0 -96 38 -141t116 -45q63 0 104 22v288q0 66 46 112t112 46t112 -46t46 -112v-668q0 -66 -46 -112t-112 -46t-112 46t-46 112z" />
    <glyph glyph-name="afii10090" unicode="&#x448;" horiz-adv-x="1640" 
d="M1364 0h-1088q-66 0 -112 46t-46 112v644q0 66 46 112t112 46t112 -46t46 -112v-550h228v550q0 66 46 112t112 46t112 -46t46 -112v-550h228v550q0 66 46 112t112 46t112 -46t46 -112v-644q0 -66 -46 -112t-112 -46z" />
    <glyph glyph-name="afii10091" unicode="&#x449;" horiz-adv-x="1668" 
d="M1522 802v-558q104 -44 104 -152v-170q0 -66 -46 -112t-112 -46t-112 46t-46 112v78h-1034q-66 0 -112 46t-46 112v644q0 66 46 112t112 46t112 -46t46 -112v-550h228v550q0 66 46 112t112 46t112 -46t46 -112v-550h228v550q0 66 46 112t112 46t112 -46t46 -112z" />
    <glyph glyph-name="afii10092" unicode="&#x44a;" horiz-adv-x="1132" 
d="M264 684h-112q-52 0 -89 37t-37 89q0 51 37 88.5t89 37.5h266q64 0 109 -45t45 -109v-104h118q187 0 296.5 -95.5t109.5 -244.5q0 -147 -113 -242.5t-293 -95.5h-268q-66 0 -112 46t-46 112v526zM572 232h94q57 0 89.5 29t32.5 77q0 50 -32.5 79t-89.5 29h-94v-214z" />
    <glyph glyph-name="afii10093" unicode="&#x44b;" horiz-adv-x="1500" 
d="M426 232h94q57 0 89.5 29t32.5 77q0 50 -32.5 79t-89.5 29h-94v-214zM426 806v-128h118q187 0 296.5 -95.5t109.5 -244.5q0 -147 -113 -242.5t-293 -95.5h-268q-66 0 -112 46t-46 112v648q0 64 45 109t109 45t109 -45t45 -109zM1066 134v668q0 66 46 112t112 46t112 -46
t46 -112v-668q0 -66 -46 -112t-112 -46t-112 46t-46 112z" />
    <glyph glyph-name="afii10094" unicode="&#x44c;" horiz-adv-x="986" 
d="M426 232h94q57 0 89.5 29t32.5 77q0 50 -32.5 79t-89.5 29h-94v-214zM426 806v-128h118q187 0 296.5 -95.5t109.5 -244.5q0 -147 -113 -242.5t-293 -95.5h-268q-66 0 -112 46t-46 112v648q0 64 45 109t109 45t109 -45t45 -109z" />
    <glyph glyph-name="afii10095" unicode="&#x44d;" horiz-adv-x="1030" 
d="M960 468q0 -135 -69 -248.5t-186.5 -178.5t-254.5 -65q-92 0 -182 31t-158 85q-52 42 -52 104q0 53 39.5 91.5t92.5 38.5q45 0 98 -40q68 -52 156 -52q72 0 124.5 31.5t79.5 90.5h-258q-46 0 -79 33t-33 79t33 79t79 33h258q-27 59 -79.5 90.5t-124.5 31.5
q-88 0 -156 -52q-53 -40 -98 -40q-53 0 -92.5 38.5t-39.5 91.5q0 62 52 104q68 54 158 85t182 31q137 0 254.5 -65t186.5 -178.5t69 -248.5z" />
    <glyph glyph-name="afii10096" unicode="&#x44e;" horiz-adv-x="1636" 
d="M118 134v668q0 66 46 112t112 46t112 -46t46 -112v-212h108q43 163 181.5 266.5t322.5 103.5q144 0 263.5 -65.5t188 -178.5t68.5 -248t-68.5 -248t-188 -178.5t-263.5 -65.5q-183 0 -322.5 103t-181.5 265h-108v-210q0 -66 -46 -112t-112 -46t-112 46t-46 112zM1250 468
q0 87 -61.5 145.5t-142.5 58.5t-142.5 -58.5t-61.5 -145.5t61.5 -145.5t142.5 -58.5t142.5 58.5t61.5 145.5z" />
    <glyph glyph-name="afii10097" unicode="&#x44f;" horiz-adv-x="1022" 
d="M98 110q0 66 50 106l170 140q-92 39 -148 111t-56 161q0 132 101 220t291 88h246q66 0 111 -45.5t45 -110.5v-648q0 -65 -45 -110.5t-111 -45.5q-64 0 -108 45.5t-44 110.5v116l-278 -238q-40 -34 -92 -34q-53 0 -92.5 40t-39.5 94zM600 502v210h-56q-49 0 -85.5 -27.5
t-36.5 -76.5q0 -51 36.5 -78.5t85.5 -27.5h56z" />
    <glyph glyph-name="uni0450" unicode="&#x450;" horiz-adv-x="1160" 
d="M1090 524q1 -7 1 -19q0 -54 -35.5 -86.5t-91.5 -32.5h-562q20 -66 73 -104t137 -38q99 0 172 54q46 34 94 34q61 0 100.5 -39t39.5 -97q0 -67 -60 -114q-133 -106 -350 -106q-239 0 -388.5 138.5t-149.5 353.5q0 137 69 250t187.5 177.5t259.5 64.5q128 0 238.5 -56
t180.5 -156t85 -224zM404 590h384q-20 54 -71.5 88t-120.5 34t-120.5 -34t-71.5 -88zM324 1362q0 42 31 73t71 31q37 0 68 -24l256 -212q38 -31 38 -80q0 -40 -29 -69t-71 -29q-35 0 -66 24l-256 206q-42 35 -42 80z" />
    <glyph glyph-name="afii10071" unicode="&#x451;" horiz-adv-x="1160" 
d="M1090 524q1 -7 1 -19q0 -54 -35.5 -86.5t-91.5 -32.5h-562q20 -66 73 -104t137 -38q99 0 172 54q46 34 94 34q61 0 100.5 -39t39.5 -97q0 -67 -60 -114q-133 -106 -350 -106q-239 0 -388.5 138.5t-149.5 353.5q0 137 69 250t187.5 177.5t259.5 64.5q128 0 238.5 -56
t180.5 -156t85 -224zM404 590h384q-20 54 -71.5 88t-120.5 34t-120.5 -34t-71.5 -88zM238 1258q0 56 39.5 96t96.5 40t96.5 -40t39.5 -96t-39.5 -96t-96.5 -40t-96.5 40t-39.5 96zM638 1258q0 56 39.5 96t96.5 40t96.5 -40t39.5 -96t-39.5 -96t-96.5 -40t-96.5 40t-39.5 96z
" />
    <glyph glyph-name="afii10099" unicode="&#x452;" horiz-adv-x="1166" 
d="M738 -184v724q0 64 -40.5 106t-99.5 42q-56 0 -96 -38t-44 -98v-418q0 -66 -46 -112t-112 -46t-112 46t-46 112v1022h-48q-38 0 -65 27t-27 65t27 65t65 27h48v26q0 66 46 112t112 46t112 -46t46 -112v-26h232q38 0 65 -27t27 -65t-27 -65t-65 -27h-232v-330
q44 58 117.5 96t164.5 38q135 0 224.5 -93.5t89.5 -248.5v-762q0 -202 -93 -311t-269 -109q-150 0 -248 80q-50 40 -50 102q0 54 36.5 91t89.5 37q38 0 68 -18q33 -20 64 -20q86 0 86 108z" />
    <glyph glyph-name="afii10100" unicode="&#x453;" horiz-adv-x="812" 
d="M434 684h220q52 0 89 37t37 89t-37 89t-89 37h-378q-66 0 -112 -46t-46 -112v-644q0 -66 46 -112t112 -46t112 46t46 112v550zM678 1402q0 -45 -42 -80l-256 -206q-31 -24 -66 -24q-42 0 -71 29t-29 69q0 49 38 80l256 212q31 24 68 24q40 0 71 -31t31 -73z" />
    <glyph glyph-name="afii10101" unicode="&#x454;" horiz-adv-x="1030" 
d="M70 468q0 135 69 248.5t186.5 178.5t254.5 65q92 0 182 -31t158 -85q52 -42 52 -104q0 -53 -39.5 -91.5t-92.5 -38.5q-45 0 -98 40q-68 52 -156 52q-72 0 -124.5 -31.5t-79.5 -90.5h258q46 0 79 -33t33 -79t-33 -79t-79 -33h-258q27 -59 79.5 -90.5t124.5 -31.5
q88 0 156 52q53 40 98 40q53 0 92.5 -38.5t39.5 -91.5q0 -62 -52 -104q-68 -54 -158 -85t-182 -31q-137 0 -254.5 65t-186.5 178.5t-69 248.5z" />
    <glyph glyph-name="afii10102" unicode="&#x455;" horiz-adv-x="824" 
d="M96 74q-50 37 -50 94q0 50 33.5 85t82.5 35q40 0 78 -28q57 -44 116 -44q39 0 62.5 18.5t23.5 49.5q0 36 -20 59.5t-78 48.5q-240 101 -240 298q0 119 88 194.5t230 75.5q134 0 244 -70q52 -35 52 -96q0 -51 -32 -82.5t-80 -31.5q-28 0 -60 20q-33 20 -66 20
q-60 0 -60 -40q0 -22 22 -40t90 -48q226 -100 226 -304q0 -136 -92 -224t-258 -88q-188 0 -312 98z" />
    <glyph glyph-name="afii10103" unicode="&#x456;" horiz-adv-x="576" 
d="M104 1294q0 75 54 128.5t130 53.5t130 -53.5t54 -128.5t-54 -128.5t-130 -53.5t-130 53.5t-54 128.5zM130 134v668q0 66 46 112t112 46t112 -46t46 -112v-668q0 -66 -46 -112t-112 -46t-112 46t-46 112z" />
    <glyph glyph-name="afii10104" unicode="&#x457;" horiz-adv-x="576" 
d="M130 134v668q0 66 46 112t112 46t112 -46t46 -112v-668q0 -66 -46 -112t-112 -46t-112 46t-46 112zM-48 1258q0 56 39.5 96t96.5 40t96.5 -40t39.5 -96t-39.5 -96t-96.5 -40t-96.5 40t-39.5 96zM352 1258q0 56 39.5 96t96.5 40t96.5 -40t39.5 -96t-39.5 -96t-96.5 -40
t-96.5 40t-39.5 96z" />
    <glyph glyph-name="afii10105" unicode="&#x458;" horiz-adv-x="614" 
d="M-274 -348q0 61 38.5 100.5t97.5 39.5q55 0 98 -40q51 -44 102 -44q116 0 116 162v932q0 66 46 112t112 46t112 -46t46 -112v-936q0 -203 -110 -316.5t-306 -113.5q-187 0 -306 116q-46 46 -46 100zM152 1294q0 75 54 128.5t130 53.5t130 -53.5t54 -128.5t-54 -128.5
t-130 -53.5t-130 53.5t-54 128.5z" />
    <glyph glyph-name="afii10106" unicode="&#x459;" horiz-adv-x="1582" 
d="M1042 232h74q57 0 89.5 29t32.5 77q0 50 -32.5 79t-89.5 29h-74v-214zM372 936h512q66 0 112 -46t46 -112v-100h98q187 0 296.5 -95.5t109.5 -244.5q0 -147 -113 -242.5t-293 -95.5h-256q-66 0 -112 46t-46 112v530h-194l-22 -228q-11 -109 -47 -218.5t-91 -187.5
q-54 -78 -138 -78q-66 0 -112 46t-46 112q0 44 26 88q75 127 86 254l26 310q6 67 49.5 108.5t108.5 41.5z" />
    <glyph glyph-name="afii10107" unicode="&#x45a;" horiz-adv-x="1546" 
d="M434 372v-238q0 -66 -46 -112t-112 -46t-112 46t-46 112v668q0 66 46 112t112 46t112 -46t46 -112v-178h256v178q0 66 46 112t112 46t112 -46t46 -112v-124h98q187 0 296.5 -95.5t109.5 -244.5q0 -147 -113 -242.5t-293 -95.5h-256q-66 0 -112 46t-46 112v214h-256z
M1006 232h74q57 0 89.5 29t32.5 77q0 50 -32.5 79t-89.5 29h-74v-214z" />
    <glyph glyph-name="afii10108" unicode="&#x45b;" horiz-adv-x="1166" 
d="M690 1156h-232v-330q44 58 117.5 96t164.5 38q135 0 224.5 -93.5t89.5 -248.5v-484q0 -66 -46 -112t-112 -46t-112 46t-46 112v406q0 64 -40.5 106t-99.5 42q-56 0 -96 -38t-44 -98v-418q0 -66 -46 -112t-112 -46t-112 46t-46 112v1022h-48q-38 0 -65 27t-27 65t27 65
t65 27h48v26q0 66 46 112t112 46t112 -46t46 -112v-26h232q38 0 65 -27t27 -65t-27 -65t-65 -27z" />
    <glyph glyph-name="afii10109" unicode="&#x45c;" horiz-adv-x="1162" 
d="M118 134v668q0 66 46 112t112 46t112 -46t46 -112v-224l364 338q47 44 104 44q60 0 101 -41t41 -101q0 -57 -38 -98l-248 -228l278 -274q40 -40 40 -100t-41 -101t-101 -41q-64 0 -110 46l-390 384v-272q0 -66 -46 -112t-112 -46t-112 46t-46 112zM816 1402
q0 -45 -42 -80l-256 -206q-31 -24 -66 -24q-42 0 -71 29t-29 69q0 49 38 80l256 212q31 24 68 24q40 0 71 -31t31 -73z" />
    <glyph glyph-name="uni045D" unicode="&#x45d;" horiz-adv-x="1172" 
d="M748 452l-470 -450q-26 -26 -66 -26t-67 27t-27 67v736q0 65 44 109.5t108 44.5t109 -45t45 -109v-322l470 450q26 26 66 26t67 -27t27 -67v-736q0 -64 -45 -109t-109 -45t-108 44.5t-44 109.5v322zM354 1402q0 42 31 73t71 31q37 0 68 -24l256 -212q38 -31 38 -80
q0 -40 -29 -69t-71 -29q-35 0 -66 24l-256 206q-42 35 -42 80z" />
    <glyph glyph-name="afii10110" unicode="&#x45e;" horiz-adv-x="1086" 
d="M990 750l-458 -1238q-17 -44 -57.5 -72t-90.5 -28q-63 0 -108.5 46t-45.5 106q0 28 16 68l152 396l-302 722q-12 27 -12 62q0 63 43.5 105.5t106.5 42.5q54 0 92 -27.5t54 -72.5l164 -456l154 450q16 49 55 77.5t97 28.5q63 0 107.5 -42.5t44.5 -105.5q0 -26 -12 -62z
M540 1114q-94 0 -171 48.5t-113 133.5q-12 32 -12 58q0 42 27 71t69 29q75 0 110 -76q28 -62 90 -62t90 62q33 76 110 76q42 0 69 -29t27 -71q0 -26 -12 -58q-36 -85 -113 -133.5t-171 -48.5z" />
    <glyph glyph-name="afii10193" unicode="&#x45f;" horiz-adv-x="1140" 
d="M864 0h-136v-78q0 -66 -46 -112t-112 -46t-112 46t-46 112v78h-136q-66 0 -112 46t-46 112v644q0 66 46 112t112 46t112 -46t46 -112v-550h272v550q0 66 46 112t112 46t112 -46t46 -112v-644q0 -66 -46 -112t-112 -46z" />
    <glyph glyph-name="afii10050" unicode="&#x490;" horiz-adv-x="946" 
d="M896 1526v-276q0 -62 -44 -106t-106 -44h-266v-950q0 -72 -51 -123t-123 -51t-123 51t-51 123v1100q0 62 44 106t106 44h276v126q0 70 49.5 120t118.5 50q70 0 120 -50t50 -120z" />
    <glyph glyph-name="afii10098" unicode="&#x491;" horiz-adv-x="812" 
d="M460 936v108q0 62 43 105t105 43t105 -43t43 -105v-234q0 -52 -37 -89t-89 -37h-196v-550q0 -66 -46 -112t-112 -46t-112 46t-46 112v644q0 66 46 112t112 46h184z" />
    <glyph glyph-name="Wgrave" unicode="&#x1e80;" horiz-adv-x="2040" 
d="M1020 1424q88 0 122 -92l252 -686l240 658q21 58 63.5 89t98.5 31q70 0 122 -46.5t52 -119.5q0 -42 -16 -82l-428 -1112q-35 -88 -122 -88q-43 0 -75 23t-47 65l-262 720l-262 -720q-15 -42 -47 -65t-75 -23q-87 0 -122 88l-428 1112q-16 40 -16 82q0 73 52 119.5
t122 46.5q56 0 98.5 -31t63.5 -89l240 -658l252 686q34 92 122 92zM696 1810q0 42 31 73t71 31q37 0 68 -24l256 -212q38 -31 38 -80q0 -40 -29 -69t-71 -29q-35 0 -66 24l-256 206q-42 35 -42 80z" />
    <glyph glyph-name="wgrave" unicode="&#x1e81;" horiz-adv-x="1596" 
d="M798 960q79 0 112 -76l176 -406l134 366q19 52 57 84t89 32q64 0 108 -40.5t44 -101.5q0 -45 -16 -82l-304 -686q-15 -34 -44 -54t-66 -20q-81 0 -112 74l-178 432l-178 -432q-31 -74 -112 -74q-37 0 -66 20t-44 54l-304 686q-16 37 -16 82q0 61 44 101.5t108 40.5
q51 0 89 -32t57 -84l134 -366l176 406q33 76 112 76zM474 1362q0 42 31 73t71 31q37 0 68 -24l256 -212q38 -31 38 -80q0 -40 -29 -69t-71 -29q-35 0 -66 24l-256 206q-42 35 -42 80z" />
    <glyph glyph-name="Wacute" unicode="&#x1e82;" horiz-adv-x="2040" 
d="M1020 1424q88 0 122 -92l252 -686l240 658q21 58 63.5 89t98.5 31q70 0 122 -46.5t52 -119.5q0 -42 -16 -82l-428 -1112q-35 -88 -122 -88q-43 0 -75 23t-47 65l-262 720l-262 -720q-15 -42 -47 -65t-75 -23q-87 0 -122 88l-428 1112q-16 40 -16 82q0 73 52 119.5
t122 46.5q56 0 98.5 -31t63.5 -89l240 -658l252 686q34 92 122 92zM1344 1810q0 -45 -42 -80l-256 -206q-31 -24 -66 -24q-42 0 -71 29t-29 69q0 49 38 80l256 212q31 24 68 24q40 0 71 -31t31 -73z" />
    <glyph glyph-name="wacute" unicode="&#x1e83;" horiz-adv-x="1596" 
d="M798 960q79 0 112 -76l176 -406l134 366q19 52 57 84t89 32q64 0 108 -40.5t44 -101.5q0 -45 -16 -82l-304 -686q-15 -34 -44 -54t-66 -20q-81 0 -112 74l-178 432l-178 -432q-31 -74 -112 -74q-37 0 -66 20t-44 54l-304 686q-16 37 -16 82q0 61 44 101.5t108 40.5
q51 0 89 -32t57 -84l134 -366l176 406q33 76 112 76zM1122 1362q0 -45 -42 -80l-256 -206q-31 -24 -66 -24q-42 0 -71 29t-29 69q0 49 38 80l256 212q31 24 68 24q40 0 71 -31t31 -73z" />
    <glyph glyph-name="Wdieresis" unicode="&#x1e84;" horiz-adv-x="2040" 
d="M1020 1424q88 0 122 -92l252 -686l240 658q21 58 63.5 89t98.5 31q70 0 122 -46.5t52 -119.5q0 -42 -16 -82l-428 -1112q-35 -88 -122 -88q-43 0 -75 23t-47 65l-262 720l-262 -720q-15 -42 -47 -65t-75 -23q-87 0 -122 88l-428 1112q-16 40 -16 82q0 73 52 119.5
t122 46.5q56 0 98.5 -31t63.5 -89l240 -658l252 686q34 92 122 92zM684 1706q0 56 39.5 96t96.5 40t96.5 -40t39.5 -96t-39.5 -96t-96.5 -40t-96.5 40t-39.5 96zM1084 1706q0 56 39.5 96t96.5 40t96.5 -40t39.5 -96t-39.5 -96t-96.5 -40t-96.5 40t-39.5 96z" />
    <glyph glyph-name="wdieresis" unicode="&#x1e85;" horiz-adv-x="1596" 
d="M798 960q79 0 112 -76l176 -406l134 366q19 52 57 84t89 32q64 0 108 -40.5t44 -101.5q0 -45 -16 -82l-304 -686q-15 -34 -44 -54t-66 -20q-81 0 -112 74l-178 432l-178 -432q-31 -74 -112 -74q-37 0 -66 20t-44 54l-304 686q-16 37 -16 82q0 61 44 101.5t108 40.5
q51 0 89 -32t57 -84l134 -366l176 406q33 76 112 76zM462 1258q0 56 39.5 96t96.5 40t96.5 -40t39.5 -96t-39.5 -96t-96.5 -40t-96.5 40t-39.5 96zM862 1258q0 56 39.5 96t96.5 40t96.5 -40t39.5 -96t-39.5 -96t-96.5 -40t-96.5 40t-39.5 96z" />
    <glyph glyph-name="uni1E9E" unicode="&#x1e9e;" horiz-adv-x="1284" 
d="M522 136q0 65 40.5 107.5t101.5 42.5h42q74 0 118 34t44 96q0 127 -180 160q-55 11 -91.5 54.5t-36.5 99.5q0 51 29 91.5t77 58.5q72 29 72 116q0 52 -35.5 85t-94.5 33q-63 0 -102.5 -47t-39.5 -123v-794q0 -72 -51 -123t-123 -51t-123 51t-51 123v830q0 201 133 322.5
t355 121.5q213 0 342.5 -104.5t129.5 -263.5q0 -94 -52 -171t-138 -113q147 -36 236.5 -135.5t89.5 -254.5q0 -180 -121 -293t-323 -113q-74 0 -140 18q-47 14 -77.5 53t-30.5 89z" />
    <glyph glyph-name="Ygrave" unicode="&#x1ef2;" horiz-adv-x="1360" 
d="M680 -24q-72 0 -123 51t-51 123v392l-408 628q-26 39 -26 94q0 62 49 111t115 49q97 0 156 -96l288 -464l288 464q59 96 156 96q66 0 115 -49t49 -111q0 -55 -26 -94l-408 -628v-392q0 -72 -51 -123t-123 -51zM368 1810q0 42 31 73t71 31q37 0 68 -24l256 -212
q38 -31 38 -80q0 -40 -29 -69t-71 -29q-35 0 -66 24l-256 206q-42 35 -42 80z" />
    <glyph glyph-name="ygrave" unicode="&#x1ef3;" horiz-adv-x="1086" 
d="M990 750l-458 -1238q-17 -44 -57.5 -72t-90.5 -28q-63 0 -108.5 46t-45.5 106q0 28 16 68l152 396l-302 722q-12 27 -12 62q0 63 43.5 105.5t106.5 42.5q54 0 92 -27.5t54 -72.5l164 -456l154 450q16 49 55 77.5t97 28.5q63 0 107.5 -42.5t44.5 -105.5q0 -26 -12 -62z
M292 1362q0 42 31 73t71 31q37 0 68 -24l256 -212q38 -31 38 -80q0 -40 -29 -69t-71 -29q-35 0 -66 24l-256 206q-42 35 -42 80z" />
    <glyph glyph-name="thinspace" unicode="&#x2009;" horiz-adv-x="0" 
 />
    <glyph glyph-name="figuredash" unicode="&#x2012;" horiz-adv-x="1260" 
d="M1026 534h-792q-54 0 -92 38t-38 92t38 92t92 38h792q54 0 92 -38t38 -92t-38 -92t-92 -38z" />
    <glyph glyph-name="endash" unicode="&#x2013;" horiz-adv-x="1000" 
d="M894 534h-788q-54 0 -92 38t-38 92t38 92t92 38h788q54 0 92 -38t38 -92t-38 -92t-92 -38z" />
    <glyph glyph-name="emdash" unicode="&#x2014;" horiz-adv-x="2000" 
d="M1894 534h-1788q-54 0 -92 38t-38 92t38 92t92 38h1788q54 0 92 -38t38 -92t-38 -92t-92 -38z" />
    <glyph glyph-name="uni2015" unicode="&#x2015;" horiz-adv-x="2000" 
d="M1694 534h-1388q-54 0 -92 38t-38 92t38 92t92 38h1388q54 0 92 -38t38 -92t-38 -92t-92 -38z" />
    <glyph glyph-name="quoteleft" unicode="&#x2018;" horiz-adv-x="628" 
d="M570 1454q0 -18 -6 -42l-94 -394q-11 -48 -54.5 -81t-95.5 -33q-64 0 -110 45.5t-46 108.5q0 31 8 52l148 388q15 38 45 60t71 22q54 0 94 -35t40 -91z" />
    <glyph glyph-name="quoteright" unicode="&#x2019;" horiz-adv-x="628" 
d="M78 1060q0 18 6 42l94 394q11 48 54.5 81t95.5 33q64 0 110 -45.5t46 -108.5q0 -31 -8 -52l-148 -388q-15 -38 -45 -60t-71 -22q-54 0 -94 35t-40 91z" />
    <glyph glyph-name="quotesinglbase" unicode="&#x201a;" horiz-adv-x="628" 
d="M78 -190q0 18 6 42l94 394q11 48 54.5 81t95.5 33q64 0 110 -45.5t46 -108.5q0 -31 -8 -52l-148 -388q-15 -38 -45 -60t-71 -22q-54 0 -94 35t-40 91z" />
    <glyph glyph-name="quotedblleft" unicode="&#x201c;" horiz-adv-x="1120" 
d="M1062 1454q0 -18 -6 -42l-94 -394q-11 -48 -54.5 -81t-95.5 -33q-64 0 -110 45.5t-46 108.5q0 31 8 52l148 388q15 38 45 60t71 22q54 0 94 -35t40 -91zM570 1454q0 -18 -6 -42l-94 -394q-11 -48 -54.5 -81t-95.5 -33q-64 0 -110 45.5t-46 108.5q0 31 8 52l148 388
q15 38 45 60t71 22q54 0 94 -35t40 -91z" />
    <glyph glyph-name="quotedblright" unicode="&#x201d;" horiz-adv-x="1120" 
d="M570 1062q0 18 6 42l94 394q11 48 54.5 81t95.5 33q64 0 110 -45.5t46 -108.5q0 -31 -8 -52l-148 -388q-15 -38 -45 -60t-71 -22q-54 0 -94 35t-40 91zM78 1062q0 18 6 42l94 394q11 48 54.5 81t95.5 33q64 0 110 -45.5t46 -108.5q0 -31 -8 -52l-148 -388
q-15 -38 -45 -60t-71 -22q-54 0 -94 35t-40 91z" />
    <glyph glyph-name="quotedblbase" unicode="&#x201e;" horiz-adv-x="1120" 
d="M78 -190q0 18 6 42l94 394q11 48 54.5 81t95.5 33q64 0 110 -45.5t46 -108.5q0 -31 -8 -52l-148 -388q-15 -38 -45 -60t-71 -22q-54 0 -94 35t-40 91zM570 -190q0 18 6 42l94 394q11 48 54.5 81t95.5 33q64 0 110 -45.5t46 -108.5q0 -31 -8 -52l-148 -388
q-15 -38 -45 -60t-71 -22q-54 0 -94 35t-40 91z" />
    <glyph glyph-name="dagger" unicode="&#x2020;" horiz-adv-x="1196" 
d="M452 -140v1068h-228q-48 0 -82 34t-34 82t34 82t82 34h228v214q0 60 43 103t103 43t103 -43t43 -103v-214h228q48 0 82 -34t34 -82t-34 -82t-82 -34h-228v-1068q0 -60 -43 -103t-103 -43t-103 43t-43 103z" />
    <glyph glyph-name="daggerdbl" unicode="&#x2021;" horiz-adv-x="1196" 
d="M972 74h-228v-214q0 -60 -43 -103t-103 -43t-103 43t-43 103v214h-228q-48 0 -82 34t-34 82t34 82t82 34h228v622h-228q-48 0 -82 34t-34 82t34 82t82 34h228v214q0 60 43 103t103 43t103 -43t43 -103v-214h228q48 0 82 -34t34 -82t-34 -82t-82 -34h-228v-622h228
q48 0 82 -34t34 -82t-34 -82t-82 -34z" />
    <glyph glyph-name="bullet" unicode="&#x2022;" horiz-adv-x="932" 
d="M166 664q0 123 88.5 211.5t211.5 88.5t211.5 -88.5t88.5 -211.5t-88.5 -211.5t-211.5 -88.5t-211.5 88.5t-88.5 211.5z" />
    <glyph glyph-name="onedotenleader" unicode="&#x2024;" horiz-adv-x="628" 
d="M124 168q0 79 56 135.5t134 56.5t134 -56.5t56 -135.5t-56 -135.5t-134 -56.5t-134 56.5t-56 135.5z" />
    <glyph glyph-name="twodotenleader" unicode="&#x2025;" horiz-adv-x="1256" 
d="M124 168q0 79 56 135.5t134 56.5t134 -56.5t56 -135.5t-56 -135.5t-134 -56.5t-134 56.5t-56 135.5zM752 168q0 79 56 135.5t134 56.5t134 -56.5t56 -135.5t-56 -135.5t-134 -56.5t-134 56.5t-56 135.5z" />
    <glyph glyph-name="ellipsis" unicode="&#x2026;" horiz-adv-x="1884" 
d="M124 168q0 79 56 135.5t134 56.5t134 -56.5t56 -135.5t-56 -135.5t-134 -56.5t-134 56.5t-56 135.5zM752 168q0 79 56 135.5t134 56.5t134 -56.5t56 -135.5t-56 -135.5t-134 -56.5t-134 56.5t-56 135.5zM1380 168q0 79 56 135.5t134 56.5t134 -56.5t56 -135.5t-56 -135.5
t-134 -56.5t-134 56.5t-56 135.5z" />
    <glyph glyph-name="perthousand" unicode="&#x2030;" horiz-adv-x="2654" 
d="M804 1086q0 -142 -101.5 -240t-242.5 -98t-242.5 98t-101.5 240t101.5 240t242.5 98t242.5 -98t101.5 -240zM1078 314q0 142 101.5 240t242.5 98t242.5 -98t101.5 -240t-101.5 -240t-242.5 -98t-242.5 98t-101.5 240zM1310 314q0 -46 32.5 -79t79.5 -33t79.5 33t32.5 79
t-32.5 79t-79.5 33t-79.5 -33t-32.5 -79zM572 1086q0 46 -32.5 79t-79.5 33t-79.5 -33t-32.5 -79t32.5 -79t79.5 -33t79.5 33t32.5 79zM410 128l894 1254q29 42 80 42q39 0 70.5 -29.5t31.5 -70.5q0 -30 -16 -52l-894 -1254q-29 -42 -80 -42q-39 0 -70.5 29.5t-31.5 70.5
q0 30 16 52zM1850 314q0 142 101.5 240t242.5 98t242.5 -98t101.5 -240t-101.5 -240t-242.5 -98t-242.5 98t-101.5 240zM2082 314q0 -46 32.5 -79t79.5 -33t79.5 33t32.5 79t-32.5 79t-79.5 33t-79.5 -33t-32.5 -79z" />
    <glyph glyph-name="uni2031" unicode="&#x2031;" horiz-adv-x="3426" 
d="M804 1086q0 -142 -101.5 -240t-242.5 -98t-242.5 98t-101.5 240t101.5 240t242.5 98t242.5 -98t101.5 -240zM1078 314q0 142 101.5 240t242.5 98t242.5 -98t101.5 -240t-101.5 -240t-242.5 -98t-242.5 98t-101.5 240zM1310 314q0 -46 32.5 -79t79.5 -33t79.5 33t32.5 79
t-32.5 79t-79.5 33t-79.5 -33t-32.5 -79zM572 1086q0 46 -32.5 79t-79.5 33t-79.5 -33t-32.5 -79t32.5 -79t79.5 -33t79.5 33t32.5 79zM410 128l894 1254q29 42 80 42q39 0 70.5 -29.5t31.5 -70.5q0 -30 -16 -52l-894 -1254q-29 -42 -80 -42q-39 0 -70.5 29.5t-31.5 70.5
q0 30 16 52zM1850 314q0 142 101.5 240t242.5 98t242.5 -98t101.5 -240t-101.5 -240t-242.5 -98t-242.5 98t-101.5 240zM2082 314q0 -46 32.5 -79t79.5 -33t79.5 33t32.5 79t-32.5 79t-79.5 33t-79.5 -33t-32.5 -79zM2622 314q0 142 101.5 240t242.5 98t242.5 -98
t101.5 -240t-101.5 -240t-242.5 -98t-242.5 98t-101.5 240zM2854 314q0 -46 32.5 -79t79.5 -33t79.5 33t32.5 79t-32.5 79t-79.5 33t-79.5 -33t-32.5 -79z" />
    <glyph glyph-name="guilsinglleft" unicode="&#x2039;" horiz-adv-x="710" 
d="M52 624q0 28 32 50l390 278q24 18 60 18q40 0 70 -30t30 -70q0 -53 -42 -82l-238 -164l238 -164q42 -29 42 -82q0 -40 -30 -70t-70 -30q-36 0 -60 18l-390 278q-32 22 -32 50z" />
    <glyph glyph-name="guilsinglright" unicode="&#x203a;" horiz-adv-x="710" 
d="M658 624q0 -28 -32 -50l-390 -278q-24 -18 -60 -18q-40 0 -70 30t-30 70q0 53 42 82l238 164l-238 164q-42 29 -42 82q0 40 30 70t70 30q36 0 60 -18l390 -278q32 -22 32 -50z" />
    <glyph glyph-name="uni203E" unicode="&#x203e;" horiz-adv-x="1000" 
d="M-24 1298q0 40 29 69t69 29h852q40 0 69 -29t29 -69t-29 -69t-69 -29h-852q-40 0 -69 29t-29 69z" />
    <glyph glyph-name="fraction" unicode="&#x2044;" horiz-adv-x="838" 
d="M2 102l676 1262q32 60 80 60q34 0 62 -24t28 -58q0 -20 -12 -44l-676 -1262q-32 -60 -80 -60q-34 0 -62 24t-28 58q0 20 12 44z" />
    <glyph glyph-name="zerosuperior" unicode="&#x2070;" 
d="M744 942q0 -216 -89 -349t-247 -133t-247 133t-89 349t89 349t247 133t247 -133t89 -349zM504 942q0 144 -22 208t-74 64t-74 -64t-22 -208t22 -208t74 -64t74 64t22 208z" />
    <glyph glyph-name="uni2071" unicode="&#x2071;" 
d="M268 1284q0 57 41.5 98.5t98.5 41.5t98.5 -41.5t41.5 -98.5t-41.5 -98.5t-98.5 -41.5t-98.5 41.5t-41.5 98.5zM288 590v368q0 50 35 85t85 35t85 -35t35 -85v-368q0 -50 -35 -85t-85 -35t-85 35t-35 85z" />
    <glyph glyph-name="foursuperior" unicode="&#x2074;" 
d="M30 706q0 24 12 42l430 618q35 50 88 50q44 0 73 -29t29 -73v-482h12q40 0 69 -29t29 -69t-29 -69t-69 -29h-12v-56q0 -45 -32.5 -77.5t-77.5 -32.5t-77.5 32.5t-32.5 77.5v56h-342q-30 0 -50 20t-20 50zM290 832h152v222z" />
    <glyph glyph-name="fivesuperior" unicode="&#x2075;" 
d="M70 664q0 43 31 73.5t75 30.5q42 0 86 -48q46 -50 104 -50q48 0 82 33.5t34 86.5q0 54 -36.5 87t-87.5 33t-100 -26q-24 -12 -46 -12q-27 0 -46 17.5t-19 47.5q0 10 1 15l52 348q6 44 32.5 72t67.5 28h312q42 0 71 -29t29 -71t-29 -71t-71 -29h-186l-20 -120
q136 0 226 -82t90 -224q0 -132 -90 -223t-246 -91q-85 0 -161 34.5t-129 101.5q-26 33 -26 68z" />
    <glyph glyph-name="sixsuperior" unicode="&#x2076;" 
d="M752 784q0 -141 -98 -232.5t-238 -91.5q-146 0 -246 94t-100 238q0 99 48 174l260 408q32 50 94 50q47 0 82.5 -33.5t35.5 -80.5q0 -29 -26 -72l-98 -158q113 -10 199.5 -89.5t86.5 -206.5zM300 784q0 -48 32.5 -80t79.5 -32t79.5 32t32.5 80t-32.5 80t-79.5 32
t-79.5 -32t-32.5 -80z" />
    <glyph glyph-name="sevensuperior" unicode="&#x2077;" 
d="M206 576q0 27 8 46l232 568h-262q-44 0 -74 30t-30 74t30.5 75t73.5 31h486q35 0 57.5 -20.5t22.5 -51.5q0 -18 -8 -38l-306 -758q-13 -33 -43.5 -52.5t-68.5 -19.5q-49 0 -83.5 34t-34.5 82z" />
    </font>
</defs>
</svg>
